<?xml version="1.0" encoding="utf-8"?>
<!-- Generator: Adobe Illustrator 21.1.0, SVG Export Plug-In . SVG Version: 6.00 Build 0)  -->
<svg version="1.1" id="Layer_1" xmlns="http://www.w3.org/2000/svg" xmlns:xlink="http://www.w3.org/1999/xlink" x="0px" y="0px"
	 viewBox="0 0 750 278.8" style="enable-background:new 0 0 750 278.8;" xml:space="preserve">
<style type="text/css">
	.st0{fill:none;}
	.st1{fill:#6E9207;}
	.st2{fill:#82BA00;}
	.st3{fill:#95F2F4;}
	.st4{fill:#FFFFFF;}
	.st5{fill:#FF9B40;}
	.st6{fill:#F97046;}
	.st7{fill:#FF9750;}
	.st8{fill:#FFB05A;}
	.st9{fill:#FF9C39;}
	.st10{fill:#FFE66C;}
	.st11{opacity:0.41;}
	.st12{clip-path:url(#SVGID_2_);}
	.st13{fill:#668806;}
	.st14{fill:#FAAF3B;}
	.st15{fill:#754941;}
	.st16{fill:#AFBF4B;}
	.st17{fill:#8D9E2D;}
	.st18{fill:#8C503B;}
	.st19{opacity:0.51;fill:#E7FFFD;enable-background:new    ;}
</style>
<g id="Groupe_2238" transform="translate(461.075 393.112)">
	<path id="Tracé_5368" class="st0" d="M-285.9-167c5.7-7.3,10.9-14.9,15.5-22.9h-15.5V-167z"/>
	<path id="Tracé_5369" class="st0" d="M-333.7-233.7v-79.6l-64.5,79.6L-333.7-233.7z"/>
	<path id="Tracé_5370" class="st1" d="M-330.1-125.3c0.9,1.5,2,2.8,3.2,4c4.3,4.6,10.4,7.1,16.7,7c13.1,0.3,24-10.2,24.3-23.3
		c0-0.3,0-0.7,0-1V-167C-298.4-151-313.3-136.9-330.1-125.3z"/>
	<path id="Tracé_5371" class="st1" d="M-253.4-227.6c-4.3,13.1-10,25.7-17,37.6h1.2c5.9,0.2,11.7-2,15.9-6.2
		c4.2-4,6.5-9.5,6.4-15.3c0.2-6-2.1-11.7-6.4-15.9C-253.3-227.4-253.4-227.5-253.4-227.6z"/>
	<path id="Tracé_5372" class="st2" d="M-269.2-233.7h-16.7v-135c0.2-6.5-2.3-12.7-6.8-17.3c-4.3-4.6-10.4-7.1-16.7-7
		c-7.8-0.2-15.2,3.3-19.9,9.6l-125.8,154.1c-3.8,4.4-6,10.1-6,15.9c0,6.4,2.5,11.9,7.6,16.5s10.5,7,16.3,7h103.5v51.4
		c-0.1,4.7,1.2,9.3,3.6,13.3c16.7-11.6,31.6-25.7,44.2-41.7V-190h15.5c6.9-11.9,12.6-24.5,17-37.6
		C-257.6-231.7-263.3-233.9-269.2-233.7z M-333.7-233.7h-64.5l64.5-79.6V-233.7z"/>
</g>
<g id="Groupe_2239" transform="translate(996.883 393.112)">
	<path id="Tracé_5373" class="st0" d="M-285.9-167c5.7-7.3,10.9-14.9,15.5-22.9h-15.5V-167z"/>
	<path id="Tracé_5374" class="st0" d="M-333.7-233.7v-79.6l-64.5,79.6L-333.7-233.7z"/>
	<path id="Tracé_5375" class="st1" d="M-330.1-125.3c0.9,1.5,2,2.8,3.2,4c4.3,4.6,10.4,7.1,16.7,7c13.1,0.3,24-10.2,24.3-23.3
		c0-0.3,0-0.7,0-1V-167C-298.4-151-313.3-136.9-330.1-125.3z"/>
	<path id="Tracé_5376" class="st1" d="M-253.4-227.6c-4.3,13.1-10,25.7-17,37.6h1.2c5.9,0.2,11.7-2,15.9-6.2
		c4.2-4,6.5-9.5,6.4-15.3c0.2-6-2.1-11.7-6.4-15.9C-253.3-227.4-253.4-227.5-253.4-227.6z"/>
	<path id="Tracé_5377" class="st2" d="M-269.2-233.7h-16.7v-135c0.2-6.5-2.3-12.7-6.8-17.3c-4.3-4.6-10.4-7.1-16.7-7
		c-7.8-0.2-15.2,3.3-19.9,9.6l-125.8,154.1c-3.8,4.4-6,10.1-6,15.9c0,6.4,2.5,11.9,7.6,16.5s10.5,7,16.3,7h103.5v51.4
		c-0.1,4.7,1.2,9.3,3.6,13.3c16.7-11.6,31.6-25.7,44.2-41.7V-190h15.5c6.9-11.9,12.6-24.5,17-37.6
		C-257.6-231.7-263.3-233.9-269.2-233.7z M-333.7-233.7h-64.5l64.5-79.6V-233.7z"/>
</g>
<g id="illustration" transform="translate(681.819 393)">
	<circle id="Ellipse_31" class="st3" cx="-306.9" cy="-253.6" r="139.4"/>
	<path id="Tracé_5017" class="st2" d="M-446-246.7c3.6,76.6,68.6,135.8,145.3,132.2c71.6-3.4,128.9-60.6,132.2-132.2H-446z"/>
	<path id="Tracé_5018" class="st1" d="M-251.9-246.7c8.8,58.1-31.2,112.4-89.3,121.2c-5.2,0.8-10.5,1.2-15.8,1.2h-1.9
		c71.3,28.5,152.2-6.2,180.7-77.5c5.7-14.3,9-29.5,9.8-44.9H-251.9z"/>
	<path id="Tracé_5019" class="st4" d="M-301.2-186.2c0.9,4.7,2.9,11.2,0,12.2s-10.3,2.9-8.5,5.6s-0.9,11.2-3.8,12.2
		s-5.6,0.9-4.7,1.8s4.7,2.9,1.8,3.8s-5.6-0.8-4.4,1.1s0.9,3-0.7,3s-1.8,7.8,2.5,9.4s-3.2,5.3,2.7,12.3s-8.8,0.6-11.2-5.4
		s0.8-12.6-3.3-14.9s-4.5-8.6-4.7-12.7s1.7-12.9-6-16.6c-7-3.6-13.6-8-19.7-13.1c-2.7-2.4-0.5-4.8,2.2-7.8s-3.4-6.2-2.2-8.1
		s6.3-4.7,1.8-5.1s-2.7,1.6-13.8-3.1s-1.4-4.2-9.4-3.5s-18.6-0.9-19.9-5.2s-0.8-6.3-8.1-9s10.6,10,6.6,11.2s-10.9-10.9-20.6-15.2
		c-7.3-3.3-5.3-9.9-7.5-13.8h70.3c2.3,4.9,4.9,9.3-3.4,10.8c-15,2.9-31.9,4.7-25.3,11.2s19.7-2.9,18.8,2.9s3.8,12.2,15.9,11.2
		s22.6,3.8,29.1,6.5s-0.9,7.6,7.6,5.6s21.6,0.9,21.6,2.9s-4.7,4.7-3.8,9.4"/>
	<path id="Tracé_5020" class="st4" d="M-184.3-246.7c-0.8,2.3-4.5,5.8-11.8,10.8c-13.8,9.4,4.7,12.9-1.8,15.6s0,6.5-1.2,15
		s-20,30-28.2,30s-2.6-13.8-7.2-21.9s-4.1-11.5-2.6-16.9s-10.3-8.2-8.8-15.6s-25,4.1-35.4,1.2s-0.4-9.3-4.9-18.3L-184.3-246.7z"/>
	<path id="Tracé_5021" class="st5" d="M-156.8-258.8H-455c-3.4,0.4-5.7,3.5-5.3,6.9c0.4,2.8,2.5,4.9,5.3,5.3h298.2
		c3.4-0.4,5.7-3.5,5.3-6.9C-151.9-256.3-154.1-258.5-156.8-258.8"/>
	<g id="Groupe_2241" transform="translate(14.73 104.905)">
		<path id="Tracé_5378" class="st6" d="M-323.1-363l5.4-6.3l6-0.9l2,2.3l4-0.6l1.7-6l13.4,0.6l1.1,2.9l2.3-0.6l5.7-1.7l14.6,1.4
			l7.2,9.7L-323.1-363z"/>
		<path id="Tracé_5379" class="st7" d="M-323.1-363l5.4-6.4l4-0.6l1.9,5.3l7.2-2.2l0.5-7.7l11.3,0.5l3.1,9.1l2.5-6.7l4.5,2.5l3.5-4
			l12.3,1.2l7.2,9.8L-323.1-363z"/>
		<path id="Tracé_5380" class="st6" d="M-461.1-360.4l2-2.3l4-0.2l2,1l2-0.2l1.7-2.6l3.4-1.2l16-2.5l24.9,1.7l3.1,1.3l2,2.5l2-0.2
			l2,0.7h2.6l6.9-9.8l0.6-19.3l5.7-1.5l10.3,0.7l0.3,1.8l4.3,0.5l2,3l8,0.8l4,0.2l5.4,2.1l0.3,2.6h2.9l3.4-7.4l2.3,0.3l3.7,2.8
			l1.1,5.1l3.7,0.7l2.3-2.6l2.6,0.7l0.9,1.3l2.3-0.7l1.7,0.3v1.8l2.6-0.2l7.4,10.6l2,8.4L-461.1-360.4z"/>
		<path id="Tracé_5381" class="st7" d="M-461.1-360.4l2-2.3l4-0.2l1.3,2.3l4.2-0.1l3.8-1.5l14.9-0.1l1-6.1l11.2,0.7l5.4,1.3
			l8.3-0.4l3.1,1.3l0.6,4h3.9l7.7,0l1.6-2.1l4-3l0.3-25.6l3.7-1l10.3,0.7l0.3,1.8l3.8,12.1l2.5-8.7l8,0.8l4,0.2l5.3,12l2.3,7.3h2.9
			l1.5-21.9l2.3,0.3l3.7,2.8l1.1,5.1l3.7,0.7l2.3-2.6l2.6,0.7l1.6,9.4l2.3-0.7l1.4,4.8v1.8l5.9-6.7l1.6,5.4l4.1,7.6L-461.1-360.4z"
			/>
		<g id="Groupe_2240" transform="translate(77.274 0)">
			<path id="Tracé_5382" class="st8" d="M-443.3-379.4l-3.5-11.1l-0.3-1.8l-10.3-0.7l-3.7,0.9l0,2.8
				C-455.5-385.3-449.6-382-443.3-379.4z"/>
			<path id="Tracé_5383" class="st8" d="M-410.5-385.6l-3.7-2.8l-2.3-0.3l-1.3,17.9c7.3,1.9,14.8,3.2,22.3,4v-1.5l-1.4-4.8
				l-2.3,0.7l-1.6-9.4l-2.6-0.7l-2.3,2.6l-3.7-0.7L-410.5-385.6z"/>
			<path id="Tracé_5384" class="st8" d="M-432.5-386.2l-8-0.8l-2.2,7.9c3.8,1.6,7.9,3.2,12.3,4.7c2.6,0.9,5.3,1.7,7.9,2.4l-0.6-2
				l-5.3-12L-432.5-386.2z"/>
			<path id="Tracé_5385" class="st8" d="M-387.9-367.7l-1.6-5.4l-5.7,6.4c2.8,0.3,5.5,0.4,8,0.5L-387.9-367.7z"/>
		</g>
	</g>
	<g id="Groupe_2242" transform="translate(242.351 126.786)">
		<path id="Tracé_5386" class="st9" d="M-461.1-385.9l8.8-6.9l15.2,0.2l3.2,1.5l6.4-1.9l9.4,1.1l7.7,11.6L-461.1-385.9z"/>
	</g>
	<path id="Tracé_5022" class="st10" d="M-455-252.9h298.2c2.2,0,4.2,1.2,5.3,3.1c1.6-3,0.6-6.7-2.4-8.3c-0.9-0.5-1.9-0.8-2.9-0.8
		H-455c-3.4,0-6.1,2.8-6.1,6.2c0,1,0.3,2,0.8,2.9C-459.2-251.7-457.2-252.9-455-252.9"/>
	<g id="Groupe_2076" transform="translate(15.05 146.316)" class="st11">
		<g id="Groupe_2244">
			<g>
				<defs>
					<rect id="SVGID_1_" x="-461.1" y="-393" width="277.5" height="11.4"/>
				</defs>
				<clipPath id="SVGID_2_">
					<use xlink:href="#SVGID_1_"  style="overflow:visible;"/>
				</clipPath>
				<g id="Groupe_2243" class="st12">
					<g id="Groupe_2075" transform="translate(0 0)">
						<path id="Tracé_5023" class="st13" d="M-184.6-381.6c0.5-3.8,0.8-7.6,1-11.4h-277.5c0.2,3.9,0.5,7.7,1,11.4H-184.6z"/>
					</g>
				</g>
			</g>
		</g>
	</g>
	<g id="Groupe_2249" transform="translate(174.367 23.14)">
		<path id="Tracé_5387" class="st14" d="M-445.6-385.8c-4.6,0-8.3,3.7-8.3,8.3c0,4.6,3.7,8.3,8.3,8.3c4.6,0,8.3-3.7,8.3-8.3
			C-437.3-382.1-441-385.8-445.6-385.8z M-445.6-371.3c-3.4,0-6.2-2.8-6.2-6.2c0-3.4,2.8-6.2,6.2-6.2c3.4,0,6.2,2.8,6.2,6.2
			S-442.2-371.3-445.6-371.3L-445.6-371.3z"/>
		
			<ellipse id="Ellipse_32" transform="matrix(0.1602 -0.9871 0.9871 0.1602 -1.577 -756.8866)" class="st14" cx="-445.6" cy="-377.5" rx="6.2" ry="6.2"/>
		<g id="Groupe_2245" transform="translate(14.451)">
			<rect id="Rectangle_2369" x="-461.1" y="-393" class="st14" width="2.1" height="4.1"/>
			<rect id="Rectangle_2370" x="-461.1" y="-366.2" class="st14" width="2.1" height="4.1"/>
		</g>
		<g id="Groupe_2246" transform="translate(3.805 3.805)">
			
				<rect id="Rectangle_2371" x="-442" y="-391.8" transform="matrix(0.7071 -0.7071 0.7071 0.7071 147.4986 -425.5277)" class="st14" width="4.1" height="2.1"/>
			
				<rect id="Rectangle_2372" x="-460.9" y="-372.9" transform="matrix(0.7071 -0.7071 0.7071 0.7071 128.5216 -433.3883)" class="st14" width="4.1" height="2.1"/>
		</g>
		<g id="Groupe_2247" transform="translate(0 14.451)">
			<rect id="Rectangle_2373" x="-434.2" y="-393" class="st14" width="4.1" height="2.1"/>
			<rect id="Rectangle_2374" x="-461.1" y="-393" class="st14" width="4.1" height="2.1"/>
		</g>
		<g id="Groupe_2248" transform="translate(3.805 3.805)">
			
				<rect id="Rectangle_2375" x="-440.9" y="-373.9" transform="matrix(0.7071 -0.7071 0.7071 0.7071 134.0798 -419.969)" class="st14" width="2.1" height="4.1"/>
			
				<rect id="Rectangle_2376" x="-459.9" y="-392.9" transform="matrix(0.7071 -0.7071 0.7071 0.7071 141.94 -438.9467)" class="st14" width="2.1" height="4.1"/>
		</g>
	</g>
	<g id="Groupe_2256" transform="translate(197.657 96.991)">
		<path id="Tracé_5388" class="st5" d="M-395.7-353.6c0,0-1.7-1.1-7.6-0.3c-4.2-0.4-8.5-0.5-12.7-0.1c-3,0.4-3.4,0.8-3.4,0.8
			s-36.1-0.5-39.8,0.1c-11.6,1.9,35.4,1.3,35.4,1.3s0.6,1.4,13.6,0.5c8.4-0.6,13,0.2,15.4,0.1c2.5-0.1,1.4-0.7,1.4-0.7
			c0.9-0.1,1.8-0.3,2.6-0.6C-390.1-352.8-391.3-353.9-395.7-353.6z"/>
		<g id="Groupe_2250" transform="translate(39.822 10.398)">
			<path id="Tracé_5389" class="st15" d="M-459.4-363.4h-1.7l0.1-11.3l3.3-8.3l1.5-6.2l3.9-3.8l0.5,0.5l-4.1,3.4l-1.7,6.1l-2.8,8.4
				L-459.4-363.4z"/>
		</g>
		<g id="Groupe_2251" transform="translate(26.832 12.577)">
			<path id="Tracé_5390" class="st15" d="M-447.7-376.5l-2.9-1l-3.1-6.3l-3.6-6l-3.8-2.7l0.5-0.5l3.6,3l3.6,6l3.1,6.3l2.7,0.5
				L-447.7-376.5z"/>
		</g>
		<g id="Groupe_2252" transform="translate(33.853 11.526)">
			<path id="Tracé_5391" class="st15" d="M-460.4-382.7l-0.7-0.7l0.3-3.8l2.7-5.8l0.4,0.2l-2.8,5.7L-460.4-382.7z"/>
		</g>
		<g id="Groupe_2253" transform="translate(43.387 10.112)">
			<path id="Tracé_5392" class="st15" d="M-461.1-382.6l0.2-1l3.8-2.8l9.3-1.2l8.8-5.3l0.4,0.3l-9.1,5.3l-9.3,1.2L-461.1-382.6z"/>
		</g>
		<g id="Groupe_2254" transform="translate(53.581 10.641)">
			<path id="Tracé_5393" class="st15" d="M-460.7-388.3l-0.4,0.2l1.7-4.9l0.7,0.3L-460.7-388.3z"/>
		</g>
		<g id="Groupe_2255" transform="translate(18.845 12.854)">
			<path id="Tracé_5394" class="st15" d="M-446.4-385.6l-7.5-2.6l-7.2-4.2l0.4-0.6l7,4.5l6.8,2.2L-446.4-385.6z"/>
		</g>
		<path id="Tracé_5395" class="st16" d="M-460.9-377.5c-2.5,2.7,17.5-0.5,17.5-0.5s1.3,2.9,14.4-0.3c13.6-3.4,25.4-1.8,32.7-2.7
			c9-1.1,4-3.7,4-3.7s7.3-2.3,9.6-4.4c2.6-2.3-4.3-6.4-19.3-1.7c0,0-5.9-3-18.2,2.8c0,0-11.7,0.5-17.5,3.9c-2.7,1.6-2.8,2.5-2.8,2.5
			S-459.9-378.5-460.9-377.5z"/>
		<path id="Tracé_5396" class="st17" d="M-382.6-389.3c-2.8,1.2-5.7,2.1-8.6,2.9c-13,3.5-24.9,3.3-26.5-0.6
			c-0.3-0.7-0.3-1.5,0.1-2.2c-0.7,0.3-1.4,0.6-2.1,0.9c1.1,0.6,1.8,1.3,1.8,2.1c0.2,2.6-6.1,5-13.9,5.5c-3.4,0.2-6.7,0-10-0.7
			l-1.3,0.2c0.4,0.2,0.7,0.3,0.7,0.6c0.1,1.1-5.6,2.7-12.8,3.4c-2.1,0.2-4,0.3-5.7,0.4c1.5,1.4,17.6-1.1,17.6-1.1s1.3,2.9,14.4-0.3
			c13.6-3.4,25.4-1.8,32.7-2.7c9-1.1,4-3.7,4-3.7s7.3-2.3,9.6-4.4C-382.7-389.2-382.6-389.3-382.6-389.3z"/>
	</g>
	<g id="Groupe_2259" transform="translate(23.348 107.466)">
		<path id="Tracé_5397" class="st18" d="M-432.2-392.4l0.4,0.6l-0.8,6.9l-0.2-0.2L-432.2-392.4z"/>
		<path id="Tracé_5398" class="st18" d="M-443.4-390.8l6.8,3.6l0-0.4l-7.1-4L-443.4-390.8z"/>
		<path id="Tracé_5399" class="st18" d="M-424.1-390.9l2.1,1.8l0-0.1l-2.1-1.9L-424.1-390.9z"/>
		<path id="Tracé_5400" class="st18" d="M-420.4-391.8l-0.5,0l-1.2,2.7l-0.2,3l0.5-0.4l-0.1-2.6L-420.4-391.8z"/>
		<path id="Tracé_5401" class="st5" d="M-391.6-362.2c-6.7,0.6-20.7,0.9-39,0c0,0-1.2,0.8-9.2,0.2s-10.6-0.2-12.7-0.4
			s4.4-0.6,5.4-1s-8.3-0.2-13.1-0.1s9.1-1.7,33.3-1.4c7.3,0.1,16.5,0.9,10.6,1C-416.2-364-386.5-362.7-391.6-362.2z"/>
		<g id="Groupe_2257" transform="translate(30.464 0.731)">
			<path id="Tracé_5402" class="st18" d="M-459.4-364.6c0-0.4-0.8-7.9-1.7-12.9l0-0.1l2.5-5.1l6.2-4.9l12-2.5l2.6-2.8l0.3,0.4
				l-3,2.7l-11.8,2.6l-6,4.9l-2.2,4.8c0.4,2.3,2,12.8,2,13.1h-0.2L-459.4-364.6z"/>
		</g>
		<g id="Groupe_2258" transform="translate(22.37)">
			<path id="Tracé_5403" class="st18" d="M-453-376.8l-0.3-7l-5.8-3.5l-2-5.6l0.4-0.2l1.7,5.5l5.9,3.7l0.5,7L-453-376.8z"/>
		</g>
	</g>
	<path id="Tracé_5404" class="st19" d="M-257.7-344.3c-34.1,2.5-68.3,3.3-102.4,4.2c-19.2,0.5-36.1,1.5-54-2.4l-5.6,7.3
		c4.4,0,9.3,0,15-0.3l188.9-9.8C-229.7-346.7-243.8-345.4-257.7-344.3z"/>
	<path id="Tracé_5405" class="st19" d="M-214.1-316.7c-8,0.7-15,2.6-22.8,3.5c-20.5,2.3-43.4-2.1-65.3-5.1
		c-16.8-2.3-33.7-3.7-50.6-4.3c24.5,1.5,49,4.4,73.2,8.7c8.7,1.5,17.4,3.3,26.2,3.8c6.9,0.2,13.9,0,20.8-0.6c12.6-0.9,25.1-1.8,38-2
		c4.7-0.1,9.4-0.1,14.1-0.1l-1.4-2.7C-193.1-316.3-203.9-317.6-214.1-316.7z"/>
</g>
</svg>
