<?xml version="1.0" encoding="utf-8"?>
<!-- Generator: Adobe Illustrator 21.1.0, SVG Export Plug-In . SVG Version: 6.00 Build 0)  -->
<svg version="1.1" id="Layer_1" xmlns="http://www.w3.org/2000/svg" xmlns:xlink="http://www.w3.org/1999/xlink" x="0px" y="0px"
	 viewBox="0 0 72.3 72.3" style="enable-background:new 0 0 72.3 72.3;" xml:space="preserve">
<style type="text/css">
	.st0{fill:#A2EC5C;}
	.st1{fill:#0FCA8E;}
</style>
<path id="Tracé_5785" class="st0" d="M13.6,48.2c7.5,0,13.6-6.1,13.6-13.6V13.6C27.1,6.1,21.1,0,13.6,0C6.1,0,0,6.1,0,13.6
	c0,0,0,0,0,0l0,0v21.1C0,42.2,6.1,48.2,13.6,48.2z M58.8,0c-7.5,0-13.6,6.1-13.6,13.6v21.1c0,7.5,6.1,13.6,13.6,13.6c0,0,0,0,0,0
	c7.5,0,13.6-6.1,13.6-13.6V13.6C72.3,6.1,66.3,0,58.8,0z"/>
<path id="Tracé_5786" class="st1" d="M58.8,0C52.4,0,47,4.4,45.6,10.5c-4.1-5.2-11.7-6-16.9-1.9c0,0,0,0,0,0
	c-0.7,0.6-1.3,1.2-1.9,1.9C25.1,3.3,17.8-1.3,10.5,0.3C4.4,1.8,0,7.2,0,13.6v21.1c0,6.9,5.2,12.7,12.1,13.5v21.2H7.5
	C6.7,69.3,6,70,6,70.8v0c0,0.8,0.7,1.5,1.5,1.5l0,0h57.3c0.8,0,1.5-0.7,1.5-1.5v0c0-0.8-0.7-1.5-1.5-1.5h0h-4.5V48.1
	c6.9-0.8,12-6.6,12.1-13.5V13.6C72.3,6.1,66.3,0,58.8,0z M36.2,9c5,0,9,4,9,9v18.1c0,5-4,9-9,9l0,0c-5,0-9-4-9-9l0,0V18.1
	C27.1,13.1,31.2,9.1,36.2,9z M3,34.7V13.6C3,7.7,7.7,3,13.6,3c0,0,0,0,0,0c5.8,0,10.5,4.7,10.5,10.5v21.1c0,5.2-3.9,9.7-9,10.4v-9.8
	l5.6-5.6c0.6-0.6,0.6-1.5,0-2.1c0,0,0,0,0,0c-0.6-0.6-1.5-0.6-2.1,0c0,0,0,0,0,0L15.1,31v-7.8l5.6-5.6c0.6-0.6,0.6-1.5,0.1-2.1
	c0,0,0,0,0,0c-0.6-0.6-1.5-0.6-2.1-0.1c0,0,0,0-0.1,0.1L15.1,19v-5.4c0-0.8-0.6-1.5-1.5-1.5c0,0,0,0,0,0c-0.8,0-1.5,0.6-1.5,1.5
	c0,0,0,0.1,0,0.1V19l-3.5-3.5C8,14.9,7,15,6.5,15.5c0,0,0,0,0,0c-0.6,0.6-0.6,1.5,0,2.1l5.6,5.6V31l-3.5-3.5C8,27,7.1,27,6.5,27.6
	c0,0,0,0,0,0c-0.6,0.6-0.6,1.5,0,2.1l5.6,5.6v9.8C6.9,44.3,3,39.9,3,34.7L3,34.7z M15.1,48.1c4.3-0.5,8.1-3,10.3-6.7
	c1.8,3.7,5.3,6.2,9.3,6.7v21.2H15.1V48.1z M37.7,69.3V48.1c4.1-0.5,7.6-3,9.3-6.7c2.1,3.8,6,6.3,10.3,6.7v21.2L37.7,69.3z
	 M69.3,34.7c0,5.2-3.9,9.7-9,10.4v-9.8l5.6-5.6c0.6-0.6,0.6-1.5,0-2.1c-0.6-0.6-1.5-0.6-2.1,0l0,0L60.3,31v-9.9
	c0-0.8-0.6-1.5-1.5-1.5c0,0,0,0,0,0c-0.8,0-1.5,0.6-1.5,1.5c0,0,0,0.1,0,0.1V31l-3.5-3.5c-0.6-0.6-1.5-0.6-2.1,0c0,0,0,0,0,0
	c-0.6,0.6-0.6,1.5,0,2.1c0,0,0,0,0,0l0,0l5.6,5.6v9.8c-5.2-0.8-9-5.2-9-10.4V13.6C48.2,7.7,52.9,3,58.8,3c0,0,0,0,0,0
	c5.8,0,10.5,4.7,10.5,10.5c0,0,0,0,0,0L69.3,34.7z M70.8,69.3c0.8,0,1.5,0.7,1.5,1.5s-0.7,1.5-1.5,1.5h0c-0.8,0-1.5-0.7-1.5-1.5v0
	C69.3,70,70,69.3,70.8,69.3C70.8,69.3,70.8,69.3,70.8,69.3L70.8,69.3z M1.5,69.3C2.3,69.3,3,70,3,70.8s-0.7,1.5-1.5,1.5l0,0
	c-0.8,0-1.5-0.7-1.5-1.5v0C0,70,0.7,69.3,1.5,69.3C1.5,69.3,1.5,69.3,1.5,69.3L1.5,69.3z"/>
</svg>
