<?xml version="1.0" encoding="utf-8"?>
<!-- Generator: Adobe Illustrator 21.1.0, SVG Export Plug-In . SVG Version: 6.00 Build 0)  -->
<svg version="1.1" id="Layer_1" xmlns="http://www.w3.org/2000/svg" xmlns:xlink="http://www.w3.org/1999/xlink" x="0px" y="0px"
	 viewBox="0 0 50 50" style="enable-background:new 0 0 50 50;" xml:space="preserve">
<style type="text/css">
	.st0{fill:#BEF7F0;}
	.st1{fill:#A3ED5C;}
	.st2{fill:#FFFFFF;}
	.st3{fill:#6E9307;}
	.st4{fill:#00CCB3;}
</style>
<path id="Tracé_5118" class="st0" d="M39.6,25c0-9.4-6.7-17.5-16-19.2c-4.1,0.8-7.9,2.8-10.7,5.9l1.9,2.3c0.8,1,0.9,2.5,0.1,3.5
	l-2.1,2.9c-0.9,1.3-0.6,3.1,0.7,4c0.5,0.4,1.1,0.5,1.7,0.5h2.3c0.9,0,1.7,0.5,2.2,1.2l0,0c0.7,1.2,0.3,2.7-0.9,3.4l0,0
	c-0.1,0-0.1,0.1-0.2,0.1l-1,0.5c-3.3,1.6-5,5.4-4,8.9c2.8,2.6,6.2,4.4,10,5.1C32.9,42.5,39.6,34.4,39.6,25z"/>
<path id="Tracé_5206" class="st1" d="M14.2,39.1c-1-3.5,0.7-7.3,4-8.9l1-0.5c1.2-0.6,1.8-2.1,1.1-3.3l0,0c0-0.1-0.1-0.1-0.1-0.2
	l0,0C19.8,25.5,19,25,18.1,25h-2.3c-1.6,0-2.9-1.3-2.9-2.9l0,0c0-0.6,0.2-1.2,0.5-1.7l2.1-2.9c0.8-1.1,0.7-2.5-0.1-3.5l-1.9-2.3
	C6.1,19.5,6.5,31.7,14.2,39.1L14.2,39.1z"/>
<path id="Tracé_5742" class="st2" d="M32.6,12.2c0-0.4,0-0.8,0.1-1.2c0.4-3.1,1.7-5.9,3.7-8.3c-0.5-0.6-1.1-1.2-1.7-1.8
	c0,0-4.8,4-5.4,10c0,0.4-0.1,0.8-0.1,1.2c0,6.7,5.5,6.3,5.5,6.3c0.6,0,1.2,0,1.7-0.2C34.7,17.8,32.6,16.5,32.6,12.2z M26.6,23.4
	c-2.4-2.6-3.8-5.9-4-9.3c-0.8-0.1-1.7-0.1-2.5,0c0,0-0.6,7.1,4.1,11.8s8.3,0.6,8.3,0.6c0.4-0.4,0.8-0.9,1.1-1.4
	C32.1,25.9,29.6,26.4,26.6,23.4L26.6,23.4z M39.8,20.6c2.5-2.4,5.8-3.8,9.3-4.1c0.1-0.8,0.1-1.7,0-2.5c-0.1,0-7.1-0.6-11.8,4.1
	s-0.6,8.3-0.6,8.3c0.4,0.4,0.9,0.8,1.4,1.1C37.3,26.1,36.8,23.6,39.8,20.6L39.8,20.6z"/>
<path id="Tracé_5743" class="st3" d="M40.1,12.2c0-0.4,0-0.8-0.1-1.2c-0.4-3.1-1.7-5.9-3.7-8.3C34.3,5,33,7.9,32.6,11
	c0,0.4-0.1,0.8-0.1,1.2c0,4.2,2.2,5.6,3.8,6.1C37.9,17.8,40.1,16.5,40.1,12.2z M31.9,18.1c-2.5-2.4-5.8-3.8-9.3-4.1
	c0.2,3.5,1.7,6.8,4,9.3c3,3,5.4,2.5,6.9,1.6C34.3,23.6,34.9,21.1,31.9,18.1z M45,25.9c2.4-2.6,3.8-5.9,4.1-9.4
	c-3.5,0.2-6.8,1.7-9.3,4.1c-3,3-2.4,5.5-1.6,6.9C39.6,28.3,42.1,28.8,45,25.9L45,25.9z"/>
<path id="Tracé_5744" class="st4" d="M29,13.2L29,13.2c0.5,0,1-0.4,1-1c0-0.4,0-0.8,0.1-1.1c0-0.4,0.1-0.8,0.2-1.2l3.1,3.1l0.1,0.1
	v2.4c0,0.5,0.4,1,1,1c0.5,0,1-0.4,1-1l0,0v-5l2.6-2.6c0.4,1.1,0.7,2.2,0.8,3.3c0,0.4,0.1,0.8,0.1,1.1c0,0.5,0.4,1,1,1l0,0
	c0.5,0,1-0.4,1-1l0,0c0-0.4,0-0.9-0.1-1.3c-0.6-6.4-5.6-10.5-5.8-10.7c-0.4-0.3-0.9-0.3-1.2,0c-0.1,0-5.1,4.2-5.7,10.7
	c0,0.4-0.1,0.9-0.1,1.3C28,12.8,28.5,13.2,29,13.2z M37.2,5.9l-1.7,1.7V3.4C36.1,4.2,36.7,5,37.2,5.9L37.2,5.9z M33.5,3.4v7
	l-2.6-2.6C31.5,6.1,32.4,4.7,33.5,3.4z M49,48L49,48c-0.5,0-1,0.4-1,1c0,0.5,0.4,1,1,1l0,0c0.5,0,1-0.4,1-1C50,48.5,49.6,48,49,48
	L49,48z M45.8,48H35.4v-3.6l1.4-1.4c0.4-0.4,0.4-1,0-1.4l0,0c-0.4-0.4-1-0.4-1.4,0l0,0l-0.1,0.1V39c2-2.1,3.5-4.6,4.4-7.3
	c0.2-0.5-0.1-1.1-0.6-1.2l0,0c-0.5-0.2-1.1,0.1-1.2,0.6c-0.6,1.7-1.5,3.4-2.6,4.9v-7l1.2-1.2c1,0.8,2.2,1.3,3.4,1.3
	c0.1,0,0.2,0,0.2,0c2-0.1,3.9-1,5.2-2.6c5-5,4.4-12.3,4.4-12.6c0-0.5-0.4-0.8-0.9-0.9c-0.1,0-7.5-0.7-12.6,4.4
	c-0.8,0.8-1.5,1.8-2,2.9c-0.5-1.1-1.2-2-2-2.9C27.1,12.3,19.7,13,19.6,13c-0.5,0-0.8,0.4-0.9,0.9c0,0.3-0.6,7.6,4.4,12.6
	c1.3,1.5,3.2,2.5,5.2,2.6c0.1,0,0.2,0,0.2,0c1.3-0.1,2.5-0.5,3.4-1.3l1.2,1.2v8.7L32.9,37c-0.4-0.4-1-0.4-1.4,0l0,0
	c-0.4,0.4-0.4,1,0,1.4l2,2v3.7l0,0v4H1c-0.5,0-1,0.4-1,1l0,0c0,0.5,0.4,1,1,1h44.9c0.5,0,1-0.4,1-1l0,0C46.8,48.5,46.4,48,45.8,48
	L45.8,48z M39.6,17.4c2.1-1.4,4.5-2.2,7-2.4l-7,7V17.4z M47.2,20.3h-3l3.8-3.8C47.8,17.7,47.6,19,47.2,20.3L47.2,20.3z M44.2,25.2
	c-1,1.2-2.4,1.9-4,2c-0.8,0-1.5-0.3-2.2-0.8l4.1-4.2h4.1C45.8,23.3,45.1,24.3,44.2,25.2L44.2,25.2z M37.7,19v5l-1,1
	c-0.5-0.6-0.7-1.4-0.8-2.1C36,21.4,36.6,20,37.7,19L37.7,19z M33,22.8c0,0.8-0.3,1.5-0.8,2.2l-1-1v-5C32.4,20,33,21.4,33,22.8
	L33,22.8z M22.3,15c2.5,0.2,4.9,1,7,2.4v4.7L22.3,15z M21,16.4l3.8,3.8h-3C21.4,19,21.1,17.7,21,16.4L21,16.4z M28.8,27.2
	c-1.6-0.1-3-0.8-4-2c-0.9-0.9-1.6-1.9-2.1-2.9h4.1l2.9,2.9l0,0l1.3,1.3C30.3,26.8,29.5,27.1,28.8,27.2L28.8,27.2z M26,7.3L26,7.3
	c0.5,0.2,1.1-0.1,1.3-0.6c0.2-0.5-0.1-1.1-0.6-1.3h-0.1l0,0c-0.5-0.2-1.1,0.1-1.2,0.7l0,0C25.2,6.6,25.5,7.1,26,7.3L26,7.3z
	 M15.2,44.8h0.1c5.3,1.4,10.9,0.6,15.6-2.1c0.5-0.3,0.6-0.9,0.3-1.3c-0.3-0.4-0.9-0.6-1.3-0.3c-2.3,1.3-4.8,2.2-7.4,2.4l2.3-5.3
	c1-2.3,3.5-3.5,5.9-3l1,0.2c0.5,0.1,1.1-0.2,1.2-0.7l0,0c0.1-0.5-0.2-1.1-0.7-1.2l0,0l-1-0.2c-3.3-0.8-6.8,0.9-8.1,4.1l-2.7,6.2
	c-1.3,0-2.7-0.2-4-0.5L15,39c-0.9-3.1,0.5-6.4,3.4-7.9l1-0.5c1.7-0.8,2.4-2.9,1.6-4.6c-0.6-1.2-1.8-2-3.1-2h-2.3
	c-1.1,0-1.9-0.9-1.9-1.9c0-0.4,0.1-0.8,0.4-1.1l2.1-2.9c1-1.4,1-3.4-0.2-4.7l-4-4.8c2.6-1.4,5.6-2.1,8.5-2.1c0.6,0,1.2,0,1.7,0.1
	c0.5,0,1-0.4,1.1-0.9l0,0c0-0.5-0.3-1-0.9-1c-0.6-0.1-1.3-0.1-1.9-0.1c-3.7,0-7.3,1-10.4,2.9C10,7.5,10,7.6,9.9,7.6
	C0.2,13.3-2.9,25.9,3,35.6C5.7,40.1,10.1,43.4,15.2,44.8L15.2,44.8z M10.3,9.5l4.2,5.1c0.6,0.7,0.6,1.6,0.1,2.3l-2.1,2.9
	c-1.2,1.7-0.9,4.1,0.9,5.4c0.7,0.5,1.4,0.7,2.3,0.7H18c0.5,0,1,0.3,1.3,0.8c0.4,0.7,0.2,1.7-0.5,2.1c0,0-0.1,0-0.1,0.1l-1,0.5
	c-3.8,1.8-5.7,6.1-4.5,10.2l0.9,2.9c-9.7-3.7-14.6-14.4-11-24C4.5,14.8,7,11.7,10.3,9.5L10.3,9.5z M3.3,7.2C2.8,7.2,2.2,7,1.8,6.6
	l-1-1C0,4.8,0,3.4,0.8,2.5l0,0l0.9-0.9c0.9-0.8,2.3-0.8,3.2,0l0.9,0.9c0.9,0.9,0.9,2.3,0,3.2l0,0l0,0L4.9,6.6C4.5,7,3.9,7.2,3.3,7.2
	L3.3,7.2z M3.3,2.6c-0.1,0-0.3,0-0.4,0.1L2,3.7C1.8,3.9,1.8,4.3,2,4.5l0,0l0.9,0.9c0.2,0.2,0.6,0.2,0.8,0l0.9-0.9
	c0.2-0.2,0.2-0.6,0-0.8l0,0l-0.8-1C3.6,2.6,3.5,2.6,3.3,2.6L3.3,2.6z"/>
</svg>
