<?xml version="1.0" encoding="utf-8"?>
<!-- Generator: Adobe Illustrator 21.1.0, SVG Export Plug-In . SVG Version: 6.00 Build 0)  -->
<svg version="1.1" id="Layer_1" xmlns="http://www.w3.org/2000/svg" xmlns:xlink="http://www.w3.org/1999/xlink" x="0px" y="0px"
	 viewBox="0 0 47.6 50" style="enable-background:new 0 0 47.6 50;" xml:space="preserve">
<style type="text/css">
	.st0{fill:#CC7025;}
	.st1{fill:#FFFFFF;}
	.st2{fill:#666666;}
	.st3{fill:#00CCB3;}
	.st4{fill:#88E766;}
</style>
<path id="Tracé_5751" class="st0" d="M34.1,38.9c0.7,0.7,0.9,1.6,0.6,2.5h2.1v7.2c0,0.8-0.3,1.1-1.1,1.1c-1.1,0-2.2,0-3.3,0
	c-0.7,0-1-0.3-1-1c0-2.3,0-4.7,0-7c0,0,0-0.1,0-0.2c0.7,0,1.4,0,2.1,0c0.4,0,0.6-0.2,0.7-0.6c0.1-0.6-0.1-1.2-0.5-1.6L34.1,38.9z
	 M38.3,41.5c0.7,0,1.4,0,2.1,0c0.3,0,0.5-0.1,0.5-0.4c0-0.6-0.1-1.2-0.1-1.9l0.3-0.2c0.4,0.7,0.4,1,0.3,2.5h2.2c0,0.2,0,0.3,0,0.5
	v6.6c0,0.8-0.3,1.1-1.1,1.1c-1.1,0-2.2,0-3.3,0c-0.7,0-1-0.3-1-1c0-2.3,0-4.6,0-6.9C38.3,41.8,38.3,41.7,38.3,41.5z"/>
<path id="Tracé_5752" class="st1" d="M17.7,13.6h7.5l1.6,16.9v2.8l-0.4,1.1L22,34.7h-1l-4.2-0.6l-0.6-0.7v-3.1L17.7,13.6z
	 M24.2,10.2c-0.9,1.5-2.9,2-4.4,1c0,0,0,0,0,0c-0.4-0.3-0.8-0.6-1-1H24.2z"/>
<path id="Tracé_5753" class="st2" d="M24.2,19.9c0.1,0.2,0.4,0.4,0.4,0.6c0,0.3-0.2,0.5-0.5,0.5c-0.3,0-0.5-0.2-0.5-0.5
	c0-0.2,0.3-0.4,0.4-0.6L24.2,19.9z M19.1,19.9c0.2,0.2,0.4,0.4,0.4,0.6c0.1,0.3-0.2,0.5-0.5,0.6c-0.3,0-0.5-0.1-0.5-0.4
	c0,0,0-0.1,0-0.1c0-0.2,0.3-0.4,0.4-0.6L19.1,19.9z"/>
<path id="Tracé_5754" class="st3" d="M23.9,50c-0.4-0.2-0.8-0.5-1.2-0.8c-0.5-0.4-0.7-1.1-0.7-1.7V35c0-0.2,0-0.4,0.3-0.4
	c1.6,0,3.1-0.5,4.5-1.3v0.6c0,4.4,0,8.7,0,13.1c0.2,1.3-0.7,2.6-2,3H23.9z M18.2,50c-0.9-0.2-1.6-0.9-1.9-1.8
	c-0.1-0.2-0.1-0.4-0.1-0.7c0-4.6,0-9.2,0-13.9c0-0.1,0-0.2,0-0.3c1.5,0.8,3.1,1.2,4.8,1.3c0,0.2,0,0.4,0,0.5v12
	c0.2,1.3-0.6,2.6-2,2.9H18.2z M25.3,13.6c1.2,0.1,2.4,0.8,3,1.8c1.1,1.5,1.7,3.3,1.9,5.1c0.2,1,0.2,2,0.2,3c0,0.8,0.4,1.2,1.1,1.5
	v-5.7c0.8,0,1.5,0,2.2,0c0.4,0,0.6-0.2,0.6-0.5c0.1-0.6-0.1-1.2-0.5-1.6l0.4-0.4c0.7,0.7,0.9,1.6,0.6,2.5h2.1c0,0.2,0,0.4,0,0.5v6.6
	c0,0.9-0.2,1.1-1.1,1.1h-1.2c-0.6,1.4-1.2,1.6-2.7,1.1c-0.5-0.2-1-0.4-1.4-0.6c-0.7-0.4-1.3-0.8-1.9-1.3c-0.9-0.7-1.3-1.8-1.3-2.9
	c0-1.2-0.2-2.4-0.3-3.6c0-0.2-0.1-0.4-0.2-0.5v10.8h-0.1c-0.2-1.8-0.5-3.6-0.7-5.5c-0.2-1.9-0.5-3.7-0.7-5.6
	c-0.1-1.5-0.1-2.9-0.1-4.4C25.3,14.6,25.3,14.1,25.3,13.6L25.3,13.6z M16.3,30.4V19.8l-0.1,0c-0.1,0.8-0.3,1.5-0.3,2.3
	c-0.1,0.6-0.1,1.3-0.1,2c0,1-0.4,2-1.1,2.7c-1.2,1.1-2.6,1.9-4.2,2.2c-0.8,0.2-1.6-0.2-1.9-1c-0.1-0.1-0.2-0.3-0.4-0.3
	c-0.4,0-0.8,0-1.2,0c-0.4,0-0.7-0.3-0.7-0.7v0c0-2.5,0-4.9,0-7.4c0.7,0,1.4,0,2.1,0c0.5,0,0.7-0.2,0.7-0.6c-0.1-0.5-0.2-1.1-0.3-1.6
	H8.5l0.4-0.3c0.7,0.7,0.8,1.1,0.6,2.5h2.1V25c0.7-0.4,1.1-0.7,1.1-1.5c-0.1-2.1,0.3-4.2,1-6.2c0.4-1.1,1.1-2.1,1.9-2.9
	c0.6-0.5,1.3-0.9,2.1-0.9C18.2,19.3,16.9,24.9,16.3,30.4L16.3,30.4z M26.2,9.3c0-0.3,0.1-0.6,0.1-0.8c0.2-0.8-0.3-1.6-1-1.8
	c-0.9-0.3-1.8-0.6-2.7-0.7c-1.3-0.2-2.7-0.1-4,0.3c-0.2,0.1-0.4,0.1-0.6,0.2c-0.9,0.3-1.5,1.2-1.3,2.2c0,0.2,0.1,0.4,0.1,0.6
	c-0.8-0.1-1.6-0.2-2.4-0.4c-1-0.3-2.1-0.6-3-1c-0.5-0.2-1-0.5-1.1-1.2c0-0.7,0.5-1,1-1.2c1.3-0.6,2.7-1,4.2-1.2
	c0.5-0.1,1-0.2,1.5-0.2c0.3,0,0.5-0.2,0.5-0.4c0.3-1.2,1-2.2,1.9-2.9c1.1-1,2.9-1,4,0c0.9,0.7,1.6,1.8,1.9,2.9
	c0,0.3,0.3,0.5,0.5,0.4c1.7,0.1,3.4,0.5,5,1.1c0.5,0.2,0.9,0.4,1.3,0.7c0.4,0.2,0.6,0.8,0.4,1.2c-0.1,0.1-0.2,0.3-0.4,0.4
	c-0.3,0.2-0.6,0.4-0.9,0.6C29.7,8.7,28,9.1,26.2,9.3L26.2,9.3z M24.5,6.7c-1-0.2-1.9-0.4-2.9-0.5c-0.2,0-0.5,0-0.7,0
	c-1.1,0-2.1,0.3-3.1,0.7c-0.5,0.2-0.8,0.8-0.7,1.3c0.2,2.4,2.2,4.3,4.7,4.1c0,0,0,0,0,0c2-0.1,3.7-1.6,4-3.5
	C26.1,7.7,25.8,7.1,24.5,6.7L24.5,6.7z M21.7,11.7c-1.2,0.1-2.2-0.5-2.8-1.5h5.4C23.7,11.1,22.7,11.7,21.7,11.7L21.7,11.7z
	 M24.3,19.2h-5.5v-5.6h5.5V19.2z M4.8,38.9H3.5v-1.3c0-0.3-0.2-0.5-0.5-0.5l0,0H2.4c-0.3,0-0.5,0.2-0.5,0.5v1.3H0.5
	c-0.3,0-0.5,0.2-0.5,0.5V40c0,0.3,0.2,0.5,0.5,0.5h1.3v1.3c0,0.3,0.2,0.5,0.5,0.5h0.5c0.3,0,0.5-0.2,0.5-0.5c0,0,0,0,0,0l0,0v-1.3
	h1.3c0.3,0,0.5-0.2,0.5-0.5v-0.5C5.4,39.2,5.1,38.9,4.8,38.9L4.8,38.9L4.8,38.9z"/>
<path id="Tracé_5755" class="st4" d="M36.2,35.7c0.2,0.9,0,1.9-0.5,2.7c-0.2,0.4-0.8,0.6-1.2,0.4l-0.1,0c-0.4-0.2-0.6-0.8-0.4-1.3
	c0,0,0,0,0-0.1C34.6,36.6,35.4,36,36.2,35.7z M5.6,14.7c0.9-0.1,1.8,0.2,2.5,0.8c0.4,0.3,0.6,0.9,0.3,1.3c-0.3,0.4-0.9,0.6-1.3,0.3
	C7,17.1,7,17,6.9,17C6.2,16.4,5.7,15.6,5.6,14.7L5.6,14.7z M44.4,36.9c-0.2,1-0.7,1.8-1.6,2.4c-0.4,0.3-0.9,0.2-1.2-0.2v0
	c-0.3-0.4-0.2-0.9,0.1-1.2C42.4,37.2,43.4,36.9,44.4,36.9L44.4,36.9z M11.2,13.7c0,0.6-0.1,1.2-0.3,1.8c-0.1,0.4-0.3,0.7-0.6,1
	c-0.3,0.3-0.7,0.3-1,0.1c-0.3-0.2-0.5-0.5-0.4-0.9c0.1-0.3,0.2-0.6,0.4-0.9c0.5-0.5,1.1-0.9,1.7-1.2L11.2,13.7z M37.9,36.6
	c0.7,0,1.5,0.1,2.1,0.5c0.3,0.2,0.5,0.4,0.7,0.7c0.2,0.3,0.1,0.8-0.2,1c-0.3,0.3-0.7,0.4-1.1,0.1C38.6,38.4,38,37.6,37.9,36.6
	L37.9,36.6z M30.7,36.9c0.9,0,1.7,0.2,2.4,0.7c0.6,0.5,0.7,1,0.3,1.4s-0.9,0.5-1.5,0.1C31.4,38.5,30.9,37.7,30.7,36.9L30.7,36.9z
	 M36.4,13.6c0.2,0.9,0,1.8-0.5,2.6c-0.2,0.3-0.5,0.4-0.9,0.5c-0.5,0-0.9-0.4-0.9-0.8c0,0,0,0,0,0c0-0.1,0-0.2,0-0.3
	C34.5,14.5,35.4,14.1,36.4,13.6z M30.9,14.7c0.9-0.1,1.8,0.2,2.5,0.8c0.5,0.5,0.6,0.9,0.2,1.4c-0.3,0.4-0.9,0.5-1.3,0.2c0,0,0,0,0,0
	c0,0,0,0-0.1-0.1C31.6,16.4,31.1,15.6,30.9,14.7z M8.1,13.1c0.3,0.4,0.5,0.8,0.7,1.2C9,14.5,8.9,14.8,8.6,15c0,0,0,0,0,0
	c-0.1,0-0.1,0.1-0.2,0.1c-0.3,0.1-0.6-0.1-0.7-0.4c0-0.1,0-0.1,0-0.2c0-0.5,0-0.9,0.1-1.4L8.1,13.1z M33.5,13.1
	c0.3,0.4,0.5,0.8,0.7,1.3c0.1,0.3,0,0.6-0.3,0.7c-0.1,0-0.1,0-0.2,0c-0.3,0.1-0.5-0.1-0.6-0.3c0,0,0-0.1,0-0.1c0-0.5,0-1,0.1-1.5
	L33.5,13.1z M33.3,35.2c0.3,0.4,0.5,0.8,0.7,1.2c0.1,0.3,0,0.6-0.2,0.7c0,0-0.1,0-0.1,0c-0.3,0.1-0.6,0-0.7-0.3c0,0,0,0,0,0
	c0-0.1,0-0.1,0-0.2c0-0.5,0-1,0.1-1.4L33.3,35.2z M41.5,35.6c0.3,0.5,0.4,1.1,0.2,1.6c-0.1,0.3-0.4,0.5-0.7,0.4c0,0,0,0,0,0
	c-0.3-0.1-0.4-0.3-0.4-0.6C40.7,36.4,41,35.9,41.5,35.6L41.5,35.6z M44.9,13.1c-0.5,0-1-0.2-1.4-0.6l-0.8-0.8C42,11,42,9.7,42.7,9
	c0,0,0,0,0,0l0,0l0.8-0.8c0.8-0.7,2-0.7,2.7,0L47.1,9c0.8,0.8,0.8,2,0,2.7l0,0l-0.8,0.8C45.9,12.9,45.4,13.1,44.9,13.1L44.9,13.1z
	 M44.9,9c-0.1,0-0.3,0.1-0.4,0.1L43.7,10c-0.2,0.2-0.2,0.5,0,0.7l0,0l0.8,0.8c0.2,0.2,0.5,0.2,0.7,0l0.8-0.8c0.2-0.2,0.2-0.5,0-0.7
	l0,0l-0.8-0.8C45.2,9.1,45,9,44.9,9L44.9,9z"/>
</svg>
