<?xml version="1.0" encoding="utf-8"?>
<!-- Generator: Adobe Illustrator 21.1.0, SVG Export Plug-In . SVG Version: 6.00 Build 0)  -->
<svg version="1.1" id="Layer_1" xmlns="http://www.w3.org/2000/svg" xmlns:xlink="http://www.w3.org/1999/xlink" x="0px" y="0px"
	 viewBox="0 0 71.8 70.5" style="enable-background:new 0 0 71.8 70.5;" xml:space="preserve">
<style type="text/css">
	.st0{fill:#48DAC8;}
	.st1{fill:#87E666;}
	.st2{fill:#ADEC93;}
	.st3{fill:#6CD7B0;}
	.st4{fill:#0FCA8E;}
</style>
<path id="Tracé_5468" class="st0" d="M37.2,2.7h-1.3V1.3c0-0.3-0.2-0.5-0.5-0.5l0,0h-0.5c-0.3,0-0.5,0.2-0.5,0.5l0,0v1.3h-1.3
	c-0.3,0-0.5,0.2-0.5,0.5v0.5c0,0.3,0.2,0.5,0.5,0.5h1.3v1.3c0,0.3,0.2,0.5,0.5,0.5l0,0h0.5c0.3,0,0.5-0.2,0.5-0.5l0,0V4.3h1.3
	c0.3,0,0.5-0.2,0.5-0.5V3.2C37.8,2.9,37.5,2.7,37.2,2.7z"/>
<path id="Tracé_5469" class="st1" d="M71.2,47.3h-1.3v-1.3c0-0.3-0.2-0.5-0.5-0.5l0,0h-0.5c-0.3,0-0.5,0.2-0.5,0.5l0,0v1.3h-1.3
	c-0.3,0-0.5,0.2-0.5,0.5c0,0,0,0,0,0v0.5c0,0.3,0.2,0.5,0.5,0.5c0,0,0,0,0,0h1.3v1.3c0,0.3,0.2,0.5,0.5,0.5l0,0h0.5
	c0.3,0,0.5-0.2,0.5-0.5l0,0v-1.3h1.3c0.3,0,0.5-0.2,0.5-0.5v-0.5C71.8,47.5,71.5,47.3,71.2,47.3z"/>
<path id="Tracé_5470" class="st2" d="M11.3,55.3H7.6c-4.2,0-7.6,3.4-7.6,7.6v5.5c0,1.1,0.9,2.1,2.1,2.1l0,0h14.8
	c1.1,0,2.1-0.9,2.1-2.1c0,0,0,0,0,0v-5.5C18.9,58.7,15.5,55.3,11.3,55.3z"/>
<path id="Tracé_5471" class="st1" d="M26,44.3h-3.7c-4.2,0-7.6,3.4-7.6,7.6v16.6c0,1.1,0.9,2.1,2.1,2.1h14.8c1.1,0,2.1-0.9,2.1-2.1
	l0,0V51.9C33.6,47.7,30.2,44.3,26,44.3z"/>
<path id="Tracé_5472" class="st3" d="M40.8,33.2h-3.7c-4.2,0-7.6,3.4-7.6,7.6v27.7c0,1.1,0.9,2.1,2.1,2.1c0,0,0,0,0,0h14.8
	c1.1,0,2.1-0.9,2.1-2.1c0,0,0,0,0,0V40.8C48.4,36.6,45,33.2,40.8,33.2z"/>
<path id="Tracé_5473" class="st4" d="M70.1,20.8L55.4,0.8c-0.7-0.9-2-1.1-2.9-0.4c-0.2,0.1-0.3,0.3-0.4,0.4L37.3,20.8
	c-0.7,0.9-0.5,2.2,0.4,2.9c0.4,0.3,0.8,0.4,1.2,0.4h5.3v44.4c0,1.1,0.9,2.1,2.1,2.1h14.8c1.1,0,2.1-0.9,2.1-2.1c0,0,0,0,0,0V24.1
	h5.3c1.1,0,2.1-0.9,2.1-2.1C70.5,21.5,70.4,21.1,70.1,20.8L70.1,20.8z"/>
</svg>
