<?xml version="1.0" encoding="utf-8"?>
<!-- Generator: Adobe Illustrator 21.1.0, SVG Export Plug-In . SVG Version: 6.00 Build 0)  -->
<svg version="1.1" id="ico_erosion" xmlns="http://www.w3.org/2000/svg" xmlns:xlink="http://www.w3.org/1999/xlink" x="0px"
	 y="0px" viewBox="0 0 50 38.7" style="enable-background:new 0 0 50 38.7;" xml:space="preserve">
<style type="text/css">
	.st0{fill:#E7FAE0;}
	.st1{fill:#00CCB3;}
	.st2{fill:#CC7025;}
	.st3{fill:#AA5413;}
</style>
<path id="Tracé_5739" class="st0" d="M27.5,1.4l4.2,5.1C28.3,8.7,26.8,13,28,16.9c1.3,4.1,3.6,7.8,6.6,10.8
	c0.2,0.2,0.4,0.4,0.6,0.5c-1.5,3.2-1.8,6.6,0.8,9.4c-11.6,0.2-22.8,0-34.4,0.2L27.5,1.4z"/>
<path id="Tracé_5024" class="st1" d="M0,38.7L27.4,0L33,6.8l-0.9,0.5c-3.1,2-4.5,5.8-3.3,9.3c1.3,4,3.5,7.6,6.4,10.5
	c0.1,0.1,0.2,0.2,0.4,0.3l0.6,0.6l-0.3,0.6c-1.6,3.4-1.4,6.2,0.7,8.4l1.3,1.4l-1.9,0c-5.8,0.1-11.6,0.1-17.2,0.1
	c-5.6,0-11.4,0-17.2,0.1L0,38.7z M27.5,2.8l-24.1,34c5.3-0.1,10.5-0.1,15.6-0.1c5,0,10.2,0,15.4-0.1c-1.4-2.4-1.5-5.1-0.2-8.3
	c-0.1,0-0.1-0.1-0.2-0.2c-3.2-3.1-5.5-6.9-6.9-11.2c-1.2-3.9,0-8.2,3.2-10.7L27.5,2.8z"/>
<path id="Tracé_5740" class="st2" d="M43.5,36.2c-3.1,0-5.5-2.5-5.5-5.6c0-3.1,2.5-5.5,5.6-5.5c3.1,0,5.5,2.5,5.5,5.6
	C49.1,33.8,46.6,36.2,43.5,36.2L43.5,36.2z M40,19.3c-0.1,1.5-1.3,2.6-2.8,2.6c-1.5-0.1-2.6-1.3-2.6-2.8c0.1-1.5,1.3-2.6,2.7-2.6
	C38.9,16.5,40,17.8,40,19.3z M34.4,12.4c0,1-0.7,1.9-1.7,1.9h0c-1-0.1-1.8-1-1.8-2c0.1-0.9,0.8-1.7,1.8-1.8
	C33.6,10.6,34.4,11.4,34.4,12.4z"/>
<path id="Tracé_5741" class="st3" d="M43.5,37.1c-3.6,0-6.4-3-6.4-6.5c0-3.6,3-6.4,6.5-6.4c3.5,0,6.3,2.9,6.4,6.4
	c0,1.7-0.7,3.3-1.9,4.5C46.9,36.4,45.2,37.1,43.5,37.1L43.5,37.1L43.5,37.1z M43.5,26c-1.3,0-2.5,0.5-3.4,1.4
	c-1.8,1.8-1.9,4.8-0.1,6.6l0,0c0.9,0.9,2.1,1.4,3.4,1.4l0,0c1.3,0,2.5-0.5,3.4-1.4c0.9-0.9,1.4-2.1,1.4-3.3C48.2,28,46.1,26,43.5,26
	L43.5,26z M37.3,22.9c-0.9,0-1.8-0.4-2.5-1c-1.4-1.4-1.4-3.8,0-5.2l0,0c0.7-0.6,1.6-1,2.5-1c2,0.1,3.6,1.8,3.5,3.8
	C40.8,21.3,39.3,22.8,37.3,22.9L37.3,22.9z M37.3,17.4c-0.5,0-0.9,0.2-1.2,0.5c-0.4,0.4-0.6,0.8-0.6,1.3c0,0.5,0.2,1,0.6,1.4
	c0.3,0.3,0.8,0.5,1.3,0.5l0,0c1,0,1.8-0.9,1.8-1.9l0,0C39.2,18.2,38.4,17.4,37.3,17.4L37.3,17.4z M32.6,15.2L32.6,15.2
	c-1.5,0-2.6-1.3-2.6-2.7c0-0.8,0.3-1.5,0.8-2c0.5-0.5,1.1-0.8,1.8-0.8l0,0c1.5,0,2.6,1.2,2.6,2.7l0,0c0,0.8-0.3,1.5-0.8,2
	C33.9,14.9,33.3,15.2,32.6,15.2L32.6,15.2z M32.6,11.5c-0.2,0-0.4,0.1-0.6,0.3c-0.2,0.2-0.3,0.5-0.3,0.8c0,0.5,0.4,1,0.9,1l0,0
	c0.2,0,0.4-0.1,0.6-0.3c0.2-0.2,0.3-0.5,0.3-0.8l0,0C33.5,11.9,33.1,11.5,32.6,11.5L32.6,11.5z"/>
</svg>
