<?xml version="1.0" encoding="utf-8"?>
<!-- Generator: Adobe Illustrator 21.1.0, SVG Export Plug-In . SVG Version: 6.00 Build 0)  -->
<svg version="1.1" id="Layer_1" xmlns="http://www.w3.org/2000/svg" xmlns:xlink="http://www.w3.org/1999/xlink" x="0px" y="0px"
	 viewBox="0 0 92.5 100" style="enable-background:new 0 0 92.5 100;" xml:space="preserve">
<style type="text/css">
	.st0{fill:#0FCB8F;}
</style>
<path id="Tracé_5793" class="st0" d="M48.5,54.3c0.9-1,2.3-1.6,3.7-1.6c5.6-0.3,11.3-0.7,16.9-1c1.7-0.3,3.3,0.9,3.5,2.5
	c0,0.1,0,0.1,0,0.2c1.7,7.5,3.4,14.9,5,22.4c0.6,2.7-1.4,4.6-4,3.7c-1.7-0.6-2.8-0.1-4,1c-6,5.7-12.1,11.3-18.2,16.9
	c-2.3,2.1-3.7,2-6.1,0c-6.5-5.5-13.4-10.5-20-15.8c-0.5-0.3-1-0.5-1.6-0.3c-1.9,0.3-3.7,0.5-5.6,0.7c-2.9,0.4-4.5-1.3-3.9-4.1
	c1.7-7.8,3.4-15.6,5.2-23.4c0.1-1.7,1.6-2.9,3.3-2.8c0,0,0,0,0,0h0c7.5,0,15,0,22.4,0C46.5,52.8,47.7,53.3,48.5,54.3z M63.4,83
	L51.8,72.2c-0.4-0.3-0.7-0.7-1.1-1.1c-0.8-0.7-1-1.6-0.3-2.4s1.6-0.6,2.4,0.1c3.5,3.2,7,6.4,10.5,9.6c2.6,2.4,2.5,2.3,5.2-0.1
	c0.9-0.8,0.9-1.2,0-2.1c-5.1-4.6-10.2-9.1-15.2-13.8c-1.3-1.2-2-0.8-2.9,0.2c-1.3,1.5-2.7,3-3.8,4.6c-1,1.4-2.7,2.1-4.5,1.9
	c-1.2,0.1-2.3-0.5-2.9-1.5c-0.5-1.1,0-2.1,0.7-3c1.8-2.3,3.7-4.5,5.5-6.8c0.4-0.5,1.2-0.9,0.9-1.7c-0.3-0.7-1.2-0.6-1.8-0.6
	c-6.7,0-13.5,0-20.2,0c-1.2,0-1.6,0.4-1.8,1.5c-1.2,5.6-2.5,11.1-3.7,16.7c-0.4,2-0.8,3.9-1.3,6.1c2.5-0.3,4.8-0.6,7-0.9
	c0.8-0.3,1.7,0,2.4,0.6c0.6,0.6,1,0.5,1.5-0.2c0.3-0.4,0.5-0.7,0.8-1.1c2-2.6,2.2-2.6,4.7-0.5c0.2,0.2,0.4,0.4,0.7,0.5
	c0.7,0.5,0.9,1.5,0.4,2.2c-0.1,0.1-0.1,0.2-0.2,0.2c-0.5,0.6-1,1.2-1.5,1.9c-0.3,0.5-1.4,0.7-0.4,1.6c1,0.8,1.1-0.3,1.5-0.6
	c0.5-0.5,0.9-1.1,1.3-1.6c0.5-0.6,1.3-0.8,2-0.4c3.2,1.6,3.5,2.9,1.4,5.6c-0.2,0.2-0.3,0.5-0.5,0.7c-0.4,0.4-0.1,0.7,0.2,0.9
	c0.3,0.2,0.6,0.6,1,0.1s0.8-1,1.2-1.5c0.4-0.6,1.1-0.9,1.8-0.8c2.8,0.6,3.8,3.2,2.1,5.4c-0.4,0.5-1,0.8-0.1,1.5
	c0.8,0.6,1-0.1,1.3-0.5c2-2.3,2-2.3,4.4-0.4c0.2,0.2,0.5,0.3,0.7,0.5c0.5,0.4,0.8,1,1.6,0.2c0.9-1-0.2-1.2-0.5-1.5
	c-2.5-2.3-5-4.5-7.5-6.7c-0.8-0.7-1.5-1.5-0.6-2.6s1.8-0.5,2.7,0.3c2.2,2,4.5,4,6.8,6c2.1,1.8,2,1.8,4.2-0.1c0.8-0.7,0.8-1.1,0-1.8
	c-3.2-2.8-6.3-5.6-9.5-8.4c-0.8-0.7-1.5-1.6-0.6-2.6c0.9-1,1.8-0.5,2.7,0.3c2.6,2.4,5.3,4.7,7.9,7.1C60.6,85.9,60.6,85.9,63.4,83
	L63.4,83z M29.3,49.5c-2.2,0-4.2-0.1-6.1,0c-0.9,0.1-1.7-0.4-1.9-1.3C18.4,41.8,16.5,35,15.8,28c-0.7-4.9-0.8-9.9-0.5-14.9
	c0.1-1.2,0.4-1.5,1.6-1.5c6.4,0.3,12.8-0.9,18.7-3.5c3.8-1.7,7.2-4.2,9.8-7.5c0.6-0.8,1-1,1.7-0.1c5.7,7.1,13.6,9.9,22.3,10.8
	c2.2,0.2,4.4,0.3,6.7,0.2c0.8,0,1.1,0.2,1.1,1c0.8,11.8-1,23.6-5.5,34.5c-0.2,0.8-1,1.3-1.9,1.2c-2-0.1-4.1,0.1-6.3,0.2
	c1.7-3.2,3.1-6.5,4.1-10c1.8-6.1,2.8-12.5,3-18.9c0.1-1.2-0.3-1.5-1.4-1.6c-8-0.6-15.7-3.4-22.2-8.2c-0.5-0.4-0.8-0.6-1.4-0.1
	c-6.5,4.9-14.2,7.7-22.3,8.3c-1.2,0.1-1.5,0.5-1.4,1.6c0.4,10.1,2.2,19.9,7.2,28.9C29.2,49,29.2,49.2,29.3,49.5L29.3,49.5z M92.5,69
	v14.7c0,2-0.4,2.4-2.4,2.4c-1.8,0-3.7-0.1-5.5,0c-1.1,0.2-2.1-0.5-2.3-1.6c0-0.1,0-0.1,0-0.2c-2.2-10-4.4-19.9-6.6-29.9
	c-0.4-2,0.1-2.6,2.1-2.6c4,0,8,0,12,0c2.2,0,2.6,0.4,2.6,2.6C92.5,59.3,92.5,64.2,92.5,69L92.5,69z M0,70.2c0-4.9,0-9.8,0-14.7
	c0-1.6,0.6-2.3,2.2-2.3c4.2,0.1,8.3,0,12.5,0c1.9,0,2.4,0.6,2.1,2.4c-2.2,10.1-4.4,20.1-6.6,30.2c-0.1,1-1,1.8-2,1.6c-2,0-4,0-6,0
	c-1.5,0-2.1-0.7-2.1-2.2C0,80.2,0,75.2,0,70.2z M34.9,33.6c0.9,0,1.8,0.4,2.4,1c0.9,0.9,1.9,1.9,2.8,2.8c1.7,1.6,3.3,1.5,4.8-0.2
	c3.1-3.6,6.2-7.3,9.2-11c0.3-0.3,0.5-0.6,0.8-0.9c1.4-1.6,3.2-1.8,4.5-0.7c1.2,1.2,1.3,3.2,0,4.4l0,0c-4.7,5.7-9.4,11.3-14.2,16.9
	c-1.4,1.6-3.1,1.8-4.6,0.3c-2.6-2.4-5.1-4.9-7.6-7.4c-1-0.9-1.4-2.3-0.8-3.6C32.7,34.2,33.7,33.5,34.9,33.6L34.9,33.6z"/>
</svg>
