<?xml version="1.0" encoding="utf-8"?>
<!-- Generator: Adobe Illustrator 21.1.0, SVG Export Plug-In . SVG Version: 6.00 Build 0)  -->
<svg version="1.1" id="Layer_1" xmlns="http://www.w3.org/2000/svg" xmlns:xlink="http://www.w3.org/1999/xlink" x="0px" y="0px"
	 viewBox="0 0 120.8 110" style="enable-background:new 0 0 120.8 110;" xml:space="preserve">
<style type="text/css">
	.st0{fill:#48DBC9;}
	.st1{fill:#88E766;}
	.st2{fill:#FFFFFF;}
	.st3{fill:#E8EAEA;}
	.st4{fill:#D4D6D8;}
	.st5{fill:none;}
	.st6{fill:#BEF7F0;}
	.st7{fill:#0FCB8F;}
</style>
<path id="Tracé_5787" class="st0" d="M119.9,3h-2.2V0.9c0-0.5-0.4-0.9-0.9-0.9H116c-0.5,0-0.9,0.4-0.9,0.9V3H113
	c-0.5,0-0.9,0.4-0.9,0.9c0,0,0,0,0,0v0.9c0,0.5,0.4,0.9,0.9,0.9c0,0,0,0,0,0h2.2v2.2c0,0.5,0.4,0.9,0.9,0.9l0,0h0.9
	c0.5,0,0.9-0.4,0.9-0.9V5.6h2.2c0.5,0,0.9-0.4,0.9-0.9V3.9C120.8,3.4,120.4,3,119.9,3z"/>
<path id="Tracé_5788" class="st1" d="M109.5,50.5h-2.2v-2.2c0-0.5-0.4-0.9-0.9-0.9h-0.9c-0.5,0-0.9,0.4-0.9,0.9v0v2.2h-2.2
	c-0.5,0-0.9,0.4-0.9,0.9v0v0.9c0,0.5,0.4,0.9,0.9,0.9c0,0,0,0,0,0h2.2v2.2c0,0.5,0.4,0.9,0.9,0.9c0,0,0,0,0,0h0.9
	c0.5,0,0.9-0.4,0.9-0.9v0v-2.2h2.2c0.5,0,0.9-0.4,0.9-0.9v0v-0.9C110.4,50.9,110,50.5,109.5,50.5z M4.4,16.6c-0.8,0-1.6-0.3-2.2-0.9
	l-1.3-1.3c-1.2-1.2-1.2-3.2,0-4.4c0,0,0,0,0,0l0,0l1.3-1.3c1.2-1.2,3.2-1.2,4.4,0L8,9.9c1.2,1.2,1.2,3.2,0,4.4c0,0,0,0,0,0l0,0
	l-1.3,1.3C6.1,16.3,5.3,16.6,4.4,16.6z M4.4,10c-0.2,0-0.4,0.1-0.6,0.2l-1.3,1.3c-0.3,0.3-0.3,0.8,0,1.1c0,0,0,0,0,0l0,0L3.9,14
	c0.3,0.3,0.8,0.3,1.1,0l1.3-1.3c0.3-0.3,0.3-0.8,0-1.1c0,0,0,0,0,0l0,0L5,10.3C4.9,10.1,4.7,10,4.4,10z"/>
<path id="Tracé_5789" class="st2" d="M35.1,10h45.2c2.8,0,5.1,2.3,5.1,5.1v88.4c0,2.8-2.3,5.1-5.1,5.1H35.1c-2.8,0-5.1-2.3-5.1-5.1
	V15.1C30,12.2,32.3,10,35.1,10z"/>
<path id="Tracé_5790" class="st3" d="M85.4,99H30v4.4c0,2.8,2.3,5.1,5.1,5.1h45.2c2.8,0,5.1-2.3,5.1-5.1V99z M71.2,10h-27l2,7.4
	c0.1,0.5,0.4,1,1,1h21.1c0.5,0,0.8-0.5,1-1L71.2,10z"/>
<path id="Tracé_5791" class="st4" d="M85.4,99h-9.1v4.4c0,2.8-2.3,5.1-5.1,5.1h9.1c2.8,0,5.1-2.3,5.1-5.1V99z M69.2,17.4l2-7.4H66
	l-2,7.4c-0.1,0.5-0.4,1-1,1h5.2C68.7,18.4,69,17.9,69.2,17.4L69.2,17.4z"/>
<path id="Tracé_4996" class="st5" d="M67.8,16.9l1.5-5.4H46.1l1.4,5.4H67.8z"/>
<path id="Tracé_5792" class="st6" d="M85.4,15.1c0-2.8-2.3-5.1-5.1-5.1h-9.1c2.8,0,5.1,2.3,5.1,5.1v82.5h9.1V15.1z"/>
<path id="Tracé_4998" class="st7" d="M86.9,89.7V15.1c0-3.6-3-6.6-6.6-6.6H35.1c-3.6,0-6.6,2.9-6.6,6.6v88.4c0,3.6,3,6.6,6.6,6.6
	h45.2c3.6,0,6.6-2.9,6.6-6.6V89.7z M69.2,11.4l-1.5,5.4H47.6l-1.5-5.4L69.2,11.4z M83.9,97.6H61.1c-0.8,0-1.5,0.7-1.5,1.5
	c0,0.8,0.7,1.5,1.5,1.5l0,0h22.8v2.9c0,2-1.6,3.6-3.6,3.6H35.1c-2,0-3.6-1.6-3.6-3.6v-2.9h22.8c0.8,0,1.5-0.7,1.5-1.5
	c0-0.8-0.7-1.5-1.5-1.5H31.4V15.1c0-2,1.6-3.6,3.6-3.6h8l1.7,6.3c0.2,1.2,1.2,2,2.4,2.1h21.1c1.2,0,2.2-0.9,2.4-2.1l1.7-6.3h8
	c2,0,3.6,1.6,3.6,3.6L83.9,97.6L83.9,97.6z"/>
</svg>
