<?xml version="1.0" encoding="utf-8"?>
<!-- Generator: Adobe Illustrator 21.1.0, SVG Export Plug-In . SVG Version: 6.00 Build 0)  -->
<svg version="1.1" id="Layer_1" xmlns="http://www.w3.org/2000/svg" xmlns:xlink="http://www.w3.org/1999/xlink" x="0px" y="0px"
	 viewBox="0 0 50 41.5" style="enable-background:new 0 0 50 41.5;" xml:space="preserve">
<style type="text/css">
	.st0{fill:#FFFFFF;}
	.st1{fill:#B7B7B6;}
	.st2{fill:#149AC4;}
	.st3{fill:#00CCB3;}
	.st4{fill:#FBB03B;}
	.st5{fill:#88E766;}
</style>
<path id="Tracé_5745" class="st0" d="M9,30.2h5.7v9.9H9V30.2z M22.7,27.1l-1.6-1.6v14.6h15.6V27.3H23.2
	C23,27.3,22.8,27.3,22.7,27.1L22.7,27.1z M4.1,24v16.1h3.5V29.5c0-0.4,0.3-0.7,0.7-0.7h7.1c0.4,0,0.7,0.3,0.7,0.7v10.6h3.5v-16
	l-7.9-7.8L4.1,24z"/>
<path id="Tracé_5746" class="st1" d="M28.2,24.5h-1.4v-1.4h-1.4c-0.2,0-0.4-0.1-0.5-0.2L19,17v1.1h-1.4V16h-4l9.9,9.9h13.6
	l-2.8-2.8h-6.1L28.2,24.5z"/>
<path id="Tracé_5747" class="st2" d="M36.4,21.7h-2.2l-10-10h2.2L36.4,21.7z M32.2,21.7h-2.3l-10-10h2.3L32.2,21.7z M27.9,21.7
	h-2.3l-10-10H18L27.9,21.7z"/>
<path id="Tracé_5748" class="st3" d="M39.3,26.1l-3.1-3.1h1.8c0.4,0,0.7-0.3,0.7-0.7c0-0.2-0.1-0.4-0.2-0.5L27.2,10.5
	c-0.1-0.1-0.3-0.2-0.5-0.2H13.9c-0.4,0-0.7,0.3-0.7,0.7c0,0.2,0.1,0.4,0.2,0.5l3.1,3.1H12c-0.2-0.1-0.5,0-0.7,0.2L0,26l1,1l1.6-1.6
	v15.4c0,0.4,0.3,0.7,0.7,0.7h34.1c0.4,0,0.7-0.3,0.7-0.7V27.3h0.7c0.4,0,0.7-0.3,0.7-0.7v0l0,0C39.5,26.4,39.5,26.3,39.3,26.1z
	 M26.4,11.7l10,10h-2.2l-10-10H26.4z M37.1,40.9H3.6V24.1l8.4-8.4l7.6-0.2l-3.9-3.9H18l3.8,3.8l2,0L20,11.7h2.3l3.7,3.7l0.6,0
	l11.1,11L37.1,40.9z M25.9,15.4l6.3,6.3h-2.3l-6.2-6.2l-2,0l6.2,6.2h-2.3l-6.1-6.1L12,15.7l-8.4,8.4v16.8h33.5l0.6-14.5l-11.1-11
	L25.9,15.4z M14.7,40.1H9v-9.9h5.7V40.1z M19.7,40.1h-3.5V29.5c0-0.4-0.3-0.7-0.7-0.7H8.3c-0.4,0-0.7,0.3-0.7,0.7v10.7H4.1V24
	l7.8-7.8l7.9,7.8L19.7,40.1z M36.7,40.1H21.1V25.5l1.6,1.6c0.1,0.1,0.3,0.2,0.5,0.2h13.5L36.7,40.1z M37.1,25.9H23.5L13.6,16h4v2.1
	H19V17l5.9,5.9c0.1,0.1,0.3,0.2,0.5,0.2h1.4v1.4h1.4v-1.4h6.1L37.1,25.9z M24.6,37.3h8.5c0.4,0,0.7-0.3,0.7-0.7l0,0v-5.7
	c0-0.4-0.3-0.7-0.7-0.7h-8.5c-0.4,0-0.7,0.3-0.7,0.7v5.7C23.9,37,24.2,37.3,24.6,37.3C24.6,37.3,24.6,37.3,24.6,37.3L24.6,37.3z
	 M32.4,35.8h-2.8v-4.3h2.8V35.8z M25.3,31.6h2.8v4.3h-2.8L25.3,31.6z M10.4,34.4h1.4v1.4h-1.4V34.4z"/>
<path id="Tracé_5749" class="st4" d="M38.3,7c0.4-2.2,2.5-3.8,4.7-3.4c2.2,0.4,3.8,2.5,3.4,4.7c-0.4,2.2-2.5,3.8-4.7,3.4
	C39.4,11.4,37.9,9.3,38.3,7z M41.8,0h1v2.1h-1V0z M41.8,13.3h1v2.1h-1V13.3z M47.4,1.9l0.7,0.7l-1.5,1.5l-0.7-0.7L47.4,1.9z
	 M38,11.3l0.7,0.7l-1.5,1.5l-0.7-0.7L38,11.3z M50,7.2v1H48v-1L50,7.2z M36.7,7.2v1h-2.1v-1L36.7,7.2z M48.1,12.8l-0.7,0.7L45.9,12
	l0.7-0.7L48.1,12.8z M38.7,3.3L38,4.1l-1.5-1.5l0.7-0.7L38.7,3.3z"/>
<path id="Tracé_5750" class="st5" d="M44,33.4h-1v-1c0-0.2-0.2-0.4-0.4-0.4h-0.4c-0.2,0-0.4,0.2-0.4,0.4c0,0,0,0,0,0l0,0v1h-1.1
	c-0.2,0-0.4,0.2-0.4,0.4l0,0v0.4c0,0.2,0.2,0.4,0.4,0.4h1v1.1c0,0.2,0.2,0.4,0.4,0.4h0.4c0.2,0,0.4-0.2,0.4-0.4v-1H44
	c0.2,0,0.4-0.2,0.4-0.4v-0.4C44.4,33.6,44.2,33.4,44,33.4L44,33.4z"/>
</svg>
