<?xml version="1.0" encoding="utf-8"?>
<!-- Generator: Adobe Illustrator 21.1.0, SVG Export Plug-In . SVG Version: 6.00 Build 0)  -->
<svg version="1.1" id="Layer_1" xmlns="http://www.w3.org/2000/svg" xmlns:xlink="http://www.w3.org/1999/xlink" x="0px" y="0px"
	 viewBox="0 0 24.4 50" style="enable-background:new 0 0 24.4 50;" xml:space="preserve">
<style type="text/css">
	.st0{fill:#00CCB3;}
	.st1{fill:#88E766;}
</style>
<path id="Tracé_5737" class="st0" d="M16,32.4c-0.2-0.1-0.3-0.4-0.3-0.6c0-4.5,0-9,0-13.5c0-2.6,0-5.1,0-7.7c0-1.9,0-3.8,0-5.8
	c-0.1-2.3-1.7-4.3-4-4.8C10.6,0,9.6,0,8.6,0.1C8,0.1,7.4,0.3,6.9,0.5C5.1,1.4,4,3.3,4,5.3C4,14.1,4,23,4,31.8c0,0.2-0.1,0.4-0.2,0.5
	c-2.7,2.1-4.2,5.4-3.8,8.8c0,0.2,0.1,0.4,0.1,0.7c0.9,5.4,6,8.9,11.4,8c0,0,0,0,0,0c3.9-0.5,7-3.4,7.9-7.3
	C20.5,38.8,19.1,34.8,16,32.4z M10.6,48c-4.3,0.4-8.2-2.8-8.5-7.2c-0.3-2.9,1-5.7,3.5-7.3C5.9,33.4,6.1,33,6,32.7
	c0-9.2,0-18.3,0-27.5C6,3.7,7,2.4,8.5,2.1c0.9-0.1,1.9-0.1,2.8,0c1.4,0.3,2.4,1.6,2.4,3c0,1.5,0,3.1,0,4.6V19c0,4.6,0,9.2,0,13.9
	c0,0.3,0.1,0.5,0.3,0.6c2.1,1.3,3.5,3.5,3.7,6C18.1,43.8,14.9,47.6,10.6,48C10.6,48,10.6,48,10.6,48L10.6,48z M24.4,2v1.7h-7.1V2
	L24.4,2z M17.4,9.1h7.1v1.7h-7.1L17.4,9.1z M22.7,5.5v1.7h-5.3V5.5L22.7,5.5z M17.4,12.7h5.3v1.7h-5.3V12.7z"/>
<path id="Tracé_5738" class="st1" d="M12.6,34.4c-0.3-0.1-0.4-0.3-0.4-0.6c0-4.5,0-19.3,0-23.8c0-0.1,0-0.1,0-0.2
	c0-0.9-0.8-1.6-1.7-1.5c0,0,0,0,0,0c-0.4,0-0.9,0-1.3,0c-0.1,0-0.2,0-0.3,0C8,8.3,7.4,9.1,7.5,10v17c0,2.2,0,4.5,0,6.7
	c0,0.3-0.1,0.5-0.4,0.6c-1.3,0.6-2.4,1.7-3.1,3.1c-1.5,3.2-0.1,7,3.1,8.5c3.2,1.5,7,0.1,8.5-3.1C17.2,39.7,15.8,35.9,12.6,34.4z
	 M14.2,43.4C14.2,43.4,14.2,43.4,14.2,43.4c-0.1,0.1-0.1,0.1-0.1,0.1c0,0-0.1,0.1-0.1,0.1c0,0-0.1,0-0.1,0.1c0,0-0.1,0-0.1,0
	c0,0-0.1,0-0.1,0c0,0-0.1,0-0.1,0c0,0-0.1,0-0.1,0c0,0-0.1,0-0.1,0c0,0,0,0-0.1,0l0,0c0,0,0-0.1-0.1-0.1c0,0-0.1-0.1-0.1-0.1
	c0,0,0-0.1,0-0.1c0,0,0-0.1,0-0.1c0,0,0-0.1,0-0.1c0,0,0-0.1,0-0.1c0,0,0-0.1,0.1-0.1c0,0,0-0.1,0-0.1l0,0c0.5-0.8,0.7-1.6,0.7-2.5
	c0-0.9-0.3-1.8-0.8-2.6c-0.2-0.2-0.2-0.5,0-0.7c0.2-0.2,0.4-0.3,0.7-0.2c0.1,0.1,0.3,0.2,0.3,0.3C15.7,38.8,15.7,41.5,14.2,43.4z"/>
</svg>
