<?xml version="1.0" encoding="utf-8"?>
<!-- Generator: Adobe Illustrator 21.1.0, SVG Export Plug-In . SVG Version: 6.00 Build 0)  -->
<svg version="1.1" id="Layer_1" xmlns="http://www.w3.org/2000/svg" xmlns:xlink="http://www.w3.org/1999/xlink" x="0px" y="0px"
	 viewBox="0 0 50.3 57.6" style="enable-background:new 0 0 50.3 57.6;" xml:space="preserve">
<style type="text/css">
	.st0{fill:#CB7025;}
	.st1{fill:#A95413;}
	.st2{fill:#6D9007;}
	.st3{fill:#9EC034;}
	.st4{fill:#88AD1E;}
	.st5{fill:#1D1D1B;}
	.st6{fill:#FFFFFF;}
	.st7{fill:#EA8BA8;}
</style>
<g id="ico_reussi" transform="translate(107.622 0.003)">
	<path id="Tracé_5408" class="st0" d="M-103.2,18.2c0.2,0.1,0.6,0.5,0.5-0.2c-0.1-0.4-0.2-0.7-0.3-1.1c-0.1-0.3-0.1-0.6-0.2-0.8
		c0.7-0.1,0.6,0.4,0.8,0.7s0,0.8,0.6,0.9c0.5-0.5,0-1,0.1-1.7c0.4,0.7,0.5,1.5,0.4,2.3c-0.1,2.3,1.6,4.3,3.9,4.5c0,0,0,0,0,0
		c0.1,0,0.2,0,0.3,0c2.8,0.1,2.9,0.1,3.2-2.7c0.1-1.2,1.2-2.1,1-3.3l0.3,0v1.7c1.9-0.2,3.5-1.6,5.5-0.8c0.2,0.3,0.3,0.5,0.5,0
		c0.5-0.7,0.3-1.3,0-2.1c-0.9-1.7-1-3.8-2.8-5c-0.9-0.6-1.6-0.7-1.8,0.6l-0.3,0c-0.4-0.8-0.8-1-1.7-0.6c-1.3,0.4-2.6-0.3-3-1.6
		c0-0.1-0.1-0.2-0.1-0.3c0-0.2-0.3-0.7,0.2-0.6c0.1,0,0.7-0.3,0.8,0.5c0.2,1.6,1,1.9,2.5,1.3c0.7-0.3,1.6-0.4-0.1-1.4
		c2.9,0.6,5.1,1.4,6.1,3.9c0.1,0.2,0.3,0.6,0.7,0.5c0.4-0.1,0.4-0.4,0.5-0.7c0.1-1.1,0-2.1-0.5-3.1c-0.1-0.4-0.3-0.8-0.1-1.2h0
		c1.5,0.1,1,1.6,1.6,2.3c0.3,0.6,0.8,0.3,1.2,0.2c0.5,0.2,0.9,0.1,1-0.5l0.6,0.2c0.5,0.7,1.8,0.8,1.6,2l-0.2,0.2l0.5,0.1
		c0.7-0.1,1.4,0.1,2,0.4c0.5,0.4,1.1,0.4,1.6,0c0.3,0.1,0.5,0.8,0.8,0.4c0.3-0.4,0.3-1-0.1-1.4c-0.8-1.2-0.3-1.4,0.9-1.2
		c0,0.1,0,0.2,0.1,0.3c-0.4,1.3,0.2,2.4,0.6,3.5c0.1,0.3,0,0.9,0.6,0.8c0.3-0.1,0.6-0.4,0.9-0.6c0.3-0.3-0.1-1.2,0.8-1.1l0.6,0
		c-0.1,1.1-0.8,2-1.9,2.3c-1,0.5-0.6,1.2-0.5,1.7c0.1,0.7,0.7,0.5,1.3,0.4c0.8-0.2,1.6,0,2.4-0.2c2-0.4,3.4-2.2,3.4-4.2
		c0-0.5,0-1,0-1.5c1.2,1.3,1-0.2,1.5-0.7c0.5,0.6-0.2,1.3,0.2,1.9l0.8-0.7l0.3,0.2c-0.8,1.4-1.8,2.7-2.6,4c-1.8,3-4.7,3.6-7.7,3.8
		c-3.9,0.3-5.6,3.9-4.2,7.1c1.2,2.7,2.7,5.2,3.7,8c1.9,5.1,2.3,10.7,1.1,16c-0.4,2.9-2.7,5.1-5.6,5.4c-2.6,0.5-5.4,0.6-8,0.4
		c-5.2-0.8-7.8-4.5-7.5-9.9c0.3-5.2,2.6-9.7,4.9-14.2c0.7-1.3,0.9-2.8,0.6-4.2c-0.4-1.8-1.9-3.2-3.7-3.5c-1.7-0.2-3.4-0.6-5-1
		c-0.6-0.1-1.2-0.4-1.7-0.9c-1.5-1.6-2.8-3.4-3.8-5.3L-103.2,18.2z M-81.6,13.5c0.2-2.4-1.4-2.5-3.3-2.4c0.1,2,0.1,4,1.5,5.7
		c0.7-0.7,0.1-1.9,1.1-2.3c0,0.9,0,1.8,0,2.7c0,0.4,0.2,0.7,0.6,0.8c0.4,0.1,0.5-0.2,0.7-0.5c0.7-1.8,2.2-3,4.1-3.5
		C-78.4,12.6-80,13.5-81.6,13.5L-81.6,13.5z M-92.6,21.6c0.1,1.4,1.2,2.1,2.5,2.4c1,0.2,1.8,0.8,2.2,1.6c0.3,0.7,0.9,0.6,0.9,0.1
		c0.3-2,1.8-3.1,2.7-4.6c0.6-0.9-0.2-2.6-1.2-2.5c-1,0-2-0.1-3-0.3c-1.9-0.4-3.8,0.9-4.2,2.8C-92.6,21.3-92.6,21.5-92.6,21.6
		L-92.6,21.6z M-76.8,15c-0.3,0-0.5,0-0.8,0.1c-1.5,0.5-3.7,3.9-3.5,5.4c0.1,0.2,0.2,0.5,0.5,0.6c0.4,0.3,0.4-0.2,0.5-0.4
		c0.4-1,1.3-1.6,2.3-1.7c0.7-0.2,1.4-0.6,1.9-1.2c0.7-0.6,0.6-1.5,0.5-2.3C-75.6,14.9-76.3,15.1-76.8,15L-76.8,15z"/>
	<path id="Tracé_5805" class="st1" d="M-61.8,12.4l-0.8,0.7c-0.4-0.6,0.3-1.3-0.2-2c-0.5,0.5-0.2,2-1.5,0.7v0.7l0.2-0.1l0.3,0.2
		c-0.1,0.2-0.3,0.4-0.4,0.7v0c0.1,1.8-1,3.4-2.7,4c-1.8,2.4-4.5,2.9-7.3,3.1c-3.9,0.3-5.6,3.9-4.2,7.1c1.2,2.7,2.7,5.2,3.7,8
		c1.9,5.1,2.3,10.7,1.1,16c-0.4,2.9-2.7,5.1-5.6,5.4c-1.4,0.2-2.9,0.4-4.3,0.5c2.3,0.1,4.5-0.1,6.7-0.5c2.9-0.3,5.2-2.5,5.6-5.4
		c1.2-5.3,0.8-10.9-1.1-16c-1-2.8-2.6-5.3-3.7-8c-1.4-3.2,0.3-6.8,4.2-7.1c3-0.2,5.9-0.8,7.7-3.8c0.8-1.4,1.8-2.7,2.6-4L-61.8,12.4z
		"/>
	<path id="Tracé_5806" class="st2" d="M-79.5,19.5h-0.2c-1.5-0.4-2.4-1.9-2-3.4c0,0,0-0.1,0-0.1c0-0.3,0.1-0.6-0.3-0.4
		c-0.9,0-1.7-0.7-2.7-0.7c-0.4-0.2-0.8-0.6-1.3-0.3c-0.8,0.4-1.6,0.7-2.5,0.8c-0.9-1-2.3-1.3-3.5-0.9c-0.2,0.1-0.4,0-0.6-0.2
		c-1.1-1.1-2.4-1-3.7-0.9c-0.3,0.1-0.6,0-0.9-0.2c-1.2-0.8-1.8-1-3-0.1c-0.1,0.1-0.3,0.2-0.4,0.2c-0.4-0.7-0.5-1.5-0.3-2.3
		c0.2-0.7-0.2-0.7-0.7-0.8c-1.4-0.2-2.4-1.5-2.2-2.9c0,0,0,0,0,0c0-0.2,0.1-0.3,0.1-0.5c0.1-0.3,0.2-0.6,0.5-0.7
		c0.3,0.5,0.9,0.9,1.5,0.9c1,0,1,0,0.8,1c-0.2,1.5,0.4,3,1.7,3.8c1.2,0.8,3.6,0.9,4.4,0c0.4-0.5,1.1-0.6,1.7-0.3
		c2.1,0.9,4.4,0.9,6.5,0.1c0.5-0.2,1-0.6,1.6-0.2c0.1,0,0.2,0,0.3-0.1c0.5-0.8,0.5-0.1,0.7,0.2c0.4,0.8,1.2,1.4,2,1.6
		c0.7,0.1,1.6,0.1,1,1.3c0,0,0,0.1,0,0.2c0,1.3,1,2.4,2.2,2.6c1.1,0.3,2.2-0.1,2.8-1c0.2-0.3,0.3-0.4,0.7-0.2
		c0.8,0.6,1.9,0.4,2.5-0.4c0-0.1,0.1-0.1,0.1-0.2c0.2-0.3,0.4-0.3,0.7-0.2c0.7,0.5,1.6,0.4,2.3-0.1c0.3-0.2,0.6-0.3,0.8,0
		c1.3,1.6,3.6,1.8,5.1,0.5c0,0,0,0,0.1,0c0.2-0.2,0.6-0.3,0.8-0.1c0.7,0.4,1.5,0.3,2.2-0.1c0.3-0.1,0.4-0.6,0.8-0.6
		c0.5,0.6,1.2,0.5,1.8,0.4c0.3-0.1,0.6-0.3,0.8,0.1c0,0.1,0,0.2,0,0.3c-0.1,0.1-0.2,0.3-0.1,0.5c-0.3,1.1-1.5,1.7-2.6,1.3
		c0,0,0,0,0,0c-0.1,0-0.1-0.1-0.2-0.1c-0.3-0.2-0.7-0.2-1,0.1c-0.7,0.6-1.6,0.7-2.4,0.3c-0.2-0.1-0.4-0.3-0.6-0.1
		c-1.1,0.9-2.5,1.2-3.9,0.8c-0.1,0-0.2,0-0.2,0c-0.6-0.4-1.1-0.9-1.6-1.4l-0.1,0.1c-0.1,0-0.2,0-0.1,0.1l0,0
		c-0.6,0.1-1.1,0.6-1.7,0.4c-0.8-0.5-1.9-0.2-2.4,0.6c-0.1,0.1-0.1,0.1-0.2,0.2c-0.6,0.1-1.1,0-1.7-0.2c-0.2-0.2-0.5-0.1-0.7,0.1
		c0,0,0,0,0,0l0,0C-77.4,19.2-78.5,19.7-79.5,19.5z M-107,18.3c0.9,1.1,2.3,1.6,3.7,1.3c0.3-0.1,0.6,0,0.8,0.2
		c0.4,0.5,1.1,0.7,1.7,0.4c0.6-0.3,1.1,0.1,1.6,0.2c0.9,0.3,1.9,0.1,2.7-0.5c0.3-0.3,0.7-0.4,1.1-0.2c1.2,0.5,2.5,0.3,3.6-0.4
		c0.4-0.3,0.6-0.2,0.6,0.3l0,0l-2.1,1.6c-0.9,0.3-1.9,0.2-2.7-0.1c-0.3-0.1-0.4,0-0.6,0.2c-1,0.8-2.3,1-3.4,0.5
		c-0.2-0.1-0.5-0.2-0.8-0.1c-0.7,0.3-1.6,0.2-2.1-0.4c-0.2-0.2-0.5-0.1-0.8-0.1c-1,0.1-1.9-0.1-2.8-0.6c-0.9-0.4-1.3-1.3-0.9-2.2
		c0-0.1,0.1-0.2,0.2-0.3L-107,18.3z"/>
	<path id="Tracé_5807" class="st3" d="M-61.9,8.9c2,0,3.2,1.5,2.9,3.7c-0.1,0.5-0.1,0.8,0.5,1c0.7,0.3,1.1,0.9,1.1,1.6
		c-0.2-0.4-0.5-0.2-0.8-0.1c-0.7,0.1-1.3,0.3-1.8-0.4c0.4-0.9,0.2-2-0.5-2.8c-0.6-1-1.8-1.4-3-1.1c-0.6,0.2-0.7-0.1-0.7-0.5
		c-0.1-1-0.9-1.7-1.9-1.7c0,0,0,0,0,0c-0.1,0-0.2,0-0.4,0.1c-0.3,0-0.6,0-0.8-0.2C-69.3,7.2-72,7.3-74,8.8c-0.3,0.3-0.4,0.3-0.7-0.1
		c-0.6-1-1.9-1.3-2.9-0.8c-0.2,0.1-0.3,0.2-0.5,0.4c-0.7,0.8-1.1,1-2,0.4c-0.1-0.1-0.4-0.1-0.6-0.1c-0.9,0-1.7,0.2-2.4,0.6
		c0.1-1.7,1.6-2.9,3.2-2.8c0.5,0,1,0.2,1.4,0.4c0.4,0.2,0.5,0.2,0.7-0.1c0.5-0.8,1.4-1.2,2.3-1.1c0.6,0,0.9,0.4,1.5,0.6
		c-0.8-1.7-2.8-2.5-4.6-1.9c-0.6,0.3-0.8,0.1-1.3-0.2c-1.2-1.1-2.9-1.3-4.3-0.7c-1.2,0.6-2.2,1.6-3.7,1.2c-0.3-0.1-0.7,0.2-1,0.4
		c-0.2,0.2-0.5,0.2-0.7,0c-0.7-0.5-1.6-0.6-2.4-0.4c-0.2,0.1-0.4,0-0.6-0.2c-1.3-1.1-3.2-1-4.4,0.1C-97.1,4.9-97.3,5-97.6,5
		c-1.9-0.4-2.7,1.4-4.1,1.9c0,0,0,0.2-0.1,0.2c-0.6,0-1.2-0.3-1.5-0.9c0.3-0.8,1.1-0.9,1.8-1c0.4,0,0.7-0.2,0.8-0.6
		c0.2-0.6,0.7-1,1.2-1.1c0.4-0.1,0.8-0.4,1.1-0.7c0.6-0.7,1.5-1.1,2.5-1c0.3,0,0.6-0.1,0.9-0.3c1.2-1,2.9-1,4.1-0.2
		c0.3,0.2,0.7,0.3,1,0.2c0.7-0.2,1.4-0.1,1.9,0.3c0.3,0.3,0.8,0.3,1.2,0c0.6-0.4,1.3-0.5,2-0.3c0.3,0.1,0.7,0,0.9-0.2
		c1.6-1.7,4.2-1.8,5.9-0.2l0,0c0.3,0.3,0.8,0.4,1.2,0.2c1.6-0.7,3.5-0.1,4.4,1.3c0.3,0.4,0.5,0.5,1,0.3c1.7-0.8,3.7,0,4.5,1.7
		c0.2,0.4,0.3,0.7,0.3,1.1c0.1,0.5,0.3,0.5,0.7,0.4c1.1-0.2,2.2,0.3,2.7,1.3c-0.6,0.4,0,0.9,0,1.3c0,0.3,0.4,0,0.6,0
		S-62.1,8.9-61.9,8.9z M-72,6c-0.5-0.1-1.1,0-1.5,0.3c-0.2,0.1-0.3,0.3-0.2,0.4c0,0,0,0,0,0c0,0,0,0.1,0.1,0.1
		c0.2,0.2,0.4,0.1,0.5-0.1C-72.8,6.4-72.5,6.2-72,6z M-107,18.3l-0.3-0.3c0-0.3,0.2-0.5,0.2-0.8c-0.2-0.9,0.3-1.8,1.2-2.1
		c0.2,0,0.4-0.1,0.6,0c0.7,0,1.3-0.3,1.7-0.8c0.5-0.5,1.2-0.8,1.9-0.7c0.3,0,0.7,0.1,0.9-0.2c0.1-0.1,0.3-0.1,0.4-0.2
		c1.2-0.9,1.9-0.7,3,0.1c0.2,0.2,0.6,0.3,0.9,0.2c1.3-0.2,2.7-0.3,3.7,0.9c0.1,0.2,0.4,0.2,0.6,0.2c1.2-0.5,2.6-0.1,3.5,0.9
		c-0.1,0.5,0.4,1,0,1.5l-0.1-0.5c-0.6-0.9-1.7-1.3-2.6-0.9c-0.5,0.2-1.1,0-1.5-0.3c-0.9-0.7-2-0.9-3.1-0.7c-0.5,0.2-1,0-1.4-0.3
		c-0.8-0.6-1.9-0.6-2.7,0c-0.4,0.4-0.9,0.6-1.5,0.5c-0.9,0-1.8,0.4-2.3,1.2c-0.2,0.2-0.3,0.3-0.5,0.3C-105.8,16-106.8,16.6-107,18.3
		z"/>
	<path id="Tracé_5417" class="st3" d="M-57.5,16.2c-0.1-0.2,0-0.4,0.1-0.5C-57.3,15.9-57.3,16.1-57.5,16.2z"/>
	<path id="Tracé_5808" class="st4" d="M-89.7,18.2c-0.7,0.2-1.3,0.5-1.5,1.3c0-0.5-0.2-0.6-0.6-0.3c-1.1,0.7-2.4,0.9-3.6,0.4
		c-0.4-0.1-0.8-0.1-1.1,0.2c-0.8,0.6-1.8,0.8-2.7,0.5c-0.5-0.1-1-0.5-1.6-0.2c-0.6,0.3-1.3,0.1-1.7-0.4c-0.2-0.2-0.5-0.3-0.8-0.2
		c-1.4,0.3-2.8-0.2-3.7-1.3c0.2-1.7,1.2-2.3,2.8-2.1c0.2,0,0.3-0.1,0.5-0.3c0.5-0.8,1.4-1.2,2.3-1.2c0.5,0.1,1.1-0.1,1.5-0.5
		c0.8-0.7,1.9-0.7,2.7,0c0.4,0.4,0.9,0.5,1.4,0.3c1.1-0.2,2.2,0,3.1,0.7c0.4,0.4,1,0.5,1.5,0.3c1-0.4,2.1,0,2.6,0.9
		c-0.5,0.2-1,0.7-1.6,0.7c-0.2,0-0.3,0.1-0.3,0.3C-90.8,18.1-90.7,18.2-89.7,18.2L-89.7,18.2z M-93.4,21.1l2.1-1.6
		C-91.6,20.3-92.4,21-93.4,21.1z M-61.9,8.9c-0.2,0-0.4,0-0.6,0s-0.6,0.3-0.6,0c0-0.4-0.5-0.9,0-1.3C-63,7.8-63,8-62.9,8.1
		C-62.9,8.8-62.5,9-61.9,8.9z M-60,14.9c-0.4,0.1-0.5,0.5-0.8,0.6c-0.7,0.4-1.5,0.4-2.2,0.1c-0.2-0.2-0.6-0.2-0.8,0.1
		c-1.5,1.3-3.8,1.1-5.1-0.4c0,0,0,0,0,0c-0.3-0.4-0.6-0.3-0.8,0c-0.7,0.5-1.6,0.6-2.3,0.1c-0.4-0.2-0.5-0.2-0.7,0.2
		c-0.5,0.9-1.6,1.2-2.4,0.7c-0.1,0-0.1-0.1-0.2-0.1c-0.4-0.2-0.5-0.1-0.7,0.2c-0.6,0.9-1.8,1.3-2.8,1c-1.3-0.2-2.2-1.3-2.2-2.6
		c0-0.1,0-0.1,0-0.2c0.6-1.2-0.3-1.1-1-1.3c-0.9-0.2-1.6-0.8-2-1.6c-0.2-0.3-0.2-1-0.7-0.2c-0.1,0.1-0.2,0.1-0.3,0.1
		c-0.6-0.3-1.1,0.1-1.6,0.2c-2.1,0.8-4.4,0.7-6.5-0.1c-0.6-0.3-1.3-0.2-1.7,0.3c-0.8,0.9-3.2,0.8-4.4,0c-1.2-0.9-1.9-2.3-1.7-3.8
		c0.2-0.9,0.2-0.9-0.8-1c0-0.1,0-0.2,0.1-0.2c1.4-0.5,2.2-2.3,4.1-1.9c0.3,0.1,0.5-0.1,0.7-0.3c1.2-1.2,3.1-1.2,4.4-0.1
		c0.2,0.1,0.3,0.3,0.6,0.2c0.8-0.3,1.7-0.1,2.4,0.4c0.2,0.2,0.5,0.2,0.7,0c0.3-0.2,0.7-0.5,1-0.4c1.5,0.3,2.5-0.7,3.7-1.2
		c1.4-0.7,3.2-0.4,4.3,0.7c0.4,0.3,0.7,0.5,1.2,0.2c1.8-0.7,3.8,0.1,4.6,1.9c-0.5-0.2-0.9-0.7-1.5-0.6c-0.9-0.1-1.8,0.3-2.3,1.1
		c-0.2,0.3-0.3,0.3-0.7,0.1c-1.4-0.9-3.3-0.4-4.2,1c-0.3,0.4-0.4,0.9-0.4,1.4c0.7-0.5,1.6-0.7,2.4-0.6c0.2,0,0.4,0,0.6,0.1
		c0.8,0.7,1.3,0.4,2-0.4c0.8-0.9,2.1-0.9,3-0.1c0.1,0.1,0.3,0.3,0.4,0.5c0.3,0.4,0.4,0.4,0.7,0.1c2-1.5,4.7-1.6,6.7-0.2
		c0.2,0.2,0.5,0.3,0.8,0.2c1-0.3,1.9,0.3,2.2,1.3c0,0,0,0,0,0c0,0.1,0.1,0.2,0.1,0.4c0.1,0.5,0.1,0.7,0.7,0.5c1.1-0.3,2.3,0.2,3,1.1
		C-59.8,12.9-59.6,13.9-60,14.9z M-72.1,6c-0.4,0.2-0.8,0.5-1.1,0.8c-0.1,0.2-0.4,0.3-0.5,0.1c-0.1-0.1-0.1-0.4,0-0.5c0,0,0,0,0,0
		c0,0,0.1,0,0.1-0.1C-73.1,6-72.6,5.9-72.1,6z"/>
	<path id="Tracé_5421" class="st2" d="M-88.5,16.9C-88.5,16.9-88.5,16.9-88.5,16.9c-0.3,0.6-0.8,0.8-1.2,1.2c-1,0.1-1.2,0-0.9-0.8
		c0.1-0.2,0.1-0.3,0.3-0.3c0.7,0.1,1.1-0.4,1.6-0.7C-88.6,16.5-88.6,16.7-88.5,16.9z"/>
	<path id="Tracé_5809" class="st5" d="M-83.7,49.5c-1.2-0.1-2-1.2-1.9-2.3c0-0.1,0.1-0.2,0.2-0.2h0c0.1,0,0.2,0.1,0.2,0.2
		c0,0,0,0,0,0c0,1,0.6,1.9,1.4,1.9c0.9-0.1,1.5-1,1.4-1.9c0-0.1,0.1-0.2,0.2-0.2c0.1,0,0.2,0.1,0.2,0.2l0,0
		C-81.7,48.3-82.6,49.3-83.7,49.5z M-86.2,41.7c0,1.9-0.8,3.4-1.8,3.4s-1.8-1.5-1.8-3.4s0.8-3.4,1.8-3.4S-86.2,39.8-86.2,41.7z
		 M-77.2,41.7c0,1.9-0.8,3.4-1.8,3.4s-1.8-1.5-1.8-3.4s0.8-3.4,1.8-3.4S-77.2,39.8-77.2,41.7z M-90.2,38.3c-0.1,0-0.2-0.1-0.2-0.2
		c0,0,0,0,0,0c0,0,0,0,0,0c0.2-0.9,1.1-1.5,2-1.3c0.1,0,0.2,0.1,0.1,0.2c0,0,0,0,0,0c0,0.1-0.1,0.2-0.2,0.1c0,0,0,0,0,0l0,0
		c-0.7-0.2-1.5,0.3-1.6,1c0,0,0,0,0,0C-90.1,38.3-90.1,38.3-90.2,38.3L-90.2,38.3z M-77,38.3c-0.1,0-0.2-0.1-0.2-0.1
		c-0.2-0.7-0.9-1.2-1.6-1h0c-0.1,0-0.2,0-0.2-0.1c0,0,0,0,0,0c0-0.1,0-0.2,0.1-0.2c0,0,0,0,0,0l0,0c0.9-0.2,1.8,0.4,2,1.3
		C-76.8,38.2-76.9,38.3-77,38.3C-77,38.3-77,38.3-77,38.3C-77,38.3-77,38.3-77,38.3L-77,38.3z"/>
	<path id="Tracé_5810" class="st6" d="M-86.6,40.4c0,0.8-0.3,1.5-0.7,1.5s-0.7-0.7-0.7-1.5s0.3-1.5,0.7-1.5S-86.6,39.6-86.6,40.4z
		 M-88.4,41.3c0,0.3-0.1,0.5-0.3,0.5s-0.3-0.2-0.3-0.5s0.1-0.5,0.3-0.5S-88.4,41.1-88.4,41.3L-88.4,41.3z M-87.6,42.6
		c0,0.3-0.1,0.5-0.3,0.5s-0.3-0.2-0.3-0.5s0.1-0.5,0.3-0.5S-87.6,42.3-87.6,42.6L-87.6,42.6z M-77.6,40.4c0,0.8-0.3,1.5-0.7,1.5
		s-0.7-0.7-0.7-1.5s0.3-1.5,0.7-1.5S-77.6,39.6-77.6,40.4L-77.6,40.4z M-79.4,41.3c0,0.3-0.1,0.5-0.3,0.5s-0.3-0.2-0.3-0.5
		s0.1-0.5,0.3-0.5S-79.4,41.1-79.4,41.3L-79.4,41.3z M-78.6,42.6c0,0.3-0.1,0.5-0.3,0.5s-0.3-0.2-0.3-0.5s0.1-0.5,0.3-0.5
		S-78.6,42.3-78.6,42.6L-78.6,42.6z"/>
	<path id="Tracé_5811" class="st7" d="M-87.4,45.3c0,0.4-0.7,0.7-1.5,0.7s-1.5-0.3-1.5-0.7s0.7-0.7,1.5-0.7S-87.4,44.9-87.4,45.3z
		 M-76.7,45.3c0,0.4-0.7,0.7-1.5,0.7s-1.5-0.3-1.5-0.7s0.7-0.7,1.5-0.7S-76.7,44.9-76.7,45.3z"/>
</g>
</svg>
