<?xml version="1.0" encoding="utf-8"?>
<!-- Generator: Adobe Illustrator 21.1.0, SVG Export Plug-In . SVG Version: 6.00 Build 0)  -->
<svg version="1.1" id="Layer_1" xmlns="http://www.w3.org/2000/svg" xmlns:xlink="http://www.w3.org/1999/xlink" x="0px" y="0px"
	 viewBox="0 0 74.2 67.8" style="enable-background:new 0 0 74.2 67.8;" xml:space="preserve">
<style type="text/css">
	.st0{fill:#0FCA8E;}
	.st1{fill:#8CBE4B;}
	.st2{fill:#A2EC5C;}
</style>
<path id="Tracé_5679" class="st0" d="M33.4,29.2C33.4,29.2,33.4,29.1,33.4,29.2C33.4,29.1,33.4,29.2,33.4,29.2z"/>
<path id="Tracé_5681" class="st0" d="M40.4,12.1"/>
<path id="Tracé_5684" class="st1" d="M15.1,37.9c0.3,0.1,0.6,0.1,0.8,0.2v-0.2c-0.2-0.2-0.4-0.4-0.5-0.6
	C15.3,37.4,15.2,37.6,15.1,37.9z"/>
<path id="Tracé_5783" class="st2" d="M65,33.2c1,0,1.7,0.8,1.7,1.7c0,0,0,0,0,0v1.7c2.3-0.8,3.9-2.9,3.9-5.4c0-6.2-0.7-12.4-2-18.5
	c-0.5-2.6-1.3-5.1-2.4-7.5c-1.9,5.6-3.1,16.7-3.1,26c0,0.9,0.1,1.9,0.4,2.8C63.9,33.5,64.4,33.2,65,33.2z M40.4,27.9
	c0.7,0,1.3,0.6,1.3,1.3l0,0v1.4c4.7-0.7,7.9-5.2,7.2-9.9c0,0,0,0,0,0c-0.6-4-3.9-7-7.9-7.3c-4.7,2.8-6.4,8.9-3.6,13.6
	c0.4,0.8,1,1.4,1.6,2.1C39.1,28.4,39.7,27.9,40.4,27.9z M15.4,37.2c0.2,0.2,0.3,0.4,0.5,0.6v-3.4c0-0.6,0.5-1.2,1.2-1.2
	s1.2,0.5,1.2,1.2V38c3.6-0.6,6.3-3.7,6.3-7.4c0-5.2-0.8-10.5-2.5-15.5c-1.3-3.9-3.1-6.4-4.6-6.7c-1.6,2.3-3,7.8-3.6,13.9
	C12.5,33.9,13.6,33.9,15.4,37.2z M8.4,38.1c0.6,0,1.2,0.5,1.2,1.2v1.2c1-0.2,1.9-0.6,2.7-1.3c-3.1-1.7-5-5-5.1-8.5
	c0-4.5,0.6-9.1,1.7-13.5c-0.1,0-0.1,0-0.2-0.1C7.2,20,6,27.7,6,34.8c0,1.7,0.4,3.5,1.3,4.9v-0.5C7.3,38.6,7.8,38.1,8.4,38.1
	L8.4,38.1z"/>
<path id="Tracé_5784" class="st1" d="M66.3,5.2C66,4.5,65.6,3.9,65,3.5c-0.5,0.3-2.2,2.4-3.7,9.2c-1.3,6.1-1.9,12.3-2,18.5
	c0,2.5,1.6,4.6,3.9,5.4v-1.7c0-0.3,0.1-0.7,0.3-0.9c-0.3-0.9-0.4-1.8-0.4-2.8C63.2,22,64.5,10.8,66.3,5.2z M41.1,13.5
	c-0.2,0-0.4,0-0.7,0c-4.8,0-8.6,3.9-8.6,8.6c0,4.3,3.1,7.9,7.3,8.5v-1.4c0,0,0,0,0-0.1C35.2,25.3,35.1,19,39,15c0,0,0,0,0,0
	C39.6,14.4,40.3,13.9,41.1,13.5L41.1,13.5z M17.4,8.5c-0.1,0-0.2,0-0.4,0c-1.6,0-3.5,2.6-5,6.8c-0.3,0.8-0.5,1.6-0.7,2.4
	c1.1,1.5,1.9,3.1,2.5,4.8C14.5,16.3,15.8,10.8,17.4,8.5z M15.1,37.9c0.1-0.2,0.2-0.4,0.3-0.7c-1.4-1.9-2.1-4.2-2-6.5
	c0-2.8,0.2-5.5,0.4-8.2c-0.6-1.7-1.4-3.4-2.5-4.8c-1.1,4.3-1.7,8.6-1.7,13.1C9.6,34,11.8,37,15.1,37.9z M8.9,17.1
	c-0.1,0-0.3-0.1-0.4-0.1c-1.3,0-2.9,2-4.1,5.2c-1.4,3.9-2.1,7.9-2.1,12c0,3,2.1,5.6,5.1,6.1v-0.7c-0.9-1.5-1.3-3.2-1.3-4.9
	C6,27.7,7.2,20,8.9,17.1z"/>
<path id="Tracé_5689" class="st0" d="M72.5,65.5h-6.2V40.2h0.6c4.3-0.8,7.4-4.6,7.4-8.9c0-6.7-0.8-13.4-2.2-20
	C71.4,8.5,69.4,0,65.1,0c-2.5,0-4,2.8-4.4,3.7c-1.1,2.4-1.9,4.9-2.5,7.5c-1.3,6.1-2.1,12.3-2.2,18.6c0,0-0.1,0-0.1,0l0.8,5
	c1.2,2.8,3.7,4.8,6.6,5.4H64v25.3h-5.1v-6.2l0,0c0-0.3,0.1-0.7,0.4-0.9c0.1,0.3-0.3-2.5-0.3-2.5c-1.4,0.5-2.4,1.9-2.4,3.4v0.1H54
	v-2.6H54c1.3,0,2.4-1.1,2.4-2.4c0,0,0,0,0,0v-2.5c0-1.3-1.1-2.4-2.4-2.4H41.7V33.3h0.2c6.2-0.7,10.6-6.4,9.9-12.6c0,0,0,0,0,0
	c-0.7-6.2-6.4-10.6-12.6-9.9c0,0,0,0,0,0c-6.2,0.7-10.6,6.4-9.9,12.6c0,0,0,0,0,0c0.6,5.2,4.7,9.3,9.9,9.9h0.2v16.2h-5
	c-1.3,0-2.4,1.1-2.4,2.4v2.5c0,1.3,1.1,2.4,2.4,2.4h0.1v2.6h-2.6v-0.1c0-2-1.6-3.6-3.6-3.6c-0.6,0-1.2,0.5-1.2,1.2s0.5,1.2,1.2,1.2
	c0.7,0,1.3,0.6,1.3,1.3v6.2H18.3V40.4c4.9-0.6,8.6-4.7,8.6-9.7c0-5.5-0.9-11-2.6-16.2c-1.9-5.4-4.4-8.3-7.2-8.3S11.9,9,10,14.5
	c-0.1,0.2-0.1,0.3-0.2,0.5c-0.4-0.1-0.8-0.2-1.3-0.2c-2.5,0-4.6,2.3-6.3,6.7C0.8,25.6,0,30,0,34.4c0,4.3,3.2,7.9,7.4,8.5v22.7H1.2
	C0.5,65.5,0,66,0,66.7s0.5,1.2,1.2,1.2h71.3c0.6,0,1.2-0.5,1.2-1.2C73.6,66,73.1,65.5,72.5,65.5L72.5,65.5z M63.4,34.9v1.7
	c-2.3-0.8-3.9-2.9-3.9-5.4c0-6.2,0.7-12.4,2-18.5c1.5-6.9,3.2-9,3.7-9.2c0.6,0.5,1,1.1,1.3,1.8c1.1,2.4,1.9,4.9,2.4,7.5
	c1.3,6.1,1.9,12.3,2,18.5c0,2.5-1.6,4.6-3.9,5.4v-1.7c0-1-0.8-1.7-1.7-1.7l0,0C64.2,33.2,63.4,34,63.4,34.9z M67.2,38.3v-35v0
	c0,0,0-0.1-0.1-0.1c0,0,0,0.1,0.1,0.1L67.2,38.3z M49.1,22.1c0,4.3-3.1,7.9-7.3,8.5v-1.4c0-0.7-0.6-1.3-1.3-1.3
	c-0.7,0-1.3,0.6-1.3,1.3c0,0,0,0,0,0.1v1.4c-4.7-0.7-7.9-5.2-7.2-9.9c0.7-4.2,4.3-7.3,8.5-7.3c0.2,0,0.4,0,0.7,0
	C45.7,13.8,49.1,17.5,49.1,22.1L49.1,22.1z M40.5,12.1c-1.2,0-2.5,0.2-3.6,0.7C38,12.3,39.3,12.1,40.5,12.1L40.5,12.1z M30.5,22.1
	c0-2.9,1.3-5.7,3.6-7.6c-3.9,3.3-4.7,9-1.9,13.2C31.1,26,30.5,24.1,30.5,22.1L30.5,22.1z M7.4,40.5c-2.9-0.6-5.1-3.1-5.1-6.1
	c0-4.1,0.7-8.2,2.1-12c1.2-3.2,2.8-5.2,4.1-5.2c0.1,0,0.3,0,0.4,0.1c0.1,0,0.1,0,0.2,0.1C8,21.6,7.4,26.1,7.4,30.7
	c0,3.6,1.9,6.8,5.1,8.5c-0.8,0.6-1.7,1.1-2.7,1.3v-1.2c0-0.6-0.5-1.2-1.2-1.2s-1.2,0.5-1.2,1.2V40.5L7.4,40.5z M9.7,30.7
	c0-4.4,0.6-8.8,1.7-13.1c0.2-0.8,0.5-1.6,0.7-2.4c1.5-4.2,3.4-6.8,5-6.8c0.1,0,0.2,0,0.4,0c1.5,0.4,3.3,2.9,4.6,6.7
	c1.6,5,2.5,10.2,2.5,15.5c0,3.7-2.7,6.8-6.3,7.4v-3.7c0-0.6-0.5-1.2-1.2-1.2S16,33.7,16,34.4v3.4L15.8,38l-0.7-0.1
	C11.9,37,9.7,34,9.7,30.7L9.7,30.7z M18.3,39.2C18.3,39.2,18.3,39.2,18.3,39.2L18.3,39.2L18.3,39.2z M2.6,24.1
	c0.4-1.6,1-3.1,1.8-4.6c1.2-2.2,2.6-3.6,4.1-3.6l0,0c-1.5,0-2.9,1.4-4.1,3.6C3.7,21,3.1,22.5,2.6,24.1c-0.5,1.8-0.9,3.7-1.1,5.6
	C1.7,27.8,2.1,26,2.6,24.1z M16,65.5H9.7V42.8c2-0.3,3.8-1.2,5.1-2.7c0.4,0.1,0.8,0.2,1.2,0.2L16,65.5z M34.4,54.4
	C34.3,54.4,34.3,54.4,34.4,54.4C34.3,54.4,34.3,54.4,34.4,54.4L34.4,54.4l-0.1-2.5c0,0,0-0.1,0.1-0.1h0H54c0,0,0.1,0,0.1,0.1
	c0,0,0,0,0,0v2.5c0,0,0,0.1-0.1,0.1C54,54.4,34.4,54.4,34.4,54.4z M51.7,56.7v2.6h-10v-2.6H51.7z M39.4,65.5h-7.5v-3.8h7.5
	L39.4,65.5z M39.4,59.4h-2.6v-2.6h2.6V59.4z M56.6,65.5H41.7v-3.8h14.9V65.5z"/>
</svg>
