<?xml version="1.0" encoding="utf-8"?>
<!-- Generator: Adobe Illustrator 21.1.0, SVG Export Plug-In . SVG Version: 6.00 Build 0)  -->
<svg version="1.1" id="Layer_1" xmlns="http://www.w3.org/2000/svg" xmlns:xlink="http://www.w3.org/1999/xlink" x="0px" y="0px"
	 viewBox="0 0 66 58.3" style="enable-background:new 0 0 66 58.3;" xml:space="preserve">
<style type="text/css">
	.st0{fill:#0FCA8E;}
	.st1{fill:#A2EC5C;}
	.st2{fill:#FEDD61;}
	.st3{fill:#7C4B3D;}
	.st4{fill:#B1705D;}
</style>
<path id="Tracé_5778" class="st0" d="M45.4,5.7c-1.2,0.1-2.4,0.4-3.5,1c-0.8-4.4-4.9-7.3-9.3-6.5c0,0,0,0,0,0
	c-3.3,0.6-5.9,3.2-6.5,6.5c-3.9-2.1-8.8-0.7-10.9,3.1c0,0,0,0,0,0c-0.6,1.1-0.9,2.3-1,3.5c-4.3-1.2-8.7,1.3-9.9,5.6
	c-1.2,4.3,1.3,8.7,5.6,9.9c0.7,0.2,1.4,0.3,2.1,0.3h35.1c4.4,0,11.1-6.9,11.1-11.3S54.4,4.4,45.4,5.7z"/>
<path id="Tracé_5779" class="st1" d="M55.2,26.2c-6.3,6.3-16.5,6.8-20.8,6.7l9.7-9.7l7.5-0.5c0.8,0,1.5-0.8,1.4-1.6
	c0-0.8-0.7-1.5-1.6-1.4c0,0,0,0,0,0h0L47.3,20l5.8-5.8c0.6-0.6,0.6-1.5,0-2.1h0c-0.6-0.6-1.5-0.6-2.1,0l-2.6,2.6l-0.2-2.8
	c-0.1-0.8-0.8-1.5-1.6-1.4c0,0,0,0,0,0c-0.8,0.1-1.5,0.8-1.4,1.6c0,0,0,0,0,0l0.4,5.4L32.3,30.8C32.2,26.5,32.7,16.3,39,10
	c8.1-8.1,22.8-6.6,22.8-6.6S63.3,18.1,55.2,26.2z"/>
<path id="Tracé_5780" class="st2" d="M27.9,13.2c4.7,0,8.6,3.8,8.6,8.6s-3.8,8.6-8.6,8.6s-8.6-3.8-8.6-8.6S23.2,13.2,27.9,13.2z"/>
<path id="Tracé_5781" class="st3" d="M0,40.4h66v13.4H0V40.4z"/>
<path id="Tracé_5782" class="st4" d="M0,27h66v13.4H0V27z M6,53.9h7.3v4.4H6V53.9z M52.7,53.9H60v4.4h-7.3L52.7,53.9z"/>
</svg>
