<?xml version="1.0" encoding="utf-8"?>
<!-- Generator: Adobe Illustrator 21.1.0, SVG Export Plug-In . SVG Version: 6.00 Build 0)  -->
<svg version="1.1" id="Layer_1" xmlns="http://www.w3.org/2000/svg" xmlns:xlink="http://www.w3.org/1999/xlink" x="0px" y="0px"
	 viewBox="0 0 96.2 110" style="enable-background:new 0 0 96.2 110;" xml:space="preserve">
<style type="text/css">
	.st0{fill:#88E766;}
	.st1{fill:#FDFEFC;}
	.st2{fill:#0FCB8F;}
</style>
<path id="Tracé_5795" class="st0" d="M58.4,37.8c19.9,0,36.1,16.2,36.1,36.1c0,19.9-16.2,36.1-36.1,36.1
	c-19.9,0-36.1-16.2-36.1-36.1C22.3,54,38.5,37.8,58.4,37.8z M58.4,22.3H48.1c-5.7,0-10.3-4.6-10.3-10.3c0,0,0,0,0,0V8.6h10.3
	c5.7,0,10.3,4.6,10.3,10.3c0,0,0,0,0,0V22.3z M67,1.7c-5.7,0-10.7,4.1-11.8,9.7c2.1,1.9,3.2,4.6,3.2,7.5H67c6.6,0,12-5.4,12-12l0,0
	V1.7L67,1.7z"/>
<path id="Tracé_5796" class="st1" d="M48.3,49.9c0,1.9,1.5,3.4,3.4,3.4h6.2c1.6,0,2.9-1.1,3.3-2.6l0,0c0.5-1.8,2.3-2.9,4.1-2.5
	c0.3,0.1,0.5,0.2,0.8,0.3l2.6,1.4c1.1,0.6,1.8,1.7,1.8,3v7.5c0,1.5,0.9,2.8,2.4,3.2l7.5,2.4c1.6,0.5,3.3-0.2,4.1-1.6l5-9.1
	c-6.5-10.8-18.2-17.5-30.8-17.6c-3.6,0-7.1,0.5-10.5,1.5L48.3,49.9z M56.1,77.3l-1.9-2.9c-1.1-1.6-0.6-3.7,1-4.8
	c0.3-0.2,0.6-0.3,1-0.4l4.1-1.2c1.8-0.5,3.7,0.5,4.2,2.4c0,0,0,0,0,0c0,0,0,0.1,0,0.1l0.4,1.5c0.3,1.2,0,2.4-0.9,3.3l-2.5,2.5
	c-1.3,1.3-3.5,1.3-4.9,0C56.4,77.7,56.2,77.5,56.1,77.3L56.1,77.3z M71,94.5l2.9-1.2l3.4-1.4c1.1-0.5,1.9-1.5,2-2.7l0.2-1.5l0.5-3.4
	l0.3-2.2c0.2-1.7,1.7-2.9,3.4-3h10.4c-1.6,11.3-8.5,21.2-18.5,26.6L71,94.5z M0,77.3h12l10.3-0.9c5.4-0.5,10.7,1.6,14.3,5.6L42,88
	c2.4,2.7,2.3,6.9-0.2,9.5L41.3,98h18.9c5.6,0,10.2,4.6,10.2,10.2c0,0,0,0.1,0,0.1H38L12,94.5H0L0,77.3z"/>
<path id="Tracé_5797" class="st2" d="M68.8,80.8h3.4v3.4h-3.4V80.8z M41.3,58.4h3.4v3.4h-3.4V58.4z M91,54.7c0-0.1-0.1-0.1-0.1-0.2
	C87.6,49,83,44.4,77.4,41.2c-5.3-3.1-11.2-4.8-17.3-5.1V20.6H67c7.6,0,13.7-6.2,13.8-13.8V1.7C80.8,0.8,80,0,79.1,0H67
	c-5.6,0-10.6,3.4-12.7,8.6c-1.9-1.1-4-1.7-6.2-1.7H37.8c-0.9,0-1.7,0.8-1.7,1.7c0,0,0,0,0,0V12c0,6.6,5.4,12,12,12h8.6v12.1
	C37.9,37,22.6,51.6,20.8,70.3l3.4,0.3c1.3-13.1,9.9-24.3,22.2-28.9l0.1,8.3c0,2.8,2.3,5,5.1,5.1h6.2c2.3,0,4.4-1.6,5-3.9l0-0.1
	c0.2-0.9,1.1-1.4,2-1.2c0,0,0,0,0,0c0.1,0,0.3,0.1,0.4,0.2l2.6,1.4c0.5,0.3,0.9,0.9,0.9,1.5v7.5c0,2.2,1.4,4.2,3.5,4.9l7.5,2.4
	c2.4,0.8,4.9-0.3,6.1-2.4l3.5-6.4c2.7,5.7,3.9,12.1,3.2,18.3h-8.9c-2.6,0-4.7,1.9-5.1,4.4L78.3,84l3.4,0.5l0.3-2.2
	c0.1-0.8,0.8-1.5,1.7-1.5h8.4c-0.2,1.2-0.6,2.4-0.9,3.5l0,0.1l0,0.1c-2.7,8.4-8.6,15.5-16.4,19.7l0,0l1.6,3
	c8.8-4.8,15.3-12.8,18.2-22.4c0.5-1.8,0.9-3.6,1.2-5.5c0,0,0-0.1,0-0.1c0.2-1.8,0.4-3.5,0.4-5.3C96.3,67.1,94.4,60.5,91,54.7
	L91,54.7z M67,3.4h10.3v3.4c0,5.7-4.6,10.3-10.3,10.3h-7c-0.3-2.3-1.3-4.5-2.9-6.3C58.4,6.5,62.4,3.4,67,3.4z M39.5,12v-1.7h8.6
	c4.7,0,8.6,3.8,8.6,8.6v1.7h-8.6C43.4,20.6,39.5,16.8,39.5,12L39.5,12z M82.9,63.7c-0.4,0.7-1.3,1.1-2,0.8l-7.5-2.4
	c-0.7-0.2-1.2-0.9-1.2-1.6v-7.5c0-1.9-1-3.6-2.7-4.5L66.9,47c-2.5-1.4-5.6-0.4-6.9,2c-0.2,0.4-0.4,0.8-0.5,1.2l0,0.1
	c-0.2,0.7-0.9,1.3-1.6,1.3h-6.2c-0.9,0-1.7-0.7-1.7-1.7l0,0l-0.1-9.2c2.9-0.7,5.8-1.1,8.7-1.1c11.7,0,22.6,6,28.8,15.9L82.9,63.7z
	 M58.5,80.5c0.2,0,0.3,0,0.5,0c1.4,0,2.7-0.5,3.6-1.5l2.5-2.5c1.3-1.3,1.8-3.1,1.4-4.9l-0.4-1.5c-0.7-2.8-3.5-4.4-6.3-3.8
	c0,0,0,0,0,0c-0.1,0-0.1,0-0.2,0l-4.1,1.2c-2.7,0.8-4.3,3.6-3.5,6.4c0.1,0.5,0.4,1,0.7,1.4l1.9,2.9C55.5,79.5,56.9,80.4,58.5,80.5
	L58.5,80.5z M55.4,71.9c0.2-0.5,0.6-0.9,1.1-1.1l4.1-1.2c0.2,0,0.3-0.1,0.5-0.1c0.8,0,1.5,0.5,1.7,1.3l0.4,1.5
	c0.1,0.6,0,1.2-0.5,1.6l-2.5,2.5c-0.7,0.7-1.8,0.7-2.4,0c-0.1-0.1-0.2-0.2-0.2-0.3l-1.9-2.9C55.3,73,55.2,72.4,55.4,71.9L55.4,71.9z
	 M71.7,96.1l6.2-2.7c1.7-0.7,2.8-2.2,3.1-4l0.2-1.5l-3.4-0.5l-0.2,1.5c-0.1,0.6-0.5,1.1-1,1.3L70.4,93L71.7,96.1z M60.2,96.2H44.7
	c1.5-3.1,0.9-6.9-1.4-9.4L38,80.9c-4-4.4-9.8-6.7-15.8-6.2L12,75.6H0v3.4h12c0.1,0,0.1,0,0.2,0l10.3-0.9c4.9-0.4,9.6,1.4,12.9,5.1
	l5.3,5.9c1.7,1.9,1.8,4.7,0.2,6.6l-9.1-6.1L30,92.5l10.3,6.9c0.3,0.2,0.6,0.3,1,0.3h18.9c4.1,0,7.5,2.9,8.3,6.9H38.4L12.8,93
	c-0.2-0.1-0.5-0.2-0.8-0.2H0v3.4h11.6l25.5,13.6c0.2,0.1,0.5,0.2,0.8,0.2h32.4c0.9,0,1.7-0.8,1.7-1.7c0.1-6.6-5.2-12-11.7-12.1
	c0,0,0,0,0,0L60.2,96.2L60.2,96.2z"/>
</svg>
