<svg xmlns="http://www.w3.org/2000/svg" width="98.727" height="74" viewBox="0 0 98.727 74">
  <path id="leaf" d="M31.5,77.2a33.348,33.348,0,0,0,3.4-2.8c.8-.9,2-2.5,2-2.5A79.429,79.429,0,0,1,29,70.3c-3.2-.9-9.7-3.7-9.7-3.7a13.7,13.7,0,0,0,2.9-1.4,8.132,8.132,0,0,0,2-1.7s-4.7-1.3-7.5-2.4c-2.8-1-7.3-2.9-7.3-2.9a6.512,6.512,0,0,0,2.8-1.3,3.553,3.553,0,0,0,1.5-2.2A44.18,44.18,0,0,1,7,51.9c-2.4-1.5-5.3-3.7-5.3-3.7s5.2-4,8.7-5.5a56.646,56.646,0,0,1,9.1-2.6,13.417,13.417,0,0,0-2.1-2.6,29.484,29.484,0,0,0-4.2-2.9s5.6-1.9,8.3-2.5,8.2,0,8.2,0a3.771,3.771,0,0,0-1.3-2.2,19.328,19.328,0,0,0-2.7-2S33,25.4,37,24.4s10.8-.6,10.8-.6L45,21a30.2,30.2,0,0,0-2.7-2.3s5.4-.4,9.1-.4a85.708,85.708,0,0,1,9.5,1.1,25.78,25.78,0,0,1-1.4-2.3c-.8-1.3-1.5-2.6-1.5-2.6a83.5,83.5,0,0,1,9.5,2.8c2.4,1,7.6,3.9,7.6,3.9a9.521,9.521,0,0,0-1-3.5,32.955,32.955,0,0,0-1.8-3S100,31.9,100.4,48.2a33.817,33.817,0,0,1-.3,5.5,37.983,37.983,0,0,0-4.7-1.8C93.1,45.6,91.1,42,89,39.3c-2.4-2.9-6.9-8-9.6-9.1A40.566,40.566,0,0,1,89.1,42c2.3,4.6,3,5.6,3.8,9.2a83.31,83.31,0,0,0-11-2.5l-2.1-.3c-2-4.3-4.4-8.8-7.6-11.5-3.7-3.2-8.3-6.7-11.1-7.5A54.525,54.525,0,0,1,72.9,40.3a31.672,31.672,0,0,1,4,7.7c-5-.6-9.9-.9-14.9-1.1-2-3.7-4.5-7.5-7.6-9.6-3.4-2.4-7.6-5-10-5.5a47.4,47.4,0,0,1,10.8,8.3A24.58,24.58,0,0,1,59.4,47a238.464,238.464,0,0,0-32.8,3.6A222.844,222.844,0,0,1,54.9,50a17.445,17.445,0,0,1-3.8,4.7,28.743,28.743,0,0,1-9.5,4.9c2,.1,5.6-1.3,8.6-2.6,2.7-1.3,5.1-4.1,7.1-6.9,1.8.1,3.5.2,5.3.3,2.9.1,5.8.3,8.7.5-1.4,3-2,5-4.6,8.1a48.277,48.277,0,0,1-11.6,9.2c2.7-.4,7.2-3.3,10.8-5.9,3.3-2.4,6-6.8,8.1-11,2.7.3,5.4.6,8.1,1.1,2,.3,3.9.7,5.9,1.2-1.9,4.1-2,4.6-5,8-3.4,3.9-9.1,8.9-11.6,10.4,2.9-.7,8.5-4.7,11.1-6.7a27.787,27.787,0,0,0,8.2-11.1,53.311,53.311,0,0,1,8.7,3.2C96.3,70.3,87.5,81.5,87.5,81.5a10.211,10.211,0,0,0-.5-3.9c-.8-2.2-1-2-1-2s-1.1,2.9-5,6.8a20.143,20.143,0,0,1-8.9,5,5.876,5.876,0,0,0,.8-2.4,3.721,3.721,0,0,0-.3-2,29.053,29.053,0,0,1-5.3,3,63.127,63.127,0,0,1-8.6,2.5,11.948,11.948,0,0,0,1.9-3,2.47,2.47,0,0,0-.3-1.9,24.478,24.478,0,0,1-7.5,1.5,26.561,26.561,0,0,1-7.7-1.5,4.436,4.436,0,0,0,1.7-1.8c.8-1.3.2-1.9.2-1.9a38.528,38.528,0,0,1-7.5.1A75.049,75.049,0,0,1,31.5,77.2Z" transform="translate(-1.7 -14.5)" fill="#0fcb8f"/>
</svg>
