<svg id="pulse" xmlns="http://www.w3.org/2000/svg" width="87.883" height="33.695" viewBox="0 0 87.883 33.695">
  <path id="Tracé_836" data-name="Tracé 836" d="M9.263,0H4.8V4.8H9.263a3.86,3.86,0,0,1,0,7.719H4.8V8.663H0V22.895H4.8V17.327H9.263A8.663,8.663,0,0,0,9.263,0" transform="translate(0 0)" fill="#e53520"/>
  <path id="Tracé_837" data-name="Tracé 837" d="M960.909,0h-4.8V14.029a4.06,4.06,0,0,1-8.121,0V0h-4.8V14.029a8.864,8.864,0,0,0,17.728,0V0Z" transform="translate(-924.01 0)" fill="#e53520"/>
  <path id="Tracé_838" data-name="Tracé 838" d="M1902.857,18.079h-4.533V0h-4.8V22.883h9.337Z" transform="translate(-1855.036 0)" fill="#e53520"/>
  <path id="Tracé_839" data-name="Tracé 839" d="M3267.406,8.968a5.7,5.7,0,0,1,10.88,0ZM3272.846,0C3266.866,0,3262,5.135,3262,11.448A11.461,11.461,0,0,0,3273.448,22.9v-4.96a6.5,6.5,0,0,1-6-4.008h15.872a12,12,0,0,0,.26-2.48c0-6.332-4.757-11.448-10.738-11.448" transform="translate(-3195.701 0)" fill="#e53520"/>
  <path id="Tracé_840" data-name="Tracé 840" d="M2320.8,15.962a6.931,6.931,0,0,1-6.923,6.922h-9.438V18.079h9.438a2.117,2.117,0,1,0,0-4.235h-4.983a6.922,6.922,0,0,1,0-13.845h4.983V4.8h-4.983a2.117,2.117,0,0,0,0,4.235h4.983a6.931,6.931,0,0,1,6.923,6.923" transform="translate(-2255.184 0)" fill="#e53520"/>
  <g id="Groupe_204" data-name="Groupe 204" transform="translate(0 28.496)">
    <path id="Tracé_841" data-name="Tracé 841" d="M2.545,1418.1a.613.613,0,0,0,.264-.549q0-.72-1.044-.72H.406v1.445H1.764a1.413,1.413,0,0,0,.781-.176m-2.138-3v1.4H1.632a1.234,1.234,0,0,0,.72-.179.66.66,0,0,0,0-1.039,1.238,1.238,0,0,0-.72-.179H.406Zm2.6,1.855a.944.944,0,0,1,.206.63.885.885,0,0,1-.366.761,1.823,1.823,0,0,1-1.08.267H0v-3.848H1.66a1.67,1.67,0,0,1,1,.258.851.851,0,0,1,.355.731.919.919,0,0,1-.157.542.939.939,0,0,1-.431.333,1.019,1.019,0,0,1,.586.327" transform="translate(0 -1414.502)" fill="#e53520"/>
    <path id="Tracé_842" data-name="Tracé 842" d="M201.133,1461.81v2.891h-.374v-.528a1.067,1.067,0,0,1-.423.409,1.27,1.27,0,0,1-.616.146,1.119,1.119,0,0,1-1.22-1.242v-1.676h.39v1.638a.965.965,0,0,0,.226.692.845.845,0,0,0,.643.236.946.946,0,0,0,.72-.277,1.076,1.076,0,0,0,.264-.772v-1.517h.39Z" transform="translate(-194.466 -1460.595)" fill="#e53520"/>
    <path id="Tracé_843" data-name="Tracé 843" d="M377.618,1404.588h.39v2.891h-.39Zm-.005-.715a.269.269,0,0,1-.083-.2.264.264,0,0,1,.083-.192.276.276,0,0,1,.2-.083.282.282,0,0,1,.2.079.256.256,0,0,1,.083.19.288.288,0,0,1-.489.2" transform="translate(-369.857 -1403.373)" fill="#e53520"/>
    <rect id="Rectangle_136" data-name="Rectangle 136" width="0.39" height="4.079" transform="translate(9.24 0.028)" fill="#e53520"/>
    <path id="Tracé_844" data-name="Tracé 844" d="M515.04,1407.019a.99.99,0,0,0,.385-.4,1.306,1.306,0,0,0,0-1.176,1,1,0,0,0-.385-.4,1.147,1.147,0,0,0-1.1,0,.993.993,0,0,0-.385.4,1.3,1.3,0,0,0,0,1.176.989.989,0,0,0,.385.4,1.086,1.086,0,0,0,.552.141,1.073,1.073,0,0,0,.547-.141m.91-3.619v4.079h-.374v-.572a1.194,1.194,0,0,1-.464.445,1.366,1.366,0,0,1-.651.154,1.467,1.467,0,0,1-.737-.187,1.334,1.334,0,0,1-.517-.522,1.657,1.657,0,0,1,0-1.528,1.317,1.317,0,0,1,.517-.519,1.483,1.483,0,0,1,.737-.184,1.365,1.365,0,0,1,.635.146,1.2,1.2,0,0,1,.464.426V1403.4Z" transform="translate(-502.593 -1403.373)" fill="#e53520"/>
    <path id="Tracé_845" data-name="Tracé 845" d="M706.468,1404.588h.39v2.891h-.39Zm-.005-.715a.269.269,0,0,1-.082-.2.264.264,0,0,1,.082-.192.276.276,0,0,1,.2-.083.281.281,0,0,1,.2.079.255.255,0,0,1,.083.19.288.288,0,0,1-.489.2" transform="translate(-692.023 -1403.373)" fill="#e53520"/>
    <path id="Tracé_846" data-name="Tracé 846" d="M785.789,1461.036a1.236,1.236,0,0,1,.321.921v1.676h-.39V1462a.957.957,0,0,0-.226-.687.847.847,0,0,0-.643-.236.988.988,0,0,0-.739.278,1.047,1.047,0,0,0-.272.766v1.517h-.39v-2.891h.374v.533a1.085,1.085,0,0,1,.442-.409,1.414,1.414,0,0,1,.657-.146,1.185,1.185,0,0,1,.866.316" transform="translate(-767.527 -1459.527)" fill="#e53520"/>
    <path id="Tracé_847" data-name="Tracé 847" d="M954.815,1463.033a.971.971,0,0,0,.393-.377,1.075,1.075,0,0,0,.14-.549,1.061,1.061,0,0,0-.14-.547.983.983,0,0,0-.39-.374,1.268,1.268,0,0,0-1.132,0,.959.959,0,0,0-.39.374,1.145,1.145,0,0,0,0,1.1.977.977,0,0,0,.39.377,1.169,1.169,0,0,0,.563.135,1.187,1.187,0,0,0,.566-.135m.912-2.3v2.54a1.472,1.472,0,0,1-.36,1.091,1.489,1.489,0,0,1-1.086.354,2.413,2.413,0,0,1-.761-.118,1.564,1.564,0,0,1-.586-.327l.2-.3a1.471,1.471,0,0,0,.508.291,1.892,1.892,0,0,0,.63.1,1.112,1.112,0,0,0,.808-.256,1.076,1.076,0,0,0,.258-.794v-.368a1.177,1.177,0,0,1-.476.418,1.469,1.469,0,0,1-.651.143,1.536,1.536,0,0,1-.739-.179,1.318,1.318,0,0,1-.522-.5,1.489,1.489,0,0,1,0-1.454,1.312,1.312,0,0,1,.52-.495,1.552,1.552,0,0,1,.742-.176,1.465,1.465,0,0,1,.665.149,1.2,1.2,0,0,1,.478.429v-.555h.373Z" transform="translate(-933.396 -1459.518)" fill="#e53520"/>
    <path id="Tracé_848" data-name="Tracé 848" d="M1211.15,1407.019a.99.99,0,0,0,.385-.4,1.307,1.307,0,0,0,0-1.176,1,1,0,0,0-.385-.4,1.147,1.147,0,0,0-1.1,0,.994.994,0,0,0-.385.4,1.3,1.3,0,0,0,0,1.176.99.99,0,0,0,.385.4,1.084,1.084,0,0,0,.552.141,1.072,1.072,0,0,0,.547-.141m.91-3.619v4.079h-.374v-.572a1.2,1.2,0,0,1-.465.445,1.366,1.366,0,0,1-.651.154,1.467,1.467,0,0,1-.737-.187,1.335,1.335,0,0,1-.517-.522,1.656,1.656,0,0,1,0-1.528,1.318,1.318,0,0,1,.517-.519,1.483,1.483,0,0,1,.737-.184,1.365,1.365,0,0,1,.635.146,1.2,1.2,0,0,1,.464.426V1403.4Z" transform="translate(-1184.555 -1403.373)" fill="#e53520"/>
    <path id="Tracé_849" data-name="Tracé 849" d="M1402.568,1404.588h.39v2.891h-.39Zm-.005-.715a.269.269,0,0,1-.083-.2.263.263,0,0,1,.083-.192.274.274,0,0,1,.2-.083.282.282,0,0,1,.2.079.256.256,0,0,1,.083.19.287.287,0,0,1-.489.2" transform="translate(-1373.975 -1403.373)" fill="#e53520"/>
    <path id="Tracé_850" data-name="Tracé 850" d="M1467.285,1463.033a.972.972,0,0,0,.393-.377,1.076,1.076,0,0,0,.14-.549,1.062,1.062,0,0,0-.14-.547.983.983,0,0,0-.39-.374,1.269,1.269,0,0,0-1.132,0,.958.958,0,0,0-.39.374,1.145,1.145,0,0,0,0,1.1.976.976,0,0,0,.39.377,1.17,1.17,0,0,0,.563.135,1.187,1.187,0,0,0,.566-.135m.912-2.3v2.54a1.473,1.473,0,0,1-.36,1.091,1.489,1.489,0,0,1-1.086.354,2.413,2.413,0,0,1-.761-.118,1.565,1.565,0,0,1-.586-.327l.2-.3a1.473,1.473,0,0,0,.508.291,1.893,1.893,0,0,0,.629.1,1.112,1.112,0,0,0,.808-.256,1.077,1.077,0,0,0,.258-.794v-.368a1.178,1.178,0,0,1-.475.418,1.47,1.47,0,0,1-.651.143,1.534,1.534,0,0,1-.739-.179,1.317,1.317,0,0,1-.522-.5,1.489,1.489,0,0,1,0-1.454,1.311,1.311,0,0,1,.52-.495,1.552,1.552,0,0,1,.742-.176,1.463,1.463,0,0,1,.665.149,1.2,1.2,0,0,1,.478.429v-.555h.373Z" transform="translate(-1435.45 -1459.518)" fill="#e53520"/>
    <path id="Tracé_851" data-name="Tracé 851" d="M1660.838,1404.588h.39v2.891h-.39Zm-.005-.715a.269.269,0,0,1-.082-.2.264.264,0,0,1,.082-.192.276.276,0,0,1,.2-.083.281.281,0,0,1,.2.079.255.255,0,0,1,.083.19.288.288,0,0,1-.49.2" transform="translate(-1626.996 -1403.373)" fill="#e53520"/>
    <path id="Tracé_852" data-name="Tracé 852" d="M1717.613,1434.067a.732.732,0,0,1-.272.151,1.09,1.09,0,0,1-.338.052.766.766,0,0,1-.847-.841v-1.748h-.517v-.33h.517v-.632h.39v.632h.879v.33h-.879v1.726a.545.545,0,0,0,.129.393.488.488,0,0,0,.371.135.713.713,0,0,0,.233-.038.577.577,0,0,0,.2-.11Z" transform="translate(-1680.771 -1430.137)" fill="#e53520"/>
    <path id="Tracé_853" data-name="Tracé 853" d="M1837.4,1463.212a.9.9,0,0,0,.352-.437v-.473h-.907q-.741,0-.742.517a.474.474,0,0,0,.193.4.876.876,0,0,0,.539.146,1.028,1.028,0,0,0,.566-.151m.44-2.2a1.1,1.1,0,0,1,.3.839v1.792h-.374v-.451a.893.893,0,0,1-.387.352,1.358,1.358,0,0,1-.608.127,1.189,1.189,0,0,1-.77-.231.794.794,0,0,1-.019-1.2,1.306,1.306,0,0,1,.849-.225h.918v-.176a.741.741,0,0,0-.209-.569.864.864,0,0,0-.61-.2,1.546,1.546,0,0,0-.528.091,1.322,1.322,0,0,0-.434.25l-.176-.291a1.553,1.553,0,0,1,.528-.288,2.048,2.048,0,0,1,.649-.1,1.226,1.226,0,0,1,.869.283" transform="translate(-1798.41 -1459.537)" fill="#e53520"/>
    <rect id="Rectangle_137" data-name="Rectangle 137" width="0.39" height="4.079" transform="translate(40.795 0.028)" fill="#e53520"/>
    <path id="Tracé_854" data-name="Tracé 854" d="M2131.533,1463.589a1.449,1.449,0,0,1-.5-.256l.176-.308a1.472,1.472,0,0,0,.457.234,1.8,1.8,0,0,0,.571.091,1.094,1.094,0,0,0,.586-.123.394.394,0,0,0,.19-.349.313.313,0,0,0-.1-.25.688.688,0,0,0-.264-.137,3.667,3.667,0,0,0-.424-.091,4.964,4.964,0,0,1-.565-.134.834.834,0,0,1-.366-.234.646.646,0,0,1-.151-.456.713.713,0,0,1,.3-.593,1.354,1.354,0,0,1,.841-.231,2.165,2.165,0,0,1,.56.074,1.549,1.549,0,0,1,.462.2l-.171.313a1.459,1.459,0,0,0-.852-.247.988.988,0,0,0-.563.132.4.4,0,0,0-.19.346.342.342,0,0,0,.107.264.658.658,0,0,0,.266.146,4.234,4.234,0,0,0,.44.1,5.013,5.013,0,0,1,.555.132.818.818,0,0,1,.358.225.621.621,0,0,1,.148.44.7.7,0,0,1-.316.6,1.506,1.506,0,0,1-.877.222,2.249,2.249,0,0,1-.674-.1" transform="translate(-2087.719 -1459.557)" fill="#e53520"/>
    <path id="Tracé_855" data-name="Tracé 855" d="M2270.725,1463.185a.98.98,0,0,0,.382-.4,1.33,1.33,0,0,0,0-1.177.978.978,0,0,0-.382-.4,1.16,1.16,0,0,0-1.1,0,.993.993,0,0,0-.385.4,1.3,1.3,0,0,0,0,1.177.994.994,0,0,0,.385.4,1.16,1.16,0,0,0,1.1,0m-1.305.3a1.382,1.382,0,0,1-.528-.525,1.594,1.594,0,0,1,0-1.517,1.368,1.368,0,0,1,.528-.522,1.611,1.611,0,0,1,1.506,0,1.343,1.343,0,0,1,.525.522,1.612,1.612,0,0,1,0,1.517,1.362,1.362,0,0,1-.525.525,1.587,1.587,0,0,1-1.506,0" transform="translate(-2222.59 -1459.537)" fill="#e53520"/>
    <rect id="Rectangle_138" data-name="Rectangle 138" width="0.39" height="4.079" transform="translate(49.848 0.028)" fill="#e53520"/>
    <path id="Tracé_856" data-name="Tracé 856" d="M2526.613,1461.81v2.891h-.374v-.528a1.07,1.07,0,0,1-.423.409,1.272,1.272,0,0,1-.616.146,1.12,1.12,0,0,1-1.22-1.242v-1.676h.39v1.638a.963.963,0,0,0,.226.692.843.843,0,0,0,.643.236.947.947,0,0,0,.72-.277,1.075,1.075,0,0,0,.263-.772v-1.517h.391Z" transform="translate(-2472.682 -1460.595)" fill="#e53520"/>
    <path id="Tracé_857" data-name="Tracé 857" d="M2687.133,1434.067a.735.735,0,0,1-.272.151,1.087,1.087,0,0,1-.338.052.766.766,0,0,1-.846-.841v-1.748h-.517v-.33h.517v-.632h.39v.632h.879v.33h-.879v1.726a.544.544,0,0,0,.13.393.489.489,0,0,0,.371.135.716.716,0,0,0,.234-.038.581.581,0,0,0,.2-.11Z" transform="translate(-2630.585 -1430.137)" fill="#e53520"/>
    <path id="Tracé_858" data-name="Tracé 858" d="M2812.888,1404.588h.39v2.891h-.39Zm0-.715a.267.267,0,0,1-.083-.2.262.262,0,0,1,.083-.192.273.273,0,0,1,.2-.083.28.28,0,0,1,.2.079.254.254,0,0,1,.083.19.287.287,0,0,1-.489.2" transform="translate(-2755.632 -1403.373)" fill="#e53520"/>
    <path id="Tracé_859" data-name="Tracé 859" d="M2877.575,1463.185a.981.981,0,0,0,.382-.4,1.328,1.328,0,0,0,0-1.177.979.979,0,0,0-.382-.4,1.161,1.161,0,0,0-1.105,0,1,1,0,0,0-.385.4,1.3,1.3,0,0,0,0,1.177,1,1,0,0,0,.385.4,1.161,1.161,0,0,0,1.105,0m-1.305.3a1.379,1.379,0,0,1-.528-.525,1.594,1.594,0,0,1,0-1.517,1.366,1.366,0,0,1,.528-.522,1.612,1.612,0,0,1,1.506,0,1.345,1.345,0,0,1,.524.522,1.61,1.61,0,0,1,0,1.517,1.364,1.364,0,0,1-.524.525,1.588,1.588,0,0,1-1.506,0" transform="translate(-2817.106 -1459.537)" fill="#e53520"/>
    <path id="Tracé_860" data-name="Tracé 860" d="M3061.769,1461.036a1.235,1.235,0,0,1,.321.921v1.676h-.39V1462a.958.958,0,0,0-.226-.687.847.847,0,0,0-.644-.236.986.986,0,0,0-.739.278,1.047,1.047,0,0,0-.272.766v1.517h-.39v-2.891h.374v.533a1.086,1.086,0,0,1,.443-.409,1.413,1.413,0,0,1,.656-.146,1.185,1.185,0,0,1,.866.316" transform="translate(-2997.249 -1459.527)" fill="#e53520"/>
    <path id="Tracé_861" data-name="Tracé 861" d="M3223.293,1463.589a1.453,1.453,0,0,1-.5-.256l.176-.308a1.468,1.468,0,0,0,.457.234,1.8,1.8,0,0,0,.572.091,1.094,1.094,0,0,0,.586-.123.4.4,0,0,0,.189-.349.314.314,0,0,0-.1-.25.687.687,0,0,0-.263-.137,3.725,3.725,0,0,0-.424-.091,4.975,4.975,0,0,1-.566-.134.837.837,0,0,1-.365-.234.651.651,0,0,1-.151-.456.715.715,0,0,1,.3-.593,1.355,1.355,0,0,1,.841-.231,2.172,2.172,0,0,1,.561.074,1.546,1.546,0,0,1,.462.2l-.171.313a1.459,1.459,0,0,0-.852-.247.987.987,0,0,0-.563.132.4.4,0,0,0-.189.346.342.342,0,0,0,.107.264.663.663,0,0,0,.267.146,4.22,4.22,0,0,0,.439.1,5.046,5.046,0,0,1,.555.132.819.819,0,0,1,.358.225.621.621,0,0,1,.148.44.7.7,0,0,1-.316.6,1.5,1.5,0,0,1-.877.222,2.25,2.25,0,0,1-.674-.1" transform="translate(-3157.289 -1459.557)" fill="#e53520"/>
    <path id="Tracé_862" data-name="Tracé 862" d="M3424.475,1402.507a.574.574,0,0,0-.129.407v.341h.89v.33h-.88v2.561h-.39v-2.561h-.517v-.33h.517v-.358a.853.853,0,0,1,.228-.626.866.866,0,0,1,.646-.231,1.091,1.091,0,0,1,.319.047.727.727,0,0,1,.259.135l-.133.291a.644.644,0,0,0-.428-.143.5.5,0,0,0-.382.137" transform="translate(-3353.871 -1402.04)" fill="#e53520"/>
    <path id="Tracé_863" data-name="Tracé 863" d="M3522.565,1463.185a.978.978,0,0,0,.382-.4,1.323,1.323,0,0,0,0-1.177.976.976,0,0,0-.382-.4,1.161,1.161,0,0,0-1.1,0,1,1,0,0,0-.385.4,1.3,1.3,0,0,0,0,1.177,1,1,0,0,0,.385.4,1.16,1.16,0,0,0,1.1,0m-1.306.3a1.382,1.382,0,0,1-.528-.525,1.6,1.6,0,0,1,0-1.517,1.365,1.365,0,0,1,.528-.522,1.612,1.612,0,0,1,1.506,0,1.346,1.346,0,0,1,.525.522,1.61,1.61,0,0,1,0,1.517,1.365,1.365,0,0,1-.525.525,1.588,1.588,0,0,1-1.506,0" transform="translate(-3448.987 -1459.537)" fill="#e53520"/>
    <path id="Tracé_864" data-name="Tracé 864" d="M3705.213,1460.879a1.392,1.392,0,0,1,.674-.149v.38l-.094-.006a.923.923,0,0,0-.715.281,1.115,1.115,0,0,0-.259.786v1.473h-.39v-2.891h.374v.566a.949.949,0,0,1,.409-.439" transform="translate(-3629.14 -1459.537)" fill="#e53520"/>
    <path id="Tracé_865" data-name="Tracé 865" d="M3853.311,1461.81l-1.446,3.238a1.386,1.386,0,0,1-.407.577.911.911,0,0,1-.555.17,1.132,1.132,0,0,1-.391-.066.845.845,0,0,1-.313-.2l.181-.291a.72.72,0,0,0,.527.22.532.532,0,0,0,.338-.11,1,1,0,0,0,.261-.374l.127-.28-1.292-2.886h.407l1.088,2.457,1.088-2.457h.385Z" transform="translate(-3771.947 -1460.595)" fill="#e53520"/>
    <path id="Tracé_866" data-name="Tracé 866" d="M4013.945,1463.185a.982.982,0,0,0,.382-.4,1.33,1.33,0,0,0,0-1.177.977.977,0,0,0-.382-.4,1.161,1.161,0,0,0-1.1,0,1,1,0,0,0-.385.4,1.3,1.3,0,0,0,0,1.177,1,1,0,0,0,.385.4,1.16,1.16,0,0,0,1.1,0m-1.305.3a1.384,1.384,0,0,1-.528-.525,1.592,1.592,0,0,1,0-1.517,1.364,1.364,0,0,1,.528-.522,1.612,1.612,0,0,1,1.506,0,1.346,1.346,0,0,1,.524.522,1.61,1.61,0,0,1,0,1.517,1.365,1.365,0,0,1-.524.525,1.588,1.588,0,0,1-1.506,0" transform="translate(-3930.38 -1459.537)" fill="#e53520"/>
    <path id="Tracé_867" data-name="Tracé 867" d="M4197.092,1461.81v2.891h-.373v-.528a1.073,1.073,0,0,1-.423.409,1.27,1.27,0,0,1-.616.146,1.119,1.119,0,0,1-1.22-1.242v-1.676h.391v1.638a.967.967,0,0,0,.225.692.846.846,0,0,0,.643.236.948.948,0,0,0,.721-.277,1.079,1.079,0,0,0,.264-.772v-1.517h.39Z" transform="translate(-4109.21 -1460.595)" fill="#e53520"/>
  </g>
</svg>
