<svg id="nexta" xmlns="http://www.w3.org/2000/svg" width="37.981" height="20.097" viewBox="0 0 37.981 20.097">
  <path id="Tracé_805_1_" d="M1124.182,266.6v4.793a1.053,1.053,0,0,1-.073.383,1.1,1.1,0,0,1-1.031.713h-3.69a2.806,2.806,0,0,1-2.522-2.184,2.722,2.722,0,0,1-.068-.614,2.81,2.81,0,0,1,2.806-2.81h1.054l.026.008a1.127,1.127,0,0,1,.523.277,1.076,1.076,0,0,1,.284.451,1.063,1.063,0,0,1,.057.349,1.1,1.1,0,0,1-1.1,1.1h-.849a.028.028,0,0,0,.015.008h-.015a.612.612,0,0,0,0,1.225h1.737a.491.491,0,0,0,.076,0,.483.483,0,0,0,.076,0,.58.58,0,0,0,.5-.573V266.6a.628.628,0,0,0-.627-.629h-1.91a1.1,1.1,0,0,1-1.054-1.1,1.093,1.093,0,0,1,.86-1.077l.027-.008h2.082a2.8,2.8,0,0,1,2.594,1.733A2.586,2.586,0,0,1,1124.182,266.6Z" transform="translate(-1092.56 -258.065)" fill="#706f6f"/>
  <g id="Groupe_205_1_" transform="translate(0 5.721)">
    <path id="Tracé_806_1_" d="M8.954,267.046H5.731L1.8,264.035a.993.993,0,0,0-.133-.087l-.023-.011a1.1,1.1,0,0,0-1.657.956v6.5a1.1,1.1,0,1,0,2.207,0h0v-4.274l2.381,1.824h0l.2.155a1.065,1.065,0,0,0,.326.129l.026.008H9.166l.026-.008a1.1,1.1,0,0,0-.239-2.18Z" transform="translate(0.01 -263.785)" fill="#ffcd00"/>
    <path id="Tracé_807_1_" d="M211.611,501.4a.99.99,0,0,1-.2-.155Z" transform="translate(-206.821 -496.083)" fill="#ffcd00"/>
    <path id="Tracé_808_1_" d="M314.657,263.62h-5.9a1.136,1.136,0,0,0-.656.269l-.008.008-2.378,2.378a.128.128,0,0,1-.181,0h0l-2.427-2.427-.015-.011a1.116,1.116,0,0,0-.584-.212H298.3a1.108,1.108,0,0,0-1.092.937,1.2,1.2,0,0,0-.011.167,1.094,1.094,0,0,0,.861,1.077l.026.008H301.8a.132.132,0,0,1,.091.038l1.323,1.331.03.026a.859.859,0,0,1,.083.083l.008.008.592.6a.131.131,0,0,1,0,.182l-.542.542-.008.011-.049.061c-.023.023-.042.046-.072.072l-1.346,1.346a.132.132,0,0,1-.091.038h-3.512a1.1,1.1,0,0,0-1.1,1.1v0a1.155,1.155,0,0,0,.011.155,1.1,1.1,0,0,0,.849.922l.026.008h4.338a1.135,1.135,0,0,0,.7-.239c.023-.015.042-.034.061-.049l0,0,2.347-2.348a.126.126,0,0,1,.091-.038.132.132,0,0,1,.091.038l2.169,2.169.011.011a.584.584,0,0,0,.064.072l.053.053a.65.65,0,0,0,.057.049,1.157,1.157,0,0,0,.713.25,1.143,1.143,0,0,0,1.141-1.141,1.128,1.128,0,0,0-.281-.747c-.019-.019-.034-.042-.053-.061l-1.665-1.672-.019-.019-.592-.592a.131.131,0,0,1,0-.182l2.04-2.04a.132.132,0,0,1,.091-.038H311.3a.128.128,0,0,1,.129.127v5.171c0,.046-.008.091-.008.129s0,.083.008.129a1.09,1.09,0,0,0,2.173-.133v-5.293a.128.128,0,0,1,.127-.129h1.144l.026-.008a1.1,1.1,0,0,0-.239-2.18Z" transform="translate(-290.748 -263.62)" fill="#ffcd00"/>
    <g id="Groupe_204_1_" transform="translate(0.034 9.692)">
      <path id="Tracé_809_1_" d="M1.737,711.838l-.046.239H1.57L1.8,710.89h.193l.227,1.187H2.085l-.046-.239Zm.019-.114h.265l-.133-.686Z" transform="translate(-1.57 -710.875)" fill="#ffcd00"/>
      <path id="Tracé_810_1_" d="M65.535,710.5v.106h-.125v-.114c0-.106-.042-.171-.14-.171s-.14.064-.14.171v.629c0,.106.046.171.14.171s.14-.064.14-.171v-.155h.125v.148c0,.178-.083.3-.269.3s-.265-.118-.265-.3V710.5c0-.178.083-.3.265-.3A.262.262,0,0,1,65.535,710.5Z" transform="translate(-63.623 -710.2)" fill="#ffcd00"/>
      <path id="Tracé_811_1_" d="M124.415,710.5v.106h-.125v-.114c0-.106-.042-.171-.14-.171s-.14.064-.14.171v.629c0,.106.046.171.14.171s.14-.064.14-.171v-.155h.125v.148c0,.178-.083.3-.269.3s-.265-.118-.265-.3V710.5c0-.178.083-.3.265-.3S124.415,710.321,124.415,710.5Z" transform="translate(-121.225 -710.2)" fill="#ffcd00"/>
      <path id="Tracé_812_1_" d="M183.881,711.247v.118h-.292v.421h.356v.121h-.485V710.72h.489v.121h-.356v.406h.288Z" transform="translate(-179.512 -710.709)" fill="#ffcd00"/>
      <path id="Tracé_813_1_" d="M240.94,712.077V710.89h.133v1.066h.337v.121Z" transform="translate(-235.745 -710.875)" fill="#ffcd00"/>
      <path id="Tracé_814_1_" d="M296.925,711.247v.118h-.292v.421h.356v.121H296.5V710.72h.489v.121h-.356v.406h.292Z" transform="translate(-290.099 -710.709)" fill="#ffcd00"/>
      <path id="Tracé_815_1_" d="M354.06,710.89c.186,0,.265.095.265.273v.1c0,.129-.046.212-.148.243.11.03.148.121.148.247v.186a.3.3,0,0,0,.023.144h-.133a.311.311,0,0,1-.023-.144v-.186c0-.133-.064-.178-.174-.178h-.095v.508h-.133v-1.187h.269v0Zm-.034.558c.106,0,.167-.034.167-.163v-.114c0-.106-.038-.163-.137-.163h-.129v.44Z" transform="translate(-346.146 -710.875)" fill="#ffcd00"/>
      <path id="Tracé_816_1_" d="M412.847,711.838l-.046.239h-.121l.227-1.187h.193l.227,1.187H413.2l-.046-.239Zm.015-.114h.265l-.133-.686Z" transform="translate(-403.757 -710.875)" fill="#ffcd00"/>
      <path id="Tracé_817_1_" d="M474.41,712.077v-1.065h-.22v-.121h.569v.121h-.22v1.065Z" transform="translate(-463.932 -710.875)" fill="#ffcd00"/>
      <path id="Tracé_818_1_" d="M533.59,710.5c0-.182.091-.3.273-.3s.273.118.273.3v.614a.263.263,0,0,1-.273.3c-.182,0-.273-.118-.273-.3Zm.133.622c0,.11.046.171.14.171s.14-.064.14-.171v-.629c0-.106-.046-.171-.14-.171s-.14.064-.14.171Z" transform="translate(-522.043 -710.2)" fill="#ffcd00"/>
      <path id="Tracé_819_1_" d="M593.945,710.89c.186,0,.265.095.265.273v.1c0,.129-.046.212-.148.243.11.03.148.121.148.247v.186a.3.3,0,0,0,.023.144H594.1a.315.315,0,0,1-.023-.144v-.186c0-.133-.064-.178-.174-.178h-.095v.508h-.133v-1.187h.265v0Zm-.03.558c.106,0,.167-.034.167-.163v-.114c0-.106-.038-.163-.136-.163h-.129v.44Z" transform="translate(-580.829 -710.875)" fill="#ffcd00"/>
    </g>
  </g>
  <path id="Tracé_805" data-name="Tracé 805" d="M955.7,20.1a10.052,10.052,0,0,1-7.069-2.907.944.944,0,1,1,1.328-1.342,8.161,8.161,0,1,0,.214-11.8A.944.944,0,0,1,948.9,2.656,10.023,10.023,0,0,1,955.7,0a9.9,9.9,0,0,1,3.9.8,10.175,10.175,0,0,1,5.353,5.353,9.952,9.952,0,0,1,0,7.8A10.175,10.175,0,0,1,959.6,19.3,9.9,9.9,0,0,1,955.7,20.1Z" transform="translate(-927.773 0)" fill="#706f6f"/>
</svg>
