<?xml version="1.0" encoding="utf-8"?>
<!-- Generator: Adobe Illustrator 21.1.0, SVG Export Plug-In . SVG Version: 6.00 Build 0)  -->
<svg version="1.1" id="Layer_1" xmlns="http://www.w3.org/2000/svg" xmlns:xlink="http://www.w3.org/1999/xlink" x="0px" y="0px"
	 viewBox="0 0 63.9 54" style="enable-background:new 0 0 63.9 54;" xml:space="preserve">
<style type="text/css">
	.st0{fill:#f60;}
	.st1{fill:#0FCB8F;}
	.st2{fill:#88E766;}
</style>
<path id="Tracé_5767" class="st0" d="M63.4,16.9h-1.1v-1.1c0-0.2-0.2-0.5-0.5-0.5h-0.5c-0.2,0-0.5,0.2-0.5,0.5l0,0v1.1h-1.1
	c-0.2,0-0.5,0.2-0.5,0.5l0,0v0.5c0,0.2,0.2,0.5,0.5,0.5h1.1v1.1c0,0.2,0.2,0.5,0.5,0.5h0.5c0.2,0,0.5-0.2,0.5-0.5l0,0v-1.1h1.1
	c0.2,0,0.5-0.2,0.5-0.5l0,0v-0.5C63.9,17.1,63.7,16.9,63.4,16.9z M24.8,4.6c-0.4,0-0.9-0.2-1.2-0.5L23,3.5c-0.6-0.6-0.6-1.7,0-2.3
	l0,0l0.7-0.7c0.6-0.6,1.7-0.6,2.3,0l0.7,0.7c0.6,0.6,0.6,1.7,0,2.3c0,0,0,0,0,0l0,0L26,4.1C25.7,4.4,25.3,4.6,24.8,4.6L24.8,4.6z
	 M24.8,1.2c-0.1,0-0.2,0-0.3,0.1L23.8,2c-0.2,0.2-0.2,0.4,0,0.6c0,0,0,0,0,0l0,0l0.7,0.7c0.2,0.2,0.4,0.2,0.6,0l0.7-0.7
	C26,2.4,26,2.2,25.8,2c0,0,0,0,0,0l0,0l-0.7-0.7C25,1.2,24.9,1.2,24.8,1.2L24.8,1.2z"/>
<path id="Tracé_5768" class="st1" d="M43.7,14.6c0.2,0.4,0.7,0.5,1.1,0.3l0,0l4.2-2.6c0.4-0.2,0.5-0.7,0.3-1.1c0,0,0,0,0,0
	c-0.2-0.4-0.7-0.5-1.1-0.3c0,0,0,0,0,0l-4.2,2.6C43.6,13.7,43.4,14.2,43.7,14.6C43.7,14.6,43.7,14.6,43.7,14.6z M54.1,19.7l-6.2-0.6
	c-0.4,0-0.8,0.3-0.8,0.7c0,0.4,0.3,0.8,0.7,0.8l6.2,0.6c0,0,0.1,0,0.1,0c0.4,0,0.8-0.3,0.8-0.8l0,0C54.8,20.1,54.5,19.8,54.1,19.7
	L54.1,19.7z M40.5,9.2c0.4,0.2,0.8,0,1-0.4l0,0L43.8,3c0.2-0.4,0-0.8-0.4-1c-0.4-0.2-0.8,0-1,0.4l-2.2,5.8C39.9,8.6,40.1,9,40.5,9.2
	L40.5,9.2z M49,27.6L35,4.9c-0.5-0.8-1.6-1.1-2.5-0.6l-0.9,0.6c-0.4,0.3-0.7,0.7-0.8,1.1c-0.1,0.5,0,1,0.2,1.4l0.5,0.9L19.4,23.3
	l-2.6,1.6c-0.4,0.2-0.5,0.7-0.3,1.1c0.2,0.4,0.7,0.5,1.1,0.3l0,0l2-1.3l4,6.4c-0.6,0-1.1,0.1-1.7,0.3c0,0,0,0,0,0
	c-0.1,0-0.1,0.1-0.2,0.1l-2.3,1.4c-0.3,0.2-0.5,0.3-0.7,0.6c-0.3,0.3-0.5,0.5-0.7,0.8l-0.6,0.9L17,36.2c0,0,0,0,0,0c0,0,0,0,0,0
	c0,0-0.1,0-0.1,0c0,0,0,0,0,0c0,0-0.1,0-0.1-0.1c0,0,0,0,0,0c0,0-0.1,0-0.1-0.1c0,0,0,0,0,0c0,0-0.1-0.1-0.1-0.1l0,0
	c0,0,0-0.1-0.1-0.1l-3.3-5.4c-0.2-0.3-0.2-0.6-0.1-0.9c0.1-0.3,0.3-0.5,0.5-0.7l1-0.6c0.3-0.3,0.4-0.7,0.2-1.1
	c-0.2-0.3-0.6-0.4-1-0.2l-1,0.6c-0.6,0.4-1,1-1.2,1.7c-0.1,0.4-0.1,0.9,0,1.3l-0.7,0.5c-1,0.6-1.3,1.9-0.7,2.9l1.9,3.1
	c0.3,0.5,0.8,0.8,1.3,1c0.2,0,0.3,0.1,0.5,0.1c0.4,0,0.8-0.1,1.1-0.3l0.7-0.5c0.2,0.1,0.3,0.3,0.5,0.4L14,40.7l-0.5,0.3
	C13.4,41,13.3,41,13.2,41c-0.2,0-0.5,0.1-0.7,0.2l-1.3,1.1c-0.3-0.2-0.7-0.2-1,0c0,0,0,0,0,0l-7.5,5.9c-0.4,0.3-0.7,0.9-0.7,1.4v2.4
	c0,1,0.8,1.8,1.8,1.8H16c0.6,0,1.1-0.2,1.4-0.7l1-1.3c0.2-0.2,0.3-0.5,0.2-0.7l1.4-1.2c0.1-0.1,0.2-0.3,0.3-0.4l3.2,0.6
	c0,0,0.1,0,0.1,0h0.3c0.8,0,1.6-0.2,2.3-0.6l3.2-1.9c0.1,0,0.1,0,0.2,0c0.5,0,0.9-0.1,1.3-0.4l2.6-1.6c1.2-0.7,1.6-2.3,0.8-3.5
	c-0.2-0.4-0.6-0.7-1-0.9c0.4-0.8,0.4-1.8-0.1-2.5c-0.3-0.6-0.9-1-1.6-1.2c0.3-1.3-0.5-2.6-1.8-3c0.2-0.7,0.1-1.4-0.3-2
	c-0.1-0.2-0.2-0.3-0.3-0.4l15.4-3.3l0.5,0.9c0.3,0.5,0.9,0.9,1.5,0.9c0.3,0,0.7-0.1,0.9-0.3l0.9-0.6c0.4-0.3,0.7-0.7,0.8-1.1
	C49.4,28.5,49.3,28,49,27.6L49,27.6z M14.1,36.3c-0.1,0.1-0.3,0.1-0.4,0.1c-0.1,0-0.3-0.1-0.4-0.3L11.4,33c-0.2-0.3-0.1-0.6,0.2-0.8
	c0,0,0,0,0,0l0,0l0.7-0.4l2.5,4.1L14.1,36.3z M16.2,52.3c-0.1,0.1-0.1,0.1-0.2,0.1H3.7c-0.1,0-0.3-0.1-0.3-0.3c0,0,0,0,0,0l0,0v-2.4
	c0-0.1,0-0.2,0.1-0.2l7.1-5.6l6.4,7.5L16.2,52.3z M17.8,50l-5.6-6.5l0.8-0.7l5.5,6.6L17.8,50z M25.4,48.5c-0.5,0.3-1.1,0.4-1.7,0.3
	l-4-0.8c-0.1,0-0.2,0-0.3,0l-4.9-5.8l0.4-0.3c0,0,0,0,0,0c0,0,0,0,0,0l0,0l0,0c0,0,0,0,0,0c0,0,0,0,0.1-0.1v0l0,0v0l4.1-6.2
	c0,0,0,0,0,0c0.2-0.4,0.5-0.7,0.9-0.9l2.3-1.4c0,0,0.1-0.1,0.1-0.1c0,0,0,0,0.1,0c0,0,0,0,0.1,0s0.1,0,0.1,0c0,0,0,0,0,0
	c0,0,0.1,0,0.1,0c0.1,0,0.2,0,0.4,0h0c0,0,0.1,0,0.1,0h0c0,0,0.1,0,0.1,0s0,0,0.1,0c0,0,0.1,0,0.1,0c0,0,0,0,0.1,0c0,0,0,0,0.1,0
	c0,0,0,0,0.1,0c0,0,0,0,0.1,0c0,0,0,0,0.1,0c0,0,0,0,0.1,0c0,0,0,0,0,0c0,0,0,0,0.1,0c0,0,0,0,0,0c0,0,0,0,0.1,0.1
	c0.1,0.1,0.2,0.2,0.3,0.3l0.1,0.1l0.8,1.3l1,1.7l0.3,0.4c0,0,0,0.1,0.1,0.1c0,0.1,0.1,0.3,0,0.4c-0.1,0.2-0.2,0.4-0.4,0.5l-0.5,0.3
	h0c0,0-0.1,0-0.1,0.1c0,0,0,0,0,0c0,0-0.1,0-0.1,0h0l-0.1,0h0c0,0-0.1,0-0.1,0h0c0,0-0.1,0-0.1,0c0,0-0.1,0-0.1,0h0
	c-0.1,0-0.1-0.1-0.2-0.1c0,0-0.1-0.1-0.1-0.1c0,0,0,0,0,0l0,0c0,0,0-0.1-0.1-0.1l-0.8-1.3c-0.3-0.5-0.8-0.8-1.3-0.9
	c-0.6-0.1-1.1,0-1.6,0.3c-0.2,0.1-0.3,0.3-0.4,0.6l0,0.2c0,0,0,0.1,0,0.1c0,0,0,0,0,0c0,0.1,0,0.1,0,0.2v0c-0.1,0.3-0.2,0.6-0.4,0.8
	c-0.3,0.5-0.7,0.9-1.2,1.2c-0.4,0.2-0.5,0.7-0.3,1.1c0.2,0.4,0.7,0.5,1.1,0.3l0,0c0.4-0.2,0.7-0.5,1-0.8l3.2,5.1
	c0.6,0.9,1.6,1.5,2.7,1.5c0.1,0,0.1,0,0.2,0c0,0,0,0.1,0.1,0.1c0.1,0.1,0.2,0.3,0.3,0.4L25.4,48.5z M24.1,39.7
	C24.1,39.7,24.1,39.7,24.1,39.7c0,0.1,0.1,0.2,0.1,0.2c0,0,0,0,0,0c0,0.1,0,0.1,0.1,0.2c0,0,0,0,0,0c0,0.1,0.1,0.1,0.1,0.2
	c0.3,0.6,0.9,1,1.6,1.1c-0.1,0.5-0.1,1,0.1,1.4c0,0,0,0.1,0,0.1c0,0,0,0,0,0c0,0,0,0.1,0,0.1c0,0,0,0,0,0c0,0,0,0.1,0,0.1
	c0,0,0,0,0,0c0,0,0,0.1,0.1,0.1c0,0.1,0.1,0.1,0.1,0.2c0,0,0,0,0,0.1l0.1,0.1c0,0,0,0,0.1,0.1c0,0,0,0,0.1,0
	c0.1,0.1,0.1,0.1,0.2,0.2c0,0,0,0,0,0c0.1,0.1,0.3,0.2,0.4,0.3c-0.1,0.3-0.2,0.6-0.3,0.8c-0.5,0-1-0.3-1.3-0.7l-3.6-5.6
	c0.2-0.3,0.3-0.7,0.4-1.1c0.1,0,0.1,0,0.2,0c0.1,0,0.3,0.1,0.3,0.2l0.8,1.3l0,0c0,0.1,0.1,0.1,0.1,0.2c0,0,0.1,0.1,0.1,0.1
	c0,0,0,0,0,0v0C24.1,39.5,24.1,39.6,24.1,39.7L24.1,39.7z M26.5,33.6l0.3-0.2c0.5-0.3,1.1-0.1,1.4,0.3c0.3,0.5,0.1,1.1-0.3,1.4
	l-0.3,0.2l-0.8-1.3L26.5,33.6z M32.3,42.9c0.3,0.1,0.5,0.2,0.6,0.4c0.3,0.5,0.1,1.1-0.3,1.3L30,46.3c-0.2,0.1-0.4,0.2-0.7,0.1
	c0,0,0,0,0,0h0c-0.3-0.1-0.5-0.2-0.6-0.4c-0.1-0.1-0.1-0.2-0.1-0.3v0c-0.1-0.3,0-0.6,0.3-0.9c0,0,0,0,0,0s0,0,0,0c0,0,0,0,0,0
	c0,0,0,0,0,0c0,0,0,0,0.1,0l0.5-0.3c0.1,0,0.2-0.1,0.3-0.1l2-1.2C31.9,42.9,32.1,42.9,32.3,42.9L32.3,42.9z M30.5,39.5
	c0.2-0.1,0.4-0.1,0.7-0.1c0.3,0.1,0.5,0.2,0.6,0.5c0.3,0.5,0.1,1.1-0.3,1.4L31,41.6c-0.1,0-0.2,0.1-0.3,0.1l-1.9,1.2
	c-0.4,0.1-0.8,0.1-1-0.2l-0.1-0.1c0,0,0,0,0,0c0,0,0,0,0,0c0,0,0-0.1-0.1-0.1s0-0.1,0-0.1c0,0,0,0,0,0c0,0,0,0,0-0.1c0,0,0,0,0,0
	c0,0,0,0,0-0.1c0,0,0,0,0,0c0,0,0,0,0-0.1c0,0,0,0,0,0c0,0,0,0,0-0.1v-0.1c0,0,0,0,0-0.1v0c0,0,0,0,0-0.1c0-0.2,0.2-0.4,0.3-0.6l0,0
	c0,0,0,0,0,0c0,0,0,0,0.1,0l2.5-1.5C30.5,39.5,30.5,39.5,30.5,39.5L30.5,39.5z M29.3,36.4c0.3,0.1,0.5,0.2,0.6,0.5
	c0.3,0.4,0.2,1-0.2,1.3c0,0-0.1,0-0.1,0l-1.9,1.2l0,0c0,0,0.1-0.1,0.1-0.1c0,0,0,0,0.1-0.1s0.1-0.1,0.1-0.1c0,0,0,0,0.1-0.1
	c0,0,0.1-0.1,0.1-0.1l0.1-0.1l0.1-0.1c0,0,0-0.1,0-0.1s0-0.1,0.1-0.1s0-0.1,0-0.1c0,0,0-0.1,0.1-0.1c0,0,0,0,0-0.1
	c0-0.1,0-0.1,0.1-0.2c0-0.1,0-0.1,0-0.2c0,0,0,0,0-0.1c0,0,0-0.1,0-0.1v-0.2c0,0,0-0.1,0-0.1c0,0,0-0.1,0-0.1c0,0,0,0,0-0.1
	c0-0.1,0-0.1,0-0.2c0,0,0,0,0-0.1c0-0.1,0-0.1-0.1-0.2l0,0c0,0,0-0.1,0-0.1l0.2-0.1C28.8,36.4,29.1,36.3,29.3,36.4L29.3,36.4z
	 M47.8,28.6c0,0.1-0.1,0.1-0.1,0.2l-0.9,0.6c-0.1,0.1-0.3,0-0.3-0.1l-9.8-15.8c-0.2-0.4-0.7-0.5-1.1-0.2c-0.3,0.2-0.5,0.7-0.2,1
	l8.4,13.6l-18,3.9L20.9,24L32.5,9.6l0.9,1.5c0.2,0.4,0.7,0.5,1.1,0.3c0,0,0,0,0,0c0.4-0.2,0.5-0.7,0.3-1.1l0,0l-2.3-3.8
	c0-0.1,0-0.1,0-0.2c0-0.1,0.1-0.1,0.1-0.2l0.9-0.6c0.1-0.1,0.3,0,0.3,0.1l14,22.7C47.8,28.4,47.8,28.5,47.8,28.6L47.8,28.6z"/>
<path id="Tracé_5769" class="st2" d="M4.1,23.6H3v-1.1C3,22.2,2.7,22,2.5,22H2c-0.2,0-0.5,0.2-0.5,0.5l0,0v1.1H0.5
	C0.2,23.6,0,23.8,0,24l0,0v0.5c0,0.2,0.2,0.5,0.5,0.5h1.1v1.1c0,0.2,0.2,0.5,0.5,0.5h0.5c0.2,0,0.5-0.2,0.5-0.5l0,0v-1.1h1.1
	c0.2,0,0.5-0.2,0.5-0.5l0,0V24C4.5,23.8,4.3,23.6,4.1,23.6L4.1,23.6z M18.6,49.4L17.8,50l-5.6-6.5l0.8-0.7L18.6,49.4z M10.6,44
	l-7.1,5.6c-0.1,0.1-0.1,0.1-0.1,0.2v2.4c0,0.1,0.1,0.3,0.3,0.3h1.6l8.3-5L10.6,44z"/>
</svg>
