<?xml version="1.0" encoding="utf-8"?>
<!-- Generator: Adobe Illustrator 21.1.0, SVG Export Plug-In . SVG Version: 6.00 Build 0)  -->
<svg version="1.1" id="Layer_1" xmlns="http://www.w3.org/2000/svg" xmlns:xlink="http://www.w3.org/1999/xlink" x="0px" y="0px"
	 viewBox="0 0 64.3 61.3" style="enable-background:new 0 0 64.3 61.3;" xml:space="preserve">
<style type="text/css">
	.st0{fill:#88E766;}
	.st1{fill:#48DBC9;}
	.st2{fill:#59AA33;}
	.st3{fill:#0FCB8F;}
	.st4{fill:#FBA413;}
</style>
<path id="Tracé_4495" class="st0" d="M15.4,54.3h-1.1v-1.1c0-0.2-0.2-0.4-0.4-0.4l0,0h-0.5c-0.2,0-0.4,0.2-0.4,0.4v0l0,0v1.1h-1.1
	c-0.2,0-0.4,0.2-0.4,0.4v0l0,0v0.5c0,0.2,0.2,0.4,0.4,0.4l0,0h1.1v1.1c0,0.2,0.2,0.4,0.4,0.4l0,0h0.5c0.2,0,0.4-0.2,0.4-0.4v0l0,0
	v-1.1h1.1c0.2,0,0.4-0.2,0.4-0.4v0l0,0v-0.5C15.8,54.5,15.6,54.3,15.4,54.3L15.4,54.3L15.4,54.3z"/>
<path id="Tracé_5762" class="st1" d="M4,19.7H2.9v-1.1c0-0.2-0.2-0.4-0.4-0.4l0,0H2c-0.2,0-0.4,0.2-0.4,0.4c0,0,0,0,0,0l0,0v1.1
	H0.4c-0.2,0-0.4,0.2-0.4,0.4c0,0,0,0,0,0l0,0v0.5C0,20.8,0.2,21,0.4,21l0,0h1.1v1.1c0,0.2,0.2,0.4,0.4,0.4l0,0h0.5
	c0.2,0,0.4-0.2,0.4-0.4c0,0,0,0,0,0l0,0V21H4c0.2,0,0.4-0.2,0.4-0.4c0,0,0,0,0,0l0,0v-0.5C4.5,19.9,4.3,19.7,4,19.7L4,19.7z
	 M45.8,26c0.1-2.3-0.3-4.6-1.2-6.7c-0.3-0.7-0.6-1.4-1.1-2.1c-0.9-1.8-2.2-3.3-3.8-4.5c-0.4-0.4-2.2-1.4-2.3-1.9
	c4.1,1.6,7.3,4.9,8.9,9c2.6,6.5,0.7,13.9-4.7,18.3c-0.6,0.5-1.2,1-1.7,1.6c-0.4,0.3-0.5,0.9-0.2,1.4c0,0.1,0.1,0.1,0.1,0.1
	c-0.5,0.6-0.9,1.3-1.2,2.1c-0.8-0.1-1,0.1-1.3,0.8c-0.3,0.8-0.5,1.6-0.6,2.5c0,0.4-0.2,0.5-0.5,0.5c-0.3,0-0.7,0-1,0
	c0.1-0.9,0.2-1.8,0.5-2.7c0.6-2.5,2-4.8,3.9-6.6c1.7-1.3,3.1-2.9,4.3-4.7c0.9-1.4,1.5-2.9,1.7-4.5C45.8,27.7,45.9,26.8,45.8,26
	L45.8,26z"/>
<path id="Tracé_5763" class="st0" d="M15.4,54.3h-1.1v-1.1c0-0.2-0.2-0.4-0.4-0.4l0,0h-0.5c-0.2,0-0.4,0.2-0.4,0.4v0l0,0v1.1h-1.1
	c-0.2,0-0.4,0.2-0.4,0.4v0l0,0v0.5c0,0.2,0.2,0.4,0.4,0.4l0,0h1.1v1.1c0,0.2,0.2,0.4,0.4,0.4l0,0h0.5c0.2,0,0.4-0.2,0.4-0.4v0l0,0
	v-1.1h1.1c0.2,0,0.4-0.2,0.4-0.4v0l0,0v-0.4C15.8,54.5,15.6,54.3,15.4,54.3L15.4,54.3L15.4,54.3z M62,24.3c-0.4,0-0.8-0.2-1.1-0.5
	l-0.7-0.7c-0.6-0.6-0.6-1.6,0-2.3l0.7-0.7c0.6-0.6,1.6-0.6,2.3,0l0.7,0.7c0.6,0.6,0.6,1.6,0,2.3l-0.7,0.7
	C62.9,24.1,62.5,24.3,62,24.3L62,24.3z M62,20.9c-0.1,0-0.2,0-0.3,0.1l-0.7,0.7c-0.2,0.2-0.2,0.4,0,0.6c0,0,0,0,0,0l0,0l0.7,0.7
	c0.2,0.2,0.4,0.2,0.6,0l0.7-0.7c0.2-0.2,0.2-0.4,0-0.6l0,0L62.3,21C62.2,20.9,62.1,20.9,62,20.9L62,20.9z M36.7,54.9c-1,0-2,0-3,0
	c-3,0-6.1,0-9.1,0c-0.4,0-0.6-0.1-0.6-0.6c0-1.6,0-1.6,1.6-1.6c3.7,0,7.4,0,11.1,0L36.7,54.9z M36.7,51c-4.1,0-8.2,0-12.3,0
	c-0.3,0-0.4-0.1-0.4-0.4c-0.1-1.7-0.1-1.7,1.7-1.7h10.5c0.2,0,0.4,0,0.5,0L36.7,51z M33.8,38.9c-2.2,0-4.5,0-6.7,0
	c-0.4,0-0.5-0.1-0.5-0.5v-0.1c0-2-0.2-1.7,1.6-1.7c1.9,0,3.8,0,5.7,0C33.8,37.4,33.8,38.2,33.8,38.9L33.8,38.9z M32.4,59.5
	c-1.3,0-2.6,0-3.9,0c-0.5,0-1-0.3-1.2-0.8c-0.2-0.4-0.4-0.9-0.6-1.3c-0.1-0.3-0.1-0.4,0.2-0.4c2.1-0.1,4.2-0.1,6.3,0
	c0,0.3-0.1,0.6-0.2,0.8C32.8,58.3,32.6,58.9,32.4,59.5L32.4,59.5z"/>
<path id="Tracé_4515" class="st2" d="M32.4,59.5c0.2-0.6,0.4-1.2,0.7-1.7c0.2-0.3,0.2-0.5,0.2-0.8l2.1,0c0.3,0,0.4,0.1,0.2,0.4
	c-0.2,0.5-0.4,1-0.7,1.5c-0.2,0.4-0.6,0.7-1.1,0.7C33.4,59.5,32.9,59.5,32.4,59.5z"/>
<path id="Tracé_4518" class="st2" d="M33.8,38.9c0-0.7,0-1.4,0-2.2c0.5-0.1,1-0.1,1.5,0c0,0,0,0,0.1,0c0.8,0.4,0.3,1.1,0.4,1.7
	c0.1,0.3-0.1,0.6-0.5,0.6C34.8,38.9,34.3,38.9,33.8,38.9z"/>
<path id="Tracé_4520" class="st2" d="M36.7,51v-2.1c1.7-0.1,1.7-0.1,1.7,1.6c0,0.5-0.1,0.6-0.6,0.6C37.5,51,37.1,51,36.7,51z"/>
<path id="Tracé_4521" class="st2" d="M36.7,54.9v-2.1c1.7-0.1,1.7-0.1,1.7,1.6c0,0.5-0.1,0.6-0.6,0.6
	C37.5,54.9,37.1,54.9,36.7,54.9z"/>
<path id="Tracé_5764" class="st3" d="M34.4,61.3h-6.7c-0.9-0.4-1.7-1.1-2.1-2c-0.2-0.5-0.4-1.1-0.7-1.6c-0.1-0.6-0.3-1-1.1-1
	c-0.7,0-1.3-0.5-1.5-1.3c-0.2-1-0.2-2.1,0-3.2c0.1-0.3,0.1-0.6-0.1-0.8l-0.1-1.9c0-0.1,0-0.1,0-0.2c-0.2-1.1,0.5-2.1,1.5-2.3
	c0.3-0.1,0.2-0.3,0.2-0.5c-0.2-1.9-1-3.6-2.1-5.1c-0.3-0.5-0.7-0.9-1.1-1.2c-0.1-0.2-0.2-0.3-0.4-0.4c-1.4-1.2-2.6-2.5-3.7-3.9
	l-0.9-1.4c-0.1-0.2-0.2-0.4-0.2-0.5c-0.4-0.7-0.3-0.9,0.3-1.5c0.5-0.2,1,0,1.3,0.5c0.2,0.6,0.6,1.1,0.9,1.6c1.1,1.7,2.5,3.1,4.1,4.3
	l1.2,1.3c1.3,1.6,2.1,3.5,2.5,5.5c0,0.3,0.1,0.5,0.1,0.8c0,0.2,0,0.5,0.3,0.5c0.5,0,1.1,0.2,1.6-0.1c0,0,0-0.1,0-0.2
	c0-0.8,0-1.7,0-2.5c0-1,0-2.1,0-3.1c0-0.3-0.1-0.4-0.4-0.4c-1.7-0.1-2.2-0.5-2.5-2.2c0-0.8,0-1.7,0.2-2.5c0.3-0.4,0.6-0.7,1-1
	c0.8-0.2,1.7-0.3,2.5-0.2c2.2,0,4.4,0,6.5,0c0.5,0,1,0.1,1.5,0.2c0.5,0.3,0.8,0.7,1.1,1.2c0.1,0.8,0.1,1.5,0.1,2.3
	c0,1-0.6,1.9-1.6,2.1c-0.3,0.1-0.6,0.1-0.8,0c-0.3,0-0.4,0.1-0.4,0.4c0,1.8,0,3.7,0,5.5c0,0.3,0,0.5,0.4,0.4c0.3,0,0.7,0,1,0
	c0.4,0,0.6-0.1,0.5-0.5c0.1-0.8,0.2-1.7,0.6-2.5c0.2-0.7,0.5-0.9,1.3-0.8l0.3,0.2c0.2,0.3,0.2,0.8,0.1,1.1c-0.2,0.4-0.3,0.8-0.3,1.2
	c0,0.1-0.1,0.3-0.1,0.4c-0.1,0.4-0.2,0.8,0.5,1c0.6,0.2,1.1,0.7,1.1,1.4c0.1,0.9,0.1,1.7,0,2.6c-0.1,0.5-0.1,1,0.1,1.5l0,2.4
	c-0.2,0.8-0.6,1.5-1.5,1.6s-1.1,0.5-1.3,1.2c-0.1,0.3-0.3,0.5-0.4,0.8C36.7,59.9,35.7,60.9,34.4,61.3z M29.5,41.9
	c-0.1,0.8-0.1,1.5,0,2.3c0,0.8,0,1.7,0,2.5c0,0.3,0.1,0.3,0.3,0.3c0.9,0,1.9,0,2.8,0c0.3,0,0.4-0.1,0.4-0.4c0-1.8,0-3.7,0-5.5
	c0.1-0.3,0-0.5-0.4-0.5c-0.7,0-1.3,0-2,0C29.3,40.7,29.4,40.5,29.5,41.9L29.5,41.9z M33.4,56.9c-2.1,0-4.2-0.1-6.3,0
	c-0.4,0-0.4,0.2-0.2,0.4c0.2,0.4,0.4,0.9,0.6,1.3c0.2,0.5,0.6,0.8,1.2,0.8c1.3,0,2.6,0,3.9,0c0.5,0,1,0,1.5,0c0.5,0,0.9-0.3,1.1-0.7
	c0.3-0.5,0.4-1,0.7-1.5c0.1-0.3,0.1-0.4-0.2-0.4L33.4,56.9z M33.9,38.9c0.5,0,1,0,1.5,0c0.4,0,0.6-0.2,0.5-0.6
	c-0.1-0.6,0.4-1.3-0.4-1.7c0,0,0,0-0.1,0c-0.5,0-1,0-1.5,0c-1.9,0-3.8,0-5.7,0c-1.8,0-1.6-0.3-1.6,1.7v0.1c0,0.3,0.2,0.5,0.5,0.5
	C29.4,38.9,31.6,38.9,33.9,38.9L33.9,38.9z M36.7,51c0.4,0,0.8,0,1.1,0c0.4,0,0.6-0.1,0.6-0.6c0-1.7,0-1.7-1.7-1.6
	c-0.2,0-0.4,0-0.5,0H25.7c-1.8,0-1.7,0-1.7,1.7c0,0.3,0.1,0.4,0.4,0.4C28.5,51,32.6,51,36.7,51L36.7,51z M36.7,52.8l-11.1,0
	c-1.6,0-1.6,0-1.6,1.6c0,0.5,0.2,0.6,0.6,0.6c3,0,6.1,0,9.1,0c1,0,2,0,3,0c0.4,0,0.8,0,1.1,0c0.4,0,0.6-0.1,0.6-0.6
	C38.4,52.7,38.5,52.7,36.7,52.8L36.7,52.8z M49.2,24.5c0.1,2.3-0.2,4.7-0.9,6.9c-0.6,1.8-1.6,3.6-2.7,5.1c-1,1.3-2.2,2.4-3.4,3.4
	c-0.4,0.3-0.8,0.7-1.1,1.1l0,0c-0.3,0.3-0.9,0.4-1.3,0.1c-0.4-0.4-0.4-1-0.1-1.4c0,0,0,0,0,0c0,0,0.1-0.1,0.1-0.1
	c0.5-0.6,1.1-1.1,1.7-1.6c5.4-4.4,7.3-11.8,4.7-18.3c-1.6-4.1-4.8-7.4-8.9-9c0,0-0.3-0.1-0.4-0.2c-1.6-0.7-3.4-1-5.1-1.1
	c-0.8-0.1-1.6,0-2.4,0.1c-0.4,0.1-0.8,0.1-1.2,0.2c-3.8,0.7-7.3,2.8-9.7,5.9c-1.9,2.3-3.1,5.2-3.3,8.2c-0.1,0.8-0.2,1.6-0.1,2.4
	c0,0.9,0.1,1.8,0.3,2.6c0.1,0.6,0.1,1.1-0.6,1.4c-0.8,0-1-0.2-1.2-1c-0.1-0.3-0.1-0.5-0.2-0.8l0-0.3l-0.2-2.1
	c-0.1-2.7,0.5-5.4,1.6-7.8C18.2,11.6,23.6,8,31.1,7.8l0.5,0l2.1,0.2c2.2,0.4,4.3,1.1,6.2,2.1l1.4,0.9c1.6,1.2,3,2.5,4.2,4.1l0.9,1.3
	c1.1,1.9,1.9,3.9,2.3,6.1L49.2,24.5z M50.1,8.3c0,0.3-0.1,0.6-0.4,0.8c-0.9,0.9-1.7,1.7-2.6,2.6c-0.3,0.4-0.9,0.5-1.3,0.2
	c0,0,0,0,0,0c0,0-0.1,0-0.1-0.1c-0.4-0.3-0.4-0.9,0-1.3c0,0,0.1-0.1,0.1-0.1c0.9-0.9,1.7-1.8,2.6-2.6c0.2-0.3,0.7-0.4,1-0.2
	C49.8,7.6,50.1,7.9,50.1,8.3L50.1,8.3z M49.7,43.5c0.4,0.6,0.4,1,0.1,1.4s-0.9,0.3-1.5-0.2c-0.8-0.8-1.7-1.7-2.5-2.5
	c-0.4-0.3-0.5-0.9-0.1-1.3c0,0,0,0,0,0c0.3-0.4,0.9-0.5,1.3-0.1c0,0,0,0,0,0c0.1,0,0.1,0.1,0.1,0.1C48,41.8,48.9,42.7,49.7,43.5
	L49.7,43.5z M30.3,1c0.1-0.4,0.3-0.7,0.6-1c1,0,1.3,0.3,1.3,1.2c0,1.2,0,2.4,0,3.6c0,0.5-0.4,0.9-0.9,0.9h0c-0.5,0-0.9-0.4-0.9-0.9
	c0-0.2,0-0.4,0-0.6C30.3,3.1,30.3,2,30.3,1z M4.9,26.1c0.1-0.3,0.4-0.6,0.7-0.7l0.2,0c1.2,0,2.4,0,3.6,0c0.2,0,0.4,0,0.6,0.1
	c0.4,0.1,0.7,0.5,0.6,0.9c0,0.4-0.4,0.8-0.8,0.8h0c-1.4,0-2.7,0-4.1,0c-0.5,0-0.7-0.4-0.9-0.8L4.9,26.1z M13.2,45.1
	c-0.3,0-0.6-0.2-0.8-0.5c-0.2-0.3-0.2-0.7,0.1-1c1-1,1.9-2,3-3c0.3-0.3,0.8-0.3,1.1,0c0,0,0,0,0,0c0,0,0,0,0,0
	c0.4,0.3,0.4,0.7,0.2,1.1c0,0,0,0.1-0.1,0.1c-1,1-2,2-3,3C13.6,45.1,13.4,45.2,13.2,45.1L13.2,45.1z M12.6,7.7
	C12.6,7.7,12.7,7.7,12.6,7.7C12.7,7.6,12.7,7.6,12.6,7.7C12.7,7.6,12.7,7.6,12.6,7.7c0.5-0.4,1.1-0.2,1.5,0.2
	c0.8,0.8,1.6,1.6,2.4,2.4c0.2,0.2,0.4,0.5,0.5,0.9l-0.1,0.2c-0.1,0.3-0.3,0.5-0.5,0.6L16,12c-0.3-0.1-0.6-0.2-0.8-0.5
	c-0.8-0.8-1.6-1.6-2.4-2.4C12.3,8.6,12.2,8.3,12.6,7.7L12.6,7.7z M56.9,25.4c0.4,0.2,0.7,0.5,0.6,1.1c-0.1,0.6-0.6,0.7-1.1,0.7
	c-0.5,0-1,0-1.5,0c-0.7,0-1.4,0-2.1,0c-0.5,0-0.9-0.3-1-0.8c0-0.5,0.3-0.9,0.8-1c0.1,0,0.1,0,0.2,0C54.1,25.4,55.5,25.4,56.9,25.4z"
	/>
<path id="Tracé_4547" class="st4" d="M37.2,10.8"/>
</svg>
