<?xml version="1.0" encoding="utf-8"?>
<!-- Generator: Adobe Illustrator 21.1.0, SVG Export Plug-In . SVG Version: 6.00 Build 0)  -->
<svg version="1.1" id="Layer_1" xmlns="http://www.w3.org/2000/svg" xmlns:xlink="http://www.w3.org/1999/xlink" x="0px" y="0px"
	 viewBox="0 0 79 67.1" style="enable-background:new 0 0 79 67.1;" xml:space="preserve">
<style type="text/css">
	.st0{fill:#A2EC5C;}
	.st1{fill:#FD882F;}
	.st2{fill:#0FCA8E;}
</style>
<path id="Tracé_5775" class="st0" d="M11.2,13.8c1.3,0,2.6-0.6,3.4-1.6c0.9-1.1,1.3-2.5,1.2-3.9c0-0.2,0-0.3,0-0.5
	c0-2.2,1.8-4,3.9-4c0,0,0,0,0,0c1.9,0,3.5,1.3,3.9,3.1c0.1,0.5,0.1,1,0,1.5c-0.2,1.3,0.2,2.6,1,3.6c0.9,1.1,2.3,1.7,3.7,1.7
	c1.6-0.1,3,1.1,3.2,2.6c0.1,0.8-0.2,1.7-0.8,2.3c-1.5,1.7-1.5,4.2,0,5.9c1,1.1,1,2.8,0,3.9c-0.7,0.8-1.1,1.9-1.1,3h-3.2l0.6-0.6l0,0
	l0,0L27,30.9l-2.7-2.7l0,0l0,0l-1,1l-1.5,1.5v-4.3l5.3-5.3l0,0l0,0l-2.8-2.8l-2.6,2.5v-7.1h-4v0l0,0v7.1l-2.6-2.5l-2.8,2.8l0,0l0,0
	l5.3,5.4v4.3l-2.6-2.5L12.4,31l0,0l0,0l0.6,0.6H9.8c0-1.1-0.4-2.1-1.1-3l0,0c-1-1.1-1-2.8,0-3.9c1.5-1.7,1.5-4.2,0-5.9
	c-0.6-0.6-0.9-1.5-0.8-2.3C8.2,14.9,9.6,13.7,11.2,13.8z M12.4,21.1L12.4,21.1l2.8-2.8l2.6,2.6v0l-2.6-2.5L12.4,21.1z M21.7,26.5
	L21.7,26.5v4.3l1.5-1.5l-1.5,1.5L21.7,26.5z M24.3,28.2l2.7,2.7L24.3,28.2L24.3,28.2z M24.3,18.3l-2.6,2.6v-7.1h-4v0h3.9v7.1
	L24.3,18.3l2.8,2.8l0,0L24.3,18.3z M12.4,31L12.4,31l2.8-2.8l2.6,2.6v0l-2.6-2.5L12.4,31z M27.1,31l-0.6,0.6h0L27.1,31L27.1,31z"/>
<path id="Tracé_5776" class="st1" d="M48.4,23.7v-4h-5.3L43,18.6c-0.1-1.2,0.3-2.5,1.2-3.4c1.7-1.8,4.6-1.8,6.4-0.1l0.1,0.1
	c0.8,0.9,1.3,2.1,1.2,3.4l-0.5,7.3l-3.4,5.7h-3.9l-0.6-7.9H48.4z M59.3,25.7L59.3,25.7v4h-5.6l-1.2,2h9l4.9-6
	c0.1-0.2,0.2-0.3,0.3-0.5c1.3-2.1,0.6-4.8-1.5-6.1c-2.1-1.3-4.8-0.6-6.1,1.5L56,25.7L59.3,25.7z"/>
<path id="Tracé_5777" class="st2" d="M7.9,55.3h3.9v4H7.9V55.3z M71.1,55.3h-4v4h4V55.3z M79,33.6v31.6c0,1.1-0.9,2-2,2H55.3v-3.9
	h19.8V51.3H4v11.9h17.8v4H2c-1.1,0-2-0.9-2-2V33.6c0-1.1,0.9-2,2-2h3.9c0-0.1-0.1-0.3-0.1-0.4c-2.3-2.6-2.3-6.6,0-9.2
	c0.2-0.2,0.2-0.4,0.1-0.6C4.4,20,3.8,18,4,16.1c0.5-3.6,3.5-6.3,7.2-6.2c0.2,0,0.4-0.1,0.6-0.2c0.2-0.2,0.2-0.5,0.2-0.8
	c0-0.3-0.1-0.7-0.1-1c0-0.4,0-0.8,0.1-1.3c0.7-4.3,4.8-7.2,9.1-6.5c0,0,0,0,0,0c4.3,0.7,7.2,4.8,6.5,9.1c0,0.1,0,0.3,0.1,0.4
	c0.1,0.2,0.4,0.3,0.6,0.3c3.7-0.1,6.8,2.6,7.3,6.2c0.2,2-0.5,3.9-1.8,5.4c-0.1,0.2-0.1,0.4,0.1,0.6c2.3,2.6,2.3,6.6,0,9.2
	c-0.1,0.1-0.1,0.2-0.1,0.4H40L39,18.9c-0.1-2.2,0.6-4.3,2-6l0,0L37.5,4l0,0l3.7-1.4l3.1,7.9c0.4-0.1,0.7-0.3,1.1-0.4V0h3.9v10.1h0
	c0.2,0,0.3,0.1,0.5,0.2l3.6-7.4h0L57,4.6l0.1,0l-3.8,7.7c0.1,0.1,0.2,0.1,0.3,0.2c1.5,1.6,2.3,3.7,2.2,5.9l0,0
	c1.1-1.9,2.9-3.2,5-3.7l0,0L62.8,7l0.4-1.6L67,6.4l0,0L66.6,8l-1.6,6.6c0.4,0.1,0.7,0.2,1.1,0.3c0,0,0,0,0,0l5.4-7.6l0.5-0.7l0,0
	L75.1,9l-1.3,1.8l-4.6,6.5c0.1,0.1,0.2,0.3,0.3,0.4l7.2-3.9l1.9,3.5l0,0l-7.5,4.1l0,0c0,0.1,0.1,0.2,0.1,0.3
	c0.3,2.3-0.4,4.6-1.9,6.4l-2.8,3.4H77C78.1,31.6,79,32.5,79,33.6z M75.1,35.6H4v11.8h71.1V35.6z M11.2,13.8
	c-1.6-0.1-3.1,1.1-3.3,2.7c-0.1,0.8,0.2,1.7,0.8,2.3c1.5,1.7,1.5,4.2,0,5.9c-1,1.1-1,2.8,0,3.9l0,0c0.7,0.8,1.1,1.9,1.1,3H13
	L12.4,31l0,0l2.8-2.8l2.6,2.6v-4.3l-5.3-5.3l0,0l2.8-2.8l2.6,2.6v-7.1h3.9v7.1l2.6-2.6l2.8,2.8l0,0l-5.3,5.3l0,0v4.3l1.5-1.5l1-1
	l0,0l2.7,2.7l0.1,0.1l0,0l-0.6,0.6h3.2c0-1.1,0.4-2.1,1.1-3c1-1.1,1-2.8,0-3.9c-1.5-1.7-1.5-4.2,0-5.9c0.6-0.6,0.9-1.5,0.8-2.3
	c-0.3-1.6-1.6-2.7-3.2-2.6c-1.4,0-2.8-0.6-3.7-1.7c-0.8-1-1.2-2.3-1-3.6c0.1-0.5,0.1-1,0-1.5c-0.4-1.8-2-3.1-3.9-3.1
	c-2.2,0-3.9,1.8-3.9,4c0,0.2,0,0.3,0,0.5c0.2,1.4-0.2,2.8-1.2,3.9C13.8,13.3,12.6,13.8,11.2,13.8z M59.2,20.5L56,25.7h3.2v4h-5.6
	l-1.2,2h9l4.9-6c0.1-0.2,0.2-0.3,0.3-0.5c1.3-2.1,0.6-4.8-1.5-6.1C63.2,17.8,60.5,18.4,59.2,20.5C59.2,20.5,59.2,20.5,59.2,20.5z
	 M48.4,19.8v4h-5l0.6,7.9h3.9l3.4-5.7l0.5-7.3c0.1-1.2-0.3-2.5-1.2-3.4l-0.1-0.1c-1.8-1.7-4.7-1.7-6.4,0.1c-0.8,0.9-1.3,2.1-1.2,3.4
	l0.1,1.2L48.4,19.8z M11.9,39.5H7.9v4h3.9V39.5z M71.1,39.5h-4v4h4V39.5z"/>
</svg>
