<?xml version="1.0" encoding="utf-8"?>
<!-- Generator: Adobe Illustrator 21.1.0, SVG Export Plug-In . SVG Version: 6.00 Build 0)  -->
<svg version="1.1" id="Layer_1" xmlns="http://www.w3.org/2000/svg" xmlns:xlink="http://www.w3.org/1999/xlink" x="0px" y="0px"
	 viewBox="0 0 53.2 60.8" style="enable-background:new 0 0 53.2 60.8;" xml:space="preserve">
<style type="text/css">
	.st0{fill:#88E766;}
	.st1{fill:#0FCB8F;}
</style>
<path id="Tracé_5765" class="st0" d="M32.3,12.3h-5.7c-3.1,0-5.7-2.6-5.7-5.7l0,0V4.7h5.7c3.1,0,5.7,2.6,5.7,5.7V12.3z M37.1,0.9
	c-3.2,0-5.9,2.3-6.5,5.4c1.1,1.1,1.8,2.6,1.8,4.1h4.7c3.7,0,6.6-3,6.6-6.6c0,0,0,0,0,0V1L37.1,0.9z M41.4,57.5L41.4,57.5l-2.1-5.3
	l-0.4-0.9l3.5-1.5c0.3-0.1,0.5-0.4,0.6-0.7l0.1-0.8l0.9,0.1l0.3-1.9l-0.9-0.1l0.2-1.2c0.2-1.4,1.4-2.4,2.8-2.4h4.9
	c0.3-3.5-0.3-7-1.8-10.1l-1.9,3.5c-0.7,1.2-2.1,1.8-3.4,1.3L40,36.1c-1.2-0.4-2-1.5-2-2.7v-4.2c0-0.3-0.2-0.7-0.5-0.8l-1.5-0.8
	c-0.1,0-0.1-0.1-0.2-0.1c-0.5-0.1-1,0.2-1.1,0.7c0,0,0,0,0,0l0,0c-0.3,1.3-1.4,2.1-2.7,2.1h-3.4c-1.5,0-2.8-1.2-2.8-2.8L25.7,23
	c-6.8,2.5-11.6,8.8-12.3,16l-0.9-0.1c-0.1,0.6-0.1,1.3-0.1,1.9c0,0.1,0,0.3,0,0.4c3.3-0.3,6.4,1,8.6,3.4l3,3.3
	c1.3,1.4,1.6,3.5,0.8,5.2h8.6c3.4,0,6.2,2.7,6.5,6.1c0.7-0.3,1.4-0.6,2-0.9v0L41.4,57.5z M24.7,34.2h-1.9v-1.9h1.9V34.2z M36,42.3
	l-1.4,1.4c-0.5,0.5-1.3,0.8-2,0.8c-0.1,0-0.2,0-0.3,0l0,0c-0.8-0.1-1.6-0.5-2.1-1.3l-1.1-1.6c-0.2-0.2-0.3-0.5-0.4-0.8
	c-0.4-1.5,0.4-3.1,2-3.5c0,0,0,0,0,0l2.3-0.6l0.1,0c1.5-0.4,3.1,0.5,3.5,2.1c0,0,0,0,0,0l0.2,0.8C37,40.5,36.7,41.6,36,42.3L36,42.3
	z M38,44.6h1.9v1.9H38V44.6z"/>
<path id="Tracé_5766" class="st1" d="M39.9,46.5H38v-1.9h1.9V46.5z M22.8,34.2h1.9v-1.9h-1.9V34.2z M53.2,40.8c0,1-0.1,2-0.2,2.9
	c0,0,0,0,0,0.1c-0.1,1-0.4,2-0.7,3c-1.6,5.3-5.2,9.7-10.1,12.4l-0.5-0.8l0,0l-0.4-0.8l0.1,0c4.3-2.3,7.5-6.2,9-10.8l0,0l0,0
	c0.2-0.6,0.4-1.3,0.5-2h-4.6c-0.5,0-0.9,0.3-0.9,0.8l-0.2,1.2l-0.9-0.1l-0.9-0.1l0.2-1.2c0.2-1.4,1.4-2.4,2.8-2.4h4.9
	c0.4-3.5-0.3-7-1.8-10.1l-1.9,3.5c-0.7,1.2-2.1,1.8-3.4,1.3l-4.2-1.3c-1.2-0.4-2-1.5-2-2.7v-4.2c0-0.3-0.2-0.7-0.5-0.8l-1.5-0.8
	c-0.1,0-0.1-0.1-0.2-0.1c-0.5-0.1-1,0.2-1.1,0.7c0,0,0,0,0,0l0,0c-0.3,1.3-1.4,2.1-2.7,2.1h-3.4c-1.5,0-2.8-1.2-2.8-2.8L25.7,23
	c-6.8,2.5-11.6,8.8-12.3,16l-0.9-0.1l-0.9-0.1c1-10.4,9.4-18.4,19.8-18.9v-6.7h-4.7c-3.7,0-6.6-3-6.6-6.7V4.7c0-0.5,0.4-0.9,0.9-1
	h5.7c1.2,0,2.4,0.3,3.4,0.9C31.2,1.9,33.9,0,37,0h6.6c0.5,0,0.9,0.4,0.9,0.9v2.8c0,4.2-3.4,7.6-7.6,7.6h-3.8V20
	c3.4,0.1,6.6,1.1,9.5,2.8c3.1,1.8,5.6,4.3,7.4,7.3c0,0,0,0.1,0.1,0.1l0,0C52.2,33.4,53.2,37.1,53.2,40.8L53.2,40.8z M45.8,35.2
	l2.5-4.6c-3.5-5.5-9.5-8.8-15.9-8.8c-1.6,0-3.3,0.2-4.8,0.6l0.1,5.1c0,0.5,0.4,0.9,0.9,0.9h3.4c0.4,0,0.8-0.3,0.9-0.7l0,0
	c0.1-0.2,0.1-0.5,0.3-0.7c0.7-1.4,2.5-1.9,3.8-1.1c0,0,0,0,0,0l1.5,0.8c0.9,0.5,1.5,1.4,1.5,2.5v4.2c0,0.4,0.3,0.8,0.6,0.9l4.2,1.3
	C45.1,35.8,45.6,35.6,45.8,35.2z M31.6,6c0.9,1,1.4,2.2,1.6,3.5H37c3.1,0,5.7-2.6,5.7-5.7V1.9H37C34.5,1.9,32.3,3.6,31.6,6z
	 M31.3,11.4v-0.9c0-2.6-2.1-4.7-4.7-4.8h-4.7v0.9l0,0c0,2.6,2.1,4.7,4.7,4.8H31.3z M36.7,39.6c0.2,1,0,2-0.7,2.7l-1.4,1.4
	c-0.5,0.5-1.3,0.8-2,0.8c-0.1,0-0.2,0-0.3,0l0,0c-0.8-0.1-1.6-0.5-2.1-1.3l-1.1-1.6c-0.2-0.2-0.3-0.5-0.4-0.8
	c-0.4-1.5,0.4-3.1,2-3.5c0,0,0,0,0,0l2.3-0.6l0.1,0c1.5-0.4,3.1,0.5,3.5,2.1L36.7,39.6z M33.3,42.3l1.4-1.4c0.2-0.2,0.3-0.6,0.2-0.9
	l-0.2-0.8c-0.1-0.4-0.5-0.7-0.9-0.7c-0.1,0-0.2,0-0.3,0l-2.3,0.6c-0.3,0.1-0.5,0.3-0.6,0.6l0,0c-0.1,0.3-0.1,0.6,0.1,0.9l1.1,1.6
	c0,0.1,0.1,0.1,0.1,0.1C32.3,42.7,32.9,42.7,33.3,42.3C33.3,42.3,33.3,42.3,33.3,42.3L33.3,42.3z M43.1,51.6
	c0.9-0.4,1.6-1.2,1.7-2.2l0.1-0.8L44,48.4L43,48.3l-0.1,0.8c0,0.3-0.3,0.6-0.6,0.7l-3.5,1.5l0.4,0.9l0.4,0.9L43.1,51.6z M33.3,53.2
	h-8.6c0.8-1.7,0.5-3.8-0.8-5.2l-3-3.3c-2.2-2.4-5.4-3.7-8.6-3.4h-0.1l-5.7,0.5H0v1.9h6.6c0,0,0.1,0,0.1,0l5.7-0.5
	c2.7-0.2,5.3,0.8,7.1,2.8l3,3.3c0.9,1,1,2.6,0.1,3.7l-5-3.4l-1.1,1.6l5.7,3.8c0.2,0.1,0.3,0.2,0.5,0.2h10.4c2.2,0,4.2,1.6,4.6,3.8
	H21.2L7.1,51.4c-0.1-0.1-0.3-0.1-0.4-0.1H0v1.9h6.4l14.1,7.5c0.1,0.1,0.3,0.1,0.4,0.1h17.9c0.5,0,0.9-0.4,0.9-0.9c0-0.2,0-0.4,0-0.5
	C39.6,55.9,36.7,53.2,33.3,53.2L33.3,53.2z"/>
</svg>
