<?xml version="1.0" encoding="utf-8"?>
<!-- Generator: Adobe Illustrator 21.1.0, SVG Export Plug-In . SVG Version: 6.00 Build 0)  -->
<svg version="1.1" id="Layer_1" xmlns="http://www.w3.org/2000/svg" xmlns:xlink="http://www.w3.org/1999/xlink" x="0px" y="0px"
	 viewBox="0 0 101.3 119.7" style="enable-background:new 0 0 101.3 119.7;" xml:space="preserve">
<style type="text/css">
	.st0{fill:#48DBC9;}
	.st1{fill:#0FCB8F;}
	.st2{fill:#88E766;}
	.st3{fill:#FFFFFF;}
</style>
<path id="Tracé_5798" class="st0" d="M100.4,64h-2.3v-2.3c0-0.5-0.4-0.9-0.9-0.9c0,0,0,0,0,0h-0.9c-0.5,0-0.9,0.4-0.9,0.9
	c0,0,0,0,0,0V64h-2.3c-0.5,0-0.9,0.4-0.9,0.9c0,0,0,0,0,0v0.9c0,0.5,0.4,0.9,0.9,0.9c0,0,0,0,0,0h2.3V69c0,0.5,0.4,0.9,0.9,0.9
	c0,0,0,0,0,0h0.9c0.5,0,0.9-0.4,0.9-0.9c0,0,0,0,0,0v-2.3h2.3c0.5,0,0.9-0.4,0.9-0.9c0,0,0,0,0,0v-0.9C101.3,64.4,100.9,64,100.4,64
	C100.4,64,100.4,64,100.4,64L100.4,64z M55.8,27.3c-0.9,0-1.7-0.3-2.3-1l-1.4-1.4c-1.3-1.3-1.3-3.4,0-4.6c0,0,0,0,0,0l0,0l1.4-1.4
	c1.3-1.2,3.3-1.2,4.6,0l1.4,1.4c1.3,1.3,1.3,3.4,0,4.6l0,0l-1.4,1.4C57.5,26.9,56.7,27.3,55.8,27.3z M55.8,20.4
	c-0.2,0-0.4,0.1-0.6,0.3L53.8,22c-0.3,0.3-0.3,0.9,0,1.2l1.4,1.4c0.3,0.3,0.9,0.3,1.2,0l1.4-1.4c0.3-0.3,0.3-0.9,0-1.2l-1.4-1.4
	C56.2,20.5,56,20.4,55.8,20.4z"/>
<path id="Tracé_5799" class="st1" d="M80.7,81.4c-3-6.7-6.8-13-11.5-18.7c-0.9-1.2-2-2.3-3-3.4c-0.3-0.4-0.6-0.8-1-1.2
	c-1.7-1.8-3.4-3.7-5.2-5.5c0.9-1.6,0.6-3.6-0.8-4.7c0.3-0.2,0.6-0.4,0.8-0.6c1.9-1.8,3.7-3.6,5.5-5.4c0.8-0.6,0.9-1.8,0.3-2.6
	c-0.2-0.2-0.5-0.4-0.8-0.6c-0.7-0.4-1.4-0.7-2.1-1c-1.3-0.7-2.8-0.8-4.2-0.3c-0.9,0.3-1.8,0.5-2.6,0.8c-0.8,0.3-1.8,0.2-2.5-0.4
	c-1.1-0.8-2.2-1.6-3.3-2.4c-1.2-0.9-2.8-0.9-3.9,0c-1.1,0.8-2.2,1.6-3.3,2.4c-0.7,0.5-1.5,0.7-2.3,0.4c-0.9-0.3-1.8-0.5-2.7-0.9
	c-2.7-1-4.9,0.5-7,1.8c-0.7,0.6-0.7,1.7-0.1,2.4l0,0c0.8,0.8,1.6,1.6,2.4,2.4c1.3,1.4,2.5,2.8,3.8,4.2c-1.1,1.2-1.3,2.9-0.5,4.3
	c-1.8,1.9-3.6,3.8-5.3,5.7c-0.2,0.3-0.3,0.6-0.4,0.9c-0.3,0.1-0.6,0.3-0.8,0.5c-4.9,5.5-9.2,11.6-12.5,18.2
	c-1.6,3.1-2.8,6.4-3.6,9.8c-0.6,3.4-0.6,6.9-0.1,10.3c0.5,4.5,2.1,8.9,4.8,12.6c1.1,1.5,2.3,2.9,3.6,4.2c2.8,2.9,6,4.9,10.2,4.9
	c10.5,0,21,0,31.5,0c2.4,0,4.8-0.6,6.8-2c3.2-2.1,5.9-4.9,7.9-8.2c2.3-3.8,3.7-8,4.2-12.4C83.6,91.8,82.8,86.3,80.7,81.4z
	 M32.4,40.5c1.9-1.1,3.6-2.1,5.9-1.1c1.9,0.8,3.8,1.5,5.8,0.1c1-0.7,2-1.4,3-2.2c1.2-0.9,1.3-0.9,2.6,0c1.1,0.8,2.1,1.6,3.2,2.3
	c1,0.7,2.3,0.9,3.5,0.5c0.9-0.3,1.8-0.6,2.7-0.9c1-0.4,2.2-0.4,3.2,0.2c0.6,0.4,1.3,0.6,2.1,1c-2.3,2.2-4.4,4.2-6.6,6.3
	c-0.3,0.3-0.7,0.5-1.2,0.5c-5.5,0-11,0-16.5,0c-0.3,0-0.7-0.1-1-0.3C37,44.8,34.7,42.7,32.4,40.5z M40,52.2
	c-0.9,0.1-1.7-0.5-1.8-1.5c0,0,0,0,0,0v0c0-0.9,0.8-1.7,1.7-1.6c0,0,0.1,0,0.1,0c5.6,0,11.2,0,16.7,0c0.9-0.1,1.8,0.5,1.9,1.4
	c0,0,0,0,0,0c0,0,0,0.1,0,0.1c0,0.9-0.7,1.5-1.9,1.5c-2.8,0-5.5,0-8.3,0l0,0C45.6,52.2,42.8,52.2,40,52.2L40,52.2z M80.6,99.6
	c-1.2,6.7-4.8,11.9-10.1,16.1c-1.7,1.3-3.8,2.1-5.9,2.1c-6.2,0.1-12.4,0-18.6,0c-4.2,0-8.4,0-12.6,0c-3.1,0.1-6-1.1-8.3-3.2
	c-2.7-2.3-5-5.1-6.6-8.3c-1.5-3.1-2.4-6.4-2.8-9.9c-0.5-3.8-0.2-7.6,0.9-11.2c1.4-4,3.1-7.8,5.3-11.4c2.9-4.8,6.3-9.4,10-13.5
	c0.1-0.1,0.1-0.2,0.1-0.3c1.1-1.1,2.2-2.2,3.4-3.3c0.9-0.9,1.8-1.7,2.7-2.5c0.2-0.2,0.5-0.3,0.8-0.3c6.3,0,12.6,0,18.8,0
	c0.4,0,0.7,0.2,1,0.5c1.8,1.7,3.5,3.5,5.3,5.2c0.3,0.3,0.6,0.5,0.9,0.7c0.1,0.3,0.2,0.6,0.4,0.8c3.9,4.5,7.4,9.3,10.4,14.5
	c2.5,4.1,4.2,8.6,5.2,13.2C81.5,92.5,81.4,96.1,80.6,99.6L80.6,99.6z M4.4,26c0-1,0.6-1.4,1.3-1c1.1,0.6,2.2,1.2,3.3,1.8
	c2.4,1.4,4.8,2.8,7.2,4.1c0.8,0.5,1.1,1.1,0.6,1.6c-0.3,0.3-0.7,0.3-1.1,0.2c-3.6-2-7.2-4.1-10.7-6.2C4.7,26.5,4.5,26.2,4.4,26z
	 M92.4,26c-0.2,0.2-0.4,0.5-0.6,0.6c-3.5,2-6.9,4-10.4,6c-0.6,0.4-1.1,0.3-1.5-0.3c-0.4-0.6,0-1.1,0.5-1.4c3.4-2,6.8-3.9,10.3-5.9
	C91.6,24.6,92.4,24.9,92.4,26z M30.7,18.5c-0.2,0.2-0.4,0.6-0.7,0.7c-0.4,0-0.8-0.1-1-0.4c-0.9-1.3-1.6-2.7-2.4-4.1
	c-0.3-0.4-0.5-0.8-0.7-1.2c-0.1-0.4,0-0.9,0.3-1.2c0.4-0.1,0.9-0.1,1.2,0.2c1.1,1.8,2.1,3.6,3.2,5.4C30.6,18.1,30.6,18.3,30.7,18.5
	L30.7,18.5z M66,18.4c0.1-0.3,0.3-0.6,0.4-0.9c0.9-1.6,1.8-3.1,2.7-4.7c0.3-0.6,0.7-1,1.4-0.6c0.7,0.4,0.5,1,0.2,1.6
	c-1,1.6-1.9,3.3-2.9,4.9c-0.3,0.3-0.7,0.5-1.2,0.5C66.5,19.1,66.3,18.7,66,18.4L66,18.4z M88.8,51.6c-1,0-1.9,0-2.9,0
	c-0.5,0.1-1-0.3-1.1-0.8c0,0,0,0,0,0c0-0.1,0-0.1,0-0.2c0-0.3,0.6-0.8,1-0.8c2-0.1,4-0.1,6-0.1c0.4,0,0.8,0.3,0.9,0.7
	c0,0.1,0,0.1,0,0.2c0,0.6-0.4,0.9-1,0.9C90.8,51.6,89.8,51.6,88.8,51.6L88.8,51.6z M8.2,51.5c-0.9,0-1.8,0-2.8,0
	c-0.6,0-1.3-0.2-1.3-0.9c0-0.7,0.6-0.8,1.2-0.8c1.8,0,3.6,0,5.4,0c0.6,0,1.2,0.2,1.2,0.9c0,0.8-0.6,1-1.3,0.9
	C9.9,51.5,9,51.6,8.2,51.5L8.2,51.5z M49.3,10.9c-0.1-0.9,0-3.6,0-4.1c0-1.9,0-3.8,0-5.7C49.3,0.4,49,0,48.4,0c-0.7,0-1,0.4-1,1.1
	c0,1.8,0,3.5,0,5.3c0,0.3,0.1,2.8,0.1,2.9c0,1.4-0.1,2.9-0.1,4.3c0,0.2,0.6,0.6,0.9,0.6c0.4-0.1,0.7-0.4,0.8-0.8
	C49.4,12.6,49.4,11.7,49.3,10.9L49.3,10.9z"/>
<path id="Tracé_5800" class="st2" d="M8.2,71.3H5.9V69c0-0.5-0.4-0.9-0.9-0.9H4.1c-0.5,0-0.9,0.4-0.9,0.9c0,0,0,0,0,0v2.3H0.9
	c-0.5,0-0.9,0.4-0.9,0.9c0,0,0,0,0,0v0.9C0,73.6,0.4,74,0.9,74c0,0,0,0,0,0h2.3v2.3c0,0.5,0.4,0.9,0.9,0.9c0,0,0,0,0,0H5
	c0.5,0,0.9-0.4,0.9-0.9c0,0,0,0,0,0V74h2.3c0.5,0,0.9-0.4,0.9-0.9c0,0,0,0,0,0v-0.9C9.1,71.7,8.7,71.3,8.2,71.3L8.2,71.3z
	 M32.1,60.1c1.1-1.1,2.2-2.2,3.4-3.3c0.9-0.9,1.8-1.7,2.7-2.5c0.2-0.2,0.5-0.3,0.8-0.3c6.3,0,12.6,0,18.8,0c0.4,0,0.7,0.2,1,0.5
	c1.8,1.7,3.5,3.5,5.3,5.2c0.3,0.3,0.6,0.5,0.9,0.7c0.1,0.3,0.2,0.6,0.4,0.8c3.9,4.5,7.4,9.3,10.4,14.5c2.5,4.1,4.2,8.6,5.2,13.2
	c0.5,3.6,0.4,7.2-0.4,10.7c-1.2,6.7-4.8,11.9-10.1,16.1c-1.7,1.3-3.8,2.1-5.9,2.1c-6.2,0.1-12.4,0-18.6,0c-4.2,0-8.4,0-12.6,0
	c-3.1,0.1-6-1.1-8.3-3.2c-2.7-2.3-5-5.1-6.6-8.3c-1.5-3.1-2.4-6.4-2.8-9.9c-0.5-3.8-0.2-7.6,0.9-11.2c1.4-4,3.1-7.8,5.3-11.4
	c2.9-4.8,6.3-9.4,10-13.5C32,60.4,32.1,60.2,32.1,60.1L32.1,60.1z M64.3,40.5c-2.3,2.2-4.4,4.2-6.6,6.3c-0.3,0.3-0.7,0.5-1.2,0.5
	c-5.5,0-11,0-16.5,0c-0.3,0-0.7-0.1-1-0.3c-2.3-2.1-4.5-4.2-6.8-6.4c1.9-1.1,3.6-2.1,5.9-1.1c1.9,0.8,3.8,1.5,5.8,0.1
	c1-0.7,2-1.4,3-2.2c1.2-0.9,1.3-0.9,2.6,0c1.1,0.8,2.1,1.6,3.2,2.3c1,0.7,2.3,0.9,3.5,0.5c0.9-0.3,1.8-0.6,2.7-0.9
	c1-0.4,2.2-0.4,3.2,0.2C62.9,39.8,63.6,40.1,64.3,40.5L64.3,40.5z M48.4,52.2c-2.8,0-5.6,0-8.4,0c-0.9,0.1-1.7-0.5-1.8-1.5
	c0,0,0,0,0,0v0c0-0.9,0.8-1.7,1.7-1.6c0,0,0.1,0,0.1,0c5.6,0,11.2,0,16.7,0c0.9-0.1,1.8,0.5,1.9,1.4c0,0,0,0,0,0c0,0,0,0.1,0,0.1
	c0,0.9-0.7,1.5-1.9,1.5C53.9,52.2,51.2,52.2,48.4,52.2L48.4,52.2z"/>
<path id="Tracé_5801" class="st3" d="M52.8,22l2.4-2.4l3.6,3.6l-2.4,2.4L52.8,22z M47,96.9l-1-2.6h-8.5l-1,2.7
	c-0.2,0.7-0.6,1.5-1,2.1c-0.3,0.4-0.8,0.6-1.4,0.5c-0.5,0-1-0.2-1.4-0.6c-0.4-0.3-0.6-0.8-0.6-1.3c0-0.3,0-0.6,0.1-0.9
	c0.1-0.3,0.3-0.7,0.5-1.3L38.1,82c0.2-0.4,0.3-0.9,0.5-1.4c0.2-0.5,0.4-0.9,0.7-1.4c0.2-0.4,0.6-0.7,1-0.9c0.4-0.2,1-0.3,1.5-0.3
	c0.5,0,1,0.1,1.5,0.3c0.4,0.2,0.7,0.5,1,0.9c0.2,0.4,0.4,0.7,0.6,1.1c0.2,0.4,0.4,0.9,0.6,1.6l5.4,13.5c0.3,0.7,0.6,1.5,0.6,2.2
	c0,0.5-0.2,1-0.6,1.3c-0.4,0.4-0.9,0.6-1.5,0.6c-0.3,0-0.6-0.1-0.9-0.2c-0.2-0.1-0.4-0.3-0.6-0.5c-0.2-0.3-0.4-0.6-0.5-0.9
	C47.3,97.6,47.2,97.2,47,96.9z M38.7,91.1h6.2l-3.1-8.6L38.7,91.1z M58.2,94v3.2c0,0.6-0.1,1.3-0.6,1.8c-0.4,0.4-0.9,0.6-1.4,0.6
	c-0.5,0-1-0.2-1.4-0.6c-0.4-0.5-0.6-1.1-0.5-1.8V86.5c0-1.7,0.6-2.6,1.9-2.6c0.5,0,1.1,0.2,1.4,0.6c0.3,0.5,0.5,1.2,0.5,1.8
	c0.4-0.7,0.9-1.3,1.4-1.8c0.6-0.4,1.3-0.6,2-0.6c0.8,0,1.6,0.2,2.4,0.6c0.7,0.3,1.1,0.9,1.2,1.6c0,0.4-0.2,0.9-0.5,1.2
	c-0.3,0.3-0.7,0.5-1.1,0.5c-0.4,0-0.7-0.1-1-0.3c-0.5-0.2-1-0.3-1.4-0.3c-0.5,0-1,0.1-1.4,0.4c-0.4,0.4-0.7,0.8-0.8,1.3
	c-0.2,0.7-0.4,1.4-0.4,2.1C58.3,91.9,58.2,92.9,58.2,94L58.2,94z"/>
</svg>
