<?xml version="1.0" encoding="utf-8"?>
<!-- Generator: Adobe Illustrator 21.1.0, SVG Export Plug-In . SVG Version: 6.00 Build 0)  -->
<svg version="1.1" id="Layer_1" xmlns="http://www.w3.org/2000/svg" xmlns:xlink="http://www.w3.org/1999/xlink" x="0px" y="0px"
	 viewBox="0 0 79.2 83.9" style="enable-background:new 0 0 79.2 83.9;" xml:space="preserve">
<style type="text/css">
	.st0{fill:none;}
	.st1{fill:#FFFFFF;}
	.st2{fill:#B7B7B6;}
	.st3{fill:#149AC4;}
	.st4{fill:#00CCB3;}
	.st5{fill:#FBB03B;}
	.st6{fill:#88E766;}
	.st7{fill:#A2EC5C;}
	.st8{fill:#0FCA8E;}
</style>
<path id="Tracé_5219" class="st0" d="M38.7,35h-2l3.3,3.3l1.9,0L38.7,35z"/>
<path id="Tracé_5220" class="st0" d="M35,35h-2l3.4,3.4l1.9,0L35,35z"/>
<path id="Tracé_5221" class="st0" d="M51.1,43.7L42.4,35h-1.9l8.7,8.7H51.1z"/>
<path id="Tracé_5222" class="st1" d="M43.7,43.7l-5.4-5.4l-1.9,0l5.3,5.3L43.7,43.7z"/>
<path id="Tracé_5223" class="st1" d="M47.4,43.7L42,38.2l-1.9,0l5.4,5.4L47.4,43.7z"/>
<path id="Tracé_5745" class="st1" d="M27.3,51.1h4.9v8.7h-4.9V51.1z M39.2,48.4L37.8,47v12.7h13.6V48.6H39.6
	C39.5,48.6,39.3,48.5,39.2,48.4z M22.9,45.7v14H26v-9.3c0-0.3,0.3-0.6,0.6-0.6c0,0,0,0,0,0h6.2c0.3,0,0.6,0.3,0.6,0.6l0,0v9.3h3.1
	v-14L29.7,39L22.9,45.7z"/>
<path id="Tracé_5746" class="st2" d="M43.9,46.1h-1.2v-1.2h-1.2c-0.2,0-0.3-0.1-0.4-0.2l-5.1-5.1v1h-1.2v-1.9h-3.5l8.7,8.7h11.9
	l-2.5-2.5h-5.3V46.1z"/>
<path id="Tracé_5747" class="st3" d="M51.1,43.7h-1.9L40.5,35h1.9L51.1,43.7z M47.4,43.7h-2L36.8,35h2L47.4,43.7z M43.7,43.7h-2
	L33,35h2L43.7,43.7z"/>
<path id="Tracé_5748" class="st4" d="M53.7,47.6L51,44.9h1.6c0.3,0,0.6-0.3,0.6-0.6c0-0.2-0.1-0.3-0.2-0.4l-9.9-9.9
	c-0.1-0.1-0.3-0.2-0.4-0.2H31.5c-0.3,0-0.6,0.3-0.6,0.6c0,0.2,0.1,0.3,0.2,0.4l2.7,2.7h-3.9c-0.2-0.1-0.5,0-0.6,0.1l-9.9,9.9
	l0.9,0.9l1.4-1.4v13.4c0,0.3,0.3,0.6,0.6,0.6H52c0.3,0,0.6-0.3,0.6-0.6V48.6h0.6c0.3,0,0.6-0.3,0.6-0.6v0l0,0
	C53.8,47.8,53.8,47.7,53.7,47.6z M42.4,35l8.7,8.7h-1.9L40.5,35H42.4z M51.7,60.4H22.5V45.8l7.3-7.3l6.6-0.2L33,35h2l3.3,3.3l1.7,0
	L36.8,35h2l3.2,3.2l0.5,0l9.7,9.6L51.7,60.4z M42,38.2l5.4,5.4h-2l-5.4-5.4l-1.7,0l5.4,5.4h-2l-5.3-5.3l-6.6,0.2l-7.3,7.3v14.6h29.2
	l0.5-12.7l-9.7-9.6L42,38.2z M32.2,59.7h-4.9v-8.7h4.9V59.7z M36.5,59.7h-3.1v-9.3c0-0.3-0.3-0.6-0.6-0.6h-6.2
	c-0.3,0-0.6,0.3-0.6,0.6l0,0l0,0v9.3h-3.1v-14l6.8-6.8l6.8,6.8L36.5,59.7z M51.4,59.7H37.8V47l1.4,1.4c0.1,0.1,0.3,0.2,0.4,0.2h11.7
	L51.4,59.7z M51.7,47.4H39.9l-8.7-8.7h3.5v1.9h1.2v-1l5.1,5.1c0.1,0.1,0.3,0.2,0.4,0.2h1.2v1.2h1.2v-1.2h5.3L51.7,47.4z M40.9,57.3
	h7.4c0.3,0,0.6-0.3,0.6-0.6l0,0v-4.9c0-0.3-0.3-0.6-0.6-0.6h-7.4c-0.3,0-0.6,0.3-0.6,0.6v4.9C40.2,57,40.5,57.3,40.9,57.3L40.9,57.3
	z M47.7,56h-2.5v-3.7h2.5V56z M41.5,52.3h2.5V56h-2.5V52.3z M28.5,54.8h1.2V56h-1.2V54.8z"/>
<path id="Tracé_5749" class="st5" d="M52.7,30.9c0.3-1.9,2.1-3.3,4.1-3c0,0,0,0,0,0c1.9,0.3,3.3,2.2,3,4.1c0,0,0,0,0,0
	c-0.3,1.9-2.2,3.3-4.1,3c0,0,0,0,0,0l0,0C53.7,34.7,52.4,32.9,52.7,30.9C52.7,30.9,52.7,30.9,52.7,30.9L52.7,30.9z M55.8,24.8h0.9
	v1.8h-0.9V24.8z M55.8,36.4h0.9v1.8h-0.9V36.4z M60.7,26.4l0.6,0.6L60,28.3l-0.6-0.6L60.7,26.4z M52.5,34.7l0.6,0.6l-1.3,1.3
	l-0.6-0.6L52.5,34.7z M62.9,31.1V32h-1.8v-0.9H62.9z M51.3,31.1V32h-1.8v-0.9H51.3z M61.3,35.9l-0.6,0.6l-1.3-1.3l0.6-0.6L61.3,35.9
	z M53.1,27.7l-0.6,0.6l-1.3-1.3l0.6-0.6L53.1,27.7z"/>
<path id="Tracé_5750" class="st6" d="M57.7,53.9h-0.9V53c0-0.2-0.2-0.4-0.4-0.4H56c-0.2,0-0.4,0.2-0.4,0.4c0,0,0,0,0,0l0,0v0.9
	h-0.9c-0.2,0-0.4,0.2-0.4,0.4l0,0v0.4c0,0.2,0.2,0.4,0.4,0.4c0,0,0,0,0,0h0.9v0.9c0,0.2,0.2,0.4,0.4,0.4c0,0,0,0,0,0h0.4
	c0.2,0,0.4-0.2,0.4-0.4V55h0.9c0.2,0,0.4-0.2,0.4-0.4v-0.4C58,54.1,57.9,53.9,57.7,53.9L57.7,53.9z"/>
<path id="Tracé_5773" class="st7" d="M21.1,69.3c-5.1-4.1-8-9.6-9.7-15.9c-0.5-2-0.5-2,1.3-2.8c2-0.9,2-0.9,0.9-2.5
	c-0.6-0.8-1.6-1.3-1.9-2.4l-0.6-0.6L6.9,40c-0.7,0.9-0.5,1.9-1,2.7l0,1.2l0,0c-0.6,0.9-0.5,2.1-1,3c0,0.2,0,0.4-0.1,0.6l-0.3,0.6
	c-0.5,2.2-1,4.5-1.6,6.8c1.1-0.4,2.1-1.2,2.8-0.9c0.8,0.3,0.7,1.7,1.1,2.6c0.2,0.3,0.3,0.7,0.4,1.1c2.4,5.9,6.6,10.8,12.1,14
	c1.1,0.6,1.3-0.2,1.7-0.7C21.5,70.3,21.9,70,21.1,69.3z M58.1,14.6c5.1,4.1,8,9.6,9.7,15.9c0.5,2,0.5,2-1.3,2.8
	c-2,0.9-2,0.9-0.9,2.5c0.6,0.8,1.6,1.3,1.9,2.4l0.6,0.6l4.1,5.2c0.7-0.9,0.5-1.9,1-2.7l0-1.2l0,0c0.6-0.9,0.5-2.1,1-3
	c0-0.2,0-0.4,0.1-0.6l0.3-0.6c0.5-2.2,1-4.5,1.6-6.8c-1.1,0.4-2.1,1.2-2.8,0.9c-0.8-0.3-0.7-1.7-1.1-2.6c-0.2-0.3-0.3-0.7-0.4-1.1
	c-2.4-5.9-6.6-10.8-12.1-14c-1.1-0.6-1.3,0.2-1.7,0.7C57.7,13.6,57.3,14,58.1,14.6z"/>
<path id="Tracé_5774" class="st8" d="M79.1,46.6c-1.9,4-5.3,6.1-9.4,7.3c-1.4,0.4-2.7,0.8-4.1,1c-5.4,0.8-10.9,1.4-16.4,2.3
	c-11.7,1.9-20.2,8.5-26.4,18.4c-0.5,0.9-0.6,1.3,0.6,1.7c6.8,2,13.9,2.4,20.9,1.2c5.3-1,10.5-2.9,15.2-5.6l0.4,0.3
	c-9.1,6.4-19.3,8.8-30.3,7.9c-3.9-0.4-7.8-1.3-11.5-2.5l0,0c-0.2-0.2-0.6-0.2-0.9,0c0,0,0,0-0.1,0.1l0.8,0.1l0,0
	c10,4.8,20.4,6.7,31.3,4.1c13.6-3.2,23.5-11.1,28.3-24.5C78.8,54.5,79.4,50.6,79.1,46.6z M0.1,37.3c1.9-4,5.3-6.1,9.4-7.3
	c1.4-0.4,2.7-0.8,4.1-1c5.4-0.8,10.9-1.4,16.4-2.3c11.7-1.9,20.2-8.5,26.4-18.4c0.5-0.9,0.6-1.3-0.6-1.7c-6.8-2-13.9-2.4-20.9-1.2
	c-5.3,1-10.5,2.9-15.1,5.6l-0.4-0.3C28.5,4.3,38.7,2,49.7,2.9c3.9,0.4,7.8,1.3,11.5,2.5l0,0c0.2,0.2,0.6,0.2,0.9,0c0,0,0,0,0,0
	c0,0,0,0,0.1-0.1l-0.8-0.1l0,0C51.3,0.5,40.9-1.4,30,1.1C16.4,4.3,6.6,12.2,1.8,25.7C0.4,29.4-0.2,33.4,0.1,37.3L0.1,37.3z"/>
</svg>
