<?xml version="1.0" standalone="no"?>
<!DOCTYPE svg PUBLIC "-//W3C//DTD SVG 1.1//EN" "http://www.w3.org/Graphics/SVG/1.1/DTD/svg11.dtd" >
<svg xmlns="http://www.w3.org/2000/svg">
<metadata>
<json>
<![CDATA[
{
	"fontFamily": "icobondy",
	"description": "Font generated by IcoMoon.",
	"majorVersion": 1,
	"minorVersion": 0,
	"version": "Version 1.0",
	"fontId": "icobondy",
	"psName": "icobondy",
	"subFamily": "Regular",
	"fullName": "icobondy"
}
]]>
</json>
</metadata>
<defs>
<font id="icobondy" horiz-adv-x="1024">
<font-face units-per-em="1024" ascent="960" descent="-64" />
<missing-glyph horiz-adv-x="1024" />
<glyph unicode="&#x20;" horiz-adv-x="512" d="" />
<glyph unicode="&#xe900;" glyph-name="home" data-tags="home" d="M1033.309 545.745l-493.382 363.055c-9.309 9.309-23.273 9.309-32.582 0l-498.036-363.055c-9.309-9.309-13.964-27.927-4.655-37.236s27.927-13.964 37.236-4.655v0l479.418 349.091 479.418-349.091c13.964-9.309 27.927-4.655 37.236 9.309 9.309 9.309 4.655 23.273-4.655 32.582zM901.772 495.849c-13.964 0-27.927-13.964-27.927-27.927v-432.873h-218.764v237.382c0 74.473-60.509 134.982-134.982 134.982s-134.982-60.509-134.982-134.982v-237.382h-214.109v432.873c0 13.964-13.964 27.927-27.927 27.927s-27.927-13.964-27.927-27.927v-460.8c0-13.964 13.964-23.273 27.927-23.273h269.964c13.964 0 27.927 9.309 27.927 23.273 0 0 0 0 0 0v265.309c0 46.545 37.236 83.782 79.127 83.782s83.782-37.236 83.782-79.127v0-260.655c0 0 0 0 0 0 0-13.964 13.964-23.273 27.927-23.273h269.964c13.964 0 27.927 13.964 27.927 27.927v446.836c0 13.964-13.964 27.927-27.927 27.927z" />
<glyph unicode="&#xe901;" glyph-name="mail" data-tags="mail" d="M991.418 769.164c0 0 0 0 0 0-4.655 4.655-4.655 4.655 0 0-4.655 4.655-4.655 4.655 0 0 0 4.655 0 4.655 0 4.655v0c0 0 0 0 0 4.655v0c0 0 0 0-4.655 4.655v0c0 0 0 0-4.655 0v0c0 0-4.655 0-4.655 0h-949.527c0 0-4.655 0-4.655 0v0c0 0-4.655 0-4.655 0v0c0 0 0 0-4.655-4.655v0c0 0 0 0 0-4.655v0c0 0 0 0 0 0s0 0 0-4.655c0 0 0 0 0 0s0 0 0 0v-656.291c0 0 0 0 0 0s0 0 0 0 0 0 0 0 0 0 0 0 0 0 0 0 0 0 0 0v0c0 0 0 0 0 0v0 0c0 0 0 0 0 0s4.655 0 4.655 0v0c0 0 4.655 0 4.655 0h949.527c0 0 4.655 0 4.655 0v0c0 0 4.655 0 4.655 0v0 0 0c0 0 0 0 0 0v0c0 0 0 0 0 0s0 0 0 0 0 0 0 0 0 0 0 0 0 0 0 0 0 0 0 0l9.309 656.291zM349.091 471.273l139.636-121.018c4.655-4.655 13.964-4.655 18.618 0l144.291 121.018 293.236-344.436h-884.364l288.582 344.436zM41.891 154.764v586.473l288.582-246.691-288.582-339.782zM670.255 489.891l288.582 246.691v-586.473l-288.582 339.782zM935.564 755.2l-293.236-251.345-144.291-121.018-139.636 121.018-293.236 251.345h870.4zM23.273 89.6c-4.655 0-4.655 0-9.309 0 0 0-4.655 0-4.655 0v0l-4.655 4.655c0 0-4.655 4.655-4.655 4.655v670.254c0 4.655 0 4.655 0 4.655v4.655c0 0 0 4.655 4.655 4.655 0 4.655 4.655 4.655 4.655 4.655h4.655c0 0 0 0 4.655 0s4.655 0 9.309 0h949.527c4.655 0 4.655 0 9.309 0 0 0 4.655 0 4.655 0v0h4.655c0 0 4.655-4.655 4.655-4.655 0-4.655 4.655-4.655 4.655-4.655v-4.655c0 0 0-4.655 0-4.655v0l-4.655-665.6c0 0 0 0 0-4.655l-9.309-9.309c0 0-4.655 0-4.655-4.655-4.655 0-4.655 0-9.309 0h-954.182zM23.273 112.873h949.527v660.945h-954.182l4.655-660.945zM968.145 117.527h-935.564l316.509 372.364 148.945-130.327c0 0 4.655 0 4.655 0l148.945 130.327 316.509-372.364zM83.782 140.8h837.818l-269.964 316.509-130.327-111.709c-9.309-9.309-23.273-9.309-32.582 0l-134.982 111.709-269.964-316.509zM972.8 122.182l-316.509 372.364 316.509 269.964v-642.327zM688.873 489.891l260.655-307.2v530.618l-260.655-223.418zM27.927 122.182v642.327l316.509-269.964-316.509-372.364zM51.2 713.309v-530.618l260.655 307.2-260.655 223.418zM502.691 368.873l-465.455 400.291h935.564l-470.109-400.291zM97.745 745.891l404.945-349.091 404.945 349.091h-809.891z" />
<glyph unicode="&#xe902;" glyph-name="link-social" data-tags="link-social" d="M814.545 313.018c-55.855 0-107.055-27.927-144.291-69.818l-274.618 153.6c4.655 18.618 9.309 37.236 9.309 60.509 0 18.618-4.655 41.891-9.309 60.509l274.618 153.6c60.509-79.127 172.218-93.091 251.345-32.582s93.091 172.218 32.582 251.345-172.218 93.091-251.345 32.582c-46.545-32.582-69.818-88.436-69.818-144.291 0-18.618 4.655-41.891 9.309-60.509l-274.618-153.6c-60.509 79.127-172.218 93.091-251.345 32.582s-93.091-172.218-32.582-251.345 172.218-93.091 251.345-32.582c13.964 9.309 23.273 23.273 32.582 32.582l274.618-153.6c-32.582-93.091 13.964-195.491 111.709-228.073 93.091-32.582 195.491 13.964 228.073 111.709s-13.964 195.491-111.709 228.073c-13.964 4.655-32.582 9.309-55.855 9.309v0zM814.545 904.145c69.818 0 125.673-55.855 125.673-125.673s-55.855-121.018-125.673-121.018c-69.818 0-125.673 55.855-125.673 125.673 0 0 0 0 0 0 4.655 65.164 55.855 121.018 125.673 121.018zM228.073 331.636c-69.818 0-125.673 55.855-125.673 125.673s55.855 125.673 125.673 125.673c69.818 0 125.673-55.855 125.673-125.673 0 0 0 0 0 0-4.655-69.818-60.509-125.673-125.673-125.673zM814.545 10.473c-69.818 0-125.673 55.855-125.673 125.673s55.855 125.673 125.673 125.673c69.818 0 125.673-55.855 125.673-125.673v0c0-69.818-55.855-125.673-125.673-125.673z" />
<glyph unicode="&#xe903;" glyph-name="bag" data-tags="bag" d="M943.543 60.343l-58.514 672.914c0 14.629-14.629 29.257-29.257 29.257h-124.343c0 109.714-95.086 197.486-212.114 197.486-109.714 0-197.486-87.771-197.486-204.8h-124.343c-14.629 0-29.257-7.314-29.257-21.943l-58.514-672.914c0 0 0 0 0 0 7.314-80.457 73.143-146.286 153.6-138.971h519.314c80.457 0 153.6 58.514 160.914 138.971 0 0 0 0 0 0zM526.629 901.486c80.457 0 146.286-65.829 146.286-146.286h-292.571c0 80.457 65.829 146.286 146.286 146.286zM782.629-20.114h-519.314c-51.2-7.314-95.086 29.257-95.086 80.457l58.514 643.657h95.086v-87.771c0-14.629 14.629-29.257 29.257-29.257s29.257 14.629 29.257 29.257v87.771h292.571v-87.771c0-14.629 14.629-29.257 29.257-29.257s29.257 14.629 29.257 29.257v87.771h95.086l58.514-643.657c-7.314-51.2-51.2-87.771-102.4-80.457z" />
<glyph unicode="&#xe904;" glyph-name="check" data-tags="check" d="M368.64 38.4c-6.827 0-13.653 6.827-13.653 13.653l-191.147 191.147c-54.613 47.787-102.4 102.4-157.013 150.187-6.827 13.653-6.827 20.48 0 27.307 47.787 47.787 102.4 95.573 150.187 143.36 6.827 6.827 13.653 13.653 27.307 0 54.613-54.613 116.053-116.053 170.667-177.493 13.653-6.827 20.48-6.827 27.307 0 150.187 150.187 307.2 307.2 457.387 457.387 13.653 13.653 20.48 13.653 27.307 0 47.787-47.787 95.573-95.573 143.36-143.36 6.827-6.827 13.653-13.653 0-27.307-211.627-211.627-423.253-423.253-634.88-628.053 0 0 0-6.827-6.827-6.827z" />
<glyph unicode="&#xe905;" glyph-name="check-circle" data-tags="check-circle" d="M704 640l-248-248-128 120-64-64 200-200 320 312-80 80zM512 960c-280 0-512-232-512-512s232-512 512-512 512 232 512 512-232 512-512 512v0zM512 32c-232 0-416 184-416 416s184 416 416 416 416-184 416-416-184-416-416-416v0z" />
<glyph unicode="&#xe906;" glyph-name="progression-circle" data-tags="progression-circle" d="M512 960c-280 0-512-232-512-512s232-512 512-512 512 232 512 512c0 280-232 512-512 512zM512 56c-216 0-392 176-392 392s176 392 392 392 392-176 392-392c0-216-176-392-392-392v0zM512 800v0-344h-352c0 0 0 0 0 0 0-192 160-352 352-352s352 160 352 352-160 344-352 344v0z" />
<glyph unicode="&#xe907;" glyph-name="star-outline" data-tags="star-outline" d="M1036.8 550.4l-345.6 70.4-172.8 307.2-172.8-300.8-345.6-76.8 236.8-262.4-38.4-345.6 320 140.8 320-140.8-38.4 345.6 236.8 262.4zM518.4 160l-243.2-108.8 25.6 262.4-179.2 198.4 262.4 57.6 134.4 230.4 134.4-230.4 262.4-57.6-179.2-198.4 25.6-268.8-243.2 115.2z" />
<glyph unicode="&#xe908;" glyph-name="star" data-tags="star" d="M1024 567.467l-337.067 72.533-174.933 298.667-174.933-298.667-337.067-72.533 230.4-256-38.4-345.6 315.733 140.8 315.733-140.8-38.4 345.6 238.933 256z" />
<glyph unicode="&#xe909;" glyph-name="iconscroll" data-tags="icon scroll" d="M512-64c-178.469 0-321.829 143.36-321.829 321.829v380.343c0 178.469 143.36 321.829 321.829 321.829s321.829-143.36 321.829-321.829v-380.343c0-178.469-143.36-321.829-321.829-321.829zM512 901.486c-146.286 0-263.314-117.029-263.314-263.314v-380.343c0-146.286 117.029-263.314 263.314-263.314s263.314 117.029 263.314 263.314v380.343c0 146.286-117.029 263.314-263.314 263.314zM512 140.8c-23.406 0-43.886 20.48-43.886 43.886v263.314c0 23.406 20.48 43.886 43.886 43.886s43.886-20.48 43.886-43.886v-263.314c0-23.406-20.48-43.886-43.886-43.886zM512 605.989c-23.406 0-43.886 20.48-43.886 43.886v61.44c0 23.406 20.48 43.886 43.886 43.886s43.886-20.48 43.886-43.886v-61.44c0-23.406-20.48-43.886-43.886-43.886z" />
<glyph unicode="&#xe90a;" glyph-name="quote-open" data-tags="quote-open" d="M428.218 876.218v-167.564c0-18.618-18.618-37.236-37.236-37.236-83.782 0-121.018-83.782-130.327-251.345h130.327c18.618 0 37.236-18.618 37.236-37.236v-353.745c0-18.618-18.618-37.236-37.236-37.236h-353.745c-18.618-9.309-37.236 9.309-37.236 27.927 0 0 0 0 0 0v353.745c0 74.473 9.309 148.945 27.927 214.109 9.309 65.164 37.236 121.018 65.164 167.564s74.473 83.782 121.018 111.709c55.855 37.236 121.018 46.545 176.873 46.545 18.618 0 37.236-18.618 37.236-37.236 0 0 0 0 0 0zM958.836 662.109c18.618 0 37.236 18.618 37.236 37.236v176.873c0 18.618-18.618 37.236-37.236 37.236-111.709 0-223.418-55.855-288.582-148.945-37.236-55.855-65.164-111.709-74.473-176.873-18.618-65.164-27.927-139.636-27.927-214.109v-353.745c0-18.618 18.618-37.236 37.236-37.236h353.745c18.618 0 37.236 18.618 37.236 37.236v353.745c0 18.618-18.618 37.236-37.236 37.236h-130.327c9.309 167.564 55.855 251.345 130.327 251.345z" />
<glyph unicode="&#xe90b;" glyph-name="info-square" data-tags="info-square" d="M906.24 960h-788.48c-61.44 0-117.76-56.32-117.76-117.76v-604.16c0-66.56 56.32-117.76 117.76-117.76h250.88l143.36-184.32 138.24 179.2h250.88c66.56 0 117.76 56.32 117.76 117.76v609.28c5.12 61.44-46.080 117.76-112.64 117.76zM947.2 238.080c0-20.48-20.48-40.96-40.96-40.96h-291.84l-102.4-133.12-102.4 133.12h-291.84c-20.48 0-40.96 20.48-40.96 40.96v604.16c0 20.48 20.48 40.96 40.96 40.96h783.36c20.48 0 40.96-20.48 40.96-40.96v-604.16zM471.040 734.72c0 25.6 20.48 51.2 51.2 51.2 25.6 0 51.2-20.48 51.2-51.2 0-25.6-20.48-51.2-51.2-51.2s-51.2 25.6-51.2 51.2c0 0 0 0 0 0zM573.44 381.44l35.84-71.68-25.6-15.36c-46.080-25.6-107.52-5.12-128 46.080-10.24 15.36-10.24 35.84-10.24 56.32 0 0 0 0 0 5.12l30.72 128c0 10.24-5.12 15.36-15.36 20.48-5.12 0-5.12 0-10.24 0l-30.72-20.48-35.84 71.68 30.72 15.36c46.080 25.6 107.52 5.12 128-46.080 10.24-15.36 10.24-35.84 10.24-56.32 0 0 0 0 0-5.12l-30.72-128c0-10.24 5.12-15.36 15.36-20.48 5.12 0 5.12 0 10.24 0l25.6 20.48z" />
<glyph unicode="&#xe90c;" glyph-name="warning" data-tags="warning" d="M460.8 960h107.52v-806.4h-107.52v806.4zM460.8 46.080h107.52v-107.52h-107.52v107.52z" />
<glyph unicode="&#xe90d;" glyph-name="warning-circle" data-tags="warning-circle" d="M481.28 253.44h61.44v-61.44h-61.44v61.44zM481.28 775.68h61.44v-460.8h-61.44v460.8zM512 930.743c-65.829 0-128.731-13.166-187.246-38.034-57.051-24.869-109.714-58.514-153.6-103.863s-78.994-96.549-103.863-153.6c-24.869-58.514-38.034-121.417-38.034-187.246s13.166-128.731 38.034-187.246c24.869-57.051 58.514-109.714 103.863-153.6s96.549-78.994 153.6-103.863c58.514-24.869 121.417-38.034 187.246-38.034s128.731 13.166 187.246 38.034c57.051 24.869 109.714 58.514 153.6 103.863s78.994 96.549 103.863 153.6c24.869 58.514 38.034 121.417 38.034 187.246s-13.166 128.731-38.034 187.246c-24.869 57.051-58.514 109.714-103.863 153.6s-96.549 78.994-153.6 103.863c-58.514 24.869-121.417 38.034-187.246 38.034zM512 960c282.331 0 512-229.669 512-512s-229.669-512-512-512-512 229.669-512 512 229.669 512 512 512z" />
<glyph unicode="&#xe90e;" glyph-name="plus" data-tags="plus" d="M409.6 38.4v307.2h-307.2c-54.613 0-102.4 47.787-102.4 102.4s47.787 102.4 102.4 102.4h307.2v307.2c0 54.613 47.787 102.4 102.4 102.4s102.4-47.787 102.4-102.4v-307.2h307.2c54.613 0 102.4-47.787 102.4-102.4s-47.787-102.4-102.4-102.4h-307.2v-307.2c0-54.613-47.787-102.4-102.4-102.4s-102.4 47.787-102.4 102.4z" />
<glyph unicode="&#xe90f;" glyph-name="minus" data-tags="minus" d="M102.4 550.4h819.2c54.613 0 102.4-47.787 102.4-102.4v0c0-54.613-47.787-102.4-102.4-102.4h-819.2c-54.613 0-102.4 47.787-102.4 102.4v0c0 54.613 47.787 102.4 102.4 102.4z" />
<glyph unicode="&#xe910;" glyph-name="close" data-tags="close" horiz-adv-x="1015" d="M0 44.743l416.85 416.85-398.726 398.726 99.681 99.681 398.726-398.726 398.726 398.726 99.681-99.681-398.726-398.726 398.726-398.726-99.681-99.681-398.726 398.726-416.85-416.85-99.681 99.681z" />
<glyph unicode="&#xe911;" glyph-name="mosaic" data-tags="mosaic" d="M0 960h491.52v-491.52h-491.52v491.52zM0 427.52h491.52v-491.52h-491.52v491.52zM532.48 960h491.52v-491.52h-491.52v491.52zM532.48 427.52h491.52v-491.52h-491.52v491.52z" />
<glyph unicode="&#xe912;" glyph-name="enlarge" data-tags="enlarge" horiz-adv-x="1031" d="M1010.347 960h-232.107c-13.653 0-27.307-13.653-27.307-27.307v-68.267c0-13.653 13.653-27.307 27.307-27.307h61.44l-191.147-177.493c-6.827-6.827-6.827-27.307 0-34.133 0 0 0 0 0 0l47.787-47.787c6.827-6.827 27.307-6.827 34.133 0 0 0 0 0 0 0l184.32 184.32v-61.44c0-13.653 13.653-27.307 27.307-27.307h68.267c13.653 0 27.307 13.653 27.307 27.307v232.107c-6.827 13.653-20.48 27.307-27.307 27.307zM191.147 843.947h61.44c13.653 0 27.307 13.653 27.307 27.307v0 68.267c0 6.827-13.653 20.48-27.307 20.48h-225.28c-13.653 0-27.307-13.653-27.307-27.307 0 0 0 0 0 0v-232.107c0-13.653 13.653-27.307 27.307-27.307h68.267c13.653 0 27.307 13.653 27.307 27.307v68.267l184.32-184.32c6.827-6.827 27.307-6.827 34.133 0 0 0 0 0 0 0l47.787 47.787c6.827 6.827 6.827 27.307 0 34.133 0 0 0 0 0 0l-197.973 177.493zM334.507 318.293c-6.827 6.827-27.307 6.827-34.133 0 0 0 0 0 0 0l-184.32-184.32v61.44c0 13.653-13.653 27.307-27.307 27.307h-68.267c-13.653 0-27.307-13.653-27.307-27.307v-232.107c6.827-13.653 20.48-27.307 34.133-27.307h232.107c13.653 0 27.307 13.653 27.307 27.307v68.267c0 13.653-13.653 27.307-27.307 27.307h-68.267l184.32 184.32c6.827 6.827 6.827 27.307 0 34.133 0 0 0 0 0 0l-40.96 40.96zM1010.347 215.893h-68.267c-13.653 0-27.307-13.653-27.307-27.307v-61.44l-184.32 184.32c-6.827 6.827-27.307 6.827-34.133 0 0 0 0 0 0 0l-47.787-47.787c-6.827-6.827-6.827-27.307 0-34.133 0 0 0 0 0 0l184.32-184.32h-61.44c-13.653 0-27.307-13.653-27.307-27.307v-68.267c0-13.653 13.653-27.307 27.307-27.307h232.107c13.653 0 27.307 13.653 27.307 27.307v232.107c0 20.48-13.653 34.133-20.48 34.133v0z" />
<glyph unicode="&#xe913;" glyph-name="link-external" data-tags="link-external" d="M855.040-64h-558.080c-20.48 0-40.96 20.48-40.96 40.96s20.48 40.96 40.96 40.96h552.96c46.080 0 87.040 35.84 87.040 87.040v686.080c0 46.080-35.84 87.040-87.040 87.040h-680.96c-46.080 0-87.040-35.84-87.040-87.040v-552.96c0-25.6-20.48-40.96-40.96-40.96s-40.96 15.36-40.96 35.84v558.080c0 92.16 76.8 168.96 168.96 168.96h680.96c97.28 0 174.080-76.8 174.080-168.96v-680.96c0-97.28-76.8-174.080-168.96-174.080zM445.44 663.040c0 25.6 20.48 40.96 40.96 40.96h240.64c25.6 0 40.96-20.48 40.96-40.96v-240.64c0-25.6-20.48-46.080-46.080-46.080s-46.080 20.48-46.080 46.080v138.24l-358.4-358.4c-15.36-15.36-46.080-15.36-61.44 0s-15.36 40.96 0 61.44l358.4 358.4h-122.88c-25.6 0-46.080 20.48-46.080 40.96v0z" />
<glyph unicode="&#xe914;" glyph-name="angle-down" data-tags="angle-down" d="M512 64l-512 768h1024l-512-768z" />
<glyph unicode="&#xe915;" glyph-name="arrow-up-rounded" data-tags="arrow-up-rounded" d="M29.257 206.555c-36.571 43.886-36.571 102.4 0 146.286 0 0 0 0 0 0l336.457 329.143c80.457 80.457 212.114 80.457 285.257 0l336.457-329.143c43.886-36.571 43.886-102.4 7.314-146.286s-102.4-43.886-146.286-7.314c0 0-7.314 7.314-7.314 7.314l-336.457 329.143-336.457-329.143c-36.571-36.571-102.4-36.571-138.971 0 0 0 0 0 0 0v0z" />
<glyph unicode="&#xe916;" glyph-name="arrow-down-rounded" data-tags="arrow-down-rounded" d="M1002.057 696.686c36.571-43.886 36.571-102.4 0-146.286v0l-336.457-321.829c-80.457-80.457-212.114-80.457-292.571 0l-336.457 329.143c-43.886 36.571-43.886 102.4-7.314 146.286s102.4 43.886 146.286 7.314l7.314-7.314 336.457-329.143 336.457 329.143c43.886 36.571 109.714 36.571 146.286-7.314v0 0z" />
<glyph unicode="&#xe917;" glyph-name="arrow-left-rounded" data-tags="arrow-left-rounded" d="M753.371-34.743c-43.886-36.571-102.4-36.571-146.286 0 0 0 0 0 0 0l-329.143 336.457c-80.457 80.457-80.457 212.114 0 285.257l329.143 336.457c36.571 43.886 102.4 43.886 146.286 0 43.886-36.571 43.886-102.4 0-146.286l-329.143-329.143 329.143-336.457c36.571-43.886 36.571-109.714 0-146.286 0 0 0 0 0 0v0z" />
<glyph unicode="&#xe918;" glyph-name="arrow-right-rounded" data-tags="arrow-right-rounded" d="M256 930.743c43.886 36.571 102.4 36.571 146.286 0v0l329.143-336.457c80.457-80.457 80.457-212.114 0-285.257l-329.143-336.457c-36.571-43.886-102.4-43.886-146.286-7.314s-43.886 102.4-7.314 146.286l7.314 7.314 329.143 336.457-329.143 336.457c-43.886 36.571-43.886 102.4 0 138.971v0 0z" />
<glyph unicode="&#xe919;" glyph-name="chevron-top" data-tags="chevron-top" d="M496.246 723.692l504.123-504.123-55.138-55.138-448.985 441.108-441.108-441.108-55.138 55.138z" />
<glyph unicode="&#xe91a;" glyph-name="chevron-down" data-tags="chevron-down" d="M0 668.554l55.138 55.138 441.108-441.108 448.985 441.108 55.138-55.138-504.123-504.123z" />
<glyph unicode="&#xe91b;" glyph-name="chevron-left" data-tags="chevron-left" d="M740.431 960l55.138-55.138-441.108-441.108 441.108-448.985-55.138-55.138-504.123 504.123z" />
<glyph unicode="&#xe91c;" glyph-name="chevron-right" data-tags="chevron-right" d="M291.446-40.369l-55.138 55.138 441.108 441.108-441.108 448.985 55.138 55.138 504.123-504.123z" />
<glyph unicode="&#xe91d;" glyph-name="separator" data-tags="separator" d="M536.381 431.746h-520.127c-9.752 0-16.254 6.502-16.254 16.254s6.502 16.254 16.254 16.254h520.127c9.752 0 16.254-6.502 16.254-16.254s-6.502-16.254-16.254-16.254zM796.444 431.746h-97.524c-9.752 0-16.254 6.502-16.254 16.254s6.502 16.254 16.254 16.254h97.524c9.752 0 16.254-6.502 16.254-16.254s-6.502-16.254-16.254-16.254zM1007.746 431.746h-48.762c-9.752 0-16.254 6.502-16.254 16.254s6.502 16.254 16.254 16.254h48.762c9.752 0 16.254-6.502 16.254-16.254s-6.502-16.254-16.254-16.254z" />
<glyph unicode="&#xe91e;" glyph-name="arrow-dotted" data-tags="arrow-dotted" d="M1014.4 326.4c-19.2-17.067-55.467 4.267-75.733 10.667-18.133 5.333-36.267 12.8-55.467 18.133-10.667 3.2-20.267 6.4-29.867 9.6-3.2 1.067-6.4 2.133-10.667 3.2-1.067 0-1.067 0-2.133 0-2.133-2.133-5.333-3.2-8.533-3.2-1.067 0-3.2 0-4.267-1.067-6.4-1.067-11.733 2.133-16 6.4-11.733 18.133-1.067 40.533 22.4 36.267 20.267-3.2 40.533-13.867 59.733-20.267 22.4-7.467 42.667-14.933 65.067-22.4 4.267-2.133 9.6-4.267 13.867-5.333-33.067 35.2-72.533 64-116.267 84.267-14.933 6.4-6.4 30.933 9.6 23.467 49.067-22.4 91.733-55.467 124.8-98.133v1.067c1.067 19.2 1.067 38.4 2.133 57.6 0 21.333 0 43.733-1.067 65.067 0 9.6-2.133 17.067 6.4 24.533 3.2 2.133 6.4 2.133 9.6 0s5.333-6.4 4.267-9.6c0-2.133-2.133-4.267-3.2-5.333 1.067-14.933 3.2-29.867 6.4-44.8 1.067-16 3.2-32 3.2-48 3.2-19.2 12.8-66.133-4.267-82.133zM796.8 498.133c-25.6 11.733-51.2 22.4-77.867 30.933-21.333 6.4-46.933 14.933-69.333 12.8-3.2-1.067-6.4-3.2-7.467-6.4-2.133-5.333 0-11.733 5.333-13.867 21.333-8.533 44.8-9.6 67.2-13.867 26.667-6.4 52.267-13.867 77.867-24.533 4.267-1.067 7.467 1.067 9.6 4.267 1.067 4.267-1.067 8.533-5.333 10.667v0zM586.667 554.667c-58.667 19.2-119.467 25.6-180.267 19.2-6.4-1.067-10.667-7.467-9.6-13.867s7.467-11.733 13.867-10.667c57.6 6.4 116.267 3.2 173.867-8.533 3.2 0 5.333 1.067 6.4 4.267 1.067 4.267-1.067 8.533-4.267 9.6 0 0 0 0 0 0zM325.333 544c-25.6-2.133-51.2-8.533-74.667-18.133-16-5.333-42.667-9.6-48-28.8-2.133-6.4 0-12.8 5.333-17.067 1.067 0 1.067-1.067 2.133-2.133s2.133-1.067 3.2-2.133c6.4-2.133 12.8 1.067 14.933 7.467 0 0 0 0 0 0 5.333 14.933 35.2 21.333 49.067 27.733 18.133 6.4 36.267 13.867 52.267 23.467 6.4 3.2 0 9.6-4.267 9.6zM118.4 458.667l-70.4-53.333c-14.933-11.733-41.6-24.533-46.933-43.733-2.133-6.4 0-13.867 5.333-18.133l3.2-2.133c1.067 0 1.067-1.067 2.133-1.067 6.4-3.2 14.933 0 18.133 7.467 7.467 17.067 34.133 33.067 48 46.933 18.133 16 36.267 33.067 53.333 50.133 4.267 3.2 4.267 9.6 1.067 13.867-3.2 3.2-9.6 3.2-13.867 0 0 0 0 0 0 0v0z" />
<glyph unicode="&#xe91f;" glyph-name="arrow-dotted-2" data-tags="arrow-dotted-2" d="M1014.4 569.6c-19.2 17.067-55.467-4.267-75.733-10.667-18.133-5.333-36.267-12.8-55.467-18.133-10.667-3.2-20.267-6.4-29.867-9.6-3.2-1.067-6.4-2.133-10.667-3.2-1.067 0-1.067 0-2.133 0-2.133 2.133-5.333 3.2-8.533 3.2-1.067 0-3.2 0-4.267 1.067-6.4 1.067-11.733-2.133-16-6.4-11.733-18.133-1.067-40.533 22.4-36.267 20.267 3.2 40.533 13.867 59.733 20.267 22.4 7.467 42.667 14.933 65.067 22.4 4.267 2.133 9.6 4.267 13.867 5.333-33.067-35.2-72.533-64-116.267-84.267-14.933-6.4-6.4-30.933 9.6-23.467 51.2 22.4 93.867 55.467 126.933 98.133v-1.067c1.067-19.2 1.067-38.4 2.133-57.6 0-21.333 0-43.733-1.067-65.067 0-9.6-2.133-17.067 6.4-24.533 3.2-2.133 6.4-2.133 9.6 0s5.333 6.4 4.267 9.6c0 2.133-2.133 4.267-3.2 5.333 1.067 14.933 3.2 29.867 6.4 44.8 1.067 16 3.2 32 3.2 48 1.067 20.267 10.667 66.133-6.4 82.133zM796.8 398.933c-25.6-11.733-51.2-22.4-77.867-30.933-21.333-6.4-46.933-14.933-69.333-12.8-3.2 1.067-6.4 3.2-7.467 6.4-2.133 5.333 0 11.733 5.333 13.867 20.267 8.533 44.8 9.6 66.133 13.867 26.667 6.4 52.267 13.867 77.867 24.533 4.267 1.067 7.467-1.067 9.6-4.267 2.133-5.333 0-9.6-4.267-10.667v0zM586.667 341.333c-58.667-19.2-119.467-25.6-180.267-19.2-6.4 1.067-10.667 7.467-9.6 13.867s7.467 11.733 13.867 10.667c57.6-6.4 116.267-3.2 173.867 8.533 3.2 0 5.333-1.067 6.4-4.267 1.067-4.267-1.067-7.467-4.267-9.6 0 0 0 0 0 0zM325.333 352c-25.6 2.133-51.2 8.533-74.667 18.133-16 5.333-41.6 9.6-46.933 28.8-2.133 6.4 0 12.8 4.267 17.067 1.067 0 1.067 1.067 2.133 2.133s2.133 1.067 3.2 2.133c6.4 2.133 12.8-1.067 14.933-7.467 0 0 0 0 0 0 5.333-14.933 35.2-21.333 49.067-27.733 18.133-6.4 36.267-13.867 52.267-23.467 6.4-3.2 0-9.6-4.267-9.6v0zM118.4 437.333l-70.4 53.333c-14.933 11.733-40.533 24.533-46.933 43.733-2.133 6.4 0 13.867 5.333 18.133l3.2 2.133c0 0 1.067 1.067 2.133 1.067 6.4 3.2 14.933 0 18.133-7.467 7.467-17.067 34.133-33.067 48-46.933 18.133-16 36.267-33.067 53.333-50.133 4.267-3.2 4.267-9.6 1.067-13.867-3.2-3.2-9.6-3.2-13.867 0 0 0 0 0 0 0v0z" />
<glyph unicode="&#xe920;" glyph-name="cycles-water" data-tags="cycles-water" d="M496 738c-20-26-196-266-196-376 2-118 98-212 216-212 116 2 210 96 212 212 0 110-176 348-196 376-8 10-22 10-30 4-4-2-6-2-6-4zM512 234c-70 0-128 58-128 128 0 12 10 22 22 22s22-10 22-22c0-48 38-86 86-86 12 0 22-10 22-22s-12-20-24-20v0 0zM1006 586c-46 158-164 286-320 344l-8 4c-10 4-24-2-28-12l-16-40c-4-10 2-24 12-28 0 0 0 0 0 0l8-4c194-68 310-264 278-468h-54c-12 0-22-10-22-22 0-2 0-4 0-6l46-176c2-8 8-14 18-16 2 0 2 0 4 0 8 0 14 4 18 10 28 44 48 90 62 140 0 0 4 16 6 24s4 24 6 24c14 76 10 152-10 226v0zM826 124c-8 10-20 10-30 4l-8-6c-156-132-384-136-544-6l28 48c6 10 2 24-8 30-2 0-4 2-4 2l-176 48c-8 2-16 0-22-8 0 0-2-2-2-2-4-6-4-14 0-20 24-46 54-88 90-124 0 0 12-12 18-16s18-16 18-16c190-160 468-160 658 0l8 6c10 8 10 20 4 30 0 0 0 0 0 0l-30 30zM92 362l-2 10c-36 202 76 400 268 474l28-48c6-10 20-14 30-8 2 0 2 2 4 4l130 130c6 6 8 14 4 22 0 2 0 2-2 2-4 8-10 12-18 12-52 2-102-4-152-16 0 0-16-4-22-8s-24-8-24-8c-234-84-374-324-330-570l2-10c2-12 12-20 24-18l42 6c12 4 20 14 18 26z" />
<glyph unicode="&#xe921;" glyph-name="puits-carbone" data-tags="puits-carbone" d="M768 596.945c-34.909 146.618-183.855 239.709-330.473 202.473-123.345-30.255-211.782-139.636-211.782-267.636 0-2.327 0-4.655 0-6.982-2.327 0-4.655 0-6.982 0-121.018 2.327-221.091-95.418-221.091-216.436s95.418-218.764 218.764-221.091c2.327 0 2.327 0 4.655 0h546.909c141.964 0 256 114.036 253.673 256 2.327 139.636-111.709 253.673-253.673 253.673v0zM768 147.782h-549.236c-88.436 0-160.582 72.145-160.582 160.582s72.145 160.582 160.582 160.582c11.636 0 23.273-2.327 34.909-4.655l44.218-9.309-6.982 44.218c-2.327 11.636-2.327 23.273-2.327 37.236 0 118.691 95.418 214.109 214.109 214.109 107.055 0 197.818-79.127 211.782-186.182l4.655-27.927 30.255 2.327c6.982 0 13.964 0 20.945 2.327 107.055 0 195.491-88.436 195.491-195.491-2.327-111.709-88.436-197.818-197.818-197.818v0zM465.455 322.327c-2.327-4.655-4.655-11.636-9.309-13.964-4.655-4.655-6.982-6.982-13.964-9.309-4.655-2.327-9.309-4.655-13.964-4.655s-9.309-2.327-13.964-2.327c-9.309 0-16.291 2.327-25.6 4.655-6.982 4.655-13.964 9.309-18.618 16.291s-9.309 13.964-11.636 23.273c-2.327 9.309-4.655 16.291-4.655 25.6s2.327 16.291 4.655 25.6c2.327 6.982 6.982 16.291 11.636 20.945 4.655 6.982 11.636 11.636 18.618 16.291 9.309 4.655 16.291 6.982 25.6 6.982 4.655 0 9.309 0 13.964-2.327 4.655 0 9.309-2.327 13.964-4.655s9.309-6.982 13.964-9.309c4.655-4.655 6.982-9.309 9.309-13.964l41.891 27.927c-6.982 16.291-20.945 27.927-34.909 37.236-16.291 9.309-37.236 13.964-55.855 13.964-16.291 0-32.582-2.327-48.873-9.309-13.964-6.982-25.6-16.291-37.236-25.6-9.309-11.636-18.618-23.273-23.273-37.236s-6.982-27.927-6.982-41.891c0-13.964 2.327-30.255 9.309-44.218 4.655-13.964 13.964-27.927 23.273-37.236 9.309-11.636 23.273-20.945 34.909-27.927 13.964-6.982 30.255-9.309 46.545-9.309 20.945 0 39.564 4.655 58.182 13.964 9.309 4.655 16.291 9.309 23.273 16.291s11.636 13.964 16.291 23.273l-46.545 20.945zM740.073 401.455c-4.655 13.964-13.964 25.6-23.273 37.236s-23.273 20.945-34.909 25.6c-13.964 6.982-30.255 9.309-46.545 9.309s-32.582-2.327-46.545-9.309c-27.927-11.636-48.873-34.909-60.509-62.836-4.655-13.964-9.309-27.927-9.309-44.218 0-13.964 2.327-30.255 9.309-44.218 4.655-13.964 13.964-25.6 23.273-37.236s23.273-20.945 34.909-25.6c13.964-6.982 30.255-9.309 46.545-9.309s32.582 2.327 46.545 9.309c27.927 11.636 48.873 34.909 60.509 62.836 4.655 13.964 9.309 27.927 9.309 44.218-2.327 16.291-4.655 30.255-9.309 44.218v0zM688.873 333.964c-2.327-6.982-6.982-16.291-11.636-23.273s-11.636-11.636-18.618-16.291c-9.309-4.655-16.291-6.982-25.6-6.982-18.618 0-34.909 6.982-44.218 20.945-4.655 6.982-9.309 13.964-11.636 23.273s-4.655 16.291-4.655 25.6c0 9.309 2.327 16.291 4.655 25.6 2.327 6.982 6.982 16.291 11.636 23.273s11.636 11.636 18.618 16.291c9.309 4.655 16.291 6.982 25.6 6.982s18.618-2.327 25.6-4.655c6.982-4.655 13.964-9.309 18.618-16.291s9.309-13.964 11.636-20.945c2.327-9.309 4.655-16.291 4.655-25.6 0-11.636-2.327-18.618-4.655-27.927v0zM781.964 224.582c2.327 2.327 2.327 2.327 4.655 2.327 2.327 2.327 4.655 2.327 4.655 4.655s4.655 2.327 6.982 4.655 4.655 2.327 4.655 2.327c2.327 2.327 4.655 2.327 6.982 4.655s4.655 2.327 4.655 4.655 2.327 4.655 4.655 6.982c4.655 9.309 0 20.945-6.982 27.927-6.982 4.655-16.291 6.982-25.6 6.982-4.655 0-9.309 0-13.964-2.327-4.655 0-6.982-2.327-11.636-2.327-2.327-2.327-6.982-2.327-9.309-4.655s-4.655-2.327-6.982-4.655l16.291-18.618c2.327 2.327 4.655 6.982 9.309 6.982 2.327 2.327 6.982 2.327 11.636 2.327 2.327 0 6.982 0 9.309-2.327s2.327-4.655 2.327-6.982c0-2.327 0-2.327-2.327-4.655 0-2.327-2.327-2.327-4.655-4.655s-4.655-2.327-6.982-4.655c-2.327-2.327-6.982-4.655-11.636-6.982s-6.982-4.655-11.636-6.982c-2.327-2.327-4.655-4.655-6.982-9.309-2.327-2.327-2.327-6.982-4.655-9.309 0-4.655 0-9.309 0-11.636h76.8v20.945l-39.564 4.655z" />
<glyph unicode="&#xe922;" glyph-name="erosion" data-tags="erosion" d="M301.349 430.446l119.954 61.44v137.509h-58.514v-102.4l-61.44-29.257v190.171h-58.514v-131.657l-61.44 29.257v163.84h-58.514v-198.949l119.954-61.44v-131.657h-242.834v-421.303h1024v421.303h-722.651v73.143zM61.44 298.789h222.354l14.629-73.143-93.623-46.811h-143.36v119.954zM61.44-2.56v122.88h134.583l61.44-122.88h-196.023zM500.297-2.56l35.109 70.217 157.989 105.326 93.623-46.811 43.886-131.657-330.606 2.926zM965.486-2.56h-70.217l-49.737 143.36 117.029 117.029 2.926-260.389zM921.6 298.789l-114.103-114.103-90.697 46.811-35.109 67.291h239.909zM614.4 298.789l40.96-78.994-140.434-93.623-152.137 102.4-14.629 73.143 266.24-2.926zM330.606 172.983l143.36-96.549-40.96-81.92h-111.177l-67.291 137.509 76.069 40.96zM751.909 538.697c81.92 0 149.211 67.291 149.211 149.211s-67.291 149.211-149.211 149.211-149.211-67.291-149.211-149.211c0 0 0 0 0 0 0-81.92 67.291-149.211 149.211-149.211zM661.211 687.909c0 49.737 40.96 90.697 90.697 90.697s90.697-40.96 90.697-90.697c0-49.737-40.96-90.697-90.697-90.697 0 0 0 0 0 0-49.737 0-90.697 40.96-90.697 90.697zM781.166 898.56h-58.514v61.44h61.44l-2.926-61.44zM722.651 477.257h61.44v-61.44h-61.44v61.44zM582.217 816.64l-40.96 40.96 40.96 43.886 43.886-43.886-43.886-40.96zM880.64 518.217l40.96 40.96 43.886-40.96-40.96-40.96-43.886 40.96zM541.257 658.651h-58.514v58.514h58.514v-58.514zM1024 717.166v-61.44h-61.44v61.44h61.44zM582.217 562.103l43.886-40.96-43.886-43.886-40.96 40.96 40.96 43.886zM921.6 816.64l-40.96 40.96 40.96 43.886 43.886-43.886-43.886-40.96z" />
<glyph unicode="&#xe923;" glyph-name="fertility" data-tags="fertility" d="M1024 211.017c0-11.703-8.777-20.48-20.48-20.48s-20.48 8.777-20.48 20.48c0 11.703 8.777 20.48 20.48 20.48 5.851 0 11.703-2.926 14.629-5.851s5.851-8.777 5.851-14.629zM933.303 211.017c0-11.703-8.777-20.48-20.48-20.48 0 0 0 0 0 0h-190.171c-38.034 0-78.994 8.777-114.103 23.406-17.554 5.851-35.109 11.703-52.663 14.629l20.48-26.331c5.851-8.777 5.851-20.48-2.926-29.257-5.851-2.926-17.554-2.926-26.331 5.851l-14.629 20.48v-38.034l5.851-2.926c5.851-5.851 14.629-14.629 23.406-20.48h102.4c11.703 0 20.48-8.777 20.48-20.48s-8.777-17.554-20.48-20.48h-52.663c2.926-2.926 5.851-2.926 8.777-5.851 0 0 0 0 2.926 0 29.257-17.554 58.514-35.109 87.771-49.737 8.777-5.851 14.629-17.554 8.777-26.331s-17.554-14.629-26.331-8.777c-14.629 5.851-32.183 14.629-46.811 23.406l5.851-14.629c2.926-11.703-2.926-20.48-14.629-26.331-8.777-2.926-20.48 2.926-23.406 11.703l-20.48 61.44c-20.48 14.629-38.034 29.257-58.514 43.886v-149.211c0-11.703-8.777-20.48-20.48-20.48s-20.48 8.777-20.48 20.48v111.177c-14.629-11.703-29.257-20.48-46.811-29.257l-14.629-49.737c-2.926-11.703-14.629-17.554-23.406-14.629 0 0 0 0 0 0v0c-11.703 2.926-17.554 14.629-14.629 23.406l5.851 20.48c-8.777-2.926-17.554-5.851-29.257-8.777h-5.851c-11.703-2.926-20.48 2.926-23.406 14.629s2.926 20.48 14.629 23.406c0 0 0 0 0 0h5.851c14.629 2.926 26.331 5.851 40.96 11.703l-26.331 11.703c-8.777 5.851-14.629 17.554-8.777 26.331s14.629 14.629 26.331 8.777l55.589-23.406c14.629 8.777 29.257 20.48 43.886 35.109v55.589l-61.44-40.96c-8.777-5.851-20.48-2.926-26.331 5.851s-2.926 20.48 5.851 26.331l84.846 52.663v11.703c-26.331-2.926-52.663-8.777-78.994-20.48v0c-35.109-14.629-73.143-23.406-114.103-23.406h-283.794c-11.703 0-20.48 8.777-20.48 20.48s8.777 17.554 20.48 20.48h280.869c32.183 0 67.291 5.851 96.549 20.48v0c29.257 11.703 61.44 20.48 93.623 23.406v23.406c-14.629 17.554-32.183 32.183-49.737 43.886h-105.326c-87.771 0-160.914 73.143-160.914 160.914v0c0 14.629 8.777 23.406 20.48 23.406 0 0 0 0 0 0h111.177c84.846 0 155.063-64.366 160.914-149.211 8.777-5.851 14.629-11.703 23.406-17.554v160.914c-14.629 14.629-29.257 29.257-43.886 40.96h-99.474c-84.846 0-152.137 67.291-152.137 152.137v0c0 8.777 8.777 17.554 20.48 17.554 0 0 0 0 0 0h105.326c78.994 0 146.286-61.44 152.137-140.434 5.851-5.851 11.703-8.777 17.554-14.629v108.251c-43.886 32.183-70.217 81.92-70.217 137.509 0 58.514 32.183 111.177 78.994 143.36 5.851 5.851 14.629 5.851 23.406 0 46.811-35.109 78.994-87.771 78.994-146.286 0-52.663-26.331-105.326-70.217-137.509v-108.251c5.851 5.851 11.703 11.703 17.554 14.629 5.851 81.92 73.143 143.36 152.137 143.36h105.326c11.703 0 20.48-8.777 20.48-20.48 0-84.846-67.291-152.137-152.137-152.137h-99.474c-17.554-11.703-32.183-26.331-43.886-40.96v-160.914c8.777 5.851 14.629 11.703 23.406 17.554 5.851 84.846 76.069 149.211 160.914 149.211h111.177c11.703 0 20.48-8.777 20.48-20.48 0 0 0 0 0 0 0-87.771-73.143-160.914-160.914-160.914h-105.326c-17.554-11.703-32.183-26.331-46.811-43.886v-23.406c32.183-2.926 64.366-8.777 93.623-23.406 32.183-14.629 64.366-20.48 96.549-20.48h190.171c8.777 5.851 17.554-2.926 17.554-14.629v0zM599.771 401.189c20.48 11.703 40.96 17.554 61.44 26.331 11.703 2.926 20.48-2.926 23.406-14.629 2.926-8.777-2.926-20.48-11.703-23.406-5.851-2.926-14.629-5.851-20.48-8.777h32.183c58.514 0 108.251 43.886 119.954 99.474h-90.697c-49.737 2.926-96.549-29.257-114.103-78.994zM596.846 614.766c17.554 8.777 35.109 17.554 55.589 23.406 11.703 2.926 20.48 0 26.331-11.703 2.926-11.703 0-20.48-11.703-26.331 0 0-2.926 0-2.926 0-5.851-2.926-8.777-2.926-14.629-5.851h23.406c52.663 0 99.474 38.034 111.177 90.697h-81.92c-46.811 0-87.771-26.331-105.326-70.217zM345.234 623.543c2.926 11.703 14.629 17.554 26.331 11.703 17.554-5.851 38.034-14.629 55.589-23.406-17.554 43.886-58.514 70.217-102.4 70.217h-84.846c8.777-52.663 55.589-90.697 108.251-90.697h23.406c-5.851 2.926-8.777 2.926-14.629 5.851-8.777 5.851-14.629 17.554-11.703 26.331 0 0 0 0 0 0v0zM336.457 412.891c2.926 11.703 14.629 17.554 26.331 11.703 0 0 0 0 0 0 20.48-5.851 40.96-14.629 61.44-26.331-17.554 46.811-61.44 78.994-114.103 78.994h-90.697c8.777-58.514 61.44-99.474 119.954-99.474h32.183c-5.851 2.926-14.629 5.851-20.48 8.777-11.703 5.851-17.554 17.554-14.629 26.331v0zM532.48 763.977v-32.183c17.554 23.406 29.257 52.663 29.257 81.92 0 40.96-20.48 76.069-52.663 102.4-32.183-23.406-49.737-61.44-52.663-102.4v0c0-29.257 11.703-58.514 32.183-81.92v32.183c0 11.703 8.777 20.48 20.48 20.48s23.406-11.703 23.406-20.48v0 0z" />
<glyph unicode="&#xe924;" glyph-name="maki" data-tags="maki" horiz-adv-x="1015" d="M746.057-31.817c0-17.554-14.629-32.183-32.183-32.183 0 0 0 0 0 0h-14.629c-11.703 0-23.406 8.777-29.257 17.554-29.257 61.44-49.737 128.731-58.514 198.949-49.737 8.777-99.474 5.851-149.211-11.703 0 0-2.926-2.926-2.926-2.926 2.926-32.183 2.926-61.44 0-93.623 49.737-49.737 43.886-43.886 46.811-43.886 17.554 0 32.183-14.629 32.183-32.183s-14.629-32.183-32.183-32.183c-14.629 0-26.331-2.926-38.034 8.777l-64.366 64.366c-5.851 5.851-8.777 14.629-8.777 23.406v58.514l-29.257-20.48c-14.629-11.703-35.109-8.777-43.886 5.851-11.703 14.629-8.777 35.109 5.851 43.886 0 0 0 0 0 0l67.291 49.737c32.183 23.406 38.034 67.291 17.554 99.474-2.926 2.926-5.851 5.851-8.777 8.777l-17.554 17.554c-11.703 11.703-11.703 32.183 2.926 43.886 11.703 11.703 29.257 11.703 43.886 0l17.554-17.554c29.257-29.257 40.96-67.291 38.034-105.326 38.034 5.851 76.069 8.777 111.177 2.926 0 11.703 0 23.406 0 35.109 0 17.554 14.629 32.183 32.183 32.183s29.257-14.629 32.183-32.183c0-87.771 17.554-175.543 52.663-254.537v0c17.554-2.926 29.257-17.554 29.257-32.183zM1006.446 418.743v0l-40.96 40.96c-17.554 58.514-70.217 96.549-128.731 93.623-38.034 26.331-93.623 17.554-122.88-20.48-26.331-38.034-17.554-93.623 20.48-122.88 14.629-11.703 32.183-14.629 49.737-14.629s32.183 14.629 32.183 32.183c0 17.554-14.629 32.183-29.257 32.183h-2.926c-11.703 0-23.406 11.703-23.406 23.406s8.777 23.406 23.406 23.406v0c17.554 0 17.554-17.554 38.034-17.554 2.926 0 2.926 0 14.629 0 32.183 0 58.514-23.406 64.366-52.663 2.926-11.703 5.851-14.629 43.886-49.737-2.926-2.926-8.777-5.851-11.703-5.851-52.663 0-52.663 0-61.44-2.926l-38.034-17.554c-76.069-32.183-131.657-99.474-155.063-178.469-5.851-17.554 5.851-35.109 23.406-38.034 11.703-2.926 23.406 0 32.183 8.777 8.777-67.291 29.257-134.583 58.514-196.023 5.851-11.703 17.554-17.554 29.257-17.554h14.629c17.554 0 32.183 14.629 32.183 32.183 0 14.629-11.703 29.257-26.331 32.183-35.109 78.994-52.663 166.766-52.663 254.537 29.257 29.257 64.366 52.663 102.4 64.366h43.886c67.291-5.851 96.549 70.217 70.217 96.549zM380.343-31.817c0-17.554-14.629-32.183-32.183-32.183 0 0 0 0 0 0-14.629 0-26.331-2.926-38.034 8.777l-64.366 64.366c-5.851 5.851-8.777 14.629-8.777 23.406v81.92c0 35.109-8.777 67.291-26.331 96.549-14.629 23.406-26.331 49.737-32.183 78.994-102.4 11.703-178.469 99.474-178.469 201.874v0c0 257.463 210.651 468.114 468.114 468.114h254.537c17.554 0 32.183-14.629 32.183-32.183 0-5.851-2.926-14.629-5.851-17.554-61.44-81.92-157.989-131.657-260.389-131.657h-43.886c-140.434 0-254.537-114.103-254.537-254.537 0-26.331 20.48-46.811 46.811-46.811 35.109 32.183 78.994 46.811 122.88 46.811 96.549-2.926 193.097-14.629 289.646-35.109 17.554-2.926 29.257-20.48 26.331-38.034s-20.48-29.257-38.034-26.331c-119.954 20.48-181.394 35.109-277.943 35.109v0c-67.291 0-122.88-55.589-122.88-122.88 0-35.109 8.777-67.291 26.331-96.549 40.96-70.217 35.109-122.88 35.109-198.949l43.886-43.886c0 0 2.926 0 2.926 0 20.48 2.926 35.109-11.703 35.109-29.257zM193.097 421.669c-40.96 17.554-67.291 58.514-67.291 102.4 0 175.543 143.36 315.977 318.903 318.903h43.886c58.514 0 114.103 20.48 160.914 55.589h-128.731v-8.777c0 0 0 0 0-2.926 0-17.554-17.554-29.257-35.109-29.257s-29.257 14.629-29.257 32.183v5.851c-17.554 0-35.109-2.926-52.663-5.851v-17.554c0-17.554-14.629-32.183-32.183-32.183s-32.183 14.629-32.183 32.183v2.926c-11.703-2.926-20.48-8.777-29.257-11.703l2.926-5.851c8.777-14.629 5.851-35.109-11.703-43.886-14.629-8.777-32.183-2.926-40.96 11.703v0l-8.777 8.777c-14.629-8.777-29.257-20.48-40.96-32.183l5.851-5.851c0 0 0 0 2.926-2.926 11.703-14.629 8.777-35.109-5.851-43.886-17.554-8.777-38.034-5.851-46.811 8.777 0 0 0 0 0 0-8.777-8.777-14.629-17.554-23.406-29.257l8.777-11.703c11.703-14.629 8.777-32.183-2.926-43.886-11.703-8.777-29.257-8.777-40.96 0-5.851-11.703-11.703-23.406-14.629-35.109l17.554-8.777c14.629-8.777 23.406-26.331 14.629-40.96s-26.331-23.406-40.96-14.629v0l-11.703 5.851c-2.926-5.851-2.926-14.629-2.926-20.48l14.629-2.926c17.554-2.926 29.257-17.554 26.331-35.109s-17.554-29.257-35.109-26.331v0l-11.703 2.926c0-5.851 0-14.629 0-20.48 14.629 8.777 35.109 2.926 43.886-14.629 8.777-14.629 2.926-32.183-11.703-40.96l-8.777-8.777c20.48-29.257 52.663-52.663 87.771-58.514 2.926 23.406 8.777 46.811 17.554 67.291v0z" />
<glyph unicode="&#xe925;" glyph-name="climat-urban" data-tags="climat-urban" horiz-adv-x="1027" d="M1012.93 187.849h-99.632v124.541c0 8.303-8.303 13.838-16.605 13.838s-13.838-5.535-13.838-13.838v-345.946h-262.919v453.881h262.919v-35.978c0-8.303 8.303-13.838 16.605-13.838s13.838 5.535 13.838 13.838v49.816c0 8.303-5.535 16.605-16.605 16.605h-207.568v492.627c0 8.303-5.535 16.605-16.605 16.605v0h-318.27c-8.303 0-16.605-5.535-16.605-16.605v0-226.941h-193.73c-8.303 0-16.605-5.535-16.605-13.838v-376.389h-110.703c-8.303 0-16.605-5.535-16.605-16.605v-359.784c0-8.303 8.303-13.838 16.605-13.838h996.324c8.303 0 16.605 5.535 16.605 16.605v221.405c-2.768 5.535-8.303 13.838-16.605 13.838 0 0 0 0 0 0zM127.308-33.557h-96.865v329.341h96.865v-329.341zM445.578-33.557h-287.827v83.027h287.827v-83.027zM445.578 185.081h-138.378c-8.303 0-16.605-5.535-16.605-13.838s5.535-16.605 13.838-16.605c0 0 0 0 2.768 0h138.378v-71.957h-287.827v71.957h77.492c8.303 0 16.605 5.535 16.605 13.838s-5.535 13.838-13.838 16.605c0 0 0 0-2.768 0h-77.492v71.957h287.827v-71.957zM445.578 287.481h-287.827v71.957h287.827v-71.957zM445.578 389.881h-287.827v71.957h287.827v-71.957zM445.578 492.281h-287.827v71.957h287.827v-71.957zM445.578 594.681h-287.827v91.33h287.827v-91.33zM589.492 434.162v-467.719h-113.47v736.173c0 8.303-5.535 16.605-16.605 16.605h-22.141v27.676c0 8.303-8.303 13.838-16.605 13.838s-13.838-5.535-13.838-13.838v-30.443h-38.746v213.103h287.827v-478.789h-52.584c-8.303 0-13.838-8.303-13.838-16.605 0 0 0 0 0 0v0zM996.324-33.557h-85.795v190.962h85.795v-190.962zM603.33 630.659c-8.303 0-16.605-5.535-16.605-16.605v-47.049c0-8.303 5.535-16.605 13.838-16.605s16.605 5.535 16.605 13.838c0 0 0 0 0 2.768v47.049c2.768 8.303-5.535 16.605-13.838 16.605v0zM514.768 630.659c-8.303 0-16.605-5.535-16.605-16.605v-47.049c0-8.303 5.535-16.605 13.838-16.605s16.605 5.535 16.605 13.838c0 0 0 0 0 2.768v47.049c0 8.303-5.535 16.605-13.838 16.605v0zM603.33 763.503c-8.303 0-16.605-5.535-16.605-16.605 0 0 0 0 0 0v-47.049c0-8.303 5.535-16.605 13.838-16.605s16.605 5.535 16.605 13.838c0 0 0 0 0 2.768v47.049c2.768 8.303-5.535 16.605-13.838 16.605v0zM514.768 763.503c-8.303 0-16.605-5.535-16.605-16.605 0 0 0 0 0 0v-47.049c0-8.303 5.535-16.605 13.838-16.605s16.605 5.535 16.605 13.838c0 0 0 0 0 2.768v47.049c0 8.303-5.535 16.605-13.838 16.605v0zM423.438 896.346c-8.303 0-16.605-5.535-16.605-16.605v0-47.049c0-8.303 8.303-13.838 16.605-13.838s13.838 5.535 13.838 13.838v47.049c2.768 8.303-5.535 16.605-13.838 16.605v0zM603.33 896.346c-8.303 0-16.605-5.535-16.605-16.605v0-47.049c0-8.303 8.303-13.838 16.605-13.838s13.838 5.535 13.838 13.838v47.049c2.768 8.303-5.535 16.605-13.838 16.605v0zM514.768 896.346c-8.303 0-16.605-5.535-16.605-16.605v0-47.049c0-8.303 8.303-13.838 16.605-13.838s13.838 5.535 13.838 13.838v47.049c0 8.303-5.535 16.605-13.838 16.605v0zM595.027 492.281c-8.303-5.535-8.303-13.838-5.535-22.141 5.535-8.303 13.838-8.303 22.141-5.535 2.768 2.768 5.535 5.535 5.535 8.303 2.768 8.303-2.768 16.605-11.070 19.373-2.768 2.768-5.535 2.768-11.070 0v0zM514.768 495.049c-8.303 0-16.605-5.535-16.605-16.605 0 0 0 0 0 0v-44.281c0-8.303 5.535-16.605 13.838-16.605s16.605 5.535 16.605 13.838c0 0 0 0 0 2.768v47.049c0 8.303-5.535 13.838-13.838 13.838v0zM514.768 96.519c-8.303 0-16.605-5.535-16.605-16.605 0 0 0 0 0 0v-47.049c0-8.303 5.535-16.605 13.838-16.605s16.605 5.535 16.605 13.838c0 0 0 0 0 2.768v47.049c0 8.303-5.535 16.605-13.838 16.605v0zM514.768 229.362c-8.303 0-16.605-5.535-16.605-16.605 0 0 0 0 0 0v-47.049c0-8.303 5.535-16.605 13.838-16.605s16.605 5.535 16.605 13.838c0 0 0 0 0 2.768v47.049c0 8.303-5.535 16.605-13.838 16.605v0zM514.768 362.205c-8.303 0-16.605-5.535-16.605-16.605v-47.049c0-8.303 8.303-13.838 16.605-13.838s13.838 5.535 13.838 13.838v47.049c0 11.070-5.535 16.605-13.838 16.605v0zM833.038 99.286h-168.822c-8.303 0-16.605-5.535-16.605-13.838s5.535-16.605 13.838-16.605c0 0 0 0 2.768 0h168.822c8.303 0 16.605 5.535 16.605 13.838s-5.535 16.605-16.605 16.605c2.768 0 2.768 0 0 0zM833.038 27.33h-168.822c-8.303 0-13.838-8.303-13.838-16.605s5.535-13.838 13.838-13.838h168.822c8.303 0 13.838 8.303 13.838 16.605s-5.535 13.838-13.838 13.838zM833.038 171.243h-168.822c-8.303 0-13.838-8.303-13.838-16.605s5.535-13.838 13.838-13.838h168.822c8.303 0 13.838 8.303 13.838 16.605s-5.535 13.838-13.838 13.838zM833.038 389.881h-168.822c-8.303 0-16.605-5.535-16.605-13.838s5.535-16.605 13.838-16.605c0 0 0 0 2.768 0h168.822c8.303 0 16.605 5.535 16.605 13.838s-5.535 13.838-16.605 16.605c2.768 0 2.768 0 0 0zM833.038 245.968h-168.822c-8.303 0-13.838-8.303-13.838-16.605s5.535-13.838 13.838-13.838h168.822c8.303 0 13.838 8.303 13.838 16.605 0 5.535-5.535 11.070-13.838 13.838zM833.038 317.924h-168.822c-8.303 0-13.838-8.303-13.838-16.605s5.535-13.838 13.838-13.838h168.822c8.303 0 13.838 8.303 13.838 16.605 0 5.535-5.535 11.070-13.838 13.838zM77.492 270.876c-8.303 0-16.605-5.535-16.605-16.605v-38.746c0-8.303 5.535-16.605 13.838-16.605s16.605 5.535 16.605 13.838c0 0 0 0 0 2.768v38.746c2.768 11.070-2.768 16.605-13.838 16.605v0zM77.492 165.708c-8.303 0-16.605-5.535-16.605-16.605v0-38.746c0-8.303 5.535-16.605 13.838-16.605s16.605 5.535 16.605 13.838c0 0 0 0 0 2.768v38.746c2.768 11.070-5.535 16.605-13.838 16.605v0zM77.492 60.541c-8.303 0-16.605-5.535-16.605-16.605v0-38.746c0-8.303 5.535-16.605 13.838-16.605s16.605 5.535 16.605 13.838c0 0 0 0 0 2.768v41.514c2.768 8.303-5.535 13.838-13.838 13.838v0zM954.811 121.427c-8.303 0-16.605-5.535-16.605-16.605v-44.281c0-8.303 5.535-16.605 13.838-16.605s16.605 5.535 16.605 13.838c0 0 0 0 0 2.768v44.281c0 8.303-5.535 13.838-13.838 16.605v0zM910.53 666.638h-185.427c-8.303 0-13.838-8.303-13.838-16.605s5.535-13.838 13.838-13.838h185.427c8.303 0 13.838 8.303 13.838 16.605 0 5.535-8.303 13.838-13.838 13.838zM968.649 602.984h-135.611c-8.303 0-16.605-5.535-16.605-13.838s5.535-16.605 13.838-16.605c0 0 0 0 2.768 0h135.611c8.303 0 16.605 5.535 16.605 13.838s-8.303 13.838-16.605 16.605c0 0 0 0 0 0zM273.989 846.53h-132.843c-8.303 0-13.838-8.303-13.838-16.605s5.535-13.838 13.838-13.838h135.611c8.303 0 16.605 5.535 16.605 13.838s-8.303 16.605-19.373 16.605c2.768 0 2.768 0 0 0zM199.265 793.946h-135.611c-8.303 0-13.838-5.535-13.838-13.838s5.535-13.838 13.838-16.605h135.611c8.303 0 16.605 5.535 16.605 13.838s-8.303 16.605-16.605 16.605c0 0 0 0 0 0z" />
<glyph unicode="&#xe926;" glyph-name="thermometer" data-tags="thermometer" d="M589.824 302.592c-4.096 2.048-6.144 8.192-6.144 12.288 0 92.16 0 182.272 0 274.432v155.648c0 38.912 0 77.824 0 116.736-2.048 47.104-34.816 88.064-81.92 96.256-20.48 2.048-40.96 4.096-63.488 2.048-12.288 0-22.528-4.096-32.768-10.24-36.864-18.432-59.392-55.296-57.344-96.256 0-180.224 0-360.448 0-538.624 0-4.096 0-8.192-4.096-10.24-55.296-40.96-83.968-110.592-75.776-178.176 0-4.096 2.048-8.192 2.048-14.336 18.432-108.544 122.88-182.272 231.424-161.792 0 0 0 0 0 0v0c108.544 18.432 182.272 122.88 161.792 231.424-10.24 47.104-34.816 90.112-73.728 120.832v0zM481.28-12.8c-88.064-8.192-165.888 57.344-174.080 145.408 0 0 0 0 0 0v0c-6.144 59.392 20.48 116.736 71.68 147.456 6.144 4.096 10.24 10.24 10.24 18.432 0 186.368 0 370.688 0 557.056-2.048 28.672 18.432 57.344 49.152 63.488 18.432 2.048 38.912 2.048 57.344 0 28.672-6.144 49.152-32.768 49.152-61.44 0-30.72 0-63.488 0-94.208v-186.368c0-94.208 0-188.416 0-280.576 0-6.144 2.048-10.24 6.144-12.288 75.776-47.104 98.304-145.408 51.2-219.136-26.624-47.104-71.68-73.728-120.832-77.824v0zM761.856 919.040v-34.816h-143.36v34.816h143.36zM618.496 775.68h143.36v-34.816h-143.36v34.816zM724.992 847.36v-34.816h-106.496v34.816h106.496zM618.496 704h106.496v-34.816h-106.496v34.816zM522.24 263.68c-6.144 2.048-8.192 6.144-8.192 12.288 0 92.16 0 391.168 0 483.328 0 2.048 0 2.048 0 4.096 0 18.432-16.384 30.72-32.768 30.72 0 0 0 0 0 0v0c-8.192 0-18.432 0-26.624 0-18.432 0-34.816-12.288-36.864-30.72 0-2.048 0-4.096 0-6.144v-346.112c0-45.056 0-90.112 0-135.168 0-6.144-2.048-10.24-8.192-12.288-65.536-30.72-92.16-108.544-61.44-174.080s108.544-92.16 174.080-61.44 92.16 108.544 61.44 174.080c-12.288 26.624-34.816 49.152-61.44 61.44v0zM555.008 79.36c0 0 0 0 0 0-2.048-2.048-2.048-2.048-2.048-2.048s-2.048-2.048-2.048-2.048c0 0-2.048 0-2.048-2.048 0 0-2.048 0-2.048 0-2.048 0-4.096 0-4.096 0s-2.048 0-2.048 0c0 0-2.048 0-2.048 0s0 0-2.048 0v0c0 0 0 0-2.048 2.048 0 0-2.048 2.048-2.048 2.048s0 2.048 0 2.048c0 0 0 2.048 0 2.048s0 2.048 0 2.048c0 0 0 2.048 0 2.048 0 2.048 2.048 2.048 2.048 4.096 0 0 0 0 0 0 10.24 16.384 14.336 32.768 14.336 51.2s-6.144 36.864-16.384 53.248c-4.096 4.096-4.096 10.24 0 14.336 2.048 4.096 8.192 6.144 14.336 4.096 2.048-2.048 6.144-4.096 6.144-6.144 32.768-32.768 32.768-88.064 2.048-126.976v0z" />
<glyph unicode="&#xe927;" glyph-name="catastroph" data-tags="catastroph" d="M995.061 252.104c-44.522 40.070-113.53 37.843-155.826-4.452-31.165-31.165-80.139-31.165-111.304 0-44.522 44.522-115.757 44.522-160.278 0-31.165-31.165-80.139-31.165-111.304 0-44.522 44.522-115.757 44.522-160.278 0-31.165-31.165-80.139-31.165-111.304 0-42.296 42.296-109.078 44.522-155.826 4.452h-28.939v-33.391h40.070l4.452 4.452c31.165 31.165 80.139 31.165 111.304 0 44.522-44.522 115.757-44.522 160.278 0 31.165 31.165 80.139 31.165 111.304 0 44.522-44.522 115.757-44.522 160.278 0 31.165 31.165 80.139 31.165 111.304 0 44.522-44.522 115.757-44.522 160.278 0 31.165 31.165 80.139 31.165 111.304 0l4.452-4.452h40.070v33.391h-20.035zM772.452 65.113c-20.035-22.261-53.426-22.261-75.687-2.226 0 0 0 0 0 0s-2.226 2.226-2.226 2.226l-24.487-24.487c17.809-17.809 40.070-26.713 64.557-28.939 24.487 0 44.522 11.13 62.33 28.939 20.035 22.261 53.426 22.261 75.687 2.226 0 0 0 0 0 0s2.226-2.226 2.226-2.226l24.487 24.487c-33.391 35.617-86.817 37.843-122.435 4.452 0 0 0 0 0 0-2.226 0-4.452-2.226-4.452-4.452v0zM498.643 100.73c-20.035-22.261-53.426-22.261-75.687-2.226 0 0-2.226 2.226-2.226 2.226l-24.487-24.487c17.809-17.809 40.070-26.713 64.557-28.939 24.487 0 44.522 11.13 62.33 28.939 20.035 22.261 53.426 22.261 75.687 2.226 0 0 0 0 0 0s2.226-2.226 2.226-2.226l24.487 24.487c-33.391 35.617-86.817 37.843-122.435 4.452 0-2.226-2.226-4.452-4.452-4.452v0zM209.252 65.113c-20.035-22.261-53.426-22.261-75.687-2.226 0 0-2.226 2.226-2.226 2.226l-24.487-24.487c17.809-15.583 40.070-26.713 64.557-26.713s44.522 11.13 62.33 28.939c20.035 22.261 53.426 22.261 75.687 2.226 0 0 0 0 0 0s2.226-2.226 2.226-2.226l24.487 24.487c-33.391 35.617-86.817 37.843-122.435 4.452 0 0 0 0 0 0-2.226-2.226-2.226-4.452-4.452-6.678v0zM385.113 436.87c2.226 8.904 2.226 17.809-2.226 26.713l-35.617 71.235c-8.904 17.809-28.939 24.487-46.748 15.583 0 0 0 0 0 0l-71.235-35.617c-17.809-8.904-24.487-28.939-15.583-46.748l35.617-71.235c8.904-17.809 28.939-24.487 46.748-15.583v0l71.235 35.617c8.904 4.452 13.357 11.13 17.809 20.035v0zM280.487 412.383l-35.617 71.235 71.235 35.617 35.617-71.235-71.235-35.617zM514.226 325.565c13.357-24.487 42.296-35.617 69.009-22.261l42.296 20.035c24.487 13.357 35.617 42.296 22.261 69.009l-20.035 42.296c-13.357 24.487-42.296 35.617-69.009 22.261v0l-42.296-20.035c-24.487-13.357-35.617-42.296-22.261-69.009l20.035-42.296zM523.13 396.8c2.226 4.452 4.452 8.904 8.904 8.904l42.296 20.035c2.226 2.226 4.452 2.226 6.678 2.226s4.452 0 4.452 0c4.452-2.226 8.904-4.452 8.904-8.904l20.035-42.296c4.452-8.904 0-17.809-6.678-22.261 0 0 0 0 0 0v0l-42.296-20.035c-8.904-4.452-17.809 0-22.261 6.678 0 0 0 0 0 0v0l-20.035 42.296c0 4.452 0 8.904 0 13.357v0zM467.478 463.583c4.452 0 11.13 2.226 15.583 4.452l71.235 35.617c17.809 8.904 24.487 28.939 15.583 46.748v0l-35.617 69.009c-8.904 17.809-28.939 24.487-46.748 15.583l-71.235-35.617c-15.583-8.904-24.487-28.939-15.583-46.748v0l35.617-71.235c6.678-11.13 17.809-17.809 31.165-17.809zM431.861 568.209l71.235 35.617 35.617-71.235-71.235-35.617-35.617 71.235zM35.617 483.617c4.452 0 8.904 0 11.13 2.226l28.939 15.583 89.043-189.217 31.165 15.583-89.043 189.217 447.443 222.609 231.513-463.026 31.165 15.583-231.513 463.026 28.939 15.583c13.357 6.678 17.809 22.261 11.13 33.391-4.452 6.678-11.13 13.357-17.809 13.357l-394.017 64.557c-11.13 2.226-22.261-4.452-26.713-13.357l-173.635-347.27c-6.678-13.357-2.226-28.939 11.13-33.391 4.452-2.226 6.678-4.452 11.13-4.452v0zM213.704 846.47l360.626-57.878-512-256-6.678-4.452 158.052 318.33zM400.696 350.052l17.809-35.617 31.165 15.583-17.809 35.617c-8.904 17.809-28.939 24.487-46.748 15.583l-69.009-35.617 15.583-31.165 69.009 35.617z" />
<glyph unicode="&#xe928;" glyph-name="vegetaliser" data-tags="vegetaliser" d="M1006.080 294.4l-240.64 120.32c-15.36 7.68-33.28 2.56-40.96-12.8-2.56-5.12-2.56-7.68-2.56-12.8v-71.68c-212.48 107.52-199.68 102.4-209.92 102.4-15.36 0-28.16-12.8-30.72-28.16 0-2.56 0 7.68 0-153.6h-5.12l-64 337.92c-2.56 15.36-15.36 25.6-30.72 25.6h-81.92v58.88h69.12c94.72 0 171.52 76.8 171.52 171.52v76.8c0 28.16-23.040 51.2-51.2 51.2h-79.36c-56.32 0-107.52-28.16-140.8-74.24-30.72 46.080-81.92 74.24-138.24 74.24h-79.36c-28.16 0-51.2-23.040-51.2-51.2v-79.36c0-94.72 76.8-171.52 171.52-171.52h69.12v-58.88h-76.8c-15.36 0-25.6-10.24-30.72-23.040l-66.56-337.92h-35.84c-15.36 0-30.72-12.8-30.72-30.72v-243.2c0-15.36 12.8-28.16 30.72-28.16 0 0 0 0 0 0h962.56c15.36 0 30.72 12.8 30.72 30.72 0 0 0 0 0 0v0 302.080c0 10.24-7.68 20.48-17.92 25.6zM412.16 901.12h69.12v-69.12c0-61.44-48.64-110.080-110.080-110.080h-28.16l69.12 69.12c10.24 12.8 10.24 30.72-2.56 43.52-12.8 10.24-28.16 10.24-40.96 0l-69.12-69.12v23.040c2.56 61.44 51.2 110.080 112.64 112.64zM61.44 829.44v71.68h69.12c61.44 0 110.080-48.64 110.080-110.080v-28.16l-69.12 69.12c-12.8 12.8-30.72 10.24-43.52 0-10.24-12.8-10.24-30.72 0-43.52v0l69.12-69.12h-25.6c-61.44 0-110.080 48.64-110.080 110.080v0zM186.88 540.16h171.52l56.32-299.52h-286.72l58.88 299.52zM61.44 179.2h422.4v-181.76h-422.4v181.76zM542.72-5.12v345.6l181.76-89.6v-253.44h-181.76zM962.56-5.12h-181.76v345.6l181.76-89.6v-256zM632.32 238.080c-15.36 0-30.72-12.8-30.72-30.72 0 0 0 0 0 0v0-58.88c0-15.36 15.36-30.72 30.72-28.16 15.36 0 28.16 12.8 28.16 28.16v58.88c2.56 17.92-10.24 30.72-28.16 30.72 0 0 0 0 0 0v0zM872.96 117.76c15.36 0 30.72 12.8 30.72 30.72 0 0 0 0 0 0v0 58.88c0 15.36-15.36 30.72-30.72 28.16-15.36 0-28.16-12.8-28.16-28.16v-58.88c-2.56-15.36 12.8-30.72 28.16-30.72 0 0 0 0 0 0v0z" />
<glyph unicode="&#xe929;" glyph-name="apple-2" data-tags="apple-2" d="M514.926 585.509v0c0-2.926 0 0 0 0s0 0 0 0zM155.063 456.777c-8.777 0-17.554 8.777-17.554 17.554 0 0 0 0 0 0 0 122.88 152.137 160.914 157.989 163.84 8.777 2.926 20.48-5.851 20.48-14.629 2.926-8.777-2.926-17.554-11.703-20.48 0 0-131.657-35.109-131.657-128.731 0-8.777-8.777-17.554-17.554-17.554zM500.297 717.166c0 0 0 0 0 0s-2.926 0 0 0c-2.926 0-2.926 0 0 0zM532.48 714.24c0 0 0 2.926 0 2.926v-2.926c0 2.926 0 2.926 0 0zM535.406 711.314v-2.926c0 0 0 0 0-2.926 0 2.926 0 5.851 0 5.851zM497.371 705.463c0 2.926 0 2.926 0 0v5.851c0 0 0-2.926 0-5.851v0zM500.297 717.166c0 0 0 0 0 0s-2.926 0 0 0c-2.926 0-2.926 0 0 0zM520.777 693.76c2.926 0 2.926 0 0 0 2.926 0 2.926 0 0 0 0 0 0 0 0 0v0zM532.48 714.24c0 0 0 2.926 0 2.926v-2.926c0 2.926 0 2.926 0 0v0zM959.634 556.251c-11.703 32.183-32.183 61.44-55.589 84.846s-49.737 40.96-78.994 52.663c-90.697 35.109-198.949 8.777-289.646-67.291v81.92c0 0 0 0 0-2.926 0 2.926 0 2.926 0 5.851v-2.926c17.554 40.96 49.737 76.069 90.697 93.623 11.703-17.554 32.183-29.257 52.663-35.109 8.777-2.926 17.554-2.926 26.331-2.926 17.554 0 35.109 5.851 49.737 11.703 40.96 23.406 166.766 114.103 172.617 117.029 8.777 5.851 8.777 17.554 2.926 26.331-2.926 2.926-5.851 5.851-11.703 5.851-49.737 11.703-222.354 52.663-263.314 26.331-40.96-23.406-61.44-73.143-46.811-117.029-38.034-20.48-70.217-46.811-93.623-81.92-26.331 40.96-64.366 70.217-108.251 90.697 8.777 43.886-11.703 87.771-49.737 108.251-43.886 23.406-213.577-14.629-263.314-26.331-5.851-2.926-11.703-8.777-14.629-14.629 0-5.851 2.926-14.629 5.851-17.554 5.851-2.926 131.657-93.623 172.617-117.029 17.554-8.777 35.109-11.703 49.737-11.703 8.777 0 17.554 0 26.331 2.926 23.406 5.851 43.886 23.406 58.514 43.886 46.811-20.48 84.846-55.589 105.326-102.4v2.926c0-2.926 0-2.926 0-5.851 0 0 0 0 0 2.926v-81.92c-90.697 78.994-201.874 105.326-292.571 70.217-61.44-26.331-108.251-76.069-131.657-140.434-40.96-111.177-35.109-234.057 11.703-345.234 70.217-166.766 210.651-275.017 345.234-275.017 29.257 0 58.514 5.851 84.846 14.629 0 0 2.926 0 2.926 0s2.926 0 2.926 0c152.137-61.44 342.309 58.514 427.154 260.389 46.811 111.177 52.663 234.057 11.703 345.234v0zM672.914 919.040c8.777 2.926 17.554 2.926 23.406 2.926 58.514-2.926 117.029-11.703 172.617-26.331-40.96-29.257-111.177-76.069-134.583-90.697-14.629-8.777-32.183-11.703-49.737-5.851-11.703 2.926-20.48 8.777-29.257 17.554 20.48 8.777 40.96 14.629 61.44 20.48 8.777 2.926 17.554 11.703 14.629 20.48s-11.703 17.554-20.48 14.629v0c-23.406-5.851-46.811-14.629-70.217-23.406-5.851 29.257 8.777 58.514 32.183 70.217v0zM371.566 857.6c-17.554 5.851-35.109 11.703-52.663 14.629-8.777 5.851-17.554-2.926-20.48-11.703 0-8.777 5.851-20.48 14.629-20.48v0c14.629-2.926 32.183-8.777 46.811-14.629-8.777-11.703-20.48-20.48-35.109-23.406-14.629-5.851-32.183-2.926-46.811 5.851-26.331 14.629-96.549 61.44-137.509 90.697 55.589 14.629 114.103 23.406 172.617 26.331 8.777 0 17.554 0 23.406-2.926 23.406-14.629 38.034-38.034 35.109-64.366v0zM532.48 717.166c0 0 0 0 0 0s0 0 0 0v0zM514.926 585.509c0-2.926 0-2.926 0 0v0c0 0 0 0 0 0v0zM912.823 228.571c-76.069-187.246-248.686-295.497-380.343-242.834 0 0-2.926 0-2.926 2.926-2.926 0-2.926 2.926-5.851 2.926-5.851 2.926-8.777 2.926-14.629 0-2.926 0-2.926 0-2.926-2.926s-2.926 0-2.926-2.926c-137.509-52.663-307.2 55.589-386.194 242.834-43.886 99.474-49.737 210.651-11.703 315.977 20.48 52.663 61.44 96.549 114.103 117.029 23.406 8.777 46.811 14.629 70.217 14.629 81.92-5.851 157.989-40.96 213.577-105.326 5.851-5.851 17.554-5.851 26.331 0 87.771 90.697 196.023 125.806 283.794 90.697 52.663-23.406 93.623-64.366 114.103-117.029 35.109-105.326 29.257-216.503-14.629-315.977zM500.297 717.166c0 0 0 0 0 0s-2.926 0 0 0c-2.926 0-2.926 0 0 0zM532.48 714.24c0 0 0 2.926 0 2.926v-2.926c0 2.926 0 2.926 0 0zM535.406 711.314v-2.926c0 0 0 0 0-2.926 0 2.926 0 5.851 0 5.851zM497.371 705.463c0 2.926 0 2.926 0 0v5.851c0 0 0-2.926 0-5.851v0zM500.297 717.166c0 0 0 0 0 0s-2.926 0 0 0c-2.926 0-2.926 0 0 0zM520.777 693.76c2.926 0 2.926 0 0 0 2.926 0 2.926 0 0 0 0 0 0 0 0 0v0zM532.48 714.24c0 0 0 2.926 0 2.926v-2.926c0 2.926 0 2.926 0 0v0zM497.371 705.463c0 2.926 0 2.926 0 0v5.851c0 0 0-2.926 0-5.851zM520.777 693.76c0 0 0 0 0 0 2.926 0 2.926 0 0 0 2.926 0 2.926 0 0 0v0zM535.406 711.314v-2.926c0 0 0 0 0-2.926 0 2.926 0 5.851 0 5.851v0z" />
<glyph unicode="&#xe92a;" glyph-name="apple" data-tags="apple" d="M935.253 523.093c-27.307 81.92-88.747 143.36-170.667 170.667v0c-75.093 20.48-163.84 6.827-225.28-40.96-6.827 20.48-20.48 47.787-34.133 75.093 88.747 6.827 157.013 95.573 150.187 184.32 0 6.827 0 20.48-6.827 27.307 0 6.827-6.827 13.653-20.48 20.48-81.92 20.48-177.493-34.133-197.973-122.88 0-6.827-6.827-13.653-6.827-27.307-40.96 27.307-81.92 40.96-129.707 40.96-13.653 0-27.307-13.653-27.307-27.307s13.653-27.307 27.307-27.307c88.747 0 163.84-54.613 191.147-136.533-68.267 40.96-143.36 54.613-218.453 34.133-81.92-27.307-150.187-88.747-170.667-170.667-34.133-95.573-34.133-191.147 0-286.72 27.307-95.573 81.92-177.493 157.013-238.933 68.267-54.613 157.013-75.093 238.933-47.787 6.827 0 20.48 6.827 27.307 6.827 6.827-6.827 20.48-6.827 27.307-13.653 20.48-6.827 40.96-6.827 68.267-6.827 61.44 0 122.88 20.48 170.667 61.44 75.093 61.44 136.533 143.36 157.013 238.933 27.307 88.747 27.307 191.147-6.827 286.72zM477.867 775.68c-13.653 68.267 34.133 122.88 95.573 129.707 6.827 0 20.48 0 27.307 0 13.653-61.44-34.133-122.88-95.573-129.707-6.827 0-20.48 0-27.307 0zM894.293 250.027c-20.48-81.92-75.093-157.013-143.36-211.627-54.613-47.787-122.88-61.44-191.147-40.96-13.653 0-20.48 6.827-34.133 13.653-6.827 6.827-13.653 6.827-20.48 0s-20.48-6.827-27.307-13.653c-136.533-40.96-286.72 75.093-341.333 252.587s6.827 354.987 143.36 395.947c81.92 20.48 163.84-6.827 218.453-61.44v0c6.827-6.827 27.307-6.827 34.133 0 54.613 54.613 136.533 81.92 218.453 61.44v0c129.707-40.96 197.973-218.453 143.36-395.947v0zM320.853 591.36c-6.827 13.653-20.48 20.48-34.133 20.48-61.44-20.48-109.227-75.093-122.88-136.533-20.48-75.093-20.48-150.187 0-218.453 6.827-13.653 20.48-20.48 34.133-13.653 13.653 0 20.48 13.653 20.48 27.307-20.48 61.44-20.48 129.707 0 191.147 6.827 47.787 40.96 81.92 81.92 102.4 13.653 0 20.48 13.653 20.48 27.307v0z" />
<glyph unicode="&#xe92b;" glyph-name="tree_money" data-tags="tree_money" d="M914.773 536.747c-6.827 47.787-34.133 95.573-68.267 136.533 6.827 13.653 6.827 34.133 6.827 47.787 0 129.707-109.227 238.933-238.933 238.933-34.133 0-68.267-6.827-102.4-20.48-34.133 13.653-68.267 20.48-102.4 20.48-129.707 0-238.933-109.227-238.933-238.933 0-13.653 0-34.133 6.827-47.787-34.133-34.133-61.44-81.92-68.267-136.533-88.747-34.133-129.707-136.533-95.573-225.28s136.533-129.707 225.28-95.573c20.48 6.827 47.787 27.307 61.44 40.96 47.787-6.827 102.4-6.827 150.187 20.48v-163.84c0-54.613-20.48-109.227-61.44-150.187-6.827-6.827-6.827-20.48 0-27.307 0 0 0 0 0 0s6.827-6.827 13.653-6.827h75.093c6.827 0 6.827 0 13.653 6.827l20.48 20.48 20.48-20.48c6.827 0 6.827 0 13.653 0h81.92c6.827 0 20.48 6.827 20.48 20.48 0 6.827 0 6.827-6.827 13.653-40.96 40.96-61.44 95.573-61.44 150.187v163.84c47.787-20.48 95.573-27.307 150.187-20.48 61.44-68.267 170.667-75.093 238.933-13.653 0 0 0 0 0 0 68.267 61.44 75.093 170.667 13.653 238.933-20.48 20.48-40.96 40.96-68.267 47.787v0zM170.667 243.2c-75.093 0-136.533 61.44-136.533 136.533s61.44 136.533 136.533 136.533 136.533-61.44 136.533-136.533-61.44-136.533-136.533-136.533v0zM593.92-29.867h-40.96l-27.307 27.307c-6.827 6.827-20.48 6.827-27.307 0l-27.307-27.307h-40.96c34.133 40.96 47.787 95.573 47.787 150.187v184.32c13.653 6.827 20.48 20.48 34.133 27.307 13.653-13.653 20.48-20.48 34.133-27.307v-184.32c0-54.613 20.48-109.227 47.787-150.187v0zM682.667 297.813c-61.44 0-116.053 27.307-157.013 75.093-6.827 6.827-20.48 6.827-27.307 0 0 0 0 0 0 0s0 0 0 0c-40.96-54.613-109.227-81.92-177.493-75.093 47.787 81.92 20.48 184.32-61.44 232.107-34.133 20.48-75.093 27.307-116.053 20.48 6.827 40.96 34.133 75.093 61.44 102.4 6.827 6.827 6.827 13.653 6.827 20.48-27.307 102.4 40.96 218.453 143.36 245.76 54.613 13.653 102.4 6.827 150.187-13.653 6.827 0 13.653 0 13.653 0 102.4 54.613 225.28 13.653 273.067-88.747 0 0 0 0 0 0 20.48-47.787 27.307-95.573 13.653-150.187 0-6.827 0-13.653 6.827-20.48 34.133-27.307 54.613-61.44 61.44-102.4-95.573 13.653-177.493-47.787-197.973-136.533 0 0 0 0 0 0-6.827-40.96 0-75.093 20.48-109.227 0 0-6.827-6.827-13.653 0v0zM853.333 243.2c-75.093 0-136.533 61.44-136.533 136.533s61.44 136.533 136.533 136.533 136.533-61.44 136.533-136.533-61.44-136.533-136.533-136.533v0zM170.667 434.347c6.827 0 20.48-6.827 20.48-20.48h34.133c0 20.48-13.653 40.96-34.133 47.787v20.48h-34.133v-20.48c-27.307-6.827-40.96-40.96-27.307-68.267 0 0 0 0 0 0 6.827-20.48 27.307-34.133 47.787-34.133 6.827 0 20.48-6.827 20.48-20.48s-13.653-13.653-27.307-13.653-13.653 13.653-13.653 20.48h-34.133c0-20.48 13.653-40.96 34.133-47.787v-20.48h34.133v20.48c27.307 6.827 40.96 40.96 27.307 68.267 0 0 0 0 0 0-6.827 20.48-27.307 34.133-47.787 34.133-6.827 0-13.653 6.827-13.653 13.653s6.827 13.653 13.653 20.48v0zM853.333 434.347c6.827 0 20.48-6.827 20.48-20.48h34.133c0 20.48-13.653 40.96-34.133 47.787v20.48h-34.133v-20.48c-27.307-6.827-40.96-40.96-27.307-68.267 0 0 0 0 0 0 6.827-20.48 27.307-34.133 47.787-34.133 6.827 0 20.48-6.827 20.48-20.48s-6.827-20.48-20.48-20.48-20.48 20.48-20.48 27.307h-34.133c0-20.48 13.653-40.96 34.133-47.787v-20.48h34.133v20.48c27.307 6.827 40.96 40.96 27.307 68.267 0 0 0 0 0 0-6.827 20.48-27.307 34.133-47.787 34.133-6.827 0-20.48 6.827-20.48 20.48 6.827 0 13.653 6.827 20.48 13.653v0zM512 857.6c-95.573 0-170.667-75.093-170.667-170.667s75.093-170.667 170.667-170.667 170.667 75.093 170.667 170.667-75.093 170.667-170.667 170.667zM512 550.4c-75.093 0-136.533 61.44-136.533 136.533s61.44 136.533 136.533 136.533 136.533-61.44 136.533-136.533-61.44-136.533-136.533-136.533zM512 734.72c6.827 0 20.48-6.827 20.48-20.48h34.133c0 20.48-13.653 40.96-34.133 47.787v27.307h-34.133v-20.48c-27.307-6.827-40.96-40.96-27.307-68.267 0 0 0 0 0 0 6.827-20.48 27.307-34.133 47.787-34.133 6.827 0 20.48-6.827 20.48-20.48 0-6.827-6.827-20.48-20.48-20.48s-20.48 20.48-20.48 27.307h-34.133c0-20.48 13.653-40.96 34.133-47.787v-20.48h34.133v20.48c27.307 6.827 40.96 40.96 27.307 68.267 0 0 0 0 0 0-6.827 20.48-27.307 27.307-47.787 27.307-6.827 0-20.48 6.827-20.48 20.48 6.827 6.827 13.653 13.653 20.48 13.653z" />
<glyph unicode="&#xe92c;" glyph-name="airplane" data-tags="airplane" d="M996.073 932.073c-37.236 37.236-102.4 37.236-139.636 0 0 0 0 0 0 0l-211.006-217.212-512 164.461-108.606-105.503 428.218-263.758-217.212-226.521-139.636 24.824-96.194-96.194 204.8-71.37 71.37-204.8 96.194 96.194-21.721 139.636 226.521 217.212 260.655-428.218 108.606 108.606-170.667 512 217.212 211.006c40.339 34.133 40.339 99.297 3.103 139.636 0-3.103 0 0 0 0z" />
<glyph unicode="&#xe92d;" glyph-name="firewood" data-tags="firewood" d="M136.533-9.387v0c-37.547 0-68.267 30.72-68.267 68.267s30.72 68.267 68.267 68.267c37.547 0 68.267-30.72 68.267-68.267-3.413-37.547-34.133-68.267-68.267-68.267 0 0 0 0 0 0v0zM843.093 185.173h-58.027c-126.293-146.773-344.747-160.427-491.52-37.547-13.653 10.24-23.893 23.893-37.547 37.547h-119.467c71.68 0 126.293-58.027 126.293-126.293 0-71.68-58.027-126.293-126.293-126.293 0 0 0 0 0 0h706.56c71.68 0 126.293 58.027 126.293 126.293s-58.027 126.293-126.293 126.293c0 0 0 0 0 0zM484.693 349.013c-34.133-37.547-68.267-78.507-68.267-126.293 0-54.613 44.373-98.987 98.987-98.987s98.987 44.373 98.987 98.987c0 0 0 0 0 0v0c-3.413 51.2-17.067 98.987-44.373 139.947-10.24 17.067-23.893 37.547-37.547 51.2-10.24-20.48-27.307-44.373-47.787-64.853zM368.64 164.693v0c-6.827 17.067-10.24 37.547-10.24 58.027 0 68.267 44.373 119.467 81.92 163.84 27.307 34.133 54.613 64.853 47.787 88.747-3.413 17.067 6.827 30.72 23.893 34.133 10.24 3.413 20.48 0 27.307-6.827 23.893-23.893 136.533-143.36 136.533-279.893 0-20.48-3.413-40.96-10.24-58.027 85.333 51.2 139.947 146.773 139.947 245.76 0 122.88-78.507 204.8-146.773 276.48-71.68 75.093-129.707 139.947-112.64 232.107 3.413 17.067-6.827 30.72-23.893 34.133-10.24 3.413-20.48 0-27.307-6.827-174.080-174.080-266.24-354.987-266.24-532.48 0-102.4 54.613-194.56 139.947-249.173v0z" />
<glyph unicode="&#xe92e;" glyph-name="hand-fruit" data-tags="hand-fruit" d="M458.473 336.291c-27.927 13.964-60.509 20.945-90.764 20.945 93.091 104.727 251.345 114.036 356.073 20.945 13.964-11.636 25.6-25.6 37.236-41.891 0 0 2.327-2.327 2.327-2.327s0 0 0 0c11.636-18.618 23.273-37.236 30.255-58.182l-76.8-62.836c-23.273-18.618-53.527-30.255-83.782-32.582 16.291 34.909 2.327 76.8-32.582 93.091 0 0 0 0 0 0v0 0l-141.964 62.836zM642.327 848.291c2.327 0 4.655 0 6.982 0h2.327c9.309 2.327 16.291 13.964 11.636 25.6-2.327 9.309-13.964 16.291-25.6 11.636h-2.327c-9.309-4.655-16.291-13.964-11.636-25.6v0c2.327-6.982 11.636-11.636 18.618-11.636v0zM360.727 557.382c9.309-4.655 20.945 0 25.6 9.309 0 0 0 0 0 0v0c4.655 9.309 0 20.945-9.309 25.6 0 0 0 0 0 0v0c-23.273 11.636-46.545 27.927-65.164 48.873-58.182 55.855-83.782 137.309-67.491 216.436 18.618 4.655 39.564 4.655 60.509 4.655 53.527-2.327 104.727-25.6 144.291-62.836 6.982-6.982 20.945-6.982 27.927 2.327s6.982 20.945-2.327 27.927v0c-67.491 62.836-165.236 88.436-253.673 62.836-6.982-2.327-11.636-6.982-13.964-13.964v0c-25.6-95.418 4.655-197.818 76.8-265.309 20.945-20.945 46.545-41.891 76.8-55.855v0zM365.382 764.509c-6.982 6.982-20.945 6.982-27.927 0s-6.982-20.945 0-27.927v0l104.727-104.727c-2.327-27.927 2.327-53.527 9.309-79.127 2.327-6.982 6.982-11.636 11.636-11.636 23.273-6.982 46.545-9.309 69.818-9.309 6.982 0 11.636 0 18.618 0 67.491 4.655 130.327 34.909 179.2 83.782 72.145 67.491 100.073 169.891 76.8 265.309v0c-2.327 6.982-6.982 11.636-13.964 13.964-23.273 4.655-48.873 6.982-72.145 6.982-11.636 0-18.618-9.309-18.618-20.945v0c0-11.636 9.309-18.618 18.618-18.618v0c16.291 0 32.582-2.327 48.873-4.655 23.273-134.982-65.164-260.655-200.145-283.927-18.618-2.327-39.564-4.655-60.509-2.327l169.891 167.564c6.982 9.309 6.982 20.945-2.327 27.927-6.982 6.982-18.618 6.982-25.6 0l-169.891-167.564c-6.982 72.145 18.618 141.964 72.145 190.836 11.636 11.636 23.273 20.945 34.909 30.255 9.309 6.982 11.636 18.618 4.655 27.927s-18.618 11.636-27.927 4.655v0 0c-13.964-9.309-27.927-20.945-41.891-34.909-39.564-37.236-65.164-86.109-76.8-137.309l-81.455 83.782zM1012.364 331.636c-9.309 37.236-46.545 58.182-81.455 48.873 0 0 0 0 0 0v0c-4.655 0-6.982-2.327-9.309-4.655-2.327 0-2.327 2.327-4.655 2.327l-11.636 4.655c-39.564 16.291-86.109 13.964-121.018-11.636-100.073 125.673-283.927 144.291-409.6 44.218-18.618-16.291-37.236-32.582-51.2-53.527-2.327-4.655-4.655-6.982-6.982-11.636-6.982-2.327-11.636-2.327-18.618-4.655l-121.018-32.582v13.964c0 11.636-9.309 20.945-20.945 20.945 0 0 0 0 0 0h-134.982c-11.636 0-20.945-9.309-20.945-20.945 0 0 0 0 0 0v-316.509c0-6.982 9.309-16.291 20.945-16.291 0 0 0 0 0 0h249.018c11.636 0 18.618 9.309 18.618 20.945v0c0 11.636-9.309 18.618-18.618 18.618h-95.418v242.036l132.655 34.909c46.545 11.636 93.091 9.309 137.309-11.636l139.636-62.836c13.964-6.982 20.945-23.273 13.964-39.564 0 0 0 0 0 0v0c0 0 0-2.327-2.327-2.327-6.982-11.636-20.945-16.291-32.582-13.964l-176.873 48.873c-11.636 2.327-20.945-2.327-25.6-13.964-2.327-11.636 2.327-20.945 13.964-25.6 0 0 0 0 0 0l176.873-48.873c6.982-2.327 11.636-2.327 18.618-2.327h53.527c41.891 0 83.782 13.964 118.691 41.891l186.182 153.6c11.636 9.309 30.255 9.309 39.564-4.655 4.655-6.982 6.982-16.291 4.655-23.273v0c-2.327-4.655-4.655-11.636-9.309-13.964l-235.055-204.8c-41.891-34.909-95.418-55.855-148.945-55.855h-148.945c-11.636 0-20.945-9.309-20.945-18.618 0 0 0 0 0 0v0 0c0-11.636 9.309-18.618 18.618-18.618h148.945c65.164 0 128 23.273 176.873 65.164l235.055 204.8c20.945 16.291 30.255 41.891 23.273 67.491v0zM723.782 380.509c13.964-11.636 25.6-25.6 37.236-41.891 0 0 2.327-2.327 2.327-2.327s0 0 0 0c11.636-18.618 23.273-37.236 30.255-58.182l-76.8-62.836c-23.273-18.618-53.527-30.255-83.782-32.582 16.291 34.909 2.327 76.8-32.582 93.091 0 0 0 0 0 0v0 0l-139.636 62.836c-27.927 13.964-60.509 20.945-90.764 20.945 90.764 102.4 249.018 111.709 353.745 20.945v0zM884.364 350.255v0l-58.182-48.873c-4.655 13.964-11.636 27.927-20.945 39.564 23.273 16.291 51.2 18.618 79.127 9.309v0zM39.564 310.691h95.418v-276.945h-95.418v276.945zM370.036 15.127v0c0-11.636-9.309-18.618-20.945-18.618-9.309 0-18.618 9.309-18.618 18.618v0c0 11.636 6.982 20.945 18.618 20.945 9.309 0 18.618-9.309 20.945-20.945 0 0 0 0 0 0v0zM100.073 264.145c6.982-6.982 6.982-20.945 0-27.927-4.655-4.655-9.309-6.982-13.964-6.982v0c-11.636 0-20.945 9.309-20.945 20.945 0 0 0 0 0 0v0c0 11.636 9.309 20.945 20.945 20.945 6.982-2.327 11.636-2.327 13.964-6.982v0z" />
<glyph unicode="&#xe92f;" glyph-name="medicinal-vertue" data-tags="medicinal-vertue" d="M538.256 592.41l39.385 31.508 21.005-26.256-39.385-31.508-21.005 26.256zM619.651 616.041l183.795 149.662-21.005 26.256-183.795-149.662 21.005-26.256zM467.364 269.456l-7.877 31.508c-7.877-2.626-13.128-2.626-21.005-2.626h-7.877v-34.133h7.877c7.877 2.626 18.379 2.626 28.882 5.251v0zM519.877 306.215l7.877 7.877-26.256 21.005-7.877-7.877c-2.626-5.251-7.877-7.877-13.128-13.128l21.005-26.256c7.877 5.251 13.128 10.503 18.379 18.379v0zM1024 820.841l-309.826-380.718c76.144-15.754 178.544-49.887 178.544-107.651 0-128.656-73.518-244.185-189.046-299.323 42.010-5.251 73.518-39.385 73.518-81.395v-15.754h-661.662v15.754c0 42.010 31.508 76.144 73.518 81.395-115.528 55.138-189.046 170.667-189.046 299.323 0 26.256 23.631 52.513 65.641 73.518 0 2.626 0 7.877 0 10.503v115.528h15.754c73.518 0 141.785-39.385 181.169-99.774v34.133c0 118.154 97.149 215.303 215.303 215.303h15.754v-36.759l391.221 315.077h7.877c73.518 0 131.282-60.39 131.282-131.282v-7.877zM296.697 382.359c94.523 7.877 165.415 86.646 165.415 181.169v81.395c-94.523-7.877-165.415-86.646-165.415-181.169v-81.395zM496.246 563.528c0-112.903-89.272-207.426-202.174-215.303 2.626-10.503 2.626-23.631 2.626-34.133v-76.144c42.010-5.251 89.272-7.877 141.785-7.877 42.010 0 81.395 18.379 107.651 52.513l409.6 509.374c-47.262 18.379-81.395 55.138-102.4 102.4l-357.087-294.072v-36.759zM99.774 413.867c0-65.641 36.759-128.656 94.523-160.164 21.005-5.251 44.636-7.877 70.892-10.503v70.892c0 94.523-70.892 173.292-165.415 181.169v-81.395zM70.892 369.231c-23.631-13.128-36.759-26.256-36.759-36.759 0-18.379 28.882-39.385 84.021-57.764-23.631 26.256-39.385 60.39-47.262 94.523v0zM196.923 1.641c-21.005 0-39.385-13.128-47.262-34.133h588.144c-7.877 21.005-26.256 34.133-47.262 34.133h-493.621zM853.333 274.708c-73.518-49.887-241.559-73.518-406.974-73.518h-7.877c-162.79 0-325.579 26.256-399.097 73.518 28.882-139.159 149.662-238.933 291.446-238.933h231.056c141.785 0 262.564 99.774 291.446 238.933v0zM858.585 332.472c0 23.631-52.513 55.138-168.041 78.769l-118.154-147.036c-7.877-10.503-18.379-21.005-28.882-28.882 196.923 13.128 315.077 60.39 315.077 97.149v0zM989.867 833.969c-2.626 49.887-42.010 89.272-94.523 91.897l-15.754-13.128c15.754-44.636 49.887-81.395 97.149-97.149l13.128 18.379zM756.185 209.067c-42.010-68.267-115.528-107.651-194.297-107.651h-65.641v-34.133h65.641c89.272 0 175.918 47.262 223.179 123.405l-28.882 18.379zM430.605 67.282h34.133v34.133h-34.133v-34.133zM362.338 67.282h34.133v34.133h-34.133v-34.133zM362.338 266.831h34.133v34.133h-34.133v-34.133z" />
<glyph unicode="&#xe930;" glyph-name="builder" data-tags="builder" d="M608.549-2.56c2.926-26.331-14.629-52.663-40.96-61.44h-20.48c-8.777 5.851-17.554 8.777-26.331 14.629-8.777 8.777-14.629 20.48-14.629 35.109v254.537c0 2.926 0 2.926 0 5.851s2.926 2.926 5.851 2.926c32.183 0 64.366 8.777 90.697 26.331v0-11.703c5.851-87.771 5.851-178.469 5.851-266.24zM491.52 240.274c0 2.926 0 5.851 0 8.777 0 0 0 0 0 2.926-35.109 0-67.291 8.777-96.549 26.331 0 0 0 0 0-2.926s0-2.926 0-5.851c0-93.623 0-190.171 0-283.794 0-23.406 17.554-43.886 40.96-49.737h17.554c26.331 5.851 43.886 32.183 40.96 58.514l-2.926 245.76zM772.389 565.029c5.851 17.554 2.926 38.034-11.703 52.663l-8.777-8.777c8.777-8.777 11.703-20.48 11.703-32.183 0-8.777-2.926-11.703-11.703-11.703-14.629 0-29.257 0-43.886 0v-117.029c-14.629 5.851-23.406 14.629-23.406 32.183 0 20.48 0 40.96-2.926 61.44-2.926 38.034-17.554 73.143-38.034 105.326-14.629 20.48-38.034 35.109-61.44 38.034 0-2.926 0-8.777 0-11.703 0-5.851 0-14.629 0-20.48 0-29.257 0-61.44 0-90.697 2.926-38.034 8.777-76.069 14.629-114.103s8.777-73.143 14.629-111.177h2.926v222.354c2.926-2.926 2.926-5.851 2.926-8.777 2.926-23.406 5.851-49.737 5.851-73.143s8.777-43.886 26.331-58.514c11.703-8.777 26.331-17.554 38.034-26.331 8.777-5.851 20.48-8.777 29.257-11.703 29.257-11.703 40.96-5.851 55.589 23.406h23.406c17.554 0 23.406 5.851 23.406 23.406v134.583c0 2.926 0 5.851 0 11.703l-46.811-8.777zM392.046 336.823c14.629 114.103 40.96 225.28 29.257 342.309v0c-17.554 0-32.183-5.851-43.886-17.554-17.554-17.554-32.183-35.109-40.96-58.514-14.629-38.034-20.48-81.92-17.554-125.806 0-17.554-8.777-23.406-20.48-29.257v117.029h-43.886c2.926 29.257 0 38.034-11.703 52.663l-8.777-8.777h2.926c2.926-11.703 5.851-20.48 5.851-32.183 0-8.777-2.926-11.703-14.629-11.703-14.629 0-29.257 0-43.886 0 0-52.663 0-102.4 0-152.137v0c0-8.777 5.851-14.629 14.629-14.629 0 0 0 0 0 0 8.777 0 17.554 0 26.331 0 2.926 0 5.851-2.926 8.777-5.851 5.851-17.554 20.48-26.331 38.034-20.48 32.183 8.777 61.44 23.406 84.846 46.811 14.629 14.629 23.406 35.109 23.406 55.589 0 14.629 0 26.331 0 40.96 2.926 14.629 5.851 32.183 5.851 46.811h2.926l2.926-225.28zM292.571 799.086c20.48-8.777 40.96-14.629 61.44-20.48 14.629-2.926 32.183-5.851 46.811-8.777 0 5.851-2.926 8.777-2.926 11.703-5.851 20.48 5.851 38.034 26.331 43.886 2.926 2.926 8.777 2.926 11.703 5.851 26.331 8.777 52.663 11.703 81.92 5.851 17.554-2.926 38.034-8.777 55.589-14.629 14.629-5.851 23.406-20.48 20.48-38.034 0-5.851 0-8.777-2.926-17.554 35.109 2.926 70.217 11.703 105.326 23.406 5.851 2.926 11.703 5.851 17.554 11.703 8.777 5.851 11.703 17.554 5.851 26.331-2.926 2.926-2.926 5.851-5.851 5.851-8.777 5.851-17.554 11.703-26.331 14.629-32.183 11.703-67.291 20.48-102.4 20.48-5.851 0-8.777 2.926-11.703 8.777-5.851 23.406-20.48 43.886-38.034 58.514-23.406 20.48-58.514 20.48-81.92 0-14.629-5.851-26.331-29.257-32.183-52.663 0-5.851-5.851-8.777-11.703-8.777-11.703 0-20.48-2.926-29.257-2.926-29.257-2.926-58.514-11.703-84.846-23.406-11.703-5.851-23.406-11.703-23.406-26.331s11.703-20.48 20.48-23.406zM754.834 161.28l-8.777-8.777c8.777-8.777 11.703-20.48 11.703-35.109-2.926-8.777-5.851-11.703-14.629-11.703-14.629 0-29.257 0-40.96 0 0-2.926 0-2.926 0-5.851v-143.36c0-14.629 5.851-20.48 20.48-20.48h67.291c14.629 0 20.48 5.851 20.48 20.48v146.286h-43.886c8.777 26.331 2.926 46.811-11.703 58.514zM906.971 111.543c2.926 29.257 0 38.034-5.851 49.737l-5.851-2.926c0-14.629 2.926-26.331 2.926-38.034 0-5.851-2.926-8.777-11.703-8.777-14.629 0-29.257 0-43.886 0 0-2.926 0-5.851 0-5.851 0-46.811 0-93.623 0-140.434 0-14.629 5.851-20.48 20.48-20.48h67.291c17.554 0 23.406 5.851 23.406 23.406v134.583c0 2.926 0 5.851 0 8.777h-46.811zM588.069 775.68c-8.777-49.737-55.589-81.92-105.326-70.217-40.96 8.777-70.217 40.96-73.143 81.92 0 11.703 5.851 23.406 14.629 26.331 20.48 8.777 40.96 14.629 61.44 14.629 5.851 0 8.777 0 14.629 0 20.48 0 40.96-5.851 58.514-8.777 26.331-5.851 32.183-17.554 29.257-43.886zM547.109 740.571c2.926 2.926 5.851 5.851 8.777 11.703h-111.177c2.926-5.851 8.777-11.703 17.554-17.554 2.926-2.926 2.926-2.926 5.851-5.851 0 0 2.926-2.926 5.851-2.926s5.851-2.926 8.777-2.926c2.926 0 2.926 0 5.851 0 5.851 0 8.777 0 14.629 0 0 0 0 0 0 0v0 0c2.926 0 8.777 0 11.703 2.926 2.926 0 5.851 0 5.851 2.926 2.926-2.926 5.851-2.926 8.777-2.926s5.851 2.926 5.851 2.926c2.926 0 2.926 2.926 5.851 2.926 2.926 5.851 2.926 5.851 5.851 8.777zM555.886 679.131v0h-111.177v-114.103h111.177v114.103zM763.611 167.131c0 0 0 0 0 0 8.777-5.851 20.48-2.926 26.331 5.851 0 0 0 0 0 0 11.703 17.554 14.629 35.109 11.703 55.589-17.554-5.851-35.109-17.554-43.886-35.109 0 0 0 0 0 0-5.851-8.777-2.926-20.48 5.851-26.331 0 0 0 0 0 0zM201.874 611.84c0 0 0 0 0 0 11.703-8.777 23.406-5.851 29.257 2.926s5.851 20.48-2.926 26.331c0 0 0 0-2.926 0-14.629 11.703-32.183 17.554-52.663 14.629 2.926-14.629 14.629-32.183 29.257-43.886zM909.897 161.28c5.851-8.777 17.554-11.703 26.331-5.851 17.554 11.703 29.257 29.257 32.183 49.737-20.48 0-40.96-5.851-55.589-17.554-5.851-8.777-8.777-17.554-2.926-26.331zM248.686 620.617c5.851-5.851 14.629-2.926 20.48 2.926s8.777 11.703 11.703 20.48c2.926 11.703 2.926 23.406 5.851 38.034h-2.926c-14.629-5.851-26.331-14.629-35.109-26.331-2.926-5.851-5.851-11.703-8.777-17.554s0-14.629 8.777-17.554v0zM866.011 161.28c5.851-2.926 17.554-2.926 23.406 2.926s8.777 14.629 2.926 20.48c-2.926 5.851-8.777 11.703-14.629 14.629-11.703 8.777-29.257 11.703-43.886 11.703 2.926-20.48 14.629-38.034 32.183-49.737zM713.874 161.28c11.703-8.777 23.406-8.777 29.257 0s5.851 20.48-5.851 29.257c-14.629 8.777-32.183 14.629-49.737 14.629 2.926-17.554 14.629-32.183 26.331-43.886v0zM757.76 635.246c0-8.777 8.777-17.554 17.554-17.554 5.851 0 14.629 5.851 17.554 8.777 8.777 14.629 14.629 35.109 8.777 52.663-20.48-8.777-38.034-17.554-43.886-40.96 0 0 0 0 0-2.926zM690.469 658.651c2.926-17.554 14.629-35.109 29.257-46.811 0 0 0 0 0 0 8.777-5.851 20.48-5.851 26.331 2.926s5.851 17.554-5.851 29.257c-11.703 8.777-29.257 14.629-49.737 14.629v0zM231.131 652.8c5.851 0 11.703 8.777 8.777 14.629 0 0 0 2.926 0 2.926-5.851 5.851-8.777 14.629-14.629 23.406h-5.851c-2.926-8.777-2.926-20.48-2.926-29.257 0-5.851 2.926-11.703 8.777-11.703 2.926-2.926 5.851-2.926 5.851 0v0zM748.983 652.8c0 0 2.926 0 2.926 0 5.851 2.926 8.777 8.777 5.851 14.629 0 0 0 0 0 0-2.926 8.777-8.777 17.554-14.629 26.331h-5.851c0-8.777-2.926-20.48-2.926-29.257 0 0 0-2.926 0-2.926 2.926-8.777 8.777-11.703 14.629-8.777 0-2.926 0-2.926 0 0v0zM740.206 240.274h-5.851c0-8.777-2.926-20.48-2.926-29.257 0 0 0-2.926 0-2.926 2.926-5.851 8.777-8.777 14.629-5.851 0 0 2.926 0 2.926 0 5.851 2.926 8.777 8.777 5.851 14.629 0 0 0 0 0 0-2.926 5.851-8.777 14.629-14.629 23.406v0zM898.194 190.537c5.851-2.926 11.703 2.926 14.629 8.777 2.926 11.703 2.926 23.406-2.926 32.183-8.777-5.851-14.629-17.554-17.554-29.257-2.926-5.851 0-11.703 5.851-11.703v0zM552.96 526.994c5.851 0 11.703 5.851 8.777 11.703 0 0 0 0 0 0 0 5.851-5.851 8.777-8.777 11.703h-5.851c-2.926-2.926-8.777-8.777-8.777-11.703 0 0 0-2.926 0-2.926 2.926-5.851 8.777-8.777 14.629-8.777zM435.931 538.697c0-5.851 2.926-11.703 8.777-11.703 0 0 2.926 0 2.926 0 5.851 0 11.703 5.851 11.703 11.703s-5.851 8.777-8.777 11.703h-5.851c-2.926-2.926-5.851-8.777-8.777-11.703v0zM157.989 161.28h-29.257v26.331c0 5.851-5.851 11.703-11.703 11.703 0 0 0 0 0 0h-8.777c-5.851 0-11.703-5.851-11.703-11.703 0 0 0 0 0 0v-26.331h-26.331c-5.851 0-11.703-5.851-11.703-11.703v-8.777c0-5.851 5.851-11.703 11.703-11.703 0 0 0 0 0 0h26.331v-26.331c0-5.851 5.851-11.703 11.703-11.703 0 0 0 0 0 0h11.703c5.851 0 11.703 5.851 11.703 11.703 0 0 0 0 0 0v26.331h26.331c5.851 0 11.703 5.851 11.703 11.703v11.703c-2.926 5.851-5.851 8.777-11.703 8.777z" />
<glyph unicode="&#xe931;" glyph-name="sol-improvement" data-tags="sol-improvement" d="M993.28 475.307h-54.613v98.987c3.413 3.413 6.827 6.827 10.24 10.24 13.653 13.653 23.893 27.307 34.133 40.96 27.307 40.96 40.96 88.747 44.373 136.533 0 47.787-17.067 95.573-44.373 136.533-10.24 13.653-20.48 27.307-34.133 40.96-10.24 10.24-23.893 20.48-40.96 20.48s-30.72-10.24-40.96-23.893c-13.653-13.653-23.893-27.307-34.133-40.96-3.413-6.827-6.827-13.653-13.653-20.48-3.413 6.827-10.24 13.653-13.653 20.48-10.24 13.653-20.48 27.307-34.133 40.96-3.413 13.653-17.067 23.893-34.133 23.893s-30.72-10.24-40.96-23.893c-13.653-13.653-23.893-27.307-34.133-40.96-27.307-40.96-40.96-88.747-44.373-136.533 0-47.787 17.067-95.573 44.373-136.533 10.24-13.653 20.48-27.307 34.133-40.96 3.413-3.413 6.827-6.827 10.24-10.24v-95.573h-81.92c-85.333 0-167.253-37.547-221.867-98.987-34.133-37.547-81.92-58.027-129.707-58.027h-92.16v116.053c6.827 3.413 10.24 10.24 17.067 17.067 17.067 17.067 30.72 37.547 44.373 58.027 37.547 54.613 58.027 119.467 58.027 184.32s-20.48 129.707-58.027 184.32c-13.653 17.067-27.307 37.547-44.373 54.613-23.893 23.893-37.547 27.307-47.787 27.307s-23.893-3.413-47.787-27.307c-17.067-17.067-30.72-37.547-44.373-58.027-37.547-54.613-58.027-119.467-58.027-184.32s20.48-129.707 58.027-184.32c13.653-23.893 27.307-40.96 44.373-58.027 6.827-6.827 10.24-10.24 17.067-17.067v-116.053h-88.747c-17.067 0-30.72-13.653-30.72-30.72 0 0 0 0 0 0v-320.853c0-13.653 13.653-27.307 30.72-27.307h962.56c17.067 0 30.72 13.653 30.72 30.72v477.867c0 17.067-13.653 30.72-30.72 30.72zM61.44 690.347c3.413 78.507 34.133 150.187 88.747 204.8 54.613-54.613 85.333-129.707 88.747-204.8-3.413-78.507-34.133-150.187-88.747-204.8-54.613 54.613-85.333 126.293-88.747 204.8zM907.947 891.733c34.133-37.547 51.2-81.92 54.613-133.12-3.413-47.787-20.48-95.573-54.613-133.12-34.133 37.547-51.2 81.92-54.613 133.12 3.413 51.2 23.893 98.987 54.613 133.12zM682.667 758.613c3.413 51.2 23.893 98.987 54.613 133.12 34.133-37.547 51.2-81.92 54.613-133.12-3.413-47.787-20.48-95.573-54.613-133.12-30.72 37.547-51.2 85.333-54.613 133.12zM768 574.293c3.413 3.413 6.827 6.827 10.24 10.24 13.653 13.653 23.893 27.307 34.133 40.96 3.413 6.827 6.827 13.653 13.653 20.48 3.413-6.827 10.24-13.653 13.653-20.48 10.24-13.653 20.48-27.307 34.133-40.96 3.413-3.413 6.827-6.827 10.24-10.24v-98.987h-109.227v98.987zM61.44 256.853h211.627c68.267 0 133.12 30.72 177.493 78.507 44.373 51.2 109.227 78.507 177.493 78.507h337.92v-61.44h-310.613c-68.267 0-133.12-30.72-177.493-78.507-44.373-51.2-109.227-78.507-177.493-78.507h-238.933v61.44zM61.44-2.56v139.947h242.347c85.333 0 167.253 37.547 221.867 98.987 34.133 37.547 81.92 58.027 129.707 58.027h310.613v-300.373l-904.533 3.413zM904.533 86.187c0-16.966-13.754-30.72-30.72-30.72s-30.72 13.754-30.72 30.72c0 16.966 13.754 30.72 30.72 30.72s30.72-13.754 30.72-30.72zM696.32 86.187c0-16.966-13.754-30.72-30.72-30.72s-30.72 13.754-30.72 30.72c0 16.966 13.754 30.72 30.72 30.72s30.72-13.754 30.72-30.72zM798.72 205.653c0-16.966-13.754-30.72-30.72-30.72s-30.72 13.754-30.72 30.72c0 16.966 13.754 30.72 30.72 30.72s30.72-13.754 30.72-30.72z" />
<glyph unicode="&#xe932;" glyph-name="tree-up" data-tags="tree-up" d="M68.267 372.907h34.133v-34.133h-34.133v34.133zM122.88 318.293h34.133v-34.133h-34.133v34.133zM13.653 318.293h34.133v-34.133h-34.133v34.133zM68.267 263.68h34.133v-34.133h-34.133v34.133zM928.427 693.76v-279.893h34.133v279.893l40.96-40.96 27.307 27.307-75.093 75.093c0 0-13.653 0-20.48-6.827l-75.093-75.093 27.307-20.48 40.96 40.96zM68.267 693.76v-279.893h34.133v279.893l40.96-40.96 27.307 27.307-75.093 68.267c-6.827 6.827-13.653 6.827-20.48 0l-75.093-75.093 27.307-27.307 40.96 47.787zM928.427 372.907h34.133v-34.133h-34.133v34.133zM983.040 318.293h40.96v-34.133h-34.133v34.133zM880.64 318.293h34.133v-34.133h-34.133v34.133zM928.427 263.68h34.133v-34.133h-34.133v34.133zM539.307 325.12c88.747-47.787 204.8-13.653 252.587 75.093 0 0 0 0 0 0 47.787 88.747 13.653 204.8-75.093 252.587 0 0 0 0 0 0-6.827 0-6.827 6.827-13.653 6.827-13.653 109.227-109.227 177.493-211.627 163.84 0 0 0 0 0 0-81.92-13.653-150.187-75.093-157.013-157.013-95.573-47.787-143.36-157.013-95.573-252.587 0 0 0 0 0 0 40.96-95.573 150.187-136.533 245.76-95.573 6.827 0 6.827 6.827 13.653 6.827v-191.147h-238.933v-47.787h512v47.787h-232.107v191.147zM409.6 345.6c-81.92 0-150.187 68.267-150.187 143.36 0 0 0 0 0 0 0 61.44 40.96 116.053 95.573 136.533l13.653 6.827v13.653c6.827 81.92 75.093 143.36 157.013 136.533 75.093-6.827 129.707-61.44 136.533-136.533v-13.653l13.653-6.827c75.093-27.307 116.053-109.227 88.747-184.32s-109.227-116.053-184.32-88.747c-13.653 6.827-34.133 13.653-40.96 20.48v122.88l88.747 47.787-20.48 40.96-68.267-40.96v81.92h-40.96v-170.667l-68.267 40.96-20.48-40.96 88.747-47.787v-34.133c-27.307-20.48-61.44-27.307-88.747-27.307v0z" />
<glyph unicode="&#xe933;" glyph-name="construction-tree" data-tags="construction-tree" d="M417.417 337.306h-221.867c-3.413 0-6.827-3.413-6.827-6.827v-64.853c0-3.413 3.413-6.827 6.827-6.827h221.867c3.413 0 6.827 3.413 6.827 6.827v64.853c0 3.413-3.413 6.827-6.827 6.827zM410.59 275.866h-204.8v47.787h204.8v-47.787zM417.417 251.972h-221.867c-6.827 0-13.653 6.827-13.653 13.653v0 64.853c0 6.827 6.827 13.653 13.653 13.653v0h221.867c6.827 0 13.653-6.827 13.653-13.653v0-64.853c0-3.413 0-6.827-3.413-10.24-3.413 0-6.827-3.413-10.24-3.413zM195.55 330.479c0 0-3.413 0 0 0v0l-3.413-64.853c0 0 0-3.413 3.413-3.413v0h221.867c0 0 3.413 0 3.413 3.413v64.853c0 0 0 3.413-3.413 3.413v0l-221.867-3.413zM414.003 269.039h-215.040v58.027h218.453l-3.413-58.027zM209.203 279.279h194.56v34.133h-194.56v-34.133zM828.45 748.373h-221.867c-3.413 0-6.827-3.413-6.827-6.827s3.413-6.827 6.827-6.827v0h221.867c3.413 0 6.827 3.413 6.827 6.827s-3.413 6.827-6.827 6.827zM828.45 727.893h-221.867c-6.827 0-13.653 6.827-13.653 13.653s6.827 13.653 13.653 13.653v0h221.867c6.827 0 13.653-6.827 13.653-13.653v0c0-6.827-6.827-13.653-13.653-13.653zM606.583 741.547c0 0-3.413 0 0 0-3.413-3.413 0-3.413 0 0v0l221.867-3.413c0 0 3.413 0 3.413 3.413 0 0 0 3.413-3.413 3.413l-221.867-3.413zM833.434 747.793c-3.413 3.413-6.827 3.413-10.24 0v0l-409.6-409.6c-3.413-3.413-3.413-6.827 0-10.24v0c3.413-3.413 6.827-3.413 10.24 0v0l409.6 409.6c3.413 0 3.413 6.827 0 10.24zM417.007 317.713c-3.413 0-6.827 0-10.24 3.413-3.413 0-3.413 6.827-3.413 10.24s0 6.827 3.413 10.24l409.6 409.6c6.827 6.827 13.653 6.827 20.48 0v0c3.413-3.413 3.413-6.827 3.413-10.24s0-6.827-3.413-10.24l-409.6-409.6c-3.413-3.413-6.827-3.413-10.24-3.413zM826.607 744.38v0l-409.6-413.013v-3.413h3.413l409.6 409.6c0 3.413 0 3.413-3.413 6.827 3.413-3.413 3.413-3.413 0 0v0c3.413 0 3.413 0 0 0zM833.229 684.646c-3.413 3.413-6.827 3.413-10.24 0v0l-409.6-409.6c-3.413-3.413-3.413-6.827 0-10.24v0c3.413-3.413 6.827-3.413 10.24 0v0l409.6 409.6c3.413 0 3.413 6.827 0 10.24v0zM416.802 254.566c-3.413 0-6.827 0-10.24 3.413-3.413 0-3.413 6.827-3.413 10.24s0 6.827 3.413 10.24l409.6 409.6c6.827 6.827 13.653 6.827 20.48 0v0c3.413-3.413 3.413-6.827 3.413-10.24s0-6.827-3.413-10.24l-409.6-409.6c-3.413-3.413-6.827-3.413-10.24-3.413zM826.402 681.233v0l-409.6-413.013v-3.413h3.413l409.6 409.6c0 3.413 0 3.413-3.413 6.827 3.413-3.413 3.413-3.413 0 0v0c3.413 0 3.413 0 0 0zM612.147 747.793c-3.413 3.413-6.827 3.413-10.24 0v0l-409.6-409.6c-3.413-3.413-3.413-6.827 0-10.24v0c3.413-3.413 6.827-3.413 10.24 0v0l409.6 409.6c3.413 0 3.413 6.827 0 10.24v0zM195.721 317.713c-3.413 0-6.827 0-10.24 3.413-3.413 0-3.413 6.827-3.413 10.24s0 6.827 3.413 10.24l409.6 409.6c3.413 3.413 6.827 3.413 10.24 3.413s6.827 0 10.24-3.413c6.827-6.827 6.827-13.653 0-20.48l-409.6-409.6c-3.413-3.413-6.827-3.413-10.24-3.413zM605.321 744.38v0l-409.6-413.013v-3.413h3.413l409.6 409.6c0 3.413 0 3.413-3.413 6.827 3.413-3.413 3.413-3.413 0 0 3.413 0 3.413 0 0 0zM827.87 748.373c-3.413 0-6.827-3.413-6.827-6.827v-64.853c0-3.413 3.413-6.827 6.827-6.827s6.827 3.413 6.827 6.827v64.853c0 3.413-3.413 6.827-6.827 6.827v0zM827.87 663.040c-6.827 0-13.653 6.827-13.653 13.653v0 64.853c0 6.827 6.827 13.653 13.653 13.653s13.653-6.827 13.653-13.653v0-64.853c0-6.827-6.827-13.653-13.653-13.653v0zM827.87 741.547c0 0-3.413 0 0 0-3.413 0-3.413 0 0 0l-3.413-64.853c0 0 0-3.413 3.413-3.413 0 0 3.413 0 3.413 3.413v0l-3.413 64.853c3.413 0 0 0 0 0v0zM548.045 462.063c-30.72 20.48-68.267 13.653-88.747-17.067l-112.64-109.227 10.24-10.24 109.227 109.227c37.547 37.547 68.267 17.067 68.267 13.653 3.413-3.413 6.827-3.413 10.24 0 6.827 6.827 6.827 10.24 3.413 13.653v0 0zM360.311 315.29l-20.48 20.48 116.053 116.053c20.48 30.72 64.853 37.547 95.573 17.067v0c3.413-3.413 3.413-6.827 6.827-10.24 0-3.413 0-6.827-3.413-10.24s-6.827-3.413-10.24-6.827c-3.413 0-6.827 3.413-10.24 3.413 0 0-27.307 20.48-61.44-13.653l-112.64-116.053zM356.898 335.77v0l109.227 102.4c40.96 40.96 75.093 17.067 75.093 17.067v0 0 0 0c-23.893 20.48-58.027 13.653-78.507-13.653l-105.813-105.813zM463.701 653.039c-3.413 3.413-6.827 3.413-10.24 0v0l-51.2-47.787c-3.413-3.413-3.413-6.827 0-10.24v0c3.413-3.413 10.24-3.413 13.653-3.413v0l47.787 47.787c0 3.413 0 10.24 0 13.653v0zM409.088 584.772c-3.413 0-6.827 0-10.24 3.413s-3.413 6.827-3.413 10.24c0 3.413 0 6.827 3.413 10.24l47.787 47.787c6.827 3.413 13.653 3.413 20.48 0v0c6.827-6.827 6.827-13.653 0-20.48l-47.787-47.787c-3.413 0-6.827-3.413-10.24-3.413zM456.875 649.626v0l-47.787-47.787v-3.413h3.413l44.373 51.2c3.413-3.413 3.413-3.413 0 0 0-3.413 0-3.413 0 0v0zM235.52 242.313h-221.867c-3.413 0-6.827-3.413-6.827-6.827v-64.853c0-3.413 3.413-6.827 6.827-6.827h221.867c3.413 0 6.827 3.413 6.827 6.827v64.853c0 3.413-3.413 6.827-6.827 6.827zM228.693 180.873h-204.8v47.787h204.8v-47.787zM235.52 156.979h-221.867c-6.827 0-13.653 6.827-13.653 13.653v0 64.853c0 6.827 6.827 13.653 13.653 13.653v0h221.867c6.827 0 13.653-6.827 13.653-13.653v0-64.853c0-6.827-6.827-13.653-13.653-13.653zM13.653 238.899c0 0-3.413-3.413 0 0v0l-3.413-68.267c0 0 0-3.413 3.413-3.413v0h221.867c0 0 3.413 0 3.413 3.413v0 64.853c0 0 0 3.413-3.413 3.413v0h-221.867zM232.107 174.046h-215.040v58.027h218.453l-3.413-58.027zM27.307 184.286h194.56v34.133h-194.56v-34.133zM479.334 653.38h-54.613c-3.413 0-6.827-3.413-6.827-6.827s3.413-6.827 6.827-6.827h54.613c3.413 0 6.827 3.413 6.827 6.827 3.413 3.413 0 6.827-6.827 6.827zM479.334 632.9h-54.613c-6.827 0-13.653 6.827-13.653 13.653s6.827 13.653 13.653 13.653h54.613c6.827 0 13.653-6.827 13.653-13.653s-3.413-13.653-13.653-13.653v0zM424.721 649.967c0 0-3.413-3.413 0 0-3.413-3.413 0-3.413 0 0l54.613-3.413c0 0 3.413 0 3.413 3.413 0 0 0 3.413-3.413 3.413h-54.613v-3.413zM303.172 241.323c-3.413 3.413-6.827 3.413-10.24 0v0l-64.853-64.853c-3.413-3.413-3.413-6.827 0-10.24v0c3.413-3.413 6.827-3.413 10.24 0v0l61.44 61.44c6.827 3.413 6.827 10.24 3.413 13.653v0zM234.906 159.403c-3.413 0-6.827 0-10.24 3.413s-3.413 6.827-3.413 10.24c0 3.413 0 6.827 3.413 6.827l64.853 64.853c0 3.413 3.413 3.413 6.827 3.413s6.827 0 10.24-3.413c6.827-6.827 6.827-13.653 0-20.48l-61.44-61.44c-3.413-3.413-6.827-3.413-10.24-3.413zM299.759 237.909c-3.413 0-3.413 0 0 0l-64.853-64.853v-3.413h3.413l61.44 68.267c0-3.413 0-3.413 0 0 0-3.413 0-3.413 0 0v0 0zM430.080 652.971c-3.413 3.413-6.827 3.413-10.24 0v0l-409.6-409.6c-3.413-3.413-3.413-6.827 0-10.24v0c0 0 3.413-3.413 6.827-3.413s3.413 0 6.827 3.413l409.6 409.6c0 0 0 6.827-3.413 10.24v0zM13.653 222.891c-3.413 0-6.827 0-10.24 3.413-3.413 0-3.413 6.827-3.413 10.24s0 6.827 3.413 10.24l409.6 409.6c6.827 6.827 13.653 6.827 20.48 0v0c3.413-3.413 3.413-6.827 3.413-10.24s0-6.827-3.413-10.24l-409.6-409.6c-3.413-3.413-6.827-3.413-10.24-3.413zM423.253 649.557v0 0c3.413-3.413 3.413-3.413 0 0 3.413-3.413 3.413-3.413 0 0v0c3.413 0 3.413 0 0 0zM599.279 242.313h-221.867c-3.413 0-6.827-3.413-6.827-6.827v-64.853c0-3.413 3.413-6.827 6.827-6.827h221.867c3.413 0 6.827 3.413 6.827 6.827v64.853c0 3.413-3.413 6.827-6.827 6.827zM592.452 180.873h-204.8v47.787h204.8v-47.787zM599.279 156.979h-221.867c-6.827 0-13.653 6.827-13.653 13.653v0 64.853c0 6.827 6.827 13.653 13.653 13.653v0h221.867c6.827 0 13.653-6.827 13.653-13.653v0-64.853c0-6.827-6.827-13.653-13.653-13.653zM377.412 238.899c0 0-3.413-3.413 0 0v0l-3.413-68.267c0 0 0-3.413 3.413-3.413v0h221.867c0 0 3.413 0 3.413 3.413v0 64.853c0 0 0 3.413-3.413 3.413v0h-221.867zM595.866 174.046h-215.040v58.027h218.453v-58.027h-3.413zM391.066 184.286h194.56v34.133h-194.56v-34.133zM1008.981 653.38h-180.907c-3.413 0-6.827-3.413-6.827-6.827s3.413-6.827 6.827-6.827v0h180.907c6.827 0 10.24 3.413 10.24 6.827s-3.413 6.827-10.24 6.827zM1008.981 632.9h-180.907c-6.827 0-13.653 6.827-13.653 13.653s6.827 13.653 13.653 13.653v0h180.907c10.24 0 13.653-6.827 13.653-13.653s-3.413-13.653-13.653-13.653v0zM828.075 649.967c0 0-3.413-3.413 0 0v0c-3.413-3.413 0-3.413 0 0v0l180.907-3.413c0 0 3.413 0 3.413 3.413v0c0 0 0 3.413-3.413 3.413v0h-180.907v-3.413zM1015.125 652.971c-3.413 3.413-6.827 3.413-10.24 0v0l-409.6-409.6c-3.413-3.413-3.413-6.827 0-10.24v0c3.413-3.413 6.827-3.413 10.24 0v0l409.6 409.6c3.413 0 3.413 6.827 0 10.24v0zM598.699 222.891c-3.413 0-6.827 0-10.24 3.413-3.413 0-3.413 6.827-3.413 10.24s0 6.827 3.413 10.24l409.6 409.6c6.827 6.827 13.653 6.827 20.48 0v0c3.413-3.413 3.413-6.827 3.413-10.24s0-6.827-3.413-10.24l-409.6-409.6c-3.413-3.413-6.827-3.413-10.24-3.413zM1008.299 649.557v0l-409.6-413.013v-3.413l409.6 409.6c3.413 3.413 3.413 3.413 0 6.827 3.413-3.413 3.413-3.413 0 0v0c3.413 0 3.413 0 0 0zM1015.296 589.687c-3.413 3.413-6.827 3.413-10.24 0v0l-409.6-409.6c-3.413-3.413-3.413-6.827 0-10.24v0c3.413-3.413 6.827-3.413 10.24 0v0l409.6 409.6c3.413 0 3.413 6.827 0 10.24v0zM598.869 159.607c-3.413 0-6.827 0-10.24 3.413-3.413 0-3.413 3.413-3.413 10.24 0 3.413 0 6.827 3.413 10.24l409.6 409.6c6.827 6.827 13.653 6.827 20.48 0v0c6.827-6.827 6.827-13.653 0-20.48l-413.013-409.6c0-3.413-3.413-3.413-6.827-3.413zM1008.469 586.274v0l-409.6-413.013v-3.413l409.6 409.6c3.413 3.413 3.413 3.413 0 6.827 3.413-3.413 3.413-3.413 0 0 3.413 0 3.413 0 0 0zM1009.732 653.585c-3.413 0-6.827-3.413-6.827-6.827v-64.853c0-3.413 3.413-6.827 6.827-6.827s6.827 3.413 6.827 6.827v0 64.853c0 3.413-3.413 6.827-6.827 6.827zM1009.732 568.252c-6.827 0-13.653 6.827-13.653 13.653v0 64.853c0 6.827 6.827 13.653 13.653 13.653s13.653-6.827 13.653-13.653v-64.853c0-6.827-6.827-13.653-13.653-13.653v0zM1009.732 646.758c0 0-3.413 0 0 0v0l-3.413-64.853c0 0 0-3.413 3.413-3.413v0c0 0 3.413 0 3.413 3.413v0l-3.413 64.853c3.413 0 0 0 0 0v0zM524.663 305.254c-3.413 3.413-6.827 3.413-10.24 0v0l-64.853-64.853c-3.413-3.413-3.413-6.827 0-10.24v0c3.413-3.413 6.827-3.413 10.24 0v0l64.853 64.853c3.413 0 3.413 6.827 0 10.24zM456.397 219.921c-3.413 0-6.827 0-10.24 3.413s-3.413 6.827-3.413 10.24 0 10.24 3.413 10.24l64.853 64.853c3.413 3.413 13.653 3.413 17.067 0v0c6.827-6.827 6.827-13.653 0-20.48l-61.44-61.44c-3.413-3.413-6.827-6.827-10.24-6.827zM521.25 301.841c-3.413 0-3.413 0 0 0l-64.853-64.853v-3.413h3.413l61.44 68.267c0-3.413 0-3.413 0 0 0-3.413 0-3.413 0 0v0 0 0zM651.605 352.563c-3.413 3.413-6.827 3.413-10.24 0v0l-112.64-112.64c-3.413-3.413-3.413-6.827 0-10.24v0c3.413-3.413 6.827-3.413 10.24 0v0l109.227 109.227c6.827 3.413 6.827 10.24 3.413 13.653v0zM535.552 222.857c-3.413 0-6.827 0-10.24 3.413s-3.413 6.827-3.413 10.24 0 6.827 3.413 10.24l109.227 109.227c3.413 3.413 6.827 3.413 10.24 3.413s6.827 0 10.24-3.413c3.413-3.413 3.413-6.827 3.413-10.24s0-6.827-3.413-10.24l-109.227-109.227c-3.413-3.413-6.827-3.413-10.24-3.413zM644.779 349.15v0l-109.227-112.64v-3.413h3.413l105.813 116.053c3.413-3.413 3.413-3.413 0 0 3.413-3.413 3.413-3.413 0 0v0c3.413 0 3.413 0 0 0v0zM855.006 652.629c-3.413 3.413-6.827 3.413-10.24 0v0l-68.267-68.267 10.24-10.24 68.267 68.267c3.413 0 3.413 6.827 0 10.24 3.413 0 3.413 0 0 0zM790.153 563.883l-20.48 20.48 71.68 71.68c6.827 3.413 13.653 3.413 20.48 0 3.413-3.413 3.413-6.827 3.413-10.24s0-6.827-3.413-10.24l-71.68-71.68zM786.739 584.363v0l64.853 61.44h-3.413l-61.44-61.44zM668.365 748.169c-3.413 3.413-6.827 3.413-10.24 0v0l-81.92-81.92c-3.413-3.413-3.413-6.827 0-10.24v0c3.413-3.413 10.24-3.413 13.653 0v0l78.507 78.507c3.413 3.413 3.413 10.24 0 13.653v0zM583.031 649.182c-3.413 0-6.827 0-10.24 3.413-3.413 6.827-3.413 13.653 0 20.48l78.507 78.507c6.827 3.413 13.653 3.413 20.48 0v0c6.827-6.827 6.827-13.653 0-20.48l-78.507-78.507c-3.413-3.413-6.827-3.413-10.24-3.413zM661.538 744.755c0 0 0-3.413 0 0l-78.507-81.92v-3.413h3.413l75.093 85.333c3.413-3.413 3.413-3.413 0 0 3.413-3.413 3.413-3.413 0 0 0-3.413 0 0 0 0zM746.871 747.964c-3.413 3.413-6.827 3.413-10.24 0v0l-160.427-160.427c-3.413-3.413-3.413-6.827 0-10.24v0c3.413-3.413 6.827-3.413 10.24 0v0l157.013 157.013c6.827 3.413 6.827 10.24 3.413 13.653v0zM583.031 570.47c-3.413 0-6.827 0-10.24 3.413s-3.413 6.827-3.413 10.24 0 6.827 3.413 10.24l157.013 157.013c3.413 3.413 6.827 3.413 10.24 3.413s6.827 0 10.24-3.413v0c6.827-6.827 6.827-13.653 0-20.48l-157.013-157.013c-3.413-3.413-6.827-3.413-10.24-3.413zM740.045 744.55v0l-157.013-160.427v-3.413l157.013 163.84c3.413-3.413 3.413-3.413 0 0 3.413-3.413 3.413-3.413 0 0 3.413 0 0 0 0 0z" />
<glyph unicode="&#xe934;" glyph-name="shading-tree" data-tags="shading-tree" d="M180.907 38.4v225.28l-13.653 3.413c-95.573 20.48-167.253 105.813-167.253 201.387 0 78.507 98.987 252.587 184.32 375.467 3.413 6.827 13.653 10.24 23.893 10.24s17.067-3.413 23.893-10.24c85.333-122.88 184.32-296.96 184.32-375.467 0-98.987-68.267-184.32-167.253-201.387l-13.653-3.413v-225.28h-54.613zM235.52 454.827v-136.533l23.893 6.827c61.44 20.48 102.4 78.507 102.4 143.36 0 68.267-105.813 238.933-136.533 290.133l-13.653 23.893-13.653-23.893c-30.72-51.2-136.533-221.867-136.533-290.133 0-64.853 40.96-122.88 102.4-143.36l23.893-6.827v136.533l-58.027 30.72 23.893 47.787 34.133-17.067v119.467h54.613v-119.467l34.133 17.067 23.893-47.787-64.853-30.72zM470.52 575.531l38.617 38.617 514.090-514.090-38.617-38.617-514.090 514.090zM471.342 350.629l38.289 38.945 294.52-289.564-38.289-38.945-294.52 289.564zM380.391 210.603l37.427 39.775 164.071-154.384-37.427-39.775-164.071 154.384z" />
<glyph unicode="&#xe935;" glyph-name="noforest" data-tags="noforest" d="M933.978 431.121c0 50.637-22.505 101.275-56.264 140.659 16.879 56.264 5.626 112.527-33.758 151.912 16.879 61.89-16.879 123.78-78.769 140.659s-123.78-16.879-140.659-78.769c-5.626-22.505-5.626-39.385 0-61.89-39.385-39.385-56.264-101.275-39.385-151.912-16.879-16.879-33.758-39.385-39.385-61.89-22.505 16.879-45.011 16.879-67.516 0-5.626 22.505-22.505 45.011-39.385 61.89 16.879 56.264 5.626 112.527-33.758 151.912 16.879 61.89-22.505 123.78-78.769 140.659s-123.78-16.879-140.659-78.769c-5.626-22.505-5.626-39.385 0-61.89-39.385-39.385-56.264-101.275-39.385-151.912-78.769-84.396-73.143-208.176 5.626-286.945 33.758-28.132 73.143-50.637 118.154-56.264v-180.044c0-11.253 11.253-22.505 22.505-22.505s22.505 11.253 22.505 22.505v0 180.044c5.626 0 11.253 0 16.879 0 0-5.626 0-11.253 0-22.505 0-45.011 16.879-95.648 45.011-129.407 33.758-39.385 84.396-56.264 135.033-56.264s95.648 22.505 129.407 56.264c33.758 39.385 50.637 90.022 50.637 146.286 0 0 0 0 0 0 5.626 0 11.253 0 11.253 0v-180.044c0-11.253 11.253-22.505 22.505-22.505s22.505 11.253 22.505 22.505v185.67c106.901 11.253 185.67 101.275 185.67 202.549zM315.077 279.209v56.264l56.264 39.385c11.253 11.253 11.253 22.505 0 33.758-5.626 16.879-16.879 16.879-28.132 11.253l-22.505-22.505v247.56c0 11.253-11.253 22.505-22.505 22.505-16.879 5.626-28.132-5.626-28.132-22.505v-163.165l-28.132 16.879c-11.253 11.253-28.132 11.253-33.758 0-11.253-11.253-5.626-28.132 0-33.758 0 0 0 0 0 0l56.264-39.385v-140.659c-78.769 5.626-135.033 84.396-123.78 168.791 5.626 33.758 22.505 67.516 50.637 90.022 11.253 11.253 11.253 22.505 5.626 28.132-16.879 45.011-5.626 95.648 33.758 129.407 11.253 5.626 11.253 16.879 5.626 28.132-5.626 5.626-5.626 16.879-5.626 28.132 0 33.758 28.132 61.89 67.516 61.89 33.758 0 61.89-28.132 61.89-61.89 0-11.253 0-16.879-5.626-28.132s0-22.505 5.626-28.132c33.758-33.758 45.011-84.396 28.132-129.407-5.626-5.626-5.626-16.879 5.626-28.132 33.758-28.132 50.637-73.143 50.637-118.154 0-5.626 0-11.253 5.626-11.253-5.626-11.253-16.879-28.132-28.132-33.758-28.132-28.132-56.264-56.264-73.143-90.022-11.253-5.626-16.879-11.253-33.758-11.253v0zM472.615 121.67c5.626 28.132 16.879 50.637 39.385 61.89 22.505-16.879 39.385-39.385 39.385-61.89s-16.879-45.011-39.385-45.011c-22.505 0-45.011 22.505-39.385 45.011v0zM607.648 116.044c0 0-5.626 0 0 0-5.626 0-5.626 0 0 0-5.626 39.385-16.879 67.516-45.011 90.022-11.253 11.253-22.505 22.505-39.385 28.132-5.626 5.626-16.879 5.626-22.505 0-11.253-11.253-28.132-16.879-39.385-28.132-22.505-22.505-39.385-50.637-39.385-84.396 0-5.626 0-11.253 0-16.879-5.626 0-5.626 5.626-5.626 5.626-22.505 28.132-39.385 61.89-33.758 101.275 0 16.879 5.626 33.758 11.253 45.011 0 0 0 0 0 0 16.879 33.758 39.385 61.89 67.516 84.396 33.758 33.758 56.264 78.769 56.264 129.407 28.132-22.505 50.637-50.637 67.516-78.769 39.385-45.011 61.89-101.275 61.89-163.165 0-39.385-16.879-78.769-39.385-112.527v0zM753.934 279.209v56.264l56.264 39.385c11.253 11.253 11.253 22.505 0 33.758-5.626 11.253-22.505 11.253-33.758 5.626l-22.505-16.879v247.56c0 11.253-11.253 22.505-22.505 22.505s-22.505-11.253-22.505-22.505v-163.165l-28.132 22.505c-11.253 11.253-28.132 5.626-33.758 0-11.253-11.253-5.626-28.132 0-33.758 0 0 0 0 0 0l56.264-39.385v-140.659c-5.626 0-11.253 0-16.879 5.626-11.253 50.637-33.758 95.648-67.516 140.659-11.253 16.879-22.505 33.758-39.385 45.011 5.626 28.132 22.505 56.264 45.011 78.769 5.626 5.626 11.253 16.879 5.626 28.132-22.505 45.011-5.626 95.648 28.132 123.78 16.879-5.626 22.505 5.626 16.879 16.879s-5.626 16.879-5.626 28.132c0 33.758 28.132 67.516 61.89 67.516s67.516-28.132 67.516-61.89c0 0 0 0 0-5.626 0-11.253 0-16.879-5.626-28.132s0-22.505 5.626-28.132c39.385-28.132 50.637-78.769 28.132-123.78-5.626-11.253 0-22.505 5.626-28.132 61.89-56.264 73.143-151.912 16.879-213.802-28.132-33.758-56.264-50.637-95.648-56.264v0zM-1.298-25.616l982.667 982.667 39.784-39.784-982.667-982.667-39.784 39.784z" />
</font>
</defs>
</svg>
