<?xml version="1.0" encoding="utf-8"?>
<!-- Generator: Adobe Illustrator 21.1.0, SVG Export Plug-In . SVG Version: 6.00 Build 0)  -->
<svg version="1.1" id="Layer_1" xmlns="http://www.w3.org/2000/svg" xmlns:xlink="http://www.w3.org/1999/xlink" x="0px" y="0px"
	 viewBox="0 0 33 33" style="enable-background:new 0 0 33 33;" xml:space="preserve">
<path id="ico_tourisme" d="M32.1,0.9c-1.2-1.2-3.3-1.2-4.5,0c0,0,0,0,0,0l-6.8,7L4.3,2.6L0.8,6l13.8,8.5l-7,7.3L3.1,21L0,24.1
	l6.6,2.3L8.9,33l3.1-3.1l-0.7-4.5l7.3-7L27,32.2l3.5-3.5L25,12.2l7-6.8C33.3,4.3,33.3,2.2,32.1,0.9C32.1,1,32.1,0.9,32.1,0.9z"/>
</svg>
