<?xml version="1.0" encoding="utf-8"?>
<!-- Generator: Adobe Illustrator 21.1.0, SVG Export Plug-In . SVG Version: 6.00 Build 0)  -->
<svg version="1.1" id="Layer_1" xmlns="http://www.w3.org/2000/svg" xmlns:xlink="http://www.w3.org/1999/xlink" x="0px" y="0px"
	 viewBox="0 0 13.1 15" style="enable-background:new 0 0 13.1 15;" xml:space="preserve">
<path id="Tracé_4235" d="M12.7,6.4c-0.4-1.2-1.3-2.1-2.5-2.5l0,0C9.1,3.6,7.8,3.8,6.9,4.5C6.8,4.2,6.6,3.8,6.4,3.4
	C7.7,3.3,8.7,2,8.6,0.7c0-0.1,0-0.3-0.1-0.4c0-0.1-0.1-0.2-0.3-0.3C7-0.3,5.6,0.5,5.3,1.8c0,0.1-0.1,0.2-0.1,0.4
	C4.6,1.8,4,1.6,3.3,1.6C3.1,1.6,2.9,1.8,2.9,2s0.2,0.4,0.4,0.4c1.3,0,2.4,0.8,2.8,2C5.1,3.8,4,3.6,2.9,3.9C1.7,4.3,0.7,5.2,0.4,6.4
	c-0.5,1.4-0.5,2.8,0,4.2c0.4,1.4,1.2,2.6,2.3,3.5c1,0.8,2.3,1.1,3.5,0.7c0.1,0,0.3-0.1,0.4-0.1c0.1,0.1,0.3,0.1,0.4,0.2
	C7.3,15,7.6,15,8,15c0.9,0,1.8-0.3,2.5-0.9c1.1-0.9,2-2.1,2.3-3.5C13.2,9.3,13.2,7.8,12.7,6.4z M6,2.7c-0.2-1,0.5-1.8,1.4-1.9
	c0.1,0,0.3,0,0.4,0C8,1.7,7.3,2.6,6.4,2.7C6.3,2.7,6.1,2.7,6,2.7z M12.1,10.4c-0.3,1.2-1.1,2.3-2.1,3.1c-0.8,0.7-1.8,0.9-2.8,0.6
	c-0.2,0-0.3-0.1-0.5-0.2c-0.1-0.1-0.2-0.1-0.3,0C6.3,14,6.1,14,6,14.1c-2,0.6-4.2-1.1-5-3.7s0.1-5.2,2.1-5.8
	c1.2-0.3,2.4,0.1,3.2,0.9l0,0c0.1,0.1,0.4,0.1,0.5,0c0.8-0.8,2-1.2,3.2-0.9l0,0C11.9,5.2,12.9,7.8,12.1,10.4L12.1,10.4z"/>
<path id="Tracé_4236" d="M3.7,5.4C3.6,5.2,3.4,5.1,3.2,5.1c-0.9,0.3-1.6,1.1-1.8,2c-0.3,1.1-0.3,2.2,0,3.2c0.1,0.2,0.3,0.3,0.5,0.2
	c0.2,0,0.3-0.2,0.3-0.4c-0.3-0.9-0.3-1.9,0-2.8c0.1-0.7,0.6-1.2,1.2-1.5C3.6,5.8,3.7,5.6,3.7,5.4L3.7,5.4z"/>
</svg>
