<?xml version="1.0" encoding="utf-8"?>
<!-- Generator: Adobe Illustrator 21.1.0, SVG Export Plug-In . SVG Version: 6.00 Build 0)  -->
<svg version="1.1" id="Layer_1" xmlns="http://www.w3.org/2000/svg" xmlns:xlink="http://www.w3.org/1999/xlink" x="0px" y="0px"
	 viewBox="0 0 32.2 35" style="enable-background:new 0 0 32.2 35;" xml:space="preserve">
<path id="ico_alimentation" d="M16.1,12.8L16.1,12.8C16.1,12.9,16.1,12.8,16.1,12.8C16.1,12.8,16.1,12.8,16.1,12.8z M3.8,17.2
	c-0.3,0-0.6-0.3-0.6-0.6c0,0,0,0,0,0c0-4.2,5.2-5.5,5.4-5.6c0.3-0.1,0.7,0.2,0.7,0.5c0.1,0.3-0.1,0.6-0.4,0.7c0,0-4.5,1.2-4.5,4.4
	C4.4,16.9,4.1,17.2,3.8,17.2z M15.6,8.3C15.6,8.3,15.6,8.3,15.6,8.3C15.6,8.3,15.5,8.3,15.6,8.3C15.5,8.3,15.5,8.3,15.6,8.3z
	 M16.7,8.4c0,0,0-0.1,0-0.1L16.7,8.4C16.7,8.3,16.7,8.3,16.7,8.4z M16.8,8.5v0.1c0,0,0,0,0,0.1C16.8,8.6,16.8,8.5,16.8,8.5z
	 M15.5,8.7C15.5,8.6,15.5,8.6,15.5,8.7l0-0.2C15.5,8.5,15.5,8.6,15.5,8.7L15.5,8.7z M15.6,8.3C15.6,8.3,15.6,8.3,15.6,8.3
	C15.6,8.3,15.5,8.3,15.6,8.3C15.5,8.3,15.5,8.3,15.6,8.3z M16.3,9.1C16.4,9.1,16.4,9.1,16.3,9.1C16.4,9.1,16.4,9.1,16.3,9.1
	C16.3,9.1,16.3,9.1,16.3,9.1L16.3,9.1z M16.7,8.4c0,0,0-0.1,0-0.1L16.7,8.4C16.7,8.3,16.7,8.3,16.7,8.4L16.7,8.4z M31.3,13.8
	c-0.4-1.1-1.1-2.1-1.9-2.9c-0.8-0.8-1.7-1.4-2.7-1.8c-3.1-1.2-6.8-0.3-9.9,2.3V8.6c0,0,0,0,0,0.1c0-0.1,0-0.1,0-0.2v0.1
	c0.6-1.4,1.7-2.6,3.1-3.2c0.4,0.6,1.1,1,1.8,1.2c0.3,0.1,0.6,0.1,0.9,0.1c0.6,0,1.2-0.2,1.7-0.4c1.4-0.8,5.7-3.9,5.9-4
	c0.3-0.2,0.3-0.6,0.1-0.9c-0.1-0.1-0.2-0.2-0.4-0.2c-1.7-0.4-7.6-1.8-9-0.9c-1.4,0.8-2.1,2.5-1.6,4c-1.3,0.7-2.4,1.6-3.2,2.8
	c-0.9-1.4-2.2-2.4-3.7-3.1c0.3-1.5-0.4-3-1.7-3.7c-1.5-0.8-7.3,0.5-9,0.9C1.5,1.3,1.3,1.5,1.2,1.7c0,0.2,0.1,0.5,0.2,0.6
	c0.2,0.1,4.5,3.2,5.9,4C7.9,6.6,8.5,6.7,9,6.7c0.3,0,0.6,0,0.9-0.1c0.8-0.2,1.5-0.8,2-1.5c1.6,0.7,2.9,1.9,3.6,3.5V8.5
	c0,0.1,0,0.1,0,0.2c0,0,0,0,0-0.1v2.8C12.4,8.7,8.6,7.8,5.5,9C3.4,9.9,1.8,11.6,1,13.8c-1.4,3.8-1.2,8,0.4,11.8
	C3.8,31.3,8.6,35,13.2,35c1,0,2-0.2,2.9-0.5c0,0,0.1,0,0.1,0c0,0,0.1,0,0.1,0c5.2,2.1,11.7-2,14.6-8.9
	C32.5,21.8,32.7,17.6,31.3,13.8L31.3,13.8z M21.5,1.4c0.3-0.1,0.6-0.1,0.8-0.1c2,0.1,4,0.4,5.9,0.9c-1.4,1-3.8,2.6-4.6,3.1
	c-0.5,0.3-1.1,0.4-1.7,0.2c-0.4-0.1-0.7-0.3-1-0.6c0.7-0.3,1.4-0.5,2.1-0.7c0.3-0.1,0.6-0.4,0.5-0.7c-0.1-0.3-0.4-0.6-0.7-0.5l0,0
	c-0.8,0.2-1.6,0.5-2.4,0.8C20.2,2.8,20.7,1.8,21.5,1.4L21.5,1.4z M11.2,3.5c-0.6-0.2-1.2-0.4-1.8-0.5C9.1,2.8,8.8,3.1,8.7,3.4
	C8.7,3.7,8.9,4.1,9.2,4.1l0,0c0.5,0.1,1.1,0.3,1.6,0.5C10.5,5,10.1,5.3,9.6,5.4C9.1,5.6,8.5,5.5,8,5.2C7.1,4.7,4.7,3.1,3.3,2.1
	c1.9-0.5,3.9-0.8,5.9-0.9c0.3,0,0.6,0,0.8,0.1C10.8,1.8,11.3,2.6,11.2,3.5L11.2,3.5z M16.7,8.3C16.7,8.3,16.7,8.3,16.7,8.3
	C16.7,8.3,16.7,8.3,16.7,8.3L16.7,8.3z M16.1,12.8C16.1,12.9,16.1,12.9,16.1,12.8L16.1,12.8C16.1,12.8,16.1,12.8,16.1,12.8
	L16.1,12.8z M29.7,25c-2.6,6.4-8.5,10.1-13,8.3c0,0-0.1,0-0.1-0.1c-0.1,0-0.1-0.1-0.2-0.1c-0.2-0.1-0.3-0.1-0.5,0
	c-0.1,0-0.1,0-0.1,0.1s-0.1,0-0.1,0.1C11,35.1,5.2,31.4,2.5,25C1,21.6,0.8,17.8,2.1,14.2c0.7-1.8,2.1-3.3,3.9-4
	c0.8-0.3,1.6-0.5,2.4-0.5c2.8,0.2,5.4,1.4,7.3,3.6c0.2,0.2,0.6,0.2,0.9,0c3-3.1,6.7-4.3,9.7-3.1c1.8,0.8,3.2,2.2,3.9,4
	C31.4,17.8,31.2,21.6,29.7,25z M15.6,8.3C15.6,8.3,15.6,8.3,15.6,8.3C15.6,8.3,15.5,8.3,15.6,8.3C15.5,8.3,15.5,8.3,15.6,8.3z
	 M16.7,8.4c0,0,0-0.1,0-0.1L16.7,8.4C16.7,8.3,16.7,8.3,16.7,8.4z M16.8,8.5v0.1c0,0,0,0,0,0.1C16.8,8.6,16.8,8.5,16.8,8.5z
	 M15.5,8.7C15.5,8.6,15.5,8.6,15.5,8.7l0-0.2C15.5,8.5,15.5,8.6,15.5,8.7L15.5,8.7z M15.6,8.3C15.6,8.3,15.6,8.3,15.6,8.3
	C15.6,8.3,15.5,8.3,15.6,8.3C15.5,8.3,15.5,8.3,15.6,8.3z M16.3,9.1C16.4,9.1,16.4,9.1,16.3,9.1C16.4,9.1,16.4,9.1,16.3,9.1
	C16.3,9.1,16.3,9.1,16.3,9.1L16.3,9.1z M16.7,8.4c0,0,0-0.1,0-0.1L16.7,8.4C16.7,8.3,16.7,8.3,16.7,8.4L16.7,8.4z M15.5,8.7
	C15.5,8.6,15.5,8.6,15.5,8.7l0-0.2C15.5,8.5,15.5,8.6,15.5,8.7z M16.3,9.1C16.3,9.1,16.3,9.1,16.3,9.1C16.4,9.1,16.4,9.1,16.3,9.1
	C16.4,9.1,16.4,9.1,16.3,9.1L16.3,9.1z M16.8,8.5v0.1c0,0,0,0,0,0.1C16.8,8.6,16.8,8.5,16.8,8.5L16.8,8.5z"/>
</svg>
