<?xml version="1.0" encoding="utf-8"?>
<!-- Generator: Adobe Illustrator 21.1.0, SVG Export Plug-In . SVG Version: 6.00 Build 0)  -->
<svg version="1.1" id="Layer_1" xmlns="http://www.w3.org/2000/svg" xmlns:xlink="http://www.w3.org/1999/xlink" x="0px" y="0px"
	 viewBox="0 0 96 24" style="enable-background:new 0 0 96 24;" xml:space="preserve">
<path id="fleche2" d="M95.1,0.6c-1.8-1.6-5.2,0.4-7.1,1c-1.7,0.5-3.4,1.2-5.2,1.7c-1,0.3-1.9,0.6-2.8,0.9c-0.3,0.1-0.6,0.2-1,0.3
	c-0.1,0-0.1,0-0.2,0c-0.2-0.2-0.5-0.3-0.8-0.3c-0.1,0-0.3,0-0.4-0.1c-0.6-0.1-1.1,0.2-1.5,0.6c-1.1,1.7-0.1,3.8,2.1,3.4
	c1.9-0.3,3.8-1.3,5.6-1.9c2.1-0.7,4-1.4,6.1-2.1c0.4-0.2,0.9-0.4,1.3-0.5c-3.1,3.3-6.8,6-10.9,7.9c-1.4,0.6-0.6,2.9,0.9,2.2
	C86,11.6,90,8.5,93.1,4.5l0,0.1c0.1,1.8,0.1,3.6,0.2,5.4c0,2,0,4.1-0.1,6.1c0,0.9-0.2,1.6,0.6,2.3c0.3,0.2,0.6,0.2,0.9,0
	c0.3-0.2,0.5-0.6,0.4-0.9c0-0.2-0.2-0.4-0.3-0.5c0.1-1.4,0.3-2.8,0.6-4.2c0.1-1.5,0.3-3,0.3-4.5C95.8,6.4,96.7,2.1,95.1,0.6z
	 M74.7,16.6c-2.4,1.1-4.8,2.1-7.3,2.9c-2,0.6-4.4,1.4-6.5,1.2c-0.3-0.1-0.6-0.3-0.7-0.6c-0.2-0.5,0-1.1,0.5-1.3
	c1.9-0.8,4.2-0.9,6.2-1.3c2.5-0.6,4.9-1.3,7.3-2.3c0.4-0.1,0.7,0.1,0.9,0.4C75.3,16.1,75.1,16.5,74.7,16.6L74.7,16.6z M55,22
	c-5.5,1.8-11.2,2.4-16.9,1.8c-0.6-0.1-1-0.7-0.9-1.3c0.1-0.6,0.7-1.1,1.3-1c5.4,0.6,10.9,0.3,16.3-0.8c0.3,0,0.5,0.1,0.6,0.4
	C55.5,21.5,55.3,21.8,55,22C55,22,55,22,55,22z M30.5,21c-2.4-0.2-4.8-0.8-7-1.7c-1.5-0.5-3.9-0.9-4.4-2.7c-0.2-0.6,0-1.2,0.4-1.6
	c0.1,0,0.1-0.1,0.2-0.2c0.1-0.1,0.2-0.1,0.3-0.2c0.6-0.2,1.2,0.1,1.4,0.7c0,0,0,0,0,0c0.5,1.4,3.3,2,4.6,2.6
	c1.7,0.6,3.4,1.3,4.9,2.2C31.5,20.4,30.9,21,30.5,21L30.5,21z M11.1,13L4.5,8C3.1,6.9,0.7,5.7,0.1,3.9c-0.2-0.6,0-1.3,0.5-1.7L0.9,2
	C0.9,2,1,1.9,1.1,1.9c0.6-0.3,1.4,0,1.7,0.7c0.7,1.6,3.2,3.1,4.5,4.4c1.7,1.5,3.4,3.1,5,4.7c0.4,0.3,0.4,0.9,0.1,1.3
	C12.1,13.3,11.5,13.3,11.1,13C11.1,13,11.1,13,11.1,13L11.1,13z"/>
</svg>
