<?xml version="1.0" encoding="utf-8"?>
<!-- Generator: Adobe Illustrator 21.1.0, SVG Export Plug-In . SVG Version: 6.00 Build 0)  -->
<svg version="1.1" id="Layer_1" xmlns="http://www.w3.org/2000/svg" xmlns:xlink="http://www.w3.org/1999/xlink" x="0px" y="0px"
	 viewBox="0 0 14.1 7.8" style="enable-background:new 0 0 14.1 7.8;" xml:space="preserve">
<g id="fleche_sous_menu" transform="translate(-10.5 21.701) rotate(-90)">
	<path id="Tracé_145" d="M14.4,10.9c0.6-0.5,1.4-0.5,2,0c0,0,0,0,0,0l4.5,4.6c1.1,1.1,1.1,2.9,0,3.9l-4.5,4.6
		c-0.5,0.6-1.4,0.6-2,0.1c-0.6-0.5-0.6-1.4-0.1-2c0,0,0.1-0.1,0.1-0.1l4.5-4.6l-4.5-4.6C13.9,12.3,13.9,11.4,14.4,10.9
		C14.4,10.9,14.4,10.9,14.4,10.9L14.4,10.9z"/>
</g>
</svg>
