<?xml version="1.0" encoding="utf-8"?>
<!-- Generator: Adobe Illustrator 21.1.0, SVG Export Plug-In . SVG Version: 6.00 Build 0)  -->
<svg version="1.1" id="Layer_1" xmlns="http://www.w3.org/2000/svg" xmlns:xlink="http://www.w3.org/1999/xlink" x="0px" y="0px"
	 viewBox="0 0 36.7 40" style="enable-background:new 0 0 36.7 40;" xml:space="preserve">
<path id="ico_audace" d="M32.9,17.2c0-0.6-0.5-1-1-1l-13.5,0l5.1-14.7c0.1-0.4,0-0.9-0.3-1.2c-0.4-0.4-1.1-0.3-1.4,0.1
	c-2,2.4-4,4.8-5.9,7.2L3.9,22.2c-0.1,0.2-0.2,0.4-0.2,0.6c0,0.5,0.4,1,1,1h0l13.5,0l-5.1,14.7c-0.1,0.4,0,0.9,0.3,1.2
	c0.4,0.4,1.1,0.3,1.4-0.1c2.1-2.5,4.1-4.9,6-7.3c4-4.8,8-9.7,11.8-14.6C32.8,17.6,32.9,17.4,32.9,17.2z M19.3,31
	c-0.8,0.9-1.6,1.9-2.4,2.8l3.7-10.6c0.2-0.5-0.1-1.1-0.6-1.3l0,0c-0.1,0-0.3-0.1-0.4,0l-12.8,0c3.5-4.3,7-8.6,10.6-12.9l2.2-2.8
	L16,16.7c-0.2,0.5,0.1,1.1,0.6,1.3c0,0,0,0,0,0l0,0c0.1,0,0.3,0.1,0.4,0l12.8,0C26.4,22.5,22.9,26.7,19.3,31z M11,35.4
	c-0.3,0.5-0.9,0.7-1.4,0.4c0,0,0,0,0,0C0.7,31-2.6,19.9,2.2,11C2.7,10.1,3.3,9.2,4,8.3c2.6-3.3,6.2-5.5,10.2-6.4
	c0.6-0.1,1.1,0.3,1.2,0.8c0.1,0.5-0.2,1.1-0.8,1.2C5.9,5.9,0.4,14.6,2.5,23.4c1.1,4.5,4,8.4,8.1,10.6l0,0
	C11.1,34.3,11.3,34.9,11,35.4C11,35.4,11,35.4,11,35.4L11,35.4z M36.7,19.6c0,8.6-6,16-14.4,17.9c-0.6,0.1-1.1-0.3-1.2-0.8
	c-0.1-0.5,0.2-1,0.8-1.2c8.8-1.9,14.3-10.5,12.4-19.3c-1-4.6-3.9-8.6-8.1-10.8c-0.5-0.3-0.7-0.9-0.4-1.4s0.9-0.7,1.4-0.4l0,0
	c2.9,1.6,5.3,3.9,6.9,6.7C35.9,13.2,36.7,16.4,36.7,19.6L36.7,19.6z"/>
</svg>
