<?xml version="1.0" encoding="utf-8"?>
<!-- Generator: Adobe Illustrator 21.1.0, SVG Export Plug-In . SVG Version: 6.00 Build 0)  -->
<svg version="1.1" id="Layer_1" xmlns="http://www.w3.org/2000/svg" xmlns:xlink="http://www.w3.org/1999/xlink" x="0px" y="0px"
	 viewBox="0 0 34.9 35" style="enable-background:new 0 0 34.9 35;" xml:space="preserve">
<path id="ico_autonomisation" d="M34,25.8c-0.3-0.3-0.8-0.4-1.1-0.2c-2.4,1-4.8,2-7.1,3c-0.6,0.4-1.4,0.3-2-0.1
	c-0.6-0.3-1.1-0.6-1.7-0.9c0.2-0.2,0.3-0.4,0.5-0.7c0.6-0.8,0.9-1.8,0.9-2.8c0-0.7-0.2-0.9-0.9-0.9h-4.2v-2.9c0.1,0,0.2,0,0.3,0
	c1.3,0,2.5,0,3.8,0c0.2,0,0.4,0.1,0.5,0.1c1.5,0.9,3.4,0.7,4.7-0.6c1.4-1.4,2.8-2.8,4.2-4.2c1-1,1.4-2.4,0.9-3.7
	c-0.4-1.4-1.5-2.4-2.9-2.5c-1.2-0.2-2.4,0.2-3.2,1.1c-1.4,1.4-2.8,2.8-4.1,4.1c-0.2,0.2-0.4,0.4-0.5,0.6c-0.7,1-0.8,2.2-0.4,3.3
	c0,0.1,0.1,0.2,0.1,0.2c0,0,0,0.1,0,0.1h-3.2v-4.3c0.6-0.1,1.3-0.3,1.9-0.5c2.4-0.9,4.1-3,4.5-5.6c0.6-3.5-1.5-7-4.9-8.1
	c-0.5-0.2-1.1-0.3-1.6-0.4h-1.4c-0.7,0.1-1.3,0.3-1.9,0.5c-2.7,1-4.5,3.5-4.6,6.3c-0.3,3.8,2.4,7.2,6.2,7.7c0.1,0,0.3,0,0.3,0.3
	c0,1.4,0,2.7,0,4.1c0,0,0,0,0,0.1h-3.1c0.1-0.3,0.2-0.6,0.2-0.9c0.2-1.2-0.2-2.5-1.1-3.3c-1.4-1.4-2.7-2.8-4.1-4.1
	c-1.4-1.5-3.8-1.5-5.3,0c-0.8,0.7-1.2,1.8-1.1,2.8c0,0.9,0.4,1.7,0.9,2.3c1.5,1.5,3,3,4.5,4.5c1.2,1.1,2.9,1.3,4.3,0.5
	c0.3-0.2,0.6-0.2,0.9-0.2c1.2,0,2.3,0,3.5,0h0.4v2.9c-0.5,0-1,0-1.6,0c-0.1,0-0.1,0-0.2-0.1c-0.5-0.6-1.3-1-2.1-1.1
	c-2.1-0.4-4.2-0.4-6.3,0.2c0,0-0.1,0-0.1,0c0-0.1,0-0.2,0-0.3c0.1-0.4-0.3-0.8-0.7-0.9c-0.1,0-0.1,0-0.2,0c-0.4,0-0.9,0-1.3,0v-2.9
	H2.9v2.9c-0.2,0-0.3,0-0.4,0c-0.6,0-1.1,0-1.7,0c-0.4-0.1-0.8,0.2-0.9,0.7c0,0.1,0,0.1,0,0.2c0,4,0,8.1,0,12.1
	c0,0.4,0.2,0.7,0.5,0.9h24.3c2.8-1.4,5.6-2.8,8.4-4.2c0.8-0.4,1.4-1.1,1.7-2c0-0.1,0-0.1,0.1-0.1v-1.3C34.7,26.8,34.4,26.3,34,25.8z
	 M23.3,15.8c1.4-1.4,2.8-2.8,4.2-4.2c0.9-0.9,2.3-0.9,3.2-0.1c0.9,0.8,0.9,2.2,0.1,3.1c-0.3,0.4-0.7,0.7-1.1,1.1
	c-1.1,1.1-2.1,2.1-3.2,3.2c-0.7,0.7-1.7,0.9-2.6,0.5l5.7-5.7l-1.1-1.1l-5.8,5.8h0C22.4,17.5,22.6,16.5,23.3,15.8z M12.2,18.2
	c0,0.1-0.1,0.1-0.1,0.2l-5.8-5.8l-1,1.1l5.8,5.7c-0.7,0.4-1.6,0.4-2.3-0.1c-0.1-0.1-0.3-0.2-0.4-0.3c-1.4-1.4-2.7-2.7-4.1-4.1
	c-0.9-0.8-1-2.3-0.1-3.2c0.2-0.2,0.4-0.4,0.6-0.5c0.8-0.4,1.8-0.3,2.4,0.3c0.8,0.7,1.6,1.5,2.3,2.3c0.7,0.7,1.3,1.3,2,2
	C12.3,16.4,12.6,17.4,12.2,18.2z M4.8,33.5c-1,0-2,0-3.1,0c-0.2,0-0.3-0.1-0.3-0.3V22.8c0,0,0-0.1,0-0.2h3.6v1.6c0,3,0,6,0,8.9
	C5.1,33.4,5.1,33.5,4.8,33.5z M11.7,7.3c0-3.2,2.6-5.8,5.9-5.8s5.8,2.6,5.8,5.9c0,3.2-2.6,5.8-5.8,5.8h0
	C14.3,13.1,11.7,10.5,11.7,7.3z M32.7,29.4c-2.7,1.4-5.4,2.7-8.1,4.1c-0.1,0.1-0.3,0.1-0.4,0.1H6.8c-0.1,0-0.2,0-0.3,0l0,0
	c0-0.4,0-0.8,0-1.1c0-2.6,0-5.3,0-7.9c0-0.3,0.2-0.6,0.5-0.7c1.1-0.3,2.2-0.5,3.3-0.4c0.9,0,1.7,0.1,2.6,0.3c0.5,0,0.9,0.3,1.1,0.8
	c0.1,0.3,0.5,0.4,0.8,0.4h7c-0.1,1.1-0.8,2.1-1.8,2.5c-0.5,0.2-1,0.3-1.5,0.3c-1.4,0-2.8,0-4.2,0h-0.4v1.5h4.2
	c0.8,0,1.6-0.1,2.3-0.4c0.2,0,0.3,0,0.5,0c1.1,0.5,2.1,1.1,3.2,1.6c0.3,0.2,0.7,0.2,1.1,0c2.6-1.1,5.1-2.2,7.7-3.3
	c0.3-0.1,0.4-0.1,0.5,0.2C33.7,28.1,33.4,29,32.7,29.4L32.7,29.4z M1.4,4.2L0.3,3.1c0,0,0.1-0.1,0.2-0.2c0.8-0.8,1.6-1.6,2.5-2.5
	C3.1,0.3,3.3,0.1,3.5,0h0.3C4,0.2,4.2,0.3,4.4,0.5c0.8,0.8,1.6,1.6,2.4,2.4C6.9,3,7,3.1,7.1,3.1L6,4.1L4.5,2.5l-0.1,0v3.2H2.9V2.5
	L1.4,4.2z M29,4.2L28,3.1c0.3-0.3,0.7-0.7,1-1c0.5-0.5,1-1.1,1.6-1.6C30.8,0.3,31,0.2,31.2,0h0.3c0.2,0.1,0.4,0.3,0.6,0.5
	c0.9,0.9,1.8,1.8,2.6,2.6l-1.1,1.1l-1.6-1.6v3.3h-1.4V2.5L29,4.2z M30.6,18.2h1.4v6.5h-1.4L30.6,18.2z M30.6,8.7V7.3h1.4v1.4
	L30.6,8.7z M2.9,7.3h1.4v1.4H2.9V7.3z M18.2,11.6h-1.4l0-0.7c-1.2,0-2.1-1-2.2-2.2H16c0.2,0.6,0.4,0.7,1,0.7c0.5,0,0.9,0,1.4,0
	c0.3,0,0.5-0.2,0.5-0.5c0.1-0.3,0-0.5-0.2-0.7c-0.2-0.1-0.4-0.2-0.6-0.2c-0.5,0-1,0-1.6-0.1c-1.2-0.1-2.1-1.1-2-2.3
	c0.1-1,0.9-1.9,1.9-2c0.2,0,0.3-0.1,0.3-0.3c0-0.1,0-0.3,0-0.4h1.5l0,0.7c1.5,0.4,2.1,1,2.1,2.2H19c-0.1-0.6-0.5-0.7-1.1-0.7
	c-0.4,0-0.7,0-1.1,0c-0.4,0-0.7,0.3-0.8,0.6c0,0,0,0,0,0c0,0,0,0.1,0,0.1c0,0.4,0.3,0.7,0.7,0.7c0,0,0,0,0,0h0.1c0.5,0,1,0,1.4,0
	c0.9,0,1.7,0.6,2,1.5c0.3,0.9,0,1.9-0.8,2.4c-0.4,0.2-0.8,0.4-1.3,0.6L18.2,11.6z"/>
</svg>
