<?xml version="1.0" encoding="utf-8"?>
<!-- Generator: Adobe Illustrator 21.1.0, SVG Export Plug-In . SVG Version: 6.00 Build 0)  -->
<svg version="1.1" id="shop_126515" xmlns="http://www.w3.org/2000/svg" xmlns:xlink="http://www.w3.org/1999/xlink" x="0px"
	 y="0px" viewBox="0 0 11.4 14.2" style="enable-background:new 0 0 11.4 14.2;" xml:space="preserve">
<path id="Tracé_795" d="M11.4,12.3l-0.8-9.2c0-0.2-0.2-0.4-0.4-0.4H8.5C8.5,1.2,7.2,0,5.6,0C4.1,0,2.9,1.2,2.9,2.8H1.2
	C1,2.8,0.8,2.9,0.8,3.1L0,12.3c0,0,0,0,0,0c0.1,1.1,1,2,2.1,1.9h7.1C10.3,14.2,11.3,13.4,11.4,12.3C11.4,12.3,11.4,12.3,11.4,12.3z
	 M5.7,0.8c1.1,0,2,0.9,2,2h-4C3.7,1.7,4.6,0.8,5.7,0.8z M9.2,13.4H2.1c-0.7,0.1-1.3-0.4-1.3-1.1l0.8-8.8h1.3v1.2
	c0,0.2,0.2,0.4,0.4,0.4c0.2,0,0.4-0.2,0.4-0.4V3.5h4v1.2c0,0.2,0.2,0.4,0.4,0.4c0.2,0,0.4-0.2,0.4-0.4V3.5h1.3l0.8,8.8
	C10.5,13,9.9,13.5,9.2,13.4z"/>
</svg>
