<?xml version="1.0" encoding="utf-8"?>
<!-- Generator: Adobe Illustrator 21.1.0, SVG Export Plug-In . SVG Version: 6.00 Build 0)  -->
<svg version="1.1" id="Groupe_2402" xmlns="http://www.w3.org/2000/svg" xmlns:xlink="http://www.w3.org/1999/xlink" x="0px"
	 y="0px" viewBox="0 0 29.9 30" style="enable-background:new 0 0 29.9 30;" xml:space="preserve">
<path id="Tracé_5652" d="M29.8,5.5l-3.1-3.1c-0.2-0.2-0.4-0.2-0.6,0l-1.8,1.5V0.4c0-0.2-0.2-0.4-0.4-0.4H5.6C5.4,0,5.2,0.2,5.2,0.4
	l0,0v16.5l-4.6-2.3c-0.2-0.1-0.5,0-0.6,0.2c0,0.1,0,0.1,0,0.2v4.6c0,0.2,0.1,0.3,0.2,0.4l5,3.1v6.5c0,0.2,0.2,0.4,0.4,0.4l0,0h18.3
	c0.2,0,0.4-0.2,0.4-0.4v-18l1.4-1.4l0,0l4.1-4.1C30,5.9,30,5.7,29.8,5.5z M5.2,22l-4.3-2.7V17c1,1,2.9,2.6,4.3,2.8V22z M5.2,19
	C4,18.7,2,17,0.9,15.8v-0.1l4.3,2.2C5.2,17.9,5.2,19,5.2,19z M25,9.7L23.6,11c-0.1,0.1-0.1,0.2-0.1,0.3v17.8h-1.6v-7.8
	c0-0.2-0.2-0.4-0.5-0.4c-0.2,0-0.4,0.2-0.4,0.4v7.8h-2.4V18.3c1.3-1.3,2.2-2.9,2.6-4.7c0-0.2-0.2-0.5-0.4-0.5
	c-0.2,0-0.4,0.1-0.5,0.4c-0.3,2.2-2.5,4.3-2.5,4.3c-0.1,0.1-0.1,0.2-0.1,0.3v11h-2.3V20c0-0.2-0.2-0.5-0.4-0.5s-0.5,0.2-0.5,0.4l0,0
	V29h-2.2v-3.4c0-0.2-0.2-0.4-0.5-0.4c-0.2,0-0.4,0.2-0.4,0.4V29H9.3v-7.6c0-0.2-0.2-0.5-0.4-0.5s-0.5,0.2-0.5,0.4l0,0v7.6H6.1v-28h3
	v7.6c0,0.2,0.2,0.4,0.5,0.4c0.2,0,0.4-0.2,0.4-0.4V0.9h2.3v5.2c-0.2,0.8-1.9,9.3,2.6,11c0.2,0.1,0.5,0,0.6-0.2s0-0.5-0.2-0.6l0,0
	c-3.9-1.5-2.1-9.9-2-10V6.2V0.9h3V3c0,0.2,0.2,0.4,0.5,0.4c0,0,0.2-0.2,0.2-0.4V0.9h3.7v7.6c0,0.2,0.2,0.5,0.4,0.5s0.5-0.2,0.5-0.4
	l0,0V0.9h1.9v4c0,0.2,0.2,0.4,0.4,0.4c0.1,0,0.2,0,0.3-0.1l2.2-1.9C25.6,5.4,25.1,7.5,25,9.7z M26,8.7c0.2-1.6,0.6-3.2,1.1-4.7
	l1.8,1.8L26,8.7z"/>
</svg>
