<?xml version="1.0" encoding="utf-8"?>
<!-- Generator: Adobe Illustrator 21.1.0, SVG Export Plug-In . SVG Version: 6.00 Build 0)  -->
<svg version="1.1" id="Layer_1" xmlns="http://www.w3.org/2000/svg" xmlns:xlink="http://www.w3.org/1999/xlink" x="0px" y="0px"
	 viewBox="0 0 31 35" style="enable-background:new 0 0 31 35;" xml:space="preserve">
<path id="ico_stimulation" d="M18.8,32.9c0.1,0.9-0.5,1.8-1.4,2.1h-0.7c-0.3-0.2-0.6-0.3-0.9-0.5c-0.3-0.3-0.5-0.7-0.5-1.2v-8.7
	c0-0.1,0-0.1,0-0.2c0-0.1,0.1-0.1,0.2-0.1c1.1,0,2.2-0.3,3.1-0.9l0,0v0.4C18.8,26.8,18.8,29.9,18.8,32.9z M14.8,24.6
	c0-0.1,0-0.2,0-0.3c0,0,0,0,0-0.1c-1.2,0-2.3-0.3-3.3-0.9c0,0,0,0,0,0.1c0,0.1,0,0.1,0,0.2c0,3.2,0,6.5,0,9.7c0,0.8,0.6,1.5,1.4,1.7
	h0.6c0.9-0.2,1.5-1.1,1.4-2L14.8,24.6z M24.4,13.5c0.2-0.6,0.1-1.3-0.4-1.8L23.7,12c0.3,0.3,0.4,0.7,0.4,1.1c0,0.3-0.1,0.4-0.4,0.4
	c-0.5,0-1,0-1.5,0v4c-0.5-0.2-0.8-0.5-0.8-1.1c0-0.7,0-1.4-0.1-2.1c-0.1-1.3-0.6-2.5-1.3-3.6c-0.5-0.7-1.3-1.2-2.1-1.3
	c0,0.1,0,0.3,0,0.4c0,0.2,0,0.5,0,0.7c0,1,0,2.1,0,3.1c0.1,1.3,0.3,2.6,0.5,3.9c0.2,1.3,0.3,2.5,0.5,3.8h0.1v-7.6
	c0.1,0.1,0.1,0.2,0.1,0.3c0.1,0.8,0.2,1.7,0.2,2.5c0,0.8,0.3,1.5,0.9,2c0.4,0.3,0.9,0.6,1.3,0.9c0.3,0.2,0.7,0.3,1,0.4
	c1,0.4,1.4,0.2,1.9-0.8h0.8c0.6,0,0.8-0.2,0.8-0.8v-4.6c0-0.1,0-0.2,0-0.4L24.4,13.5z M11.4,21.3c0.5-3.9,1.4-7.7,1-11.7v0
	c-0.6,0-1.1,0.2-1.5,0.6c-0.6,0.6-1.1,1.2-1.4,2C9,13.5,8.8,15,8.9,16.5c0,0.6-0.3,0.8-0.7,1v-4H6.7c0.1-1,0-1.3-0.4-1.8L6,12h0.1
	c0.1,0.4,0.2,0.7,0.2,1.1c0,0.3-0.1,0.4-0.5,0.4c-0.5,0-1,0-1.5,0c0,1.8,0,3.5,0,5.2v0c0,0.3,0.2,0.5,0.5,0.5c0,0,0,0,0,0
	c0.3,0,0.6,0,0.9,0c0.1,0,0.2,0.1,0.3,0.2c0.2,0.6,0.7,0.9,1.3,0.7c1.1-0.3,2.1-0.8,2.9-1.6c0.5-0.5,0.8-1.2,0.8-1.9
	c0-0.5,0-0.9,0-1.4c0.1-0.5,0.2-1.1,0.2-1.6l0.1,0L11.4,21.3L11.4,21.3z M8,5.5C8.7,5.8,9.4,6,10.1,6.2c0.5,0.1,1.1,0.2,1.6,0.3
	c0-0.2-0.1-0.3-0.1-0.4c-0.2-0.7,0.2-1.3,0.9-1.5c0.1-0.1,0.3-0.1,0.4-0.2c0.9-0.3,1.8-0.4,2.8-0.2c0.6,0.1,1.3,0.3,1.9,0.5
	c0.5,0.2,0.8,0.7,0.7,1.3c0,0.2,0,0.3-0.1,0.6c1.2-0.1,2.4-0.4,3.6-0.8c0.2-0.1,0.4-0.2,0.6-0.4c0.3-0.2,0.4-0.6,0.2-0.9
	c-0.1-0.1-0.1-0.2-0.2-0.2c-0.3-0.2-0.6-0.4-0.9-0.5c-1.1-0.4-2.3-0.7-3.5-0.7c-0.2,0-0.3-0.1-0.4-0.3c-0.2-0.8-0.7-1.5-1.3-2
	c-0.8-0.7-2-0.7-2.8,0C13,1,12.6,1.8,12.4,2.6c0,0.2-0.2,0.3-0.4,0.3c-0.4,0-0.7,0.1-1,0.1c-1,0.1-2,0.4-2.9,0.8
	C7.7,4,7.3,4.2,7.3,4.7C7.3,5.2,7.7,5.4,8,5.5z M23.8,27.3l-0.3,0.3c0.3,0.3,0.4,0.7,0.4,1.2c-0.1,0.3-0.2,0.4-0.5,0.4
	c-0.5,0-1,0-1.4,0c0,0.1,0,0.1,0,0.2v4.9c0,0.5,0.2,0.7,0.7,0.7H25c0.5,0,0.7-0.2,0.7-0.7v-5h-1.5C24.5,28.4,24.3,27.7,23.8,27.3z
	 M29,29c0.1-1,0-1.3-0.2-1.7l-0.2,0.1c0,0.5,0.1,0.9,0.1,1.3c0,0.2-0.1,0.3-0.4,0.3c-0.5,0-1,0-1.5,0c0,0.1,0,0.2,0,0.2
	c0,1.6,0,3.2,0,4.8c0,0.5,0.2,0.7,0.7,0.7h2.3c0.6,0,0.8-0.2,0.8-0.8v-4.6c0-0.1,0-0.2,0-0.3L29,29z M18.1,6.3
	c-0.3,1.7-1.9,2.8-3.6,2.4c-1.4-0.3-2.4-1.4-2.5-2.8c0-0.4,0.2-0.8,0.5-0.9c0.7-0.3,1.4-0.5,2.1-0.5c0.2,0,0.3,0,0.5,0
	c0.7,0,1.4,0.2,2,0.3C18,5,18.2,5.4,18.1,6.3z M16.7,7.5c0.1-0.1,0.2-0.2,0.3-0.4h-3.8c0.1,0.2,0.3,0.4,0.6,0.6
	c0.1,0.1,0.1,0.1,0.2,0.2C14,7.9,14.1,8,14.2,8c0.1,0,0.2,0.1,0.3,0.1c0.1,0,0.1,0,0.2,0c0.2,0,0.3,0,0.5,0c0,0,0,0,0,0l0,0h0
	c0.1,0,0.3,0,0.4-0.1c0.1,0,0.2,0,0.2-0.1C15.9,8,16,8,16.1,8c0.1,0,0.2-0.1,0.2-0.1c0.1,0,0.1-0.1,0.2-0.1
	C16.6,7.6,16.6,7.6,16.7,7.5z M17,9.6L17,9.6l-3.8,0v3.9H17V9.6z M24.1,27.1C24.1,27.1,24.1,27.1,24.1,27.1c0.3,0.2,0.7,0.1,0.9-0.2
	c0,0,0,0,0,0c0.4-0.6,0.5-1.2,0.4-1.9c-0.6,0.2-1.2,0.6-1.5,1.2c0,0,0,0,0,0C23.7,26.5,23.8,26.9,24.1,27.1
	C24.1,27.1,24.1,27.1,24.1,27.1z M4.9,11.9C4.9,11.9,4.9,11.9,4.9,11.9c0.4,0.3,0.8,0.2,1-0.1s0.2-0.7-0.1-0.9c0,0,0,0-0.1,0
	c-0.5-0.4-1.1-0.6-1.8-0.5C4,10.9,4.4,11.5,4.9,11.9z M29.1,27.3c0.2,0.3,0.6,0.4,0.9,0.2c0.6-0.4,1-1,1.1-1.7
	c-0.7,0-1.4,0.2-1.9,0.6C29,26.7,28.9,27,29.1,27.3z M6.5,11.6c0.2,0.2,0.5,0.1,0.7-0.1c0.2-0.2,0.3-0.4,0.4-0.7
	c0.1-0.4,0.1-0.8,0.2-1.3L7.7,9.5C7.2,9.7,6.8,10,6.5,10.4c-0.1,0.2-0.2,0.4-0.3,0.6C6.1,11.2,6.2,11.5,6.5,11.6L6.5,11.6z
	 M27.6,27.3c0.2,0.1,0.6,0.1,0.8-0.1c0.2-0.2,0.3-0.5,0.1-0.7c-0.1-0.2-0.3-0.4-0.5-0.5c-0.4-0.3-1-0.4-1.5-0.4
	C26.6,26.3,27,26.9,27.6,27.3z M22.4,27.3c0.4,0.3,0.8,0.3,1,0s0.2-0.7-0.2-1c-0.5-0.3-1.1-0.5-1.7-0.5C21.6,26.4,22,26.9,22.4,27.3
	L22.4,27.3z M23.9,11.1c0,0.3,0.3,0.6,0.6,0.6c0.2,0,0.5-0.2,0.6-0.3c0.3-0.5,0.5-1.2,0.3-1.8c-0.7,0.3-1.3,0.6-1.5,1.4
	C23.9,11,23.9,11,23.9,11.1z M21.6,10.3c0.1,0.6,0.5,1.2,1,1.6c0,0,0,0,0,0c0.3,0.2,0.7,0.2,0.9-0.1c0.2-0.3,0.2-0.6-0.2-1
	C22.9,10.5,22.3,10.3,21.6,10.3L21.6,10.3z M5.9,10.5c0.2,0,0.4-0.3,0.3-0.5c0,0,0-0.1,0-0.1C6,9.7,5.9,9.4,5.7,9.1l-0.2,0
	c-0.1,0.3-0.1,0.7-0.1,1c0,0.2,0.1,0.4,0.3,0.4C5.8,10.6,5.9,10.6,5.9,10.5L5.9,10.5z M23.6,10.5c0,0,0.1,0,0.1,0
	c0.2-0.1,0.3-0.3,0.2-0.5c0,0,0,0,0,0c-0.1-0.3-0.3-0.6-0.5-0.9l-0.2,0c0,0.3-0.1,0.7-0.1,1c0,0,0,0.1,0,0.1
	C23.2,10.5,23.4,10.6,23.6,10.5C23.6,10.6,23.6,10.6,23.6,10.5L23.6,10.5z M23.3,24.6l-0.2,0c0,0.3-0.1,0.7-0.1,1c0,0,0,0.1,0,0.1
	c0.1,0.2,0.3,0.3,0.5,0.2c0,0,0.1,0,0.1,0c0.2-0.1,0.3-0.3,0.2-0.5c0,0,0,0,0,0C23.7,25.2,23.5,24.9,23.3,24.6L23.3,24.6z
	 M28.7,26.3c0.2,0.1,0.4-0.1,0.5-0.3c0.1-0.4,0.1-0.8-0.1-1.1c-0.3,0.2-0.5,0.6-0.6,1C28.4,26.1,28.5,26.3,28.7,26.3L28.7,26.3z
	 M16.9,14.8c0.2,0,0.4-0.2,0.3-0.4c0,0,0,0,0,0c0-0.2-0.2-0.3-0.3-0.4h-0.2c-0.1,0.1-0.3,0.3-0.3,0.4c0,0,0,0.1,0,0.1
	C16.5,14.7,16.7,14.8,16.9,14.8z M12.9,14.4c0,0.2,0.1,0.4,0.3,0.4c0,0,0.1,0,0.1,0c0.2,0,0.4-0.2,0.4-0.4c0-0.2-0.2-0.3-0.3-0.4
	h-0.2C13.1,14.1,13,14.3,12.9,14.4L12.9,14.4z M3.4,27.3H2.4v-0.9c0-0.2-0.2-0.4-0.4-0.4c0,0,0,0,0,0H1.7c-0.2,0-0.4,0.2-0.4,0.4
	c0,0,0,0,0,0v0.9H0.4c-0.2,0-0.4,0.2-0.4,0.4V28c0,0.2,0.2,0.4,0.4,0.4c0,0,0,0,0,0h0.9v0.9c0,0.2,0.2,0.4,0.4,0.4c0,0,0,0,0,0h0.4
	c0.2,0,0.4-0.2,0.4-0.4c0,0,0,0,0,0v-0.9h0.9c0.2,0,0.4-0.2,0.4-0.4v-0.4C3.7,27.4,3.6,27.3,3.4,27.3z"/>
</svg>
