<?xml version="1.0" encoding="utf-8"?>
<!-- Generator: Adobe Illustrator 21.1.0, SVG Export Plug-In . SVG Version: 6.00 Build 0)  -->
<svg version="1.1" id="Layer_1" xmlns="http://www.w3.org/2000/svg" xmlns:xlink="http://www.w3.org/1999/xlink" x="0px" y="0px"
	 viewBox="0 0 45.9 39" style="enable-background:new 0 0 45.9 39;" xml:space="preserve">
<path id="ico_catastrophe_naturelle" d="M44.7,28.3c-2-1.8-5.1-1.7-7,0.2c-1.4,1.4-3.6,1.4-5,0c-2-2-5.2-2-7.2,0
	c-1.4,1.4-3.6,1.4-5,0c-2-2-5.2-2-7.2,0c-1.4,1.4-3.6,1.4-5,0c-1.9-1.9-4.9-2-7-0.2H0v1.5h1.8l0.2-0.2c1.4-1.4,3.6-1.4,5,0
	c2,2,5.2,2,7.2,0c1.4-1.4,3.6-1.4,5,0c2,2,5.2,2,7.2,0c1.4-1.4,3.6-1.4,5,0c2,2,5.2,2,7.2,0c1.4-1.4,3.6-1.4,5,0l0.2,0.2h1.8v-1.5
	H44.7z M34.7,36.7c-0.9,1-2.4,1-3.4,0.1c0,0,0,0,0,0c0,0-0.1-0.1-0.1-0.1l-1.1,1.1c0.8,0.8,1.8,1.2,2.9,1.3c1.1,0,2-0.5,2.8-1.3
	c0.9-1,2.4-1,3.4-0.1c0,0,0,0,0,0c0,0,0.1,0.1,0.1,0.1l1.1-1.1c-1.5-1.6-3.9-1.7-5.5-0.2c0,0,0,0,0,0C34.8,36.5,34.7,36.6,34.7,36.7
	L34.7,36.7z M22.4,35.1c-0.9,1-2.4,1-3.4,0.1c0,0-0.1-0.1-0.1-0.1l-1.1,1.1c0.8,0.8,1.8,1.2,2.9,1.3c1.1,0,2-0.5,2.8-1.3
	c0.9-1,2.4-1,3.4-0.1c0,0,0,0,0,0c0,0,0.1,0.1,0.1,0.1l1.1-1.1c-1.5-1.6-3.9-1.7-5.5-0.2C22.6,35,22.5,35.1,22.4,35.1L22.4,35.1z
	 M9.4,36.7c-0.9,1-2.4,1-3.4,0.1c0,0-0.1-0.1-0.1-0.1l-1.1,1.1C5.6,38.5,6.6,39,7.7,39c1.1,0,2-0.5,2.8-1.3c0.9-1,2.4-1,3.4-0.1
	c0,0,0,0,0,0c0,0,0.1,0.1,0.1,0.1l1.1-1.1c-1.5-1.6-3.9-1.7-5.5-0.2c0,0,0,0,0,0C9.5,36.5,9.5,36.6,9.4,36.7L9.4,36.7z M17.3,20
	c0.1-0.4,0.1-0.8-0.1-1.2l-1.6-3.2c-0.4-0.8-1.3-1.1-2.1-0.7c0,0,0,0,0,0l-3.2,1.6c-0.8,0.4-1.1,1.3-0.7,2.1l1.6,3.2
	c0.4,0.8,1.3,1.1,2.1,0.7l0,0l3.2-1.6C16.9,20.7,17.1,20.4,17.3,20L17.3,20z M12.6,21.1L11,17.9l3.2-1.6l1.6,3.2L12.6,21.1z
	 M23.1,25c0.6,1.1,1.9,1.6,3.1,1l1.9-0.9c1.1-0.6,1.6-1.9,1-3.1l-0.9-1.9c-0.6-1.1-1.9-1.6-3.1-1l0,0L23.2,20
	c-1.1,0.6-1.6,1.9-1,3.1L23.1,25z M23.5,21.8c0.1-0.2,0.2-0.4,0.4-0.4l1.9-0.9c0.1-0.1,0.2-0.1,0.3-0.1c0.1,0,0.2,0,0.2,0
	c0.2,0.1,0.4,0.2,0.4,0.4l0.9,1.9c0.2,0.4,0,0.8-0.3,1c0,0,0,0,0,0l0,0l-1.9,0.9c-0.4,0.2-0.8,0-1-0.3c0,0,0,0,0,0l0,0l-0.9-1.9
	C23.5,22.2,23.5,22,23.5,21.8L23.5,21.8z M21,18.8c0.2,0,0.5-0.1,0.7-0.2l3.2-1.6c0.8-0.4,1.1-1.3,0.7-2.1l0,0L24,11.8
	c-0.4-0.8-1.3-1.1-2.1-0.7l-3.2,1.6C18,13.1,17.6,14,18,14.8l0,0l1.6,3.2C19.9,18.5,20.4,18.8,21,18.8z M19.4,14.1l3.2-1.6l1.6,3.2
	L21,17.3L19.4,14.1z M1.6,17.9c0.2,0,0.4,0,0.5-0.1l1.3-0.7l4,8.5l1.4-0.7l-4-8.5l20.1-10l10.4,20.8l1.4-0.7L26.3,5.7L27.6,5
	c0.6-0.3,0.8-1,0.5-1.5c-0.2-0.3-0.5-0.6-0.8-0.6L9.6,0c-0.5-0.1-1,0.2-1.2,0.6L0.6,16.2c-0.3,0.6-0.1,1.3,0.5,1.5
	C1.3,17.8,1.4,17.9,1.6,17.9L1.6,17.9z M9.6,1.6l16.2,2.6l-0.2,0.1l0,0L2.8,15.7l0,0l-0.3,0.2L9.6,1.6z M18,23.9l0.8,1.6l1.4-0.7
	l-0.8-1.6c-0.4-0.8-1.3-1.1-2.1-0.7l-3.1,1.6l0.7,1.4L18,23.9z"/>
</svg>
