<?xml version="1.0" encoding="utf-8"?>
<!-- Generator: Adobe Illustrator 21.1.0, SVG Export Plug-In . SVG Version: 6.00 Build 0)  -->
<svg version="1.1" id="Layer_1" xmlns="http://www.w3.org/2000/svg" xmlns:xlink="http://www.w3.org/1999/xlink" x="0px" y="0px"
	 viewBox="0 0 35 35" style="enable-background:new 0 0 35 35;" xml:space="preserve">
<path id="ico_chaine" d="M7,10.5L7,10.5c0-1.3-1-2.3-2.3-2.3c-1.3,0-2.3,1-2.3,2.3s1,2.3,2.3,2.3S7,11.8,7,10.5
	C7,10.5,7,10.5,7,10.5z M3.5,10.5L3.5,10.5c0-0.6,0.5-1.2,1.2-1.2c0.6,0,1.2,0.5,1.2,1.2c0,0.6-0.5,1.2-1.2,1.2h0
	C4,11.7,3.5,11.1,3.5,10.5z M4.7,22.2c-1.3,0-2.3,1-2.3,2.3s1,2.3,2.3,2.3s2.3-1,2.3-2.3v0C7,23.2,6,22.2,4.7,22.2z M4.7,25.7
	L4.7,25.7c-0.6,0-1.2-0.5-1.2-1.2c0-0.6,0.5-1.2,1.2-1.2c0.6,0,1.2,0.5,1.2,1.2C5.8,25.1,5.3,25.7,4.7,25.7L4.7,25.7L4.7,25.7z
	 M30.9,19.9v-4.7c2.6-0.3,4.4-2.6,4.1-5.2s-2.6-4.4-5.2-4.1c-1.4,0.2-2.7,1-3.4,2.2l-4.4-2c0.8-2.5-0.6-5.1-3.1-5.8S13.8,0.8,13,3.3
	c-0.3,0.9-0.3,1.9,0,2.8l-4.4,2C7.3,5.9,4.4,5.2,2.2,6.5s-2.9,4.2-1.5,6.4c0.7,1.2,2,2,3.4,2.2v4.7c-2.6,0.3-4.4,2.6-4.1,5.2
	s2.6,4.4,5.2,4.1c1.4-0.2,2.7-1,3.4-2.2l4.4,2c-0.8,2.5,0.6,5.1,3.1,5.8s5.1-0.6,5.8-3.1c0.3-0.9,0.3-1.9,0-2.8l4.4-2
	c1.3,2.2,4.2,2.9,6.4,1.5s2.9-4.2,1.5-6.4C33.6,20.8,32.3,20,30.9,19.9L30.9,19.9z M30.3,7c1.9,0,3.5,1.6,3.5,3.5l0,0
	c0,1.9-1.6,3.5-3.5,3.5l0,0c-1.9,0-3.5-1.6-3.5-3.5S28.4,7,30.3,7z M17.5,1.2L17.5,1.2c1.9,0,3.5,1.6,3.5,3.5s-1.6,3.5-3.5,3.5
	S14,6.6,14,4.7S15.6,1.2,17.5,1.2z M1.2,10.5C1.2,8.6,2.7,7,4.7,7s3.5,1.6,3.5,3.5S6.6,14,4.7,14S1.2,12.4,1.2,10.5L1.2,10.5z
	 M8.2,24.5c0,1.9-1.6,3.5-3.5,3.5s-3.5-1.6-3.5-3.5S2.7,21,4.7,21S8.2,22.6,8.2,24.5z M21,30.3c0,1.9-1.6,3.5-3.5,3.5l0,0
	c-1.9,0-3.5-1.6-3.5-3.5c0-1.9,1.6-3.5,3.5-3.5S21,28.4,21,30.3z M25.7,25.1c0,0.3,0.1,0.5,0.2,0.8l-4.4,2c-1.3-2.2-4.2-2.9-6.4-1.5
	c-0.6,0.4-1.2,0.9-1.5,1.5l-4.4-2c0.8-2.5-0.6-5.1-3.1-5.8c-0.3-0.1-0.5-0.1-0.8-0.2v-4.7c2.6-0.3,4.4-2.7,4-5.2
	c0-0.3-0.1-0.5-0.2-0.8l4.4-2c1.3,2.2,4.2,2.9,6.4,1.5c0.6-0.4,1.2-0.9,1.5-1.5l4.4,2c-0.8,2.5,0.6,5.1,3.1,5.8
	c0.3,0.1,0.5,0.1,0.8,0.2v4.7C27.2,20.2,25.4,22.5,25.7,25.1z M30.3,28c-1.9,0-3.5-1.6-3.5-3.5s1.6-3.5,3.5-3.5s3.5,1.6,3.5,3.5
	S32.3,28,30.3,28C30.3,28,30.3,28,30.3,28L30.3,28z M30.3,12.8c1.3,0,2.3-1,2.3-2.3l0,0c0-1.3-1-2.3-2.3-2.3l0,0l0,0
	c-1.3,0-2.4,1-2.4,2.3C27.9,11.7,29,12.8,30.3,12.8C30.3,12.8,30.3,12.8,30.3,12.8L30.3,12.8z M30.3,9.3c0.6,0,1.2,0.5,1.2,1.2
	c0,0.6-0.5,1.2-1.2,1.2s-1.2-0.5-1.2-1.2l0,0C29.2,9.9,29.7,9.3,30.3,9.3L30.3,9.3z M30.3,22.2L30.3,22.2c-1.3,0-2.3,1-2.3,2.3
	c0,0,0,0,0,0l0,0c0,1.3,1,2.3,2.3,2.3s2.3-1,2.3-2.3S31.6,22.2,30.3,22.2L30.3,22.2z M31.5,24.5c0,0.6-0.5,1.2-1.2,1.2
	s-1.2-0.5-1.2-1.2s0.5-1.2,1.2-1.2l0,0C31,23.3,31.5,23.8,31.5,24.5z M17.5,7L17.5,7c1.3,0,2.3-1,2.3-2.3s-1-2.3-2.3-2.3
	s-2.3,1-2.3,2.3S16.2,7,17.5,7L17.5,7z M17.5,3.5c0.6,0,1.2,0.5,1.2,1.2s-0.5,1.2-1.2,1.2c-0.6,0-1.2-0.5-1.2-1.2
	C16.3,4,16.9,3.5,17.5,3.5C17.5,3.5,17.5,3.5,17.5,3.5z M17.5,28c-1.3,0-2.3,1-2.3,2.3c0,1.3,1,2.3,2.3,2.3c1.3,0,2.3-1,2.3-2.3
	c0,0,0,0,0,0l0,0C19.8,29,18.8,28,17.5,28C17.5,28,17.5,28,17.5,28L17.5,28z M17.5,31.5L17.5,31.5c-0.6,0-1.2-0.5-1.2-1.2
	c0-0.6,0.5-1.2,1.2-1.2c0.6,0,1.2,0.5,1.2,1.2C18.7,31,18.2,31.5,17.5,31.5L17.5,31.5z M23.2,22.6H24v0.8H11v-0.8h0.8v-2.2h2.3v2.2
	h0.8v-3.7h2.3v3.7h0.8v-5.3h2.3v5.3h0.8v-6.8h2.3L23.2,22.6z M13,18.1l-0.4-0.7l8.4-5l-0.6-0.2l0.2-0.7l1.8,0.5l-0.5,1.8l-0.7-0.2
	l0.2-0.6L13,18.1z"/>
</svg>
