<?xml version="1.0" encoding="utf-8"?>
<!-- Generator: Adobe Illustrator 21.1.0, SVG Export Plug-In . SVG Version: 6.00 Build 0)  -->
<svg version="1.1" id="Layer_1" xmlns="http://www.w3.org/2000/svg" xmlns:xlink="http://www.w3.org/1999/xlink" x="0px" y="0px"
	 viewBox="0 0 15 12" style="enable-background:new 0 0 15 12;" xml:space="preserve">
<path id="Tracé_5673" d="M5.4,12c-0.1,0-0.2-0.1-0.2-0.2L2.4,9C1.6,8.3,0.9,7.5,0.1,6.8C0,6.6,0,6.5,0.1,6.4C0.8,5.7,1.6,5,2.3,4.3
	c0.1-0.1,0.2-0.2,0.4,0C3.5,5.1,4.4,6,5.2,6.9C5.4,7,5.5,7,5.6,6.9c2.2-2.2,4.5-4.5,6.7-6.7c0.2-0.2,0.3-0.2,0.4,0
	c0.7,0.7,1.4,1.4,2.1,2.1c0.1,0.1,0.2,0.2,0,0.4c-3.1,3.1-6.2,6.2-9.3,9.2C5.5,11.9,5.5,12,5.4,12z"/>
</svg>
