<?xml version="1.0" encoding="utf-8"?>
<!-- Generator: Adobe Illustrator 21.1.0, SVG Export Plug-In . SVG Version: 6.00 Build 0)  -->
<svg version="1.1" id="checkedç219311" xmlns="http://www.w3.org/2000/svg" xmlns:xlink="http://www.w3.org/1999/xlink" x="0px"
	 y="0px" viewBox="0 0 12.8 12.8" style="enable-background:new 0 0 12.8 12.8;" xml:space="preserve">
<path id="Tracé_148" d="M8.8,4L5.7,7.1L4.1,5.6L3.3,6.4l2.5,2.5l4-3.9L8.8,4z"/>
<path id="Tracé_149" d="M6.4,0C2.9,0,0,2.9,0,6.4s2.9,6.4,6.4,6.4s6.4-2.9,6.4-6.4S9.9,0,6.4,0L6.4,0z M6.4,11.6
	c-2.9,0-5.2-2.3-5.2-5.2s2.3-5.2,5.2-5.2s5.2,2.3,5.2,5.2S9.3,11.6,6.4,11.6L6.4,11.6z"/>
</svg>
