<?xml version="1.0" encoding="utf-8"?>
<!-- Generator: Adobe Illustrator 21.1.0, SVG Export Plug-In . SVG Version: 6.00 Build 0)  -->
<svg version="1.1" id="Layer_1" xmlns="http://www.w3.org/2000/svg" xmlns:xlink="http://www.w3.org/1999/xlink" x="0px" y="0px"
	 viewBox="0 0 37.1 37" style="enable-background:new 0 0 37.1 37;" xml:space="preserve">
<path id="ico_climat_urbain" d="M36.6,27.9h-3.6v-4.5c0-0.3-0.3-0.5-0.6-0.5c-0.3,0-0.5,0.2-0.5,0.5v12.5h-9.5V19.5h9.5v1.3
	c0,0.3,0.3,0.5,0.6,0.5c0.3,0,0.5-0.2,0.5-0.5V19c0-0.3-0.2-0.6-0.6-0.6h-7.5V0.6c0-0.3-0.2-0.6-0.6-0.6h0H12.8
	c-0.3,0-0.6,0.2-0.6,0.6l0,0v8.2H5.2C4.9,8.8,4.6,9,4.6,9.3v13.6h-4c-0.3,0-0.6,0.2-0.6,0.6v13C0,36.8,0.3,37,0.6,37h36
	c0.3,0,0.6-0.2,0.6-0.6v-8C37.1,28.2,36.9,27.9,36.6,27.9C36.6,27.9,36.6,27.9,36.6,27.9z M4.6,35.9H1.1V24h3.5V35.9z M16.1,35.9
	H5.7v-3h10.4V35.9z M16.1,28h-5c-0.3,0-0.6,0.2-0.6,0.5s0.2,0.6,0.5,0.6c0,0,0,0,0.1,0h5v2.6H5.7v-2.6h2.8c0.3,0,0.6-0.2,0.6-0.5
	S8.9,28.1,8.6,28c0,0,0,0-0.1,0H5.7v-2.6h10.4V28z M16.1,24.3H5.7v-2.6h10.4V24.3z M16.1,20.6H5.7V18h10.4V20.6z M16.1,16.9H5.7
	v-2.6h10.4V16.9z M16.1,13.2H5.7V9.9h10.4V13.2z M21.3,19v16.9h-4.1V9.3c0-0.3-0.2-0.6-0.6-0.6h-0.8V7.7c0-0.3-0.3-0.5-0.6-0.5
	c-0.3,0-0.5,0.2-0.5,0.5v1.1h-1.4V1.1h10.4v17.3h-1.9C21.5,18.4,21.3,18.7,21.3,19C21.3,19,21.3,19,21.3,19L21.3,19z M36,35.9h-3.1
	V29H36V35.9z M21.8,11.9c-0.3,0-0.6,0.2-0.6,0.6v1.7c0,0.3,0.2,0.6,0.5,0.6s0.6-0.2,0.6-0.5c0,0,0,0,0-0.1v-1.7
	C22.4,12.2,22.1,11.9,21.8,11.9L21.8,11.9z M18.6,11.9c-0.3,0-0.6,0.2-0.6,0.6v1.7c0,0.3,0.2,0.6,0.5,0.6s0.6-0.2,0.6-0.5
	c0,0,0,0,0-0.1v-1.7C19.1,12.2,18.9,11.9,18.6,11.9L18.6,11.9z M21.8,7.1c-0.3,0-0.6,0.2-0.6,0.6c0,0,0,0,0,0v1.7
	c0,0.3,0.2,0.6,0.5,0.6s0.6-0.2,0.6-0.5c0,0,0,0,0-0.1V7.7C22.4,7.4,22.1,7.1,21.8,7.1L21.8,7.1z M18.6,7.1c-0.3,0-0.6,0.2-0.6,0.6
	c0,0,0,0,0,0v1.7c0,0.3,0.2,0.6,0.5,0.6s0.6-0.2,0.6-0.5c0,0,0,0,0-0.1V7.7C19.1,7.4,18.9,7.1,18.6,7.1L18.6,7.1z M15.3,2.3
	c-0.3,0-0.6,0.2-0.6,0.6l0,0v1.7c0,0.3,0.3,0.5,0.6,0.5c0.3,0,0.5-0.2,0.5-0.5V2.9C15.9,2.6,15.6,2.3,15.3,2.3L15.3,2.3z M21.8,2.3
	c-0.3,0-0.6,0.2-0.6,0.6l0,0v1.7c0,0.3,0.3,0.5,0.6,0.5c0.3,0,0.5-0.2,0.5-0.5V2.9C22.4,2.6,22.1,2.3,21.8,2.3L21.8,2.3z M18.6,2.3
	c-0.3,0-0.6,0.2-0.6,0.6l0,0v1.7c0,0.3,0.3,0.5,0.6,0.5c0.3,0,0.5-0.2,0.5-0.5V2.9C19.1,2.6,18.9,2.3,18.6,2.3L18.6,2.3z M21.5,16.9
	c-0.3,0.2-0.3,0.5-0.2,0.8c0.2,0.3,0.5,0.3,0.8,0.2c0.1-0.1,0.2-0.2,0.2-0.3c0.1-0.3-0.1-0.6-0.4-0.7C21.8,16.8,21.7,16.8,21.5,16.9
	L21.5,16.9z M18.6,16.8c-0.3,0-0.6,0.2-0.6,0.6c0,0,0,0,0,0V19c0,0.3,0.2,0.6,0.5,0.6s0.6-0.2,0.6-0.5c0,0,0,0,0-0.1v-1.7
	C19.1,17,18.9,16.8,18.6,16.8L18.6,16.8z M18.6,31.2c-0.3,0-0.6,0.2-0.6,0.6c0,0,0,0,0,0v1.7c0,0.3,0.2,0.6,0.5,0.6s0.6-0.2,0.6-0.5
	c0,0,0,0,0-0.1v-1.7C19.1,31.5,18.9,31.2,18.6,31.2L18.6,31.2z M18.6,26.4c-0.3,0-0.6,0.2-0.6,0.6c0,0,0,0,0,0v1.7
	c0,0.3,0.2,0.6,0.5,0.6s0.6-0.2,0.6-0.5c0,0,0,0,0-0.1V27C19.1,26.7,18.9,26.4,18.6,26.4L18.6,26.4z M18.6,21.6
	c-0.3,0-0.6,0.2-0.6,0.6v1.7c0,0.3,0.3,0.5,0.6,0.5c0.3,0,0.5-0.2,0.5-0.5v-1.7C19.1,21.8,18.9,21.6,18.6,21.6L18.6,21.6z
	 M30.1,31.1H24c-0.3,0-0.6,0.2-0.6,0.5s0.2,0.6,0.5,0.6c0,0,0,0,0.1,0h6.1c0.3,0,0.6-0.2,0.6-0.5S30.5,31.1,30.1,31.1
	C30.2,31.1,30.2,31.1,30.1,31.1z M30.1,33.7H24c-0.3,0-0.5,0.3-0.5,0.6c0,0.3,0.2,0.5,0.5,0.5h6.1c0.3,0,0.5-0.3,0.5-0.6
	C30.6,33.9,30.4,33.7,30.1,33.7z M30.1,28.5H24c-0.3,0-0.5,0.3-0.5,0.6c0,0.3,0.2,0.5,0.5,0.5h6.1c0.3,0,0.5-0.3,0.5-0.6
	C30.6,28.7,30.4,28.5,30.1,28.5z M30.1,20.6H24c-0.3,0-0.6,0.2-0.6,0.5s0.2,0.6,0.5,0.6c0,0,0,0,0.1,0h6.1c0.3,0,0.6-0.2,0.6-0.5
	S30.5,20.7,30.1,20.6C30.2,20.6,30.2,20.6,30.1,20.6z M30.1,25.8H24c-0.3,0-0.5,0.3-0.5,0.6c0,0.3,0.2,0.5,0.5,0.5h6.1
	c0.3,0,0.5-0.3,0.5-0.6C30.6,26.1,30.4,25.9,30.1,25.8z M30.1,23.2H24c-0.3,0-0.5,0.3-0.5,0.6c0,0.3,0.2,0.5,0.5,0.5h6.1
	c0.3,0,0.5-0.3,0.5-0.6C30.6,23.5,30.4,23.3,30.1,23.2z M2.8,24.9c-0.3,0-0.6,0.2-0.6,0.6v1.4c0,0.3,0.2,0.6,0.5,0.6
	s0.6-0.2,0.6-0.5c0,0,0,0,0-0.1v-1.4C3.4,25.1,3.2,24.9,2.8,24.9L2.8,24.9z M2.8,28.7c-0.3,0-0.6,0.2-0.6,0.6l0,0v1.4
	c0,0.3,0.2,0.6,0.5,0.6s0.6-0.2,0.6-0.5c0,0,0,0,0-0.1v-1.4C3.4,28.9,3.1,28.7,2.8,28.7L2.8,28.7z M2.8,32.5c-0.3,0-0.6,0.2-0.6,0.6
	l0,0v1.4c0,0.3,0.2,0.6,0.5,0.6s0.6-0.2,0.6-0.5c0,0,0,0,0-0.1V33C3.4,32.7,3.1,32.5,2.8,32.5L2.8,32.5z M34.5,30.3
	c-0.3,0-0.6,0.2-0.6,0.6v1.6c0,0.3,0.2,0.6,0.5,0.6s0.6-0.2,0.6-0.5c0,0,0,0,0-0.1v-1.6C35,30.6,34.8,30.4,34.5,30.3L34.5,30.3z
	 M32.9,10.6h-6.7c-0.3,0-0.5,0.3-0.5,0.6c0,0.3,0.2,0.5,0.5,0.5h6.7c0.3,0,0.5-0.3,0.5-0.6C33.4,10.9,33.1,10.6,32.9,10.6z M35,12.9
	h-4.9c-0.3,0-0.6,0.2-0.6,0.5S29.7,14,30,14c0,0,0,0,0.1,0H35c0.3,0,0.6-0.2,0.6-0.5S35.3,13,35,12.9C35,12.9,35,12.9,35,12.9z
	 M9.9,4.1H5.1c-0.3,0-0.5,0.3-0.5,0.6c0,0.3,0.2,0.5,0.5,0.5h4.9c0.3,0,0.6-0.2,0.6-0.5S10.3,4.1,9.9,4.1C10,4.1,10,4.1,9.9,4.1z
	 M7.2,6H2.3C2,6,1.8,6.2,1.8,6.5C1.8,6.8,2,7,2.3,7.1h4.9c0.3,0,0.6-0.2,0.6-0.5S7.5,6,7.2,6C7.2,6,7.2,6,7.2,6z"/>
</svg>
