<?xml version="1.0" encoding="utf-8"?>
<!-- Generator: Adobe Illustrator 21.1.0, SVG Export Plug-In . SVG Version: 6.00 Build 0)  -->
<svg version="1.1" id="Layer_1" xmlns="http://www.w3.org/2000/svg" xmlns:xlink="http://www.w3.org/1999/xlink" x="0px" y="0px"
	 viewBox="0 0 39.8 40" style="enable-background:new 0 0 39.8 40;" xml:space="preserve">
<path id="ico_associer_produits" d="M17.6,9.4h1.9l-0.3,0.3c-0.5,0.5-0.5,1.2,0,1.7c0.5,0.5,1.2,0.5,1.7,0l0,0l2.3-2.3
	c0.5-0.5,0.5-1.2,0-1.7c-0.2-0.2-0.5-0.3-0.8-0.3h-1.9l0.3-0.3c0.5-0.5,0.5-1.2,0-1.7c-0.5-0.5-1.2-0.5-1.7,0l-2.3,2.3
	c-0.5,0.5-0.5,1.2,0,1.7C17,9.3,17.3,9.4,17.6,9.4L17.6,9.4z M38.7,16.7h-2.7c-0.4-1.9-1.2-3.7-2.2-5.3l1.9-1.9
	c0.5-0.5,0.5-1.2,0-1.7c0,0,0,0,0,0l0,0l-3.3-3.3c-0.5-0.5-1.2-0.5-1.7,0l-1.9,1.9c-0.3-0.2-0.6-0.4-1-0.6C26.5,1.5,21.9-1,17.6,0.3
	c-2.6,0.8-4.6,2.8-5.5,5.3c-0.4,0.2-0.8,0.4-1.2,0.6L9.1,4.5C8.7,4.1,8,4.1,7.5,4.5L4.2,7.8C3.7,8.3,3.7,9,4.2,9.5c0,0,0,0,0,0l0,0
	l1.9,1.9c-1,1.6-1.8,3.4-2.2,5.3H1.2c-0.6,0-1.2,0.5-1.2,1.2l0,0v4.7c0,0.6,0.5,1.2,1.2,1.2c0,0,0,0,0,0h2.7
	c0.4,1.9,1.2,3.7,2.2,5.3l-1.9,1.9c-0.5,0.5-0.5,1.2,0,1.7c0,0,0,0,0,0l0,0l3.3,3.3c0.5,0.5,1.2,0.5,1.7,0l1.9-1.9
	c1.6,1,3.4,1.8,5.3,2.2v2.7c0,0.6,0.5,1.2,1.2,1.2l0,0h4.7c0.6,0,1.2-0.5,1.2-1.2c0,0,0,0,0,0v-2.7c1.9-0.4,3.7-1.2,5.3-2.2l1.9,1.9
	c0.5,0.5,1.2,0.5,1.7,0l3.3-3.3c0.5-0.5,0.5-1.2,0-1.7c0,0,0,0,0,0l0,0L33.7,29c1-1.6,1.8-3.4,2.2-5.3h2.7c0.6,0,1.2-0.5,1.2-1.2v0
	l0,0v-4.7C39.8,17.2,39.3,16.7,38.7,16.7L38.7,16.7C38.7,16.7,38.7,16.7,38.7,16.7z M24.2,4.2c2.3,2.3,2.2,6.1-0.2,8.3
	s-6.1,2.2-8.3-0.2C14.6,11.2,14,9.7,14,8.2c0-3.2,2.7-5.9,5.9-5.9C21.5,2.4,23.1,3,24.2,4.2z M18.7,26.5l-2.7-2.7
	c-0.5-0.5-1.2-0.5-1.7,0s-0.5,1.2,0,1.7l2.7,2.7H16c-2.4,0-4.3-1.9-4.3-4.3v-2.7h2.7c2.4,0,4.3,1.9,4.3,4.3V26.5z M25.4,23.8
	c-0.5-0.5-1.2-0.5-1.7,0l0,0l-2.7,2.7v-1.1c0-2.4,1.9-4.3,4.3-4.3h0h2.7v2.7c0,2.4-1.9,4.3-4.3,4.3h-1.1l2.7-2.7
	C25.9,25,25.9,24.3,25.4,23.8z M37.5,21.3H35c-0.6,0-1.1,0.4-1.2,1c-0.3,2.2-1.2,4.3-2.5,6.1c-0.3,0.5-0.3,1.1,0.1,1.5l1.8,1.8
	l-1.7,1.6l-1.8-1.8c-0.4-0.4-1.1-0.5-1.5-0.1c-1.8,1.3-3.9,2.2-6.1,2.5c-0.6,0.1-1,0.6-1,1.2v2.5h-2.3v-2.5c0-0.6-0.4-1.1-1-1.2
	c-2.2-0.3-4.3-1.2-6.1-2.5c-0.5-0.3-1.1-0.3-1.5,0.1l-1.8,1.8l-1.7-1.6l1.8-1.8c0.4-0.4,0.5-1.1,0.1-1.5c-1.3-1.8-2.2-3.9-2.5-6.1
	c-0.1-0.6-0.6-1-1.2-1H2.3V19h2.5c0.6,0,1.1-0.4,1.2-1c0.3-2.2,1.2-4.3,2.5-6.1c0.3-0.5,0.3-1.1-0.1-1.5L6.7,8.6L8.3,7l1.6,1.6
	c0.4,0.4,1,0.5,1.4,0.2c0.1-0.1,0.3-0.1,0.4-0.2c0.1,4,3.1,7.3,7,7.8v4c-1.2-1-2.7-1.6-4.3-1.6h-3.1c-1.1,0-2,0.9-2,2v3.1
	c0,3.7,3,6.6,6.6,6.6h7.8c3.7,0,6.6-3,6.6-6.6v-3.1c0-1.1-0.9-2-2-2h-3.1c-1.6,0-3.1,0.6-4.3,1.6v-4c3.8-0.6,6.7-3.7,7-7.5l0.1,0.1
	c0.5,0.3,1.1,0.3,1.5-0.1L31.5,7l1.7,1.6l-1.8,1.8c-0.4,0.4-0.5,1.1-0.1,1.5c1.3,1.8,2.2,3.9,2.5,6.1c0.1,0.6,0.6,1,1.2,1h2.5V21.3z
	"/>
</svg>
