<?xml version="1.0" encoding="utf-8"?>
<!-- Generator: Adobe Illustrator 21.1.0, SVG Export Plug-In . SVG Version: 6.00 Build 0)  -->
<svg version="1.1" id="Layer_1" xmlns="http://www.w3.org/2000/svg" xmlns:xlink="http://www.w3.org/1999/xlink" x="0px" y="0px"
	 viewBox="0 0 30 17.5" style="enable-background:new 0 0 30 17.5;" xml:space="preserve">
<g id="Groupe_2336" transform="translate(2.329 116.843)">
	<path id="Tracé_5598" d="M9.9-104.6H3.4c-0.1,0-0.2,0.1-0.2,0.2v1.9c0,0.1,0.1,0.2,0.2,0.2h6.5c0.1,0,0.2-0.1,0.2-0.2v-1.9
		C10.1-104.5,10-104.6,9.9-104.6z M9.7-102.8h-6v-1.4h6V-102.8L9.7-102.8z"/>
	<path id="Tracé_5599" d="M9.9-102.1H3.4c-0.2,0-0.4-0.2-0.4-0.4l0,0v-1.9c0-0.2,0.2-0.4,0.4-0.4l0,0h6.5c0.2,0,0.4,0.2,0.4,0.4
		l0,0v1.9c0,0.1,0,0.2-0.1,0.3C10.1-102.2,10-102.1,9.9-102.1z M3.4-104.4C3.4-104.4,3.3-104.4,3.4-104.4L3.4-104.4l-0.1,1.9
		c0,0,0,0.1,0.1,0.1l0,0h6.5c0,0,0.1,0,0.1-0.1v-1.9c0,0,0-0.1-0.1-0.1l0,0L3.4-104.4L3.4-104.4z M9.8-102.6H3.5v-1.7h6.4L9.8-102.6
		L9.8-102.6z M3.8-102.9h5.7v-1H3.8V-102.9z"/>
</g>
<g id="Groupe_2339" transform="translate(14.371 104.8)">
	<path id="Tracé_5600" d="M9.9-104.6H3.4c-0.1,0-0.2,0.1-0.2,0.2s0.1,0.2,0.2,0.2l0,0h6.5c0.1,0,0.2-0.1,0.2-0.2
		S10-104.6,9.9-104.6z"/>
	<path id="Tracé_5601" d="M9.9-104H3.4c-0.2,0-0.4-0.2-0.4-0.4c0-0.2,0.2-0.4,0.4-0.4l0,0h6.5c0.2,0,0.4,0.2,0.4,0.4l0,0
		C10.3-104.2,10.1-104,9.9-104z M3.4-104.4C3.4-104.4,3.3-104.4,3.4-104.4C3.3-104.3,3.4-104.3,3.4-104.4L3.4-104.4l6.5,0.1
		c0,0,0.1,0,0.1-0.1c0,0,0-0.1-0.1-0.1L3.4-104.4L3.4-104.4z"/>
</g>
<g id="Groupe_2342" transform="translate(8.817 104.817)">
	<path id="Tracé_5602" d="M15.6-104.6c-0.1-0.1-0.2-0.1-0.3,0l0,0l-12,12c-0.1,0.1-0.1,0.2,0,0.3l0,0c0.1,0.1,0.2,0.1,0.3,0l0,0
		l12-12C15.7-104.3,15.7-104.5,15.6-104.6z"/>
	<path id="Tracé_5603" d="M3.4-92c-0.1,0-0.2,0-0.3-0.1C3-92.1,3-92.3,3-92.4s0-0.2,0.1-0.3l12-12c0.2-0.2,0.4-0.2,0.6,0l0,0
		c0.1,0.1,0.1,0.2,0.1,0.3s0,0.2-0.1,0.3l-12,12C3.6-92,3.5-92,3.4-92z M15.4-104.5L15.4-104.5l-12,12.1v0.1h0.1l12-12
		C15.5-104.4,15.5-104.4,15.4-104.5C15.5-104.4,15.5-104.4,15.4-104.5L15.4-104.5C15.5-104.5,15.5-104.5,15.4-104.5z"/>
</g>
<g id="Groupe_2345" transform="translate(8.811 106.667)">
	<path id="Tracé_5604" d="M15.6-104.6c-0.1-0.1-0.2-0.1-0.3,0l0,0l-12,12c-0.1,0.1-0.1,0.2,0,0.3l0,0c0.1,0.1,0.2,0.1,0.3,0l0,0
		l12-12C15.7-104.3,15.7-104.5,15.6-104.6L15.6-104.6z"/>
	<path id="Tracé_5605" d="M3.4-92c-0.1,0-0.2,0-0.3-0.1C3-92.1,3-92.3,3-92.4c0-0.1,0-0.2,0.1-0.3l12-12c0.2-0.2,0.4-0.2,0.6,0l0,0
		c0.1,0.1,0.1,0.2,0.1,0.3c0,0.1,0,0.2-0.1,0.3l-12,12C3.6-92,3.5-92,3.4-92z M15.4-104.5L15.4-104.5l-12,12.1v0.1h0.1l12-12
		C15.5-104.4,15.5-104.4,15.4-104.5C15.5-104.4,15.5-104.4,15.4-104.5L15.4-104.5C15.5-104.5,15.5-104.5,15.4-104.5z"/>
</g>
<g id="Groupe_2348" transform="translate(2.334 104.817)">
	<path id="Tracé_5606" d="M15.6-104.6c-0.1-0.1-0.2-0.1-0.3,0l0,0l-12,12c-0.1,0.1-0.1,0.2,0,0.3l0,0c0.1,0.1,0.2,0.1,0.3,0l0,0
		l12-12C15.7-104.3,15.7-104.5,15.6-104.6L15.6-104.6z"/>
	<path id="Tracé_5607" d="M3.4-92c-0.1,0-0.2,0-0.3-0.1C3-92.1,3-92.3,3-92.4s0-0.2,0.1-0.3l12-12c0.1-0.1,0.2-0.1,0.3-0.1
		c0.1,0,0.2,0,0.3,0.1c0.2,0.2,0.2,0.4,0,0.6l-12,12C3.6-92,3.5-92,3.4-92z M15.4-104.5L15.4-104.5l-12,12.1v0.1h0.1l12-12
		C15.5-104.4,15.5-104.4,15.4-104.5C15.5-104.4,15.5-104.4,15.4-104.5C15.5-104.5,15.5-104.5,15.4-104.5z"/>
</g>
<g id="Groupe_2351" transform="translate(20.854 104.8)">
	<path id="Tracé_5608" d="M3.4-104.6c-0.1,0-0.2,0.1-0.2,0.2v1.9c0,0.1,0.1,0.2,0.2,0.2s0.2-0.1,0.2-0.2v-1.9
		C3.6-104.5,3.5-104.6,3.4-104.6L3.4-104.6z"/>
	<path id="Tracé_5609" d="M3.4-102.1c-0.2,0-0.4-0.2-0.4-0.4l0,0v-1.9c0-0.2,0.2-0.4,0.4-0.4s0.4,0.2,0.4,0.4l0,0v1.9
		C3.8-102.3,3.6-102.1,3.4-102.1L3.4-102.1z M3.4-104.4C3.4-104.4,3.3-104.4,3.4-104.4C3.3-104.4,3.3-104.4,3.4-104.4l-0.1,1.9
		c0,0,0,0.1,0.1,0.1c0,0,0.1,0,0.1-0.1l0,0L3.4-104.4C3.5-104.4,3.4-104.4,3.4-104.4L3.4-104.4z"/>
</g>
<g id="Groupe_2354" transform="translate(6.956 112.888)">
	<path id="Tracé_5610" d="M9.1-104.3c-0.9-0.6-2-0.4-2.6,0.5l-3.3,3.2l0.3,0.3l3.2-3.2c1.1-1.1,2-0.5,2-0.4c0.1,0.1,0.2,0.1,0.3,0
		C9.2-104.1,9.2-104.2,9.1-104.3L9.1-104.3L9.1-104.3z"/>
	<path id="Tracé_5611" d="M3.6-100L3-100.6l3.4-3.4c0.6-0.9,1.9-1.1,2.8-0.5l0,0c0.1,0.1,0.1,0.2,0.2,0.3c0,0.1,0,0.2-0.1,0.3
		c-0.1,0.1-0.2,0.1-0.3,0.2c-0.1,0-0.2-0.1-0.3-0.1c0,0-0.8-0.6-1.8,0.4L3.6-100z M3.5-100.6L3.5-100.6l3.2-3
		c1.2-1.2,2.2-0.5,2.2-0.5l0,0l0,0l0,0l0,0c-0.7-0.6-1.7-0.4-2.3,0.4L3.5-100.6z"/>
</g>
<g id="Groupe_2357" transform="translate(8.585 107.593)">
	<path id="Tracé_5612" d="M5-104.6c-0.1-0.1-0.2-0.1-0.3,0l0,0l-1.5,1.4c-0.1,0.1-0.1,0.2,0,0.3l0,0c0.1,0.1,0.3,0.1,0.4,0.1l0,0
		l1.4-1.4C5-104.3,5-104.5,5-104.6L5-104.6z"/>
	<path id="Tracé_5613" d="M3.4-102.6c-0.1,0-0.2,0-0.3-0.1C3-102.8,3-102.9,3-103c0-0.1,0-0.2,0.1-0.3l1.4-1.4
		c0.2-0.1,0.4-0.1,0.6,0l0,0c0.2,0.2,0.2,0.4,0,0.6l-1.4,1.4C3.6-102.7,3.5-102.6,3.4-102.6z M4.8-104.5L4.8-104.5l-1.4,1.4v0.1l0,0
		h0.1l0,0L4.8-104.5C4.9-104.4,4.9-104.4,4.8-104.5C4.8-104.4,4.8-104.4,4.8-104.5L4.8-104.5z"/>
</g>
<g id="Groupe_2360" transform="translate(-3 119.626)">
	<path id="Tracé_5614" d="M9.9-104.6H3.4c-0.1,0-0.2,0.1-0.2,0.2v1.9c0,0.1,0.1,0.2,0.2,0.2h6.5c0.1,0,0.2-0.1,0.2-0.2v-1.9
		C10.1-104.5,10-104.6,9.9-104.6z M9.7-102.8h-6v-1.4h6V-102.8z"/>
	<path id="Tracé_5615" d="M9.9-102.1H3.4c-0.2,0-0.4-0.2-0.4-0.4l0,0v-1.9c0-0.2,0.2-0.4,0.4-0.4l0,0h6.5c0.2,0,0.4,0.2,0.4,0.4
		l0,0v1.9C10.3-102.3,10.1-102.1,9.9-102.1z M3.4-104.5C3.4-104.5,3.3-104.4,3.4-104.5L3.4-104.5l-0.1,2c0,0,0,0.1,0.1,0.1l0,0h6.5
		c0,0,0.1,0,0.1-0.1l0,0v-1.9c0,0,0-0.1-0.1-0.1l0,0H3.4z M9.8-102.6H3.5v-1.7h6.4L9.8-102.6L9.8-102.6z M3.8-102.9h5.7v-1H3.8
		V-102.9z"/>
</g>
<g id="Groupe_2363" transform="translate(9.043 107.583)">
	<path id="Tracé_5616" d="M5-104.6H3.4c-0.1,0-0.2,0.1-0.2,0.2s0.1,0.2,0.2,0.2H5c0.1,0,0.2-0.1,0.2-0.2
		C5.3-104.5,5.2-104.6,5-104.6z"/>
	<path id="Tracé_5617" d="M5-104H3.4c-0.2,0-0.4-0.2-0.4-0.4c0-0.2,0.2-0.4,0.4-0.4H5c0.2,0,0.4,0.2,0.4,0.4
		C5.4-104.2,5.3-104,5-104L5-104z M3.4-104.5C3.4-104.5,3.3-104.4,3.4-104.5C3.3-104.4,3.4-104.4,3.4-104.5l1.6,0.1
		c0,0,0.1,0,0.1-0.1c0,0,0-0.1-0.1-0.1H3.4V-104.5z"/>
</g>
<g id="Groupe_2366" transform="translate(3.482 119.655)">
	<path id="Tracé_5618" d="M5.4-104.6c-0.1-0.1-0.2-0.1-0.3,0l0,0l-1.9,1.9c-0.1,0.1-0.1,0.2,0,0.3l0,0c0.1,0.1,0.2,0.1,0.3,0l0,0
		l1.8-1.8C5.5-104.3,5.5-104.5,5.4-104.6L5.4-104.6z"/>
	<path id="Tracé_5619" d="M3.4-102.2c-0.1,0-0.2,0-0.3-0.1C3-102.4,3-102.5,3-102.6c0-0.1,0-0.2,0.1-0.2l1.9-1.9
		c0-0.1,0.1-0.1,0.2-0.1c0.1,0,0.2,0,0.3,0.1c0.2,0.2,0.2,0.4,0,0.6l-1.8,1.8C3.6-102.2,3.5-102.2,3.4-102.2z M5.3-104.5
		C5.2-104.5,5.2-104.5,5.3-104.5l-1.9,1.9v0.1h0.1L5.3-104.5C5.3-104.4,5.3-104.4,5.3-104.5C5.3-104.4,5.3-104.4,5.3-104.5
		L5.3-104.5L5.3-104.5z"/>
</g>
<g id="Groupe_2369" transform="translate(-3 107.595)">
	<path id="Tracé_5620" d="M15.6-104.6c-0.1-0.1-0.2-0.1-0.3,0l0,0l-12,12c-0.1,0.1-0.1,0.2,0,0.3l0,0c0,0,0.1,0.1,0.2,0.1
		c0.1,0,0.1,0,0.2-0.1l12-12C15.7-104.3,15.7-104.5,15.6-104.6L15.6-104.6z"/>
	<path id="Tracé_5621" d="M3.4-92c-0.1,0-0.2,0-0.3-0.1C3-92.1,3-92.3,3-92.4s0-0.2,0.1-0.3l12-12c0.2-0.2,0.4-0.2,0.6,0l0,0
		c0.1,0.1,0.1,0.2,0.1,0.3s0,0.2-0.1,0.3l-12,12C3.6-92,3.5-92,3.4-92z M15.4-104.5L15.4-104.5l-12,12.1l0,0l0,0l0,0l0,0L15.4-104.5
		C15.5-104.4,15.5-104.4,15.4-104.5C15.5-104.4,15.5-104.4,15.4-104.5L15.4-104.5C15.5-104.5,15.5-104.5,15.4-104.5z"/>
</g>
<g id="Groupe_2372" transform="translate(7.657 119.626)">
	<path id="Tracé_5622" d="M9.9-104.6H3.4c-0.1,0-0.2,0.1-0.2,0.2v1.9c0,0.1,0.1,0.2,0.2,0.2h6.5c0.1,0,0.2-0.1,0.2-0.2v-1.9
		C10.1-104.5,10-104.6,9.9-104.6z M9.7-102.8h-6v-1.4h6V-102.8z"/>
	<path id="Tracé_5623" d="M9.9-102.1H3.4c-0.2,0-0.4-0.2-0.4-0.4l0,0v-1.9c0-0.2,0.2-0.4,0.4-0.4l0,0h6.5c0.2,0,0.4,0.2,0.4,0.4
		l0,0v1.9C10.3-102.3,10.1-102.1,9.9-102.1z M3.4-104.5C3.4-104.5,3.3-104.4,3.4-104.5L3.4-104.5l-0.1,2c0,0,0,0.1,0.1,0.1l0,0h6.5
		c0,0,0.1,0,0.1-0.1l0,0v-1.9c0,0,0-0.1-0.1-0.1l0,0H3.4z M9.8-102.6H3.5v-1.7h6.4v1.7H9.8z M3.8-102.9h5.7v-1H3.8V-102.9z"/>
</g>
<g id="Groupe_2375" transform="translate(20.86 107.583)">
	<path id="Tracé_5624" d="M8.7-104.6H3.4c-0.1,0-0.2,0.1-0.2,0.2s0.1,0.2,0.2,0.2l0,0h5.3c0.2,0,0.3-0.1,0.3-0.2
		S8.9-104.6,8.7-104.6z"/>
	<path id="Tracé_5625" d="M8.7-104H3.4c-0.2,0-0.4-0.2-0.4-0.4c0-0.2,0.2-0.4,0.4-0.4l0,0h5.3c0.3,0,0.4,0.2,0.4,0.4
		C9.1-104.2,9-104,8.7-104L8.7-104z M3.4-104.5C3.4-104.5,3.3-104.4,3.4-104.5L3.4-104.5C3.3-104.4,3.4-104.4,3.4-104.5L3.4-104.5
		l5.3,0.1c0,0,0.1,0,0.1-0.1l0,0c0,0,0-0.1-0.1-0.1l0,0H3.4V-104.5z"/>
</g>
<g id="Groupe_2378" transform="translate(14.14 107.595)">
	<path id="Tracé_5626" d="M15.6-104.6c-0.1-0.1-0.2-0.1-0.3,0l0,0l-12,12c-0.1,0.1-0.1,0.2,0,0.3l0,0c0.1,0.1,0.2,0.1,0.3,0l0,0
		l12-12C15.7-104.3,15.7-104.5,15.6-104.6L15.6-104.6z"/>
	<path id="Tracé_5627" d="M3.4-92c-0.1,0-0.2,0-0.3-0.1C3-92.1,3-92.3,3-92.4s0-0.2,0.1-0.3l12-12c0.2-0.2,0.4-0.2,0.6,0l0,0
		c0.1,0.1,0.1,0.2,0.1,0.3s0,0.2-0.1,0.3l-12,12C3.6-92,3.5-92,3.4-92z M15.4-104.5L15.4-104.5l-12,12.1v0.1l0,0l0,0l12-12
		C15.5-104.4,15.5-104.4,15.4-104.5C15.5-104.4,15.5-104.4,15.4-104.5L15.4-104.5C15.5-104.5,15.5-104.5,15.4-104.5z"/>
</g>
<g id="Groupe_2381" transform="translate(14.145 109.449)">
	<path id="Tracé_5628" d="M15.6-104.6c-0.1-0.1-0.2-0.1-0.3,0l0,0l-12,12c-0.1,0.1-0.1,0.2,0,0.3l0,0c0.1,0.1,0.2,0.1,0.3,0l0,0
		l12-12C15.7-104.3,15.7-104.5,15.6-104.6L15.6-104.6z"/>
	<path id="Tracé_5629" d="M3.4-92c-0.1,0-0.2,0-0.3-0.1C3-92.1,3-92.2,3-92.4c0-0.1,0-0.2,0.1-0.3l12-12c0.2-0.2,0.4-0.2,0.6,0l0,0
		c0.2,0.2,0.2,0.4,0,0.6l-12.1,12C3.6-92,3.5-92,3.4-92z M15.4-104.5L15.4-104.5l-12,12.1v0.1l0,0l0,0l12-12
		C15.5-104.4,15.5-104.4,15.4-104.5C15.5-104.4,15.5-104.4,15.4-104.5C15.5-104.5,15.5-104.5,15.4-104.5z"/>
</g>
<g id="Groupe_2384" transform="translate(26.182 107.577)">
	<path id="Tracé_5630" d="M3.4-104.6c-0.1,0-0.2,0.1-0.2,0.2v1.9c0,0.1,0.1,0.2,0.2,0.2c0.1,0,0.2-0.1,0.2-0.2l0,0v-1.9
		C3.6-104.5,3.5-104.6,3.4-104.6z"/>
	<path id="Tracé_5631" d="M3.4-102.1c-0.2,0-0.4-0.2-0.4-0.4l0,0v-1.9c0-0.2,0.2-0.4,0.4-0.4c0.2,0,0.4,0.2,0.4,0.4v1.9
		C3.8-102.3,3.6-102.1,3.4-102.1L3.4-102.1z M3.4-104.4C3.4-104.4,3.3-104.4,3.4-104.4L3.4-104.4l-0.1,1.9c0,0,0,0.1,0.1,0.1l0,0
		c0,0,0.1,0,0.1-0.1l0,0L3.4-104.4C3.5-104.4,3.4-104.4,3.4-104.4L3.4-104.4z"/>
</g>
<g id="Groupe_2387" transform="translate(9.971 117.782)">
	<path id="Tracé_5632" d="M5.4-104.6c-0.1-0.1-0.2-0.1-0.3,0l0,0l-1.9,1.9c-0.1,0.1-0.1,0.2,0,0.3l0,0c0.1,0.1,0.2,0.1,0.3,0l0,0
		l1.9-1.9C5.5-104.3,5.5-104.5,5.4-104.6z"/>
	<path id="Tracé_5633" d="M3.4-102.1c-0.1,0-0.2,0-0.3-0.1C3-102.3,3-102.4,3-102.5c0-0.2,0-0.3,0.1-0.3l1.9-1.9
		c0.1-0.1,0.4-0.1,0.5,0l0,0c0.2,0.2,0.2,0.4,0,0.6l-1.8,1.8C3.6-102.2,3.5-102.1,3.4-102.1z M5.3-104.5
		C5.2-104.5,5.2-104.5,5.3-104.5l-1.9,1.9v0.1h0.1L5.3-104.5C5.3-104.4,5.3-104.4,5.3-104.5C5.3-104.4,5.3-104.4,5.3-104.5
		L5.3-104.5L5.3-104.5L5.3-104.5z"/>
</g>
<g id="Groupe_2390" transform="translate(12.29 116.396)">
	<path id="Tracé_5634" d="M6.8-104.6c-0.1-0.1-0.2-0.1-0.3,0l0,0l-3.3,3.3c-0.1,0.1-0.1,0.2,0,0.3l0,0c0.1,0.1,0.2,0.1,0.3,0l0,0
		l3.2-3.2C6.9-104.3,6.9-104.5,6.8-104.6L6.8-104.6z"/>
	<path id="Tracé_5635" d="M3.4-100.8c-0.1,0-0.2,0-0.3-0.1C3-101,3-101.1,3-101.2s0-0.2,0.1-0.3l3.2-3.2c0.1-0.1,0.2-0.1,0.3-0.1
		s0.2,0,0.3,0.1c0.1,0.1,0.1,0.2,0.1,0.3s0,0.2-0.1,0.3l-3.2,3.2C3.6-100.8,3.5-100.8,3.4-100.8z M6.6-104.5L6.6-104.5l-3.2,3.3v0.1
		h0.1L6.6-104.5C6.7-104.4,6.7-104.4,6.6-104.5C6.7-104.4,6.7-104.4,6.6-104.5L6.6-104.5C6.7-104.5,6.7-104.5,6.6-104.5L6.6-104.5z"
		/>
</g>
<g id="Groupe_2393" transform="translate(19.549 107.605)">
	<path id="Tracé_5636" d="M5.5-104.6c-0.1-0.1-0.2-0.1-0.3,0l0,0l-2,2l0.3,0.3l2-2C5.6-104.3,5.6-104.5,5.5-104.6
		C5.6-104.6,5.6-104.6,5.5-104.6z"/>
	<path id="Tracé_5637" d="M3.6-102L3-102.6l2.1-2.1c0.2-0.1,0.4-0.1,0.6,0c0.1,0.1,0.1,0.2,0.1,0.3s0,0.2-0.1,0.3L3.6-102z
		 M3.5-102.6L3.5-102.6l1.9-1.8l0,0l0,0l0,0H5.3l0,0L3.5-102.6z"/>
</g>
<g id="Groupe_2396" transform="translate(13.681 104.806)">
	<path id="Tracé_5638" d="M5.9-104.6c-0.1-0.1-0.2-0.1-0.3,0l0,0l-2.4,2.4c-0.1,0.1-0.1,0.2,0,0.3l0,0c0.1,0.1,0.3,0.1,0.4,0l0,0
		l2.3-2.3C6-104.3,6-104.5,5.9-104.6L5.9-104.6z"/>
	<path id="Tracé_5639" d="M3.4-101.7c-0.1,0-0.2,0-0.3-0.1c-0.1-0.2-0.1-0.4,0-0.6l2.3-2.3c0.2-0.1,0.4-0.1,0.6,0l0,0
		c0.2,0.2,0.2,0.4,0,0.6l-2.3,2.3C3.6-101.7,3.5-101.7,3.4-101.7z M5.7-104.5C5.7-104.5,5.7-104.4,5.7-104.5l-2.3,2.4v0.1h0.1
		L5.7-104.5C5.8-104.4,5.8-104.4,5.7-104.5C5.8-104.4,5.8-104.4,5.7-104.5C5.7-104.4,5.7-104.5,5.7-104.5z"/>
</g>
<g id="Groupe_2399" transform="translate(13.681 104.812)">
	<path id="Tracé_5640" d="M8.2-104.6c-0.1-0.1-0.2-0.1-0.3,0l0,0l-4.7,4.7c-0.1,0.1-0.1,0.2,0,0.3l0,0c0.1,0.1,0.2,0.1,0.3,0l0,0
		l4.6-4.6C8.3-104.3,8.3-104.5,8.2-104.6L8.2-104.6z"/>
	<path id="Tracé_5641" d="M3.4-99.4c-0.1,0-0.2,0-0.3-0.1C3-99.6,3-99.7,3-99.8s0-0.2,0.1-0.3l4.6-4.6c0.1-0.1,0.2-0.1,0.3-0.1
		s0.2,0,0.3,0.1l0,0c0.2,0.2,0.2,0.4,0,0.6l-4.6,4.6C3.6-99.4,3.5-99.4,3.4-99.4z M8-104.5L8-104.5l-4.6,4.7v0.1l0,0l0,0l0,0
		L8-104.5C8.1-104.4,8.1-104.4,8-104.5C8.1-104.4,8.1-104.4,8-104.5C8.1-104.5,8-104.5,8-104.5z"/>
</g>
</svg>
