<?xml version="1.0" encoding="utf-8"?>
<!-- Generator: Adobe Illustrator 21.1.0, SVG Export Plug-In . SVG Version: 6.00 Build 0)  -->
<svg version="1.1" id="Layer_1" xmlns="http://www.w3.org/2000/svg" xmlns:xlink="http://www.w3.org/1999/xlink" x="0px" y="0px"
	 viewBox="0 0 35 33.6" style="enable-background:new 0 0 35 33.6;" xml:space="preserve">
<path id="ico_construction" d="M34.5,20.8H13.2v-2l1.9-1.2c0.2-0.2,0.3-0.5,0.1-0.7c-0.1-0.1-0.3-0.2-0.4-0.2H8.8
	c-0.3,0-0.5,0.2-0.5,0.5c0,0.2,0.1,0.3,0.2,0.4l1.9,1.2v2H0.5C0.2,20.8,0,21,0,21.3v11.8c0,0.3,0.2,0.5,0.5,0.5c0,0,0,0,0,0h34
	c0.3,0,0.5-0.2,0.5-0.5V21.3C35,21,34.8,20.8,34.5,20.8z M34,30.6c-4.5,0.7-9.1,0.7-13.6,0C13.3,29.5,7.5,29.1,1,30.8V27
	c2.1,1.2,4.6,1.9,7,1.8l0-1c-2.2-0.1-5-0.4-7.1-2.1v-1.8c1.9,0.2,3.8,0.9,5.5,1.9c2,1.2,4.3,2,6.7,2.3c0.1,0,0.3,0,0.4,0
	c2.8,0,5.6-1.2,8-2.2c1.7-0.8,3.4-1.4,5.3-1.7c1.6,0,3.2,0.4,4.7,1c0.8,0.3,1.6,0.6,2.4,0.7v2.4c-5.1,1.1-17.2,0-17.3,0l-0.1,1
	c0.3,0,5.7,0.6,10.8,0.6c2.2,0,4.4-0.1,6.6-0.5L34,30.6z M10.9,21.8h0.4c1,0.8,2.1,1.4,3.3,1.7l0.3-1c-0.6-0.2-1.2-0.4-1.8-0.7h8.3
	c-0.3,0.2-0.6,0.3-1,0.5c-1.6,0.9-3.2,1.5-5,1.9c-2.6,0.4-3.8-0.3-5.5-1.4c-0.5-0.3-0.9-0.6-1.5-0.9H10.9z M11.4,19h0.4v-1h-0.7
	l-0.6-0.4h2.5l-0.7,0.5c-0.1,0.1-0.2,0.3-0.2,0.4v2.3h-0.7L11.4,19z M6.1,21.8c1.2,0.5,2.3,1.1,3.3,1.8c1.3,1.1,3,1.7,4.7,1.7
	c0.5,0,1,0,1.5-0.1c1.9-0.4,3.6-1,5.3-2c1.3-0.8,2.7-1.3,4.2-1.4H34v3.1c-0.7-0.2-1.4-0.4-2-0.6c-1.6-0.7-3.4-1.1-5.1-1.1
	c-2,0.3-3.9,0.8-5.6,1.7c-2.6,1.1-5.3,2.2-8,2.1c-2.2-0.2-4.3-1-6.2-2.1c-1.9-1-3.8-2-5.9-2v-1.1H6.1z M1,32.6v-0.8
	c6.5-1.7,12-1.4,19.2-0.2c2.1,0.3,4.3,0.5,6.4,0.5c2.4,0,4.9-0.2,7.3-0.5v1H1z M22.6,27.5l-0.2-1c2.6-0.6,6.4-1.2,9.1,0.4l-0.5,0.9
	C28.5,26.3,25,26.9,22.6,27.5L22.6,27.5z M14.7,11.6c0.2,0.2,0.5,0.2,0.7,0c0,0,0,0,0,0l2-2c0.1-0.1,0.1-0.2,0.1-0.4V8.7h0.5
	c0.1,0,0.3-0.1,0.4-0.2L19,8l8.2,8.2c0.3,0.3,0.6,0.7,0.8,1.1l0.4,0.9c0.4,0.9,1.2,1.5,2.2,1.5c0.5,0,1-0.2,1.4-0.5c0,0,0,0,1.1-1.1
	c0.5-0.5,0.5-1.2,0-1.7c0,0,0,0,0,0L21.8,5.2l0.1-0.1c0.4-0.4,1.1-0.4,1.5,0l0.4,0.4c0.2,0.2,0.5,0.2,0.7,0l1-1
	c0.2-0.2,0.2-0.5,0-0.7L22.7,1c-1.4-1.4-3.5-1.4-4.9,0l-0.1,0.1l-0.6-0.6c-0.2-0.2-0.5-0.2-0.7,0c0,0,0,0,0,0l-2.1,2.1
	c-0.2,0.2-0.2,0.5,0,0.7l0.6,0.6l-0.5,0.5c-0.1,0.1-0.2,0.2-0.2,0.4v0.5h-0.5c-0.1,0-0.3,0.1-0.4,0.2l-2,2c-0.2,0.2-0.2,0.5,0,0.7
	c0,0,0,0,0,0L14.7,11.6z M32.4,17.3c0,0,0,0.1-0.1,0.1c-0.4,0.4-1,1-1,1c-0.3,0.3-0.7,0.3-1.1,0.2c-0.4-0.1-0.8-0.4-0.9-0.8L29,17
	c-0.2-0.5-0.5-1-1-1.5l1.4-1.4l3,3C32.4,17.2,32.4,17.3,32.4,17.3L32.4,17.3z M28.6,13.5l-1.4,1.4l-7.5-7.5l0.2-0.2l1.1-1.1
	L28.6,13.5z M15.4,2.9l1.4-1.4L17,1.8l-1.4,1.4L15.4,2.9z M13.9,6.3h0.6l1.3,1.3l0.7-0.7l-1.3-1.3V5l3.2-3.2c1-1,2.5-1,3.4,0
	l2.5,2.5l-0.2,0.2l-0.1-0.1c-0.8-0.8-2.1-0.8-3,0c0,0,0,0,0,0l-0.4,0.4L19.6,6l-1.6,1.6h-0.8c-0.3,0-0.5,0.2-0.5,0.5V9l-1.5,1.5
	l-2.7-2.7L13.9,6.3z"/>
</svg>
