<?xml version="1.0" encoding="utf-8"?>
<!-- Generator: Adobe Illustrator 21.1.0, SVG Export Plug-In . SVG Version: 6.00 Build 0)  -->
<svg version="1.1" id="Layer_1" xmlns="http://www.w3.org/2000/svg" xmlns:xlink="http://www.w3.org/1999/xlink" x="0px" y="0px"
	 viewBox="0 0 51.2 51.2" style="enable-background:new 0 0 51.2 51.2;" xml:space="preserve">
<path id="ico_regulation_cycles_eau" d="M24.8,11.1c-1,1.3-9.8,13.3-9.8,18.8c0.1,5.9,4.9,10.6,10.8,10.6
	c5.8-0.1,10.5-4.8,10.6-10.6c0-5.5-8.8-17.4-9.8-18.8c-0.4-0.5-1.1-0.5-1.5-0.2C24.9,11,24.8,11,24.8,11.1z M25.6,36.3
	c-3.5,0-6.4-2.9-6.4-6.4c0-0.6,0.5-1.1,1.1-1.1s1.1,0.5,1.1,1.1c0,2.4,1.9,4.3,4.3,4.3c0.6,0,1.1,0.5,1.1,1.1S26.2,36.3,25.6,36.3
	L25.6,36.3L25.6,36.3z M50.3,18.7c-2.3-7.9-8.2-14.3-16-17.2l-0.4-0.2c-0.5-0.2-1.2,0.1-1.4,0.6l-0.8,2c-0.2,0.5,0.1,1.2,0.6,1.4
	c0,0,0,0,0,0l0.4,0.2c9.7,3.4,15.5,13.2,13.9,23.4l-2.7,0c-0.6,0-1.1,0.5-1.1,1.1c0,0.1,0,0.2,0,0.3l2.3,8.8
	c0.1,0.4,0.4,0.7,0.9,0.8c0.1,0,0.1,0,0.2,0c0.4,0,0.7-0.2,0.9-0.5c1.4-2.2,2.4-4.5,3.1-7c0,0,0.2-0.8,0.3-1.2s0.2-1.2,0.3-1.2
	C51.5,26.2,51.3,22.4,50.3,18.7L50.3,18.7z M41.3,41.8c-0.4-0.5-1-0.5-1.5-0.2l-0.4,0.3c-7.8,6.6-19.2,6.8-27.2,0.3l1.4-2.4
	c0.3-0.5,0.1-1.2-0.4-1.5c-0.1,0-0.2-0.1-0.2-0.1l-8.8-2.4c-0.4-0.1-0.8,0-1.1,0.4c0,0-0.1,0.1-0.1,0.1c-0.2,0.3-0.2,0.7,0,1
	c1.2,2.3,2.7,4.4,4.5,6.2c0,0,0.6,0.6,0.9,0.8s0.9,0.8,0.9,0.8c9.5,8,23.4,8,32.9,0l0.4-0.3c0.5-0.4,0.5-1,0.2-1.5c0,0,0,0,0,0
	L41.3,41.8z M4.6,29.9l-0.1-0.5C2.7,19.3,8.3,9.4,17.9,5.7l1.4,2.4c0.3,0.5,1,0.7,1.5,0.4c0.1,0,0.1-0.1,0.2-0.2l6.5-6.5
	c0.3-0.3,0.4-0.7,0.2-1.1c0-0.1,0-0.1-0.1-0.1C27.4,0.2,27.1,0,26.7,0c-2.6-0.1-5.1,0.2-7.6,0.8c0,0-0.8,0.2-1.1,0.4
	s-1.2,0.4-1.2,0.4C5.1,5.8-1.9,17.8,0.3,30.1l0.1,0.5c0.1,0.6,0.6,1,1.2,0.9l2.1-0.3C4.3,31,4.7,30.5,4.6,29.9z"/>
</svg>
