<?xml version="1.0" encoding="utf-8"?>
<!-- Generator: Adobe Illustrator 21.1.0, SVG Export Plug-In . SVG Version: 6.00 Build 0)  -->
<svg version="1.1" id="Layer_1" xmlns="http://www.w3.org/2000/svg" xmlns:xlink="http://www.w3.org/1999/xlink" x="0px" y="0px"
	 viewBox="0 0 40 40" style="enable-background:new 0 0 40 40;" xml:space="preserve">
<path id="Tracé_2344" d="M20,21.1c1.9,0,3.5-1.6,3.5-3.5S22,14.1,20,14.1s-3.5,1.6-3.5,3.5c0,0,0,0,0,0
	C16.5,19.5,18.1,21.1,20,21.1z M20,16.4c0.6,0,1.2,0.5,1.2,1.2s-0.5,1.2-1.2,1.2s-1.2-0.5-1.2-1.2l0,0C18.8,16.9,19.4,16.4,20,16.4
	L20,16.4z"/>
<path id="Tracé_2345" d="M34.2,7C37.4,7,40,4.4,40,1.2C40,0.5,39.5,0,38.8,0c0,0,0,0,0,0h-2.3c-1.8,0-3.6,0.9-4.7,2.3
	C30.7,0.9,29,0,27.1,0h-2.3c-0.6,0-1.2,0.5-1.2,1.2c0,0,0,0,0,0c0,3.2,2.6,5.9,5.9,5.9h1.2v2.3h-1.2c-0.6,0-1.2,0.5-1.2,1.2
	c0,0,0,0,0,0v2.1l-7.6-5.4c-0.4-0.3-1-0.3-1.4,0l-14,10c-0.1,0-0.1,0.1-0.2,0.1L2.8,19c-0.5,0.4-0.7,1.1-0.3,1.6
	c0.4,0.5,1.1,0.7,1.6,0.3c0,0,0,0,0,0l0.5-0.4v8.4c-1.4,0.8-2.3,2.4-2.3,4.1c0,0.1,0,0.1,0,0.2c-1.8,0.6-2.8,2.6-2.2,4.5
	C0.7,39.1,2,40,3.5,40h33c1.9,0,3.5-1.6,3.5-3.5c0-1.5-0.9-2.8-2.3-3.3c0-0.1,0-0.1,0-0.2c0-1.7-0.9-3.2-2.3-4.1v-8.4l0.5,0.4
	c0.5,0.4,1.3,0.3,1.6-0.2c0.4-0.5,0.3-1.3-0.2-1.6c0,0,0,0,0,0l-1.9-1.3v-7.1c0-0.6-0.5-1.2-1.2-1.2l0,0H33V7H34.2z M36.5,2.3h1
	c-0.5,1.4-1.8,2.3-3.3,2.3h-1C33.7,3.3,35,2.3,36.5,2.3L36.5,2.3z M29.5,4.7c-1.5,0-2.8-0.9-3.3-2.3h1c1.5,0,2.8,0.9,3.3,2.3H29.5z
	 M30.6,11.7H33V16l-2.3-1.7L30.6,11.7z M10.6,37.7h-7c-0.6,0-1.2-0.5-1.2-1.2s0.5-1.2,1.2-1.2h0.2c0.6,0,1.2-0.5,1.2-1.2
	c0-0.1,0-0.3-0.1-0.4c-0.1-0.2-0.1-0.5-0.1-0.8c0-1.3,1.1-2.3,2.3-2.3c1.3,0,2.3,1,2.3,2.3c0,0.3-0.1,0.5-0.1,0.8v0
	C9,34.4,9.4,35,10,35.2c0.1,0,0.2,0.1,0.4,0.1h0.2c0.6,0,1.2,0.5,1.2,1.2S11.2,37.7,10.6,37.7L10.6,37.7z M7,28.3v-9.4l13-9.2
	l13,9.2v9.4c-2.6,0-4.7,2.1-4.7,4.7H26v-8.4c0-0.6-0.5-1.2-1.2-1.2h0h-9.5c-0.6,0-1.2,0.5-1.2,1.2l0,0V33h-2.4
	C11.7,30.4,9.6,28.3,7,28.3z M23.6,25.8V33h-7.1v-7.2H23.6z M13.9,37.7c0.3-0.8,0.3-1.6,0-2.3h12.3c-0.3,0.8-0.3,1.6,0,2.3H13.9z
	 M35.3,33c0,0.3-0.1,0.5-0.1,0.8c-0.2,0.6,0.1,1.3,0.7,1.5c0.1,0,0.3,0.1,0.4,0.1h0.2c0.6,0,1.2,0.5,1.2,1.2s-0.5,1.2-1.2,1.2h-7
	c-0.6,0-1.2-0.5-1.2-1.2s0.5-1.2,1.2-1.2l0,0h0.2c0.6,0,1.2-0.5,1.2-1.2c0-0.1,0-0.3-0.1-0.4v0c-0.1-0.2-0.1-0.5-0.1-0.8
	c0-1.3,1-2.3,2.3-2.3C34.3,30.6,35.3,31.7,35.3,33L35.3,33z"/>
</svg>
