<?xml version="1.0" encoding="utf-8"?>
<!-- Generator: Adobe Illustrator 21.1.0, SVG Export Plug-In . SVG Version: 6.00 Build 0)  -->
<svg version="1.1" id="Layer_1" xmlns="http://www.w3.org/2000/svg" xmlns:xlink="http://www.w3.org/1999/xlink" x="0px" y="0px"
	 viewBox="0 0 60 60" style="enable-background:new 0 0 60 60;" xml:space="preserve">
<path id="ico_economique" d="M59.4,38.6c-2.2-7.2-9.7-11.2-16.9-9c-4.3,1.3-7.7,4.7-9,9l-2.2-0.4c-0.3-0.8-0.6-1.6-1-2.4l2.1-2.9
	l-2-2l4.8-4.8H60v-1.9h-1.9V2.9h-5.8v21.3h-1.9V8.7h-5.8v15.5h-1.9v-9.7h-5.8v9.7h-2.3l-5.4,5.4l-2-1.9l-2.9,2.1
	c-0.8-0.4-1.6-0.7-2.4-1l-0.6-3.6h-2.7V13.5h2.9c3.7,0,6.8-3,6.8-6.8v-1h-4.8c-1.8,0-3.6,0.7-4.8,2V6.8c0-3.7-3-6.8-6.8-6.8H6.8v1
	c0,3.7,3,6.8,6.8,6.8h2.9v8.8c-1.3-1.3-3-2-4.8-2H6.8v1c0,3.7,3,6.8,6.8,6.8h2.9v2.9h-2.7l-0.6,3.6c-0.8,0.3-1.6,0.6-2.4,1l-2.9-2.1
	l-5.3,5.3l2.1,2.9c-0.4,0.8-0.7,1.6-1,2.4L0,38.9v7.4l3.6,0.6c0.3,0.8,0.6,1.6,1,2.4l-2.1,2.9l5.3,5.3l2.9-2.1
	c0.8,0.4,1.6,0.7,2.4,1l0.6,3.6h7.4l0.6-3.6c0.8-0.3,1.6-0.6,2.4-1l2.9,2.1l5.3-5.3l-2.1-2.9c0.4-0.8,0.7-1.6,1-2.4l2.2-0.4
	c2.2,7.2,9.7,11.2,16.9,9C57.6,53.4,61.6,45.8,59.4,38.6L59.4,38.6L59.4,38.6z M54.2,4.8h1.9v19.4h-1.9V4.8z M46.5,10.6h1.9v13.6
	h-1.9L46.5,10.6z M38.7,16.4h1.9v7.7h-1.9L38.7,16.4z M23.2,7.7H26c-0.5,2.3-2.4,3.9-4.7,3.9h-2.8C18.9,9.4,20.9,7.7,23.2,7.7z
	 M13.5,5.8c-2.3,0-4.3-1.6-4.7-3.9h2.8c2.3,0,4.3,1.6,4.7,3.9H13.5z M13.5,20.3c-2.3,0-4.3-1.6-4.7-3.9h2.8c2.3,0,4.3,1.6,4.7,3.9
	H13.5z M32.9,44.7l-3.2,0.5l-0.2,0.6c-0.3,1.1-0.7,2.1-1.3,3.1L28,49.4l1.9,2.6L26.9,55l-2.6-1.9l-0.5,0.3c-1,0.6-2,1-3.1,1.3
	L20,54.9l-0.5,3.2h-4.2l-0.5-3.2l-0.6-0.2c-1.1-0.3-2.1-0.7-3.1-1.3l-0.5-0.3L7.9,55L5,52.1l1.9-2.6l-0.3-0.5c-0.6-1-1-2-1.3-3.1
	l-0.2-0.6l-3.2-0.5v-4.2L5.1,40l0.2-0.6c0.3-1.1,0.7-2.1,1.3-3.1l0.3-0.5L5,33.1l2.9-2.9l2.6,1.9l0.5-0.3c1-0.6,2-1,3.1-1.3l0.6-0.2
	l0.5-3.2h4.2l0.5,3.2l0.6,0.2c1.1,0.3,2.1,0.7,3.1,1.3l0.5,0.3l2.6-1.9l2.9,2.9L28,35.7l0.3,0.5c0.6,1,1,2,1.3,3.1l0.2,0.6l3.2,0.5
	V44.7z M46.4,54.2c-6.4,0-11.6-5.2-11.6-11.6C34.8,36.2,40,31,46.5,31c6.4,0,11.6,5.2,11.6,11.6C58.1,49,52.9,54.2,46.4,54.2
	L46.4,54.2z M51.3,48.6l1.2,1.5c-1.7,1.4-3.8,2.1-6,2.1c-5.3,0-9.7-4.3-9.7-9.7c0-2.2,0.7-4.3,2.1-6l1.5,1.2
	c-1.1,1.4-1.7,3.1-1.7,4.8c0,4.3,3.5,7.7,7.7,7.7C48.2,50.3,49.9,49.7,51.3,48.6L51.3,48.6z M56.1,42.6c0,2.2-0.7,4.3-2.1,6
	l-1.5-1.2c1.1-1.4,1.7-3.1,1.7-4.8c0-4.3-3.5-7.7-7.7-7.7c-1.8,0-3.5,0.6-4.8,1.7L40.4,35c1.7-1.4,3.8-2.1,6-2.1
	C51.8,32.9,56.1,37.2,56.1,42.6L56.1,42.6z M48.4,44.5c0-0.5-0.4-1-1-1h-1.9c-1.6,0-2.9-1.3-2.9-2.9s1.3-2.9,2.9-2.9v-1h1.9v1
	c1.6,0,2.9,1.3,2.9,2.9h-1.9c0-0.5-0.4-1-1-1h-1.9c-0.5,0-1,0.4-1,1c0,0.5,0.4,1,1,1h1.9c1.6,0,2.9,1.3,2.9,2.9s-1.3,2.9-2.9,2.9v1
	h-1.9v-1c-1.6,0-2.9-1.3-2.9-2.9h1.9c0,0.5,0.4,1,1,1h1.9C48,45.5,48.4,45,48.4,44.5L48.4,44.5z M18.4,30h-1.9v-1.9h1.9L18.4,30z
	 M7.8,34.4L6.5,33l1.4-1.4L9.2,33L7.8,34.4z M2.9,41.6h1.9v1.9H2.9V41.6z M7.8,50.8l1.4,1.4l-1.4,1.4l-1.4-1.4L7.8,50.8z M16.5,55.2
	h1.9v1.9h-1.9L16.5,55.2z M27,50.8l1.4,1.4L27,53.5l-1.4-1.4L27,50.8z M31.9,43.5H30v-1.9h1.9V43.5z M27,34.4L25.6,33l1.4-1.4
	l1.4,1.4L27,34.4z M17.4,31.9c-5.9,0-10.6,4.8-10.6,10.6s4.8,10.6,10.6,10.6c5.9,0,10.6-4.8,10.6-10.6
	C28.1,36.7,23.3,31.9,17.4,31.9L17.4,31.9z M17.4,51.3c-4.8,0-8.7-3.9-8.7-8.7c0-4.8,3.9-8.7,8.7-8.7c4.8,0,8.7,3.9,8.7,8.7l0,0
	C26.1,47.4,22.2,51.3,17.4,51.3z M20.2,46.5l1.1,1.6c-3,2.2-7.3,1.5-9.4-1.6c-1.7-2.4-1.7-5.5,0-7.9l1.6,1.1c-1.6,2.2-1,5.2,1.1,6.7
	C16.3,47.7,18.5,47.7,20.2,46.5L20.2,46.5z M17.4,35.8L17.4,35.8z M22.9,46.5l-1.6-1.1c1.6-2.2,1-5.2-1.1-6.7
	c-1.7-1.2-3.9-1.2-5.6,0l-1.1-1.6c3-2.2,7.3-1.5,9.4,1.6C24.6,41,24.6,44.2,22.9,46.5L22.9,46.5z"/>
</svg>
