<?xml version="1.0" encoding="utf-8"?>
<!-- Generator: Adobe Illustrator 21.1.0, SVG Export Plug-In . SVG Version: 6.00 Build 0)  -->
<svg version="1.1" id="agrandir_81267" xmlns="http://www.w3.org/2000/svg" xmlns:xlink="http://www.w3.org/1999/xlink" x="0px"
	 y="0px" viewBox="0 0 15.1 15" style="enable-background:new 0 0 15.1 15;" xml:space="preserve">
<path id="Tracé_648" d="M14.8,0h-3.4C11.2,0,11,0.2,11,0.4v1c0,0.2,0.2,0.4,0.4,0.4h0.9L9.5,4.4c-0.1,0.1-0.1,0.4,0,0.5
	c0,0,0,0,0,0l0.7,0.7c0.1,0.1,0.4,0.1,0.5,0c0,0,0,0,0,0l2.7-2.7v0.9c0,0.2,0.2,0.4,0.4,0.4h1c0.2,0,0.4-0.2,0.4-0.4V0.4
	C15.1,0.2,14.9,0,14.8,0z"/>
<path id="Tracé_649" d="M2.8,1.7h0.9c0.2,0,0.4-0.2,0.4-0.4l0,0v-1C4.1,0.2,3.9,0,3.7,0H0.4C0.2,0,0,0.2,0,0.4c0,0,0,0,0,0v3.4
	c0,0.2,0.2,0.4,0.4,0.4h1c0.2,0,0.4-0.2,0.4-0.4V2.8l2.7,2.7c0.1,0.1,0.4,0.1,0.5,0c0,0,0,0,0,0l0.7-0.7c0.1-0.1,0.1-0.4,0-0.5
	c0,0,0,0,0,0L2.8,1.7z"/>
<path id="Tracé_650" d="M4.9,9.4c-0.1-0.1-0.4-0.1-0.5,0c0,0,0,0,0,0l-2.7,2.7v-0.9c0-0.2-0.2-0.4-0.4-0.4h-1
	c-0.2,0-0.4,0.2-0.4,0.4v3.4C0,14.8,0.2,15,0.4,15h3.4c0.2,0,0.4-0.2,0.4-0.4v-1c0-0.2-0.2-0.4-0.4-0.4H2.8l2.7-2.7
	c0.1-0.1,0.1-0.4,0-0.5c0,0,0,0,0,0L4.9,9.4z"/>
<path id="Tracé_651" d="M14.8,10.9h-1c-0.2,0-0.4,0.2-0.4,0.4v0.9l-2.7-2.7c-0.1-0.1-0.4-0.1-0.5,0c0,0,0,0,0,0l-0.7,0.7
	c-0.1,0.1-0.1,0.4,0,0.5c0,0,0,0,0,0l2.7,2.7h-0.9c-0.2,0-0.4,0.2-0.4,0.4v1c0,0.2,0.2,0.4,0.4,0.4h3.4c0.2,0,0.4-0.2,0.4-0.4v-3.4
	C15.1,11.1,14.9,10.9,14.8,10.9L14.8,10.9z"/>
</svg>
