<?xml version="1.0" encoding="utf-8"?>
<!-- Generator: Adobe Illustrator 21.1.0, SVG Export Plug-In . SVG Version: 6.00 Build 0)  -->
<svg version="1.1" id="Layer_1" xmlns="http://www.w3.org/2000/svg" xmlns:xlink="http://www.w3.org/1999/xlink" x="0px" y="0px"
	 viewBox="0 0 60 60" style="enable-background:new 0 0 60 60;" xml:space="preserve">
<path id="ico_environnemental" d="M34.8,15.8c0.6,0,1.2-0.5,1.2-1.2c0,0,0,0,0,0c0-0.5,0-0.9,0.1-1.4c0-0.5,0.1-1,0.2-1.5l3.8,3.8
	c0,0,0.1,0.1,0.2,0.1v2.9c0,0.6,0.5,1.2,1.1,1.2c0.6,0,1.2-0.5,1.2-1.1c0,0,0,0,0-0.1v-6l3.2-3.2c0.5,1.3,0.8,2.6,1,4
	c0,0.5,0.1,0.9,0.1,1.4c0,0.6,0.5,1.2,1.2,1.2c0.6,0,1.2-0.5,1.2-1.2l0,0c0-0.5,0-1.1-0.1-1.6c-0.8-7.6-6.7-12.6-6.9-12.8
	c-0.4-0.4-1-0.4-1.5,0c-0.1,0-6.1,5-6.9,12.8c-0.1,0.5-0.1,1.1-0.1,1.6C33.7,15.3,34.2,15.8,34.8,15.8z M42.5,4.1
	c0.8,0.9,1.5,2,2.1,3l-2.1,2.1V4.1z M40.2,4v8.4L37,9.3C37.8,7.4,38.9,5.6,40.2,4z M60,58.8c0,0.6-0.5,1.2-1.2,1.2c0,0,0,0,0,0h0
	c-0.6,0-1.2-0.5-1.2-1.2s0.5-1.2,1.2-1.2h0C59.5,57.7,60,58.2,60,58.8L60,58.8L60,58.8z M55,57.7H42.5v-4.3l1.7-1.7
	c0.4-0.5,0.4-1.2,0-1.7c-0.5-0.4-1.2-0.4-1.6,0l-0.1,0.1v-3.2c2.4-2.5,4.2-5.5,5.3-8.7c0.2-0.6-0.1-1.3-0.8-1.5
	c-0.6-0.2-1.2,0.1-1.5,0.7c-0.7,2.1-1.8,4.1-3.1,5.8v-8.4l1.5-1.5c1.2,0.9,2.6,1.5,4.1,1.6c0.1,0,0.2,0,0.3,0c2.1,0,4.3-1,6.3-3.1
	c6-6,5.3-14.8,5.3-15.1c-0.1-0.6-0.5-1-1-1.1c-0.1,0-9-0.9-15.1,5.3c-1,1-1.8,2.1-2.4,3.4c-0.6-1.3-1.4-2.4-2.4-3.4
	c-6.1-6.2-15-5.3-15.1-5.3c-0.6,0.1-1,0.5-1,1.1c0,0.4-0.8,9.1,5.3,15.1c2,2,4.1,3.1,6.3,3.1c0.1,0,0.2,0,0.3,0
	c1.5-0.1,3-0.6,4.1-1.6l1.5,1.5v10.4l-0.8-0.8c-0.4-0.5-1.2-0.5-1.7,0s-0.5,1.2,0,1.7c0,0,0,0,0,0l2.4,2.4v9.2h-39
	c-0.6,0-1.2,0.5-1.2,1.2S0.5,60,1.2,60H55c0.6,0,1.2-0.5,1.2-1.2S55.6,57.7,55,57.7L55,57.7z M56.6,24.3L56.6,24.3H53l4.6-4.6
	C57.4,21.3,57.1,22.8,56.6,24.3L56.6,24.3z M47.5,20.9c2.5-1.6,5.4-2.6,8.4-2.8l-8.4,8.4L47.5,20.9z M50.6,26.7h5
	c-0.7,1.3-1.5,2.5-2.6,3.5c-1.6,1.6-3.2,2.4-4.8,2.4c-0.9-0.1-1.8-0.4-2.6-0.9L50.6,26.7z M45.2,22.9L45.2,22.9v6L44,30
	c-0.5-0.8-0.9-1.6-0.9-2.6C43.1,25.7,43.9,24,45.2,22.9L45.2,22.9z M35.2,20.9v5.6L26.8,18C29.8,18.3,32.7,19.2,35.2,20.9L35.2,20.9
	z M25.2,19.7l4.6,4.6h-3.6C25.6,22.8,25.3,21.3,25.2,19.7L25.2,19.7z M34.5,32.6L34.5,32.6c-1.6,0.1-3.2-0.7-4.8-2.4
	c-1-1-1.9-2.2-2.6-3.5h5l3.4,3.5l1.5,1.5C36.3,32.2,35.4,32.5,34.5,32.6z M39.7,27.4c-0.1,0.9-0.4,1.8-0.9,2.6l-1.2-1.2v-6
	C38.8,24,39.6,25.7,39.7,27.4L39.7,27.4z M30.5,7.3c0.2-0.6,0.8-1,1.5-0.8c0,0,0,0,0,0h0l0,0h0c0.6,0.2,0.9,0.9,0.7,1.5
	c-0.2,0.6-0.8,0.9-1.4,0.7l0,0C30.6,8.5,30.3,7.9,30.5,7.3z M18.2,53.8c0.1,0,0.1,0,0.2,0c6.3,1.7,13,0.7,18.7-2.6
	c0.6-0.3,0.7-1.1,0.4-1.6c-0.3-0.5-1-0.7-1.6-0.4c-2.7,1.6-5.8,2.6-8.9,2.9l2.8-6.4c1.2-2.7,4.2-4.2,7.1-3.6l1.2,0.3
	c0.6,0.2,1.3-0.2,1.4-0.8c0.2-0.6-0.2-1.3-0.8-1.4c0,0-0.1,0-0.1,0h0l-1.2-0.3c-4-0.9-8.1,1.1-9.8,4.9l-3.2,7.4
	c-1.6,0-3.2-0.2-4.8-0.6L18,46.7c-1.1-3.7,0.6-7.7,4.1-9.4l1.2-0.6c2.1-1,2.9-3.5,1.9-5.6c-0.7-1.4-2.2-2.3-3.7-2.3h-2.8
	c-1.3,0-2.3-1-2.3-2.3c0-0.5,0.2-0.9,0.4-1.3l2.5-3.5c1.2-1.7,1.2-4-0.2-5.7l-4.8-5.8c3.2-1.6,6.7-2.5,10.2-2.5c0.7,0,1.4,0,2.1,0.1
	c0.6,0.1,1.2-0.4,1.3-1.1c0-0.6-0.4-1.2-1-1.3h0c-0.8-0.1-1.5-0.1-2.3-0.1c-4.4,0-8.7,1.2-12.5,3.4c-0.1,0-0.2,0.1-0.2,0.1
	C0.2,16-3.5,31.1,3.6,42.8C6.8,48.2,12.1,52.1,18.2,53.8L18.2,53.8z M12.3,11.4l5.1,6.1c0.7,0.8,0.7,2,0.1,2.8L15,23.8
	c-1.5,2.1-1,5,1,6.5c0.8,0.6,1.7,0.9,2.7,0.9h2.8c1,0,1.8,0.8,1.8,1.8c0,0.6-0.3,1.2-0.9,1.6c0,0-0.1,0-0.1,0.1l-1.2,0.6
	c-4.5,2.2-6.8,7.4-5.3,12.2l1,3.4C5.3,46.5-0.5,33.7,3.8,22.2C5.4,17.8,8.4,14,12.3,11.4L12.3,11.4z"/>
</svg>
