<?xml version="1.0" encoding="utf-8"?>
<!-- Generator: Adobe Illustrator 21.1.0, SVG Export Plug-In . SVG Version: 6.00 Build 0)  -->
<svg version="1.1" id="Layer_1" xmlns="http://www.w3.org/2000/svg" xmlns:xlink="http://www.w3.org/1999/xlink" x="0px" y="0px"
	 viewBox="0 0 35 35" style="enable-background:new 0 0 35 35;" xml:space="preserve">
<path id="ico_erosion" d="M10.3,18.1l4.1-2.1v-4.7h-2v3.5l-2.1,1V9.3H8.3v4.5l-2.1-1V7.2H4.2V14l4.1,2.1v4.5H0V35h35V20.6H10.3V18.1
	z M2.1,22.6h7.6l0.5,2.5L7,26.7H2.1L2.1,22.6z M2.1,32.9v-4.2h4.6l2.1,4.2H2.1z M17.1,32.9l1.2-2.4l5.4-3.6l3.2,1.6l1.5,4.5
	L17.1,32.9z M33,32.9h-2.4L28.9,28l4-4L33,32.9z M31.5,22.6l-3.9,3.9l-3.1-1.6l-1.2-2.3L31.5,22.6z M21,22.6l1.4,2.7l-4.8,3.2
	l-5.2-3.5l-0.5-2.5L21,22.6z M11.3,26.9l4.9,3.3l-1.4,2.8H11l-2.3-4.7L11.3,26.9z M25.7,14.4c2.8,0,5.1-2.3,5.1-5.1
	c0-2.8-2.3-5.1-5.1-5.1s-5.1,2.3-5.1,5.1c0,0,0,0,0,0C20.6,12.1,22.9,14.4,25.7,14.4z M22.6,9.3c0-1.7,1.4-3.1,3.1-3.1
	c1.7,0,3.1,1.4,3.1,3.1c0,1.7-1.4,3.1-3.1,3.1c0,0,0,0,0,0C24,12.4,22.6,11,22.6,9.3z M26.7,2.1h-2V0h2.1L26.7,2.1z M24.7,16.5h2.1
	v2.1h-2.1V16.5z M19.9,4.9l-1.4-1.4L19.9,2l1.5,1.5L19.9,4.9z M30.1,15.1l1.4-1.4l1.5,1.4l-1.4,1.4L30.1,15.1z M18.5,10.3h-2V8.3h2
	V10.3z M35,8.3v2.1h-2.1V8.3L35,8.3z M19.9,13.6l1.5,1.4l-1.5,1.5l-1.4-1.4L19.9,13.6z M31.5,4.9l-1.4-1.4L31.5,2L33,3.5L31.5,4.9z"
	/>
</svg>
