<?xml version="1.0" encoding="utf-8"?>
<!-- Generator: Adobe Illustrator 21.1.0, SVG Export Plug-In . SVG Version: 6.00 Build 0)  -->
<svg version="1.1" id="Layer_1" xmlns="http://www.w3.org/2000/svg" xmlns:xlink="http://www.w3.org/1999/xlink" x="0px" y="0px"
	 viewBox="0 0 40 40" style="enable-background:new 0 0 40 40;" xml:space="preserve">
<path id="ico_exigence" d="M1,20.9c-0.3,0-0.5,0.1-0.7,0.3C0.1,21.4,0,21.6,0,21.9c0.1,0.5,0.7,5.2,2.3,6.8C3,29.5,4,30,5,30
	c1,0,2-0.4,2.7-1.2c1.6-1.2,1.8-3.4,0.6-5c-0.2-0.2-0.3-0.4-0.5-0.6C6.2,21.6,1.5,21,1,20.9z M6.5,27.5L6.5,27.5
	c-0.7,0.8-2,0.9-2.8,0.1c0,0,0,0,0,0c-0.1,0-0.1-0.1-0.1-0.1C2.9,26.8,2.4,24.7,2,23c1.7,0.3,3.8,0.9,4.5,1.6c0.8,0.6,1,1.7,0.4,2.5
	C6.9,27.3,6.7,27.4,6.5,27.5z M22.1,9.1c1.1-0.1,2.1-0.5,2.8-1.3c1.6-1.6,2.3-6.3,2.4-6.8c0-0.3-0.1-0.5-0.3-0.7
	C26.8,0.1,26.5,0,26.2,0c-0.5,0.1-5.2,0.7-6.8,2.3C18.6,3,18.1,4,18.1,5c0,1,0.4,2,1.2,2.7C20,8.6,21,9,22.1,9.1z M20.6,3.6
	c0.7-0.7,2.8-1.3,4.5-1.6c-0.3,1.7-0.9,3.8-1.6,4.5l0,0c-0.6,0.8-1.8,1-2.6,0.4c-0.1-0.1-0.3-0.2-0.4-0.4c-0.4-0.4-0.6-0.9-0.6-1.5
	C19.9,4.5,20.2,4,20.6,3.6z M40,11.8v3.6c0,0,0,0.1,0,0.1c0,0.5-0.4,0.8-0.9,0.8c0,0,0,0,0,0v0.9c0,2.7-1.9,4.9-4.5,5.4v12.8
	c0,2.5-2,4.5-4.5,4.5s-4.5-2-4.5-4.5V30c0,0,0,0,0-0.1c0-1.5-1.3-2.7-2.8-2.7c-1.5,0-2.7,1.3-2.7,2.8v5.5c0,2.5-2,4.5-4.5,4.5
	s-4.5-2-4.5-4.5c0,0,0,0,0,0V20c-1.3-0.2-2.4-0.7-3.4-1.6c-1.5-1.4-2.2-3.4-2.1-5.5c0-4.5,5.4-12.2,5.5-12.5
	c0.3-0.4,0.9-0.5,1.3-0.1c0,0,0.1,0.1,0.1,0.1c0.3,0.4,5.6,8.1,5.6,12.5c0,2.5-0.6,4.4-2.1,5.6c-0.4,0.3-0.9,0.3-1.3-0.1
	c-0.3-0.4-0.3-0.9,0.1-1.3l0,0c1.1-1.1,1.7-2.7,1.5-4.3c0-2.7-2.8-7.7-4.5-10.4c-1.7,2.6-4.5,7.6-4.5,10.4c-0.1,1.5,0.4,3,1.5,4.1
	c0.6,0.5,1.4,0.9,2.2,1.1v-6.3c0-0.5,0.4-0.9,0.9-0.9c0.5,0,0.9,0.4,0.9,0.9v23.6c0,1.5,1.2,2.7,2.7,2.7c1.5,0,2.7-1.2,2.7-2.7V30
	c0-2.5,2-4.5,4.5-4.5s4.5,2,4.5,4.5v5.5c0,1.5,1.2,2.7,2.7,2.7c1.5,0,2.7-1.2,2.7-2.7V22.6c-2.6-0.4-4.5-2.7-4.5-5.4
	c0-0.5,0.4-0.9,0.9-0.9s0.9,0.4,0.9,0.9l0,0c0,0,0,0,0,0.1c0,2,1.7,3.6,3.7,3.6c2,0,3.5-1.7,3.6-3.6v-0.9h-5.5
	c-0.5,0-0.9-0.4-0.9-0.9c0-0.5,0.4-0.9,0.9-0.9h6.4v-1.8h-9.1v0.9c0,0.5-0.4,0.9-0.9,0.9s-0.9-0.4-0.9-0.9v-1.8c0,0,0-0.1,0-0.1
	c0-0.5,0.4-0.8,0.9-0.8c0,0,0,0,0,0h0.9V7.3c0-0.5,0.4-0.9,0.9-0.9s0.9,0.4,0.9,0.9v3.6h5.5V7.3c0-0.5,0.4-0.9,0.9-0.9
	s0.9,0.4,0.9,0.9v3.6h0.9c0,0,0.1,0,0.1,0C39.7,10.9,40,11.3,40,11.8C40,11.8,40,11.8,40,11.8z"/>
</svg>
