<?xml version="1.0" encoding="utf-8"?>
<!-- Generator: Adobe Illustrator 21.1.0, SVG Export Plug-In . SVG Version: 6.00 Build 0)  -->
<svg version="1.1" id="Layer_1" xmlns="http://www.w3.org/2000/svg" xmlns:xlink="http://www.w3.org/1999/xlink" x="0px" y="0px"
	 viewBox="0 0 35 35" style="enable-background:new 0 0 35 35;" xml:space="preserve">
<path id="ico_fertilité" d="M35,25.6c0,0.4-0.3,0.7-0.7,0.7c-0.4,0-0.7-0.3-0.7-0.7c0-0.4,0.3-0.7,0.7-0.7c0.2,0,0.4,0.1,0.5,0.2
	C34.9,25.2,35,25.4,35,25.6z M31.9,25.6c0,0.4-0.3,0.7-0.7,0.7c0,0,0,0,0,0h-6.5c-1.3,0-2.7-0.3-3.9-0.8c-0.6-0.2-1.2-0.4-1.8-0.5
	l0.7,0.9c0.2,0.3,0.2,0.7-0.1,1C19.4,27,19,27,18.7,26.7L18.2,26v1.3l0.2,0.1c0.2,0.2,0.5,0.5,0.8,0.7h3.5c0.4,0,0.7,0.3,0.7,0.7
	c0,0.4-0.3,0.6-0.7,0.7h-1.8c0.1,0.1,0.2,0.1,0.3,0.2c0,0,0,0,0.1,0c1,0.6,2,1.2,3,1.7c0.3,0.2,0.5,0.6,0.3,0.9
	c-0.2,0.3-0.6,0.5-0.9,0.3c-0.5-0.2-1.1-0.5-1.6-0.8l0.2,0.5c0.1,0.4-0.1,0.7-0.5,0.9c-0.3,0.1-0.7-0.1-0.8-0.4l-0.7-2.1
	c-0.7-0.5-1.3-1-2-1.5v5.1c0,0.4-0.3,0.7-0.7,0.7s-0.7-0.3-0.7-0.7v-3.8c-0.5,0.4-1,0.7-1.6,1l-0.5,1.7c-0.1,0.4-0.5,0.6-0.8,0.5
	c0,0,0,0,0,0l0,0c-0.4-0.1-0.6-0.5-0.5-0.8l0.2-0.7c-0.3,0.1-0.6,0.2-1,0.3l-0.2,0c-0.4,0.1-0.7-0.1-0.8-0.5
	c-0.1-0.4,0.1-0.7,0.5-0.8c0,0,0,0,0,0l0.2,0c0.5-0.1,0.9-0.2,1.4-0.4l-0.9-0.4c-0.3-0.2-0.5-0.6-0.3-0.9c0.2-0.3,0.5-0.5,0.9-0.3
	l1.9,0.8c0.5-0.3,1-0.7,1.5-1.2v-1.9l-2.1,1.4c-0.3,0.2-0.7,0.1-0.9-0.2c-0.2-0.3-0.1-0.7,0.2-0.9l2.9-1.8v-0.4
	c-0.9,0.1-1.8,0.3-2.7,0.7l0,0c-1.2,0.5-2.5,0.8-3.9,0.8H0.7c-0.4,0-0.7-0.3-0.7-0.7c0-0.4,0.3-0.6,0.7-0.7h9.6
	c1.1,0,2.3-0.2,3.3-0.7l0,0c1-0.4,2.1-0.7,3.2-0.8v-0.8c-0.5-0.6-1.1-1.1-1.7-1.5h-3.6c-3,0-5.5-2.5-5.5-5.5l0,0
	C6,15.3,6.3,15,6.7,15c0,0,0,0,0,0h3.8c2.9,0,5.3,2.2,5.5,5.1c0.3,0.2,0.5,0.4,0.8,0.6v-5.5c-0.5-0.5-1-1-1.5-1.4h-3.4
	c-2.9,0-5.2-2.3-5.2-5.2l0,0C6.7,8.3,7,8,7.4,8c0,0,0,0,0,0H11c2.7,0,5,2.1,5.2,4.8c0.2,0.2,0.4,0.3,0.6,0.5V9.6
	c-1.5-1.1-2.4-2.8-2.4-4.7c0-2,1.1-3.8,2.7-4.9c0.2-0.2,0.5-0.2,0.8,0C19.5,1.2,20.6,3,20.6,5c0,1.8-0.9,3.6-2.4,4.7v3.7
	c0.2-0.2,0.4-0.4,0.6-0.5C19,10.1,21.3,8,24,8h3.6c0.4,0,0.7,0.3,0.7,0.7c0,2.9-2.3,5.2-5.2,5.2h-3.4c-0.6,0.4-1.1,0.9-1.5,1.4v5.5
	c0.3-0.2,0.5-0.4,0.8-0.6c0.2-2.9,2.6-5.1,5.5-5.1h3.8c0.4,0,0.7,0.3,0.7,0.7c0,0,0,0,0,0c0,3-2.5,5.5-5.5,5.5h-3.6
	c-0.6,0.4-1.1,0.9-1.6,1.5v0.8c1.1,0.1,2.2,0.3,3.2,0.8c1.1,0.5,2.2,0.7,3.3,0.7h6.5C31.6,24.9,31.9,25.2,31.9,25.6L31.9,25.6z
	 M20.5,19.1c0.7-0.4,1.4-0.6,2.1-0.9c0.4-0.1,0.7,0.1,0.8,0.5c0.1,0.3-0.1,0.7-0.4,0.8c-0.2,0.1-0.5,0.2-0.7,0.3h1.1
	c2,0,3.7-1.5,4.1-3.4h-3.1C22.7,16.3,21.1,17.4,20.5,19.1z M20.4,11.8c0.6-0.3,1.2-0.6,1.9-0.8c0.4-0.1,0.7,0,0.9,0.4
	c0.1,0.4,0,0.7-0.4,0.9c0,0-0.1,0-0.1,0c-0.2,0.1-0.3,0.1-0.5,0.2H23c1.8,0,3.4-1.3,3.8-3.1H24C22.4,9.4,21,10.3,20.4,11.8z
	 M11.8,11.5c0.1-0.4,0.5-0.6,0.9-0.4c0.6,0.2,1.3,0.5,1.9,0.8c-0.6-1.5-2-2.4-3.5-2.4H8.2c0.3,1.8,1.9,3.1,3.7,3.1h0.8
	c-0.2-0.1-0.3-0.1-0.5-0.2C11.9,12.2,11.7,11.8,11.8,11.5C11.8,11.5,11.8,11.5,11.8,11.5L11.8,11.5z M11.5,18.7
	c0.1-0.4,0.5-0.6,0.9-0.4c0,0,0,0,0,0c0.7,0.2,1.4,0.5,2.1,0.9c-0.6-1.6-2.1-2.7-3.9-2.7H7.5c0.3,2,2.1,3.4,4.1,3.4h1.1
	c-0.2-0.1-0.5-0.2-0.7-0.3C11.6,19.4,11.4,19,11.5,18.7L11.5,18.7z M18.2,6.7v1.1C18.8,7,19.2,6,19.2,5c0-1.4-0.7-2.6-1.8-3.5
	c-1.1,0.8-1.7,2.1-1.8,3.5l0,0c0,1,0.4,2,1.1,2.8V6.7c0-0.4,0.3-0.7,0.7-0.7S18.2,6.4,18.2,6.7L18.2,6.7L18.2,6.7z"/>
</svg>
