<?xml version="1.0" encoding="utf-8"?>
<!-- Generator: Adobe Illustrator 21.1.0, SVG Export Plug-In . SVG Version: 6.00 Build 0)  -->
<svg version="1.1" id="Layer_1" xmlns="http://www.w3.org/2000/svg" xmlns:xlink="http://www.w3.org/1999/xlink" x="0px" y="0px"
	 viewBox="0 0 26.4 30.2" style="enable-background:new 0 0 26.4 30.2;" xml:space="preserve">
<path id="ico_bois_chauffe" d="M2,28.4L2,28.4c-1.1,0-2-0.9-2-2s0.9-2,2-2c1.1,0,2,0.9,2,2C3.9,27.5,3,28.4,2,28.4
	C2,28.4,2,28.4,2,28.4L2,28.4z M22.7,22.7h-1.7c-3.7,4.3-10.1,4.7-14.4,1.1c-0.4-0.3-0.7-0.7-1.1-1.1H2c2.1,0,3.7,1.7,3.7,3.7
	c0,2.1-1.7,3.7-3.7,3.7c0,0,0,0,0,0h20.7c2.1,0,3.7-1.7,3.7-3.7C26.4,24.4,24.7,22.7,22.7,22.7C22.7,22.7,22.7,22.7,22.7,22.7z
	 M12.2,17.9c-1,1.1-2,2.3-2,3.7c0,1.6,1.3,2.9,2.9,2.9s2.9-1.3,2.9-2.9c0,0,0,0,0,0l0,0c-0.1-1.5-0.5-2.9-1.3-4.1
	c-0.3-0.5-0.7-1.1-1.1-1.5C13.3,16.6,12.8,17.3,12.2,17.9z M8.8,23.3L8.8,23.3c-0.2-0.5-0.3-1.1-0.3-1.7c0-2,1.3-3.5,2.4-4.8
	c0.8-1,1.6-1.9,1.4-2.6c-0.1-0.5,0.2-0.9,0.7-1c0.3-0.1,0.6,0,0.8,0.2c0.7,0.7,4,4.2,4,8.2c0,0.6-0.1,1.2-0.3,1.7
	c2.5-1.5,4.1-4.3,4.1-7.2c0-3.6-2.3-6-4.3-8.1c-2.1-2.2-3.8-4.1-3.3-6.8c0.1-0.5-0.2-0.9-0.7-1c-0.3-0.1-0.6,0-0.8,0.2
	C7.4,5.5,4.7,10.8,4.7,16C4.7,19,6.3,21.7,8.8,23.3L8.8,23.3z"/>
</svg>
