<?xml version="1.0" encoding="utf-8"?>
<!-- Generator: Adobe Illustrator 21.1.0, SVG Export Plug-In . SVG Version: 6.00 Build 0)  -->
<svg version="1.1" id="Layer_1" xmlns="http://www.w3.org/2000/svg" xmlns:xlink="http://www.w3.org/1999/xlink" x="0px" y="0px"
	 viewBox="0 0 30 30" style="enable-background:new 0 0 30 30;" xml:space="preserve">
<path id="Tracé_5656" d="M29.7,10.9c-1.1-3.2-4.5-5-7.8-3.9c-0.4,0.1-0.9,0.3-1.3,0.6c0.1-0.5,0.1-0.9,0.1-1.4
	C20.7,2.8,18.3,0,15,0S9.1,2.7,9.1,6c0,0.1,0,0.1,0,0.2c0,0.5,0,0.9,0.1,1.4C8.9,7.3,8.5,7.1,8.1,7c-3.2-1-6.7,0.7-7.8,3.9
	c-1.1,3.3,0.7,6.8,3.9,8c0.4,0.1,0.9,0.2,1.4,0.3c-0.3,0.3-0.7,0.7-0.9,1c-2,2.7-1.4,6.6,1.4,8.6c2.6,1.9,6.2,1.4,8.1-1.1
	c0.1-0.1,0.1-0.1,0.2-0.2c0.3-0.4,0.5-0.8,0.7-1.2c0.2,0.4,0.4,0.8,0.7,1.2c1.7,2.6,5.3,3.3,7.9,1.6c0.1-0.1,0.2-0.1,0.3-0.2
	c2.7-2,3.4-5.8,1.4-8.6c-0.3-0.4-0.6-0.7-0.9-1c0.5-0.1,0.9-0.2,1.4-0.3C29,17.7,30.8,14.2,29.7,10.9z M15.1,1.8c2.3,0,4,1.8,4,4.4
	C19,7.5,18.6,8.8,17.9,10c-0.1,0.1-0.1,0.3-0.1,0.5l-1,1.5c-0.3-0.1-0.6-0.2-0.9-0.3V8.1c0-0.5-0.4-0.9-0.9-0.9l0,0
	c-0.5,0-0.9,0.4-0.9,0.9v3.6c-0.3,0.1-0.6,0.2-0.9,0.3l-1-1.7c0-0.1-0.1-0.3-0.1-0.4C11.4,8.8,11,7.5,11,6.2
	c-0.1-2.3,1.6-4.3,3.9-4.4C14.9,1.8,15,1.8,15.1,1.8z M4.8,17.2c-2.3-0.9-3.6-3.4-2.8-5.7s3.2-3.6,5.5-2.8c1.1,0.4,2.1,1,2.8,1.9
	l1.5,2.5c-0.2,0.3-0.5,0.5-0.6,0.8l-3.4-1.1c-0.5-0.1-1,0.1-1.1,0.6c-0.1,0.4,0.1,0.9,0.5,1.1l3.4,1.1c0,0.3,0,0.7,0,1l-2.2,0.8
	C7.3,17.6,6,17.5,4.8,17.2z M14.2,22.7c-0.1,1.3-0.5,2.6-1.2,3.7c-1.2,1.9-3.8,2.4-5.6,1.1c-0.1,0-0.1-0.1-0.2-0.2
	c-2-1.4-2.4-4.2-1-6.1c0.9-1.1,2-1.9,3.3-2.4l1.8-0.6c0.2,0.3,0.4,0.5,0.6,0.8l-2.1,2.9c-0.3,0.4-0.2,0.9,0.2,1.2
	c0.4,0.3,0.9,0.2,1.2-0.2l2.1-2.9c0.3,0.1,0.6,0.2,0.9,0.3L14.2,22.7L14.2,22.7z M15.1,18.7c-1.5,0-2.6-1.2-2.6-2.6
	c0-1.5,1.2-2.6,2.6-2.6c1.5,0,2.6,1.2,2.6,2.6S16.5,18.7,15.1,18.7L15.1,18.7z M22.9,27.4c-1.7,1.3-4.2,1-5.5-0.7
	c-0.1-0.1-0.2-0.2-0.2-0.3c-0.7-1.1-1.2-2.4-1.3-3.7v-2.4c0.3-0.1,0.6-0.2,1-0.3l2.1,2.9c0.3,0.4,0.8,0.5,1.2,0.2
	c0.4-0.3,0.5-0.8,0.2-1.2L18.3,19c0.2-0.2,0.4-0.5,0.6-0.8l1.6,0.6c1.3,0.5,2.5,1.4,3.4,2.5C25.3,23.2,24.9,26,22.9,27.4L22.9,27.4z
	 M21.6,17.3l-2.1-0.8c0-0.3,0-0.7,0-1l3.4-1.1c0.5-0.2,0.7-0.7,0.5-1.1c-0.2-0.4-0.6-0.7-1.1-0.5l-3.4,1.1c-0.2-0.3-0.4-0.6-0.6-0.9
	l1.5-2.5c0.8-0.8,1.7-1.4,2.8-1.8c2.3-0.7,4.8,0.5,5.5,2.8c0.7,2.4-0.5,4.9-2.8,5.7l0,0C24,17.5,22.8,17.6,21.6,17.3z"/>
</svg>
