<?xml version="1.0" encoding="utf-8"?>
<!-- Generator: Adobe Illustrator 21.1.0, SVG Export Plug-In . SVG Version: 6.00 Build 0)  -->
<svg version="1.1" id="Layer_1" xmlns="http://www.w3.org/2000/svg" xmlns:xlink="http://www.w3.org/1999/xlink" x="0px" y="0px"
	 viewBox="0 0 60 51.3" style="enable-background:new 0 0 60 51.3;" xml:space="preserve">
<path id="ico_fruits" d="M54.6,35.8c1.6-0.8,3.1-1.9,4.2-3.3l0.4-0.5L48.7,12c-0.7-1.3-2.2-1.7-3.5-1.1c-0.5,0.2-0.8,0.6-1.1,1.1
	l-3.5,6.7c-2.3-2.9-5.7-4.8-9.3-5.1c0.7-4.1,2.5-7.9,5.2-11.1l-1.5-1.3c-1.5,1.8-2.8,3.7-3.7,5.9C29.8,2.9,25.8,0,21.3,0h-2.9v1
	c0,5.9,4.8,10.6,10.6,10.6h0.8c-0.2,0.6-0.3,1.3-0.4,2c-5.2,0.3-9.8,3.5-11.9,8.3c-1.8-1.1-4.1-0.6-5.3,1.2c0,0,0,0.1-0.1,0.1
	c-0.9-0.8-2.1-1.1-3.3-0.8c0.1-1,0.4-2,0.8-3c1,1.2,2.7,1.3,3.9,0.3c0.6-0.5,1-1.3,1-2.1v-0.3c0-1.6-1.3-2.8-2.9-2.8
	c-0.7,0-1.4,0.3-1.9,0.8c-0.7-1.6-1-3.3-1-5.1V8.7H6.8v1.5c0,2.3,0.5,4.6,1.6,6.7l0.1,0.3c-0.9,1.7-1.4,3.5-1.6,5.3
	c-0.7-2.3-1.1-4.7-1.1-7.1v-1H0v1c0,3.3,1.3,6.4,3.5,8.7c-2.1,0.2-3.7,2.1-3.5,4.2c0.2,2,1.8,3.5,3.9,3.5c0,0,0.1,0,0.1,0
	c-0.1,0.3-0.1,0.6-0.1,1c0,1.1,0.5,2.2,1.3,2.9H0v1c0,5.1,3.7,9.5,8.7,10.5v4.1h42.6v-4.1c5-0.9,8.7-5.3,8.7-10.5v-1L54.6,35.8z
	 M11,16.9c0.2-0.3,0.5-0.4,0.8-0.4c0.5,0,0.8,0.4,0.8,0.8v0.3c0,0.5-0.4,0.8-0.8,0.8c-0.3,0-0.6-0.2-0.7-0.5l-0.3-0.6L11,16.9z
	 M56.9,31.8c-2.8,2.7-6.6,4.1-10.4,4l0,0c-3.9,0.1-7.6-1.4-10.4-4l0.9-1.7c5.4,5.1,13.7,5.1,19.1,0L56.9,31.8z M45.9,12.9
	c0.2-0.3,0.6-0.4,0.9-0.2c0.1,0.1,0.2,0.1,0.2,0.2l8,15.4c-4.6,4.8-12.2,4.9-16.9,0.3c0,0,0,0,0,0c-0.1-0.1-0.2-0.2-0.3-0.3
	L45.9,12.9z M29,9.7c-4.4,0-8.2-3.3-8.7-7.7h0.9c4.4,0,8.2,3.3,8.7,7.7H29z M29.1,15.5L29.1,15.5c-0.1,0.7-0.1,1.4-0.1,2.1v1.4
	c-0.4-0.3-0.8-0.7-1.1-1.1l-1.7,0.9c0.7,1.4,2.2,2.4,3.8,2.5c1.6-0.1,3-1,3.8-2.5L32,17.9c-0.3,0.5-0.6,0.8-1.1,1.1v-1.4
	c0-0.7,0-1.4,0.1-2.1c3.5,0.3,6.7,2.2,8.6,5.1l-6,11.4l0.4,0.5c1.2,1.3,2.6,2.5,4.2,3.3H27.5c0.3-0.6,0.5-1.3,0.5-1.9
	c0-2.1-1.7-3.9-3.9-3.9c0,0,0,0,0,0c-0.3,0-0.7,0.1-1,0.1c0,0,0-0.1,0-0.1c0-2.1-1.7-3.9-3.9-3.9c0,0-0.1,0-0.1,0
	c0.3-0.9,0.2-1.8-0.2-2.6C20.4,19,24.4,15.9,29.1,15.5L29.1,15.5z M26.1,33.9c0,1.1-0.9,1.9-1.9,1.9c-1.1,0-1.9-0.9-1.9-1.9l0,0
	c0-1.1,0.8-2,1.9-2S26.1,32.7,26.1,33.9C26.1,33.8,26.1,33.8,26.1,33.9L26.1,33.9z M19.4,28.1c1.1,0,1.9,0.9,1.9,1.9c0,0,0,0,0,0
	l0,0c0,1.1-0.9,1.9-1.9,1.9s-1.9-0.9-1.9-1.9C17.4,28.9,18.3,28.1,19.4,28.1L19.4,28.1z M20.3,35.8c0,1.1-0.9,1.9-1.9,1.9
	c-1.1,0-1.9-0.9-1.9-1.9c0-1.1,0.9-1.9,1.9-1.9C19.5,33.9,20.3,34.7,20.3,35.8C20.3,35.8,20.3,35.8,20.3,35.8L20.3,35.8z M15.5,23.2
	c1.1,0,1.9,0.9,1.9,1.9c0,1.1-0.9,1.9-1.9,1.9s-1.9-0.9-1.9-1.9C13.5,24.1,14.4,23.2,15.5,23.2C15.5,23.2,15.5,23.2,15.5,23.2z
	 M13.5,29c1.1,0,1.9,0.9,1.9,1.9s-0.9,1.9-1.9,1.9S11.6,32,11.6,31C11.6,29.9,12.5,29,13.5,29L13.5,29z M14.5,36.8
	c0,1.1-0.9,1.9-1.9,1.9c-1.1,0-1.9-0.9-1.9-1.9c0-1.1,0.9-1.9,1.9-1.9l0,0C13.6,34.8,14.5,35.7,14.5,36.8
	C14.5,36.8,14.5,36.8,14.5,36.8L14.5,36.8z M9.7,24.2c1.1,0,1.9,0.9,1.9,1.9c0,1.1-0.9,1.9-1.9,1.9s-1.9-0.9-1.9-1.9
	C7.7,25.1,8.6,24.2,9.7,24.2z M7.7,31c1.1,0,1.9,0.9,1.9,1.9c0,1.1-0.9,1.9-1.9,1.9S5.8,34,5.8,32.9c0,0,0,0,0,0
	C5.8,31.8,6.7,31,7.7,31z M2,16.5h1.9C4,18.7,4.3,20.8,5,22.9C3.2,21.2,2.2,18.9,2,16.5z M3.9,30c-1.1,0-1.9-0.9-1.9-1.9
	c0-1.1,0.9-1.9,1.9-1.9s1.9,0.9,1.9,1.9C5.8,29.1,4.9,30,3.9,30z M49.4,45.5L49.4,45.5h-3.9v1.9h3.9v1.9H10.6v-1.9h32.9v-1.9H10.6
	c-4.4,0-8.2-3.3-8.7-7.7h6.9c0.5,2.1,2.6,3.3,4.7,2.8c1-0.3,1.9-0.9,2.4-1.8c1.6,1.4,4,1.2,5.4-0.4c0.2-0.2,0.3-0.4,0.4-0.6H58
	C57.5,42.1,53.8,45.5,49.4,45.5z M47.4,21.3h-1.9v-1.9h1.9V21.3z M52.3,28.1h-1.9v-1.9h1.9L52.3,28.1z M42.6,28.1h-1.9v-1.9h1.9
	V28.1z"/>
</svg>
