<?xml version="1.0" encoding="utf-8"?>
<!-- Generator: Adobe Illustrator 21.1.0, SVG Export Plug-In . SVG Version: 6.00 Build 0)  -->
<svg version="1.1" id="Layer_1" xmlns="http://www.w3.org/2000/svg" xmlns:xlink="http://www.w3.org/1999/xlink" x="0px" y="0px"
	 viewBox="0 0 30 27.8" style="enable-background:new 0 0 30 27.8;" xml:space="preserve">
<g id="Groupe_2411" transform="translate(0 18.592)">
	<g id="Groupe_2410" transform="translate(0 0)">
		<path id="Tracé_5662" d="M29.8-6.8c0-0.1-0.1-0.3-0.2-0.3c-0.7-0.6-1.2-1.5-1.3-2.5v-0.1c0-0.2-0.2-0.4-0.5-0.5
			c-0.1,0-0.2,0-0.3,0c-0.7,0-1.3,0.3-1.8,0.8c-0.1,0.1-0.1,0.2-0.2,0.3c0,0.3-0.1,0.6-0.1,0.9c-0.1,1-0.1,1.1-0.4,1.2
			c-0.2,0.1-0.3,0.2-0.4,0.4c-0.3,0.9-0.6,1.7-1.1,2.5c-0.2-0.4-0.5-0.8-0.7-1.1c-0.6-0.6-0.9-1.5-0.8-2.4c0.5-2.7,0.2-4.7-0.7-6.1
			c-0.5-0.7-1.3-1.3-2.2-1.5c0.1-1,0.8-1.9,1.7-2.2c0.3-0.1,0.5-0.4,0.4-0.7c0-0.4-0.3-0.5-0.6-0.5c-1.4,0.5-2.5,1.7-2.6,3.2
			c-0.9,0-1.8,0.3-2.5,0.8c-1.3,1-2,2.9-2.3,5.6c-0.1,0.8-0.6,1.3-1.3,2c-0.7,0.6-1.3,1.3-1.8,2.1C9.4-5.2,8.7-5.3,8-5.4
			c0.1-1,0.8-1.8,1.7-2.2C10-7.7,10.2-8,10.1-8.3C10-8.6,9.7-8.7,9.4-8.7C9.1-8.6,8.8-8.5,8.5-8.3c-0.4-1.8-2.2-3.1-4.1-2.7
			c-0.1,0-0.1,0-0.2,0c-0.2,0.1-0.4,0.3-0.4,0.5C3.5-9.3,3.8-8,4.7-7.2c0.6,0.6,1.4,1,2.2,1C6.8-5.9,6.8-5.7,6.7-5.4
			c-4,0.3-7,3.8-6.7,7.8c0.3,3.8,3.5,6.8,7.3,6.8c1.5,0,2.9-0.4,4.1-1.3C11.6,8,11.8,8.1,12,8.1c1.7,0.7,3.5,1,5.3,1
			c2.8,0,5.4-0.9,7.6-2.7c2.4-2,4-4.8,4.7-7.8C30-3.1,30.1-5,29.8-6.8z M12.6-6.1c0.9-0.6,1.5-1.6,1.7-2.7c0.2-2.4,0.8-4,1.9-4.8
			c0.6-0.5,1.4-0.7,2.2-0.6c0.8,0.1,1.5,0.5,2,1.1c0.8,1,0.9,2.8,0.5,5.2c-0.1,1.2,0.3,2.3,1,3.2c0.4,0.5,0.7,1.1,0.9,1.7
			c-2,2.9-4.9,4.9-8.3,5.7c0.3-2.8-1-5.6-3.5-7C11.5-5,12.1-5.6,12.6-6.1z M5.5-8C5-8.5,4.8-9.2,4.8-9.9c0.1,0,0.2,0,0.2,0
			c0.6,0,1.2,0.2,1.6,0.7C7.1-8.7,7.3-8,7.3-7.3c-0.1,0-0.2,0-0.2,0l0,0C6.5-7.3,5.9-7.6,5.5-8z M7.3,8C3.9,8,1.2,5.2,1.2,1.9
			c0-3.4,2.8-6.1,6.1-6.1s6.1,2.8,6.1,6.1c0,0.3,0,0.7-0.1,1c-0.4,0-0.8,0.1-1.1,0.1c0.2-1,0.1-2.1-0.3-3c-0.1-0.3-0.5-0.4-0.8-0.3
			s-0.4,0.5-0.3,0.7c0.3,0.8,0.4,1.7,0.1,2.6c-0.8-0.1-1.7-0.2-2.5-0.4c-0.2,0-0.3,0-0.5,0.1c-0.6,0.4-1.1,1-1.4,1.7
			C6.4,4.6,6.5,4.9,6.7,5c1,0.9,2.2,1.6,3.4,2.3C9.3,7.8,8.3,8.1,7.3,8z M28.5-1.5c-1.6,6-5.8,9.6-11.2,9.6C13.8,8,10.5,6.7,7.9,4.5
			C8,4.3,8.2,4,8.5,3.9c1.1,0.3,2.2,0.4,3.3,0.4c3.2,0,6.3-1.1,8.8-3.1c1.3-1,2.5-2.3,3.4-3.7l0,0c0.7-1.1,1.3-2.3,1.7-3.5
			c0.8-0.4,0.9-1.3,0.9-2.1c0-0.2,0-0.4,0-0.6c0.2-0.1,0.4-0.2,0.6-0.2c0.2,1,0.7,1.9,1.4,2.6C28.9-4.8,28.9-3.1,28.5-1.5L28.5-1.5z
			"/>
	</g>
</g>
<g id="Groupe_2413" transform="translate(18.084 24.199)">
	<g id="Groupe_2412" transform="translate(0 0)">
		<path id="Tracé_5663" d="M0.8-18.6c-0.3-0.1-0.6,0.1-0.8,0.4c-0.1,0.3,0,0.6,0.3,0.8C0.8-17.3,1-16,0.6-13.9
			c0,0.3,0.2,0.6,0.5,0.7c0.3,0.1,0.6-0.1,0.7-0.5l0,0C2.1-15.6,2.2-18,0.8-18.6z"/>
	</g>
</g>
<g id="Groupe_2415" transform="translate(21.707 40.782)">
	<g id="Groupe_2414">
		<path id="Tracé_5664" d="M1.1-18.4c-0.2-0.2-0.6-0.3-0.9-0.1l0,0l0,0c-0.2,0.2-0.3,0.6-0.1,0.8c0.2,0.2,0.5,0.3,0.8,0.1l0,0
			C1.2-17.7,1.3-18.1,1.1-18.4z"/>
	</g>
</g>
<g id="Groupe_2417" transform="translate(16.307 41.644)">
	<g id="Groupe_2416">
		<path id="Tracé_5665" d="M5.1-18.3c-0.1-0.3-0.5-0.4-0.8-0.2l0,0c-1.1,0.6-2.4,0.9-3.7,0.9C0.3-17.6,0-17.3,0-17
			c0,0.3,0.2,0.6,0.6,0.6h0.1c1.5,0,2.9-0.4,4.2-1.1C5.2-17.6,5.3-18,5.1-18.3z"/>
	</g>
</g>
<g id="Groupe_2419" transform="translate(9.882 35.359)">
	<g id="Groupe_2418" transform="translate(0 0)">
		<path id="Tracé_5666" d="M1-18.4L1-18.4c-0.2-0.3-0.6-0.2-0.8,0c-0.2,0.2-0.2,0.6,0,0.8l0,0c0.2,0.2,0.6,0.2,0.8,0
			S1.2-18.2,1-18.4L1-18.4z"/>
	</g>
</g>
</svg>
