<?xml version="1.0" encoding="utf-8"?>
<!-- Generator: Adobe Illustrator 21.1.0, SVG Export Plug-In . SVG Version: 6.00 Build 0)  -->
<svg version="1.1" id="Layer_1" xmlns="http://www.w3.org/2000/svg" xmlns:xlink="http://www.w3.org/1999/xlink" x="0px" y="0px"
	 viewBox="0 0 43.6 39" style="enable-background:new 0 0 43.6 39;" xml:space="preserve">
<path id="ico_developpement_durable" d="M19.7,24.3c-1.2-0.6-2.6-0.9-3.9-0.9c4-4.5,10.8-4.9,15.3-0.9c0.6,0.5,1.1,1.1,1.6,1.8
	c0,0,0.1,0.1,0.1,0.1c0,0,0,0,0,0c0.5,0.8,1,1.6,1.3,2.5l-3.3,2.7c-1,0.8-2.3,1.3-3.6,1.4c0.7-1.5,0.1-3.3-1.4-4c0,0,0,0,0,0l0,0
	l0,0L19.7,24.3z M27.6,2.3c0.1,0,0.2,0,0.3,0l0.1,0c0.4-0.1,0.7-0.6,0.5-1.1c-0.1-0.4-0.6-0.7-1.1-0.5l-0.1,0
	c-0.4,0.2-0.7,0.6-0.5,1.1l0,0C26.9,2.1,27.3,2.3,27.6,2.3L27.6,2.3z M15.5,14.8c0.4,0.2,0.9,0,1.1-0.4c0,0,0,0,0,0l0,0
	c0.2-0.4,0-0.9-0.4-1.1c0,0,0,0,0,0l0,0c-1-0.5-2-1.2-2.8-2.1c-2.5-2.4-3.6-5.9-2.9-9.3c0.8-0.2,1.7-0.2,2.6-0.2
	c2.3,0.1,4.5,1.1,6.2,2.7c0.3,0.3,0.9,0.3,1.2-0.1c0.3-0.4,0.3-0.9-0.1-1.2l0,0c-2.9-2.7-7.1-3.8-10.9-2.7C9.2,0.5,9,0.7,8.9,1v0
	c-1.1,4.1,0.2,8.5,3.3,11.4C13.1,13.3,14.2,14.2,15.5,14.8L15.5,14.8z M15.7,5.9c-0.3-0.3-0.9-0.3-1.2,0c-0.3,0.3-0.3,0.9,0,1.2l0,0
	l4.5,4.5c-0.1,1.2,0.1,2.3,0.4,3.4c0.1,0.3,0.3,0.5,0.5,0.5c1,0.3,2,0.4,3,0.4c0.3,0,0.5,0,0.8,0c2.9-0.2,5.6-1.5,7.7-3.6
	c3.1-2.9,4.3-7.3,3.3-11.4v0c-0.1-0.3-0.3-0.5-0.6-0.6C33.1,0.1,32,0,31,0c-0.5,0-0.8,0.4-0.8,0.9l0,0c0,0.5,0.4,0.8,0.8,0.8h0
	c0.7,0,1.4,0.1,2.1,0.2c1,5.8-2.8,11.2-8.6,12.2c-0.8,0.1-1.7,0.2-2.6,0.1L29.2,7c0.3-0.4,0.3-0.9-0.1-1.2c-0.3-0.3-0.8-0.3-1.1,0
	l-7.3,7.2c-0.3-3.1,0.8-6.1,3.1-8.2c0.5-0.5,1-0.9,1.5-1.3c0.4-0.3,0.5-0.8,0.2-1.2c-0.3-0.4-0.8-0.5-1.2-0.2l0,0l0,0
	c-0.6,0.4-1.2,0.9-1.8,1.5c-1.7,1.6-2.8,3.7-3.3,5.9L15.7,5.9z M43.5,24.5c-0.4-1.6-2-2.5-3.5-2.1c0,0,0,0,0,0l0,0
	c-0.2,0-0.3,0.1-0.4,0.2c-0.1,0-0.1-0.1-0.2-0.1l-0.5-0.2c-1.7-0.7-3.7-0.6-5.2,0.5c-4.3-5.4-12.2-6.2-17.6-1.9
	c-0.8,0.7-1.6,1.4-2.2,2.3c-0.1,0.2-0.2,0.3-0.3,0.5c-0.3,0.1-0.5,0.1-0.8,0.2l-5.2,1.4v-0.6c0-0.5-0.4-0.9-0.9-0.9c0,0,0,0,0,0H0.9
	c-0.5,0-0.9,0.4-0.9,0.9c0,0,0,0,0,0v13.6C0,38.6,0.4,39,0.9,39c0,0,0,0,0,0h10.7c0.5,0,0.8-0.4,0.8-0.9v0c0-0.5-0.4-0.8-0.8-0.8
	H7.5V26.9l5.7-1.5c2-0.5,4-0.4,5.9,0.5l6,2.7c0.6,0.3,0.9,1,0.6,1.7c0,0,0,0,0,0l0,0c0,0,0,0.1-0.1,0.1c-0.3,0.5-0.9,0.7-1.4,0.6
	l-7.6-2.1c-0.5-0.1-0.9,0.1-1.1,0.6c-0.1,0.5,0.1,0.9,0.6,1.1c0,0,0,0,0,0l7.6,2.1c0.3,0.1,0.5,0.1,0.8,0.1h2.3
	c1.8,0,3.6-0.6,5.1-1.8l8-6.6c0.5-0.4,1.3-0.4,1.7,0.2c0.2,0.3,0.3,0.7,0.2,1l0,0c-0.1,0.2-0.2,0.5-0.4,0.6l-10.1,8.8
	c-1.8,1.5-4.1,2.4-6.4,2.4h-6.4c-0.5,0-0.9,0.4-0.9,0.8c0,0,0,0,0,0l0,0v0c0,0.5,0.4,0.8,0.8,0.8h6.4c2.8,0,5.5-1,7.6-2.8l10.1-8.8
	C43.4,26.7,43.8,25.6,43.5,24.5L43.5,24.5z M31.1,22.4c0.6,0.5,1.1,1.1,1.6,1.8c0,0,0.1,0.1,0.1,0.1c0,0,0,0,0,0
	c0.5,0.8,1,1.6,1.3,2.5l-3.3,2.7c-1,0.8-2.3,1.3-3.6,1.4c0.7-1.5,0.1-3.3-1.4-4c0,0,0,0,0,0l0,0l0,0l-6-2.7
	c-1.2-0.6-2.6-0.9-3.9-0.9C19.8,18.9,26.6,18.5,31.1,22.4L31.1,22.4z M38,23.7L38,23.7l-2.5,2.1c-0.2-0.6-0.5-1.2-0.9-1.7
	C35.6,23.4,36.8,23.3,38,23.7L38,23.7z M1.7,25.4h4.1v11.9H1.7V25.4z M15.9,38.1L15.9,38.1c0,0.5-0.4,0.8-0.9,0.8
	c-0.4,0-0.8-0.4-0.8-0.8l0,0c0-0.5,0.3-0.9,0.8-0.9C15.4,37.2,15.8,37.6,15.9,38.1C15.9,38.1,15.9,38.1,15.9,38.1L15.9,38.1z
	 M4.3,27.4c0.3,0.3,0.3,0.9,0,1.2c-0.2,0.2-0.4,0.3-0.6,0.3l0,0c-0.5,0-0.9-0.4-0.9-0.9c0,0,0,0,0,0l0,0c0-0.5,0.4-0.9,0.9-0.9
	C4,27.2,4.2,27.2,4.3,27.4L4.3,27.4z"/>
</svg>
