<?xml version="1.0" encoding="utf-8"?>
<!-- Generator: Adobe Illustrator 21.1.0, SVG Export Plug-In . SVG Version: 6.00 Build 0)  -->
<svg version="1.1" id="Layer_1" xmlns="http://www.w3.org/2000/svg" xmlns:xlink="http://www.w3.org/1999/xlink" x="0px" y="0px"
	 viewBox="0 0 100 100" style="enable-background:new 0 0 100 100;" xml:space="preserve">
<path id="ico_home" d="M50,52.7c4.9,0,8.8-3.9,8.8-8.8v0c0-4.9-3.9-8.8-8.8-8.8l0,0c-4.9,0-8.8,3.9-8.8,8.8l0,0
	C41.2,48.8,45.1,52.7,50,52.7z M50,41c1.6,0,2.9,1.3,2.9,2.9l0,0c0,1.6-1.3,2.9-2.9,2.9l0,0c-1.6,0-2.9-1.3-2.9-2.9l0,0
	C47.1,42.3,48.4,41,50,41z M85.4,17.6c8.1,0,14.6-6.6,14.6-14.6c0-1.6-1.3-2.9-2.9-2.9c0,0,0,0,0,0h-5.9c-4.6,0-9,2.2-11.7,5.9
	C76.7,2.2,72.4,0,67.8,0h-5.9C60.3,0,59,1.3,59,2.9c0,0,0,0,0,0l0,0c0,8.1,6.6,14.6,14.6,14.6h2.9v5.9h-2.9c-1.6,0-2.9,1.3-2.9,2.9
	l0,0v5.3l-19-13.5c-1-0.7-2.4-0.7-3.4,0l-35.1,25c-0.2,0.1-0.3,0.2-0.5,0.3l-5.6,4c-1.3,0.9-1.6,2.8-0.7,4.1c0,0,0,0,0,0
	c0.9,1.3,2.8,1.6,4.1,0.7c0,0,0,0,0,0l1.2-0.9v21c-3.6,2.1-5.9,6-5.9,10.1c0,0.2,0,0.3,0,0.5c-4.6,1.6-7,6.6-5.4,11.2
	c1.2,3.5,4.6,5.9,8.3,5.9h82.4c4.9,0,8.8-3.9,8.8-8.8c0,0,0,0,0,0c0-3.7-2.4-7.1-5.9-8.3c0-0.2,0-0.3,0-0.5c0-4.2-2.2-8-5.9-10.1
	v-21l1.2,0.9c1.3,0.9,3.1,0.6,4.1-0.7c0,0,0,0,0,0c0.9-1.3,0.6-3.1-0.7-4.1c0,0,0,0,0,0l-4.6-3.3V26.4c0-1.6-1.3-2.9-2.9-2.9l0,0
	h-2.9v-5.9H85.4z M91.2,5.9h2.4c-1.2,3.5-4.6,5.9-8.3,5.9h-2.4C84.2,8.2,87.5,5.9,91.2,5.9z M73.6,11.7c-3.7,0-7-2.3-8.3-5.9h2.4
	c3.7,0,7,2.3,8.3,5.9H73.6z M76.6,29.3h5.9V40l-5.9-4.2V29.3z M26.4,94.1H8.8c-1.6,0-3-1.3-3-2.9c0,0,0,0,0,0c0-1.6,1.3-3,2.9-3h0
	c0,0,0.1,0,0.1,0h0.5c1.6,0,2.9-1.3,2.9-2.9l0,0c0-0.3-0.1-0.7-0.2-1c-0.2-0.6-0.4-1.3-0.4-1.9c0-3.2,2.6-5.9,5.9-5.9l0,0
	c3.2,0,5.9,2.6,5.9,5.9c0,0.7-0.1,1.3-0.4,1.9c0,0,0,0,0,0c-0.5,1.5,0.3,3.2,1.8,3.7c0,0,0,0,0,0c0.3,0.1,0.6,0.2,0.9,0.2h0.5
	c1.6,0,2.9,1.4,2.9,3C29.2,92.8,27.9,94.1,26.4,94.1L26.4,94.1z M17.6,70.7V47.2L50,24.1l32.4,23.1v23.5c-6.5,0-11.7,5.3-11.7,11.7
	h-5.9V61.5c0-1.6-1.3-2.9-2.9-2.9l0,0H38.3c-1.6,0-2.9,1.3-2.9,2.9v20.9h-6.1C29.3,75.9,24,70.7,17.6,70.7z M59,64.4v18H41.2v-18
	L59,64.4z M34.7,94.1c0.7-1.9,0.7-4,0-5.9h30.7c-0.7,1.9-0.7,4,0,5.9H34.7z M88.3,82.4c0,0.7-0.1,1.3-0.4,1.9
	c-0.5,1.5,0.3,3.2,1.8,3.7c0.3,0.1,0.6,0.2,1,0.2h0.5c1.6,0,2.9,1.4,2.9,3c0,1.6-1.3,2.8-2.9,2.9H73.6c-1.6,0-2.9-1.4-2.9-3
	c0,0,0,0,0,0c0-1.6,1.3-2.8,2.9-2.9h0.5c1.6,0,2.9-1.3,2.9-2.9c0,0,0,0,0,0c0-0.3-0.1-0.6-0.2-0.9c0,0,0,0,0,0
	c-0.2-0.6-0.4-1.3-0.4-1.9c0-3.2,2.6-5.9,5.9-5.9l0,0C85.7,76.6,88.3,79.2,88.3,82.4L88.3,82.4L88.3,82.4z"/>
</svg>
