<?xml version="1.0" encoding="utf-8"?>
<!-- Generator: Adobe Illustrator 21.1.0, SVG Export Plug-In . SVG Version: 6.00 Build 0)  -->
<svg version="1.1" id="home263115" xmlns="http://www.w3.org/2000/svg" xmlns:xlink="http://www.w3.org/1999/xlink" x="0px" y="0px"
	 viewBox="0 0 22.4 20" style="enable-background:new 0 0 22.4 20;" xml:space="preserve">
<g id="Groupe_155" transform="translate(0)">
	<g id="Groupe_154">
		<path id="Tracé_646" d="M22.2,7.9L11.6,0.1c-0.2-0.2-0.5-0.2-0.7,0L0.2,7.9C0,8.1-0.1,8.5,0.1,8.7S0.7,9,0.9,8.8l0,0l10.3-7.5
			l10.3,7.5c0.3,0.2,0.6,0.1,0.8-0.2C22.5,8.4,22.4,8.1,22.2,7.9z"/>
	</g>
</g>
<g id="Groupe_157" transform="translate(2.474 8.972)">
	<g id="Groupe_156" transform="translate(0 0)">
		<path id="Tracé_647" d="M16.9,0c-0.3,0-0.6,0.3-0.6,0.6v9.3h-4.7V4.8c0-1.6-1.3-2.9-2.9-2.9S5.8,3.2,5.8,4.8v5.1H1.2V0.6
			C1.2,0.3,0.9,0,0.6,0S0,0.3,0,0.6v9.9C0,10.8,0.3,11,0.6,11h5.8C6.7,11,7,10.8,7,10.5c0,0,0,0,0,0V4.8C7,3.8,7.8,3,8.7,3
			s1.8,0.8,1.8,1.7l0,0v5.6c0,0,0,0,0,0c0,0.3,0.3,0.5,0.6,0.5h5.8c0.3,0,0.6-0.3,0.6-0.6V0.6C17.5,0.3,17.2,0,16.9,0z"/>
	</g>
</g>
</svg>
