<?xml version="1.0" encoding="utf-8"?>
<!-- Generator: Adobe Illustrator 21.1.0, SVG Export Plug-In . SVG Version: 6.00 Build 0)  -->
<svg version="1.1" id="info_rouge" xmlns="http://www.w3.org/2000/svg" xmlns:xlink="http://www.w3.org/1999/xlink" x="0px" y="0px"
	 viewBox="0 0 20 20" style="enable-background:new 0 0 20 20;" xml:space="preserve">
<path id="info" d="M17.7,0H2.3C1.1,0,0,1.1,0,2.3v11.8c0,1.3,1.1,2.3,2.3,2.3h4.9L10,20l2.7-3.5h4.9c1.3,0,2.3-1.1,2.3-2.3V2.3
	C20,1.1,19,0,17.7,0z M18.5,14.1c0,0.4-0.4,0.8-0.8,0.8H12l-2,2.6l-2-2.6H2.3c-0.4,0-0.8-0.4-0.8-0.8V2.3c0-0.4,0.4-0.8,0.8-0.8
	h15.3c0.4,0,0.8,0.4,0.8,0.8V14.1z M9.2,4.4c0-0.5,0.4-1,1-1c0.5,0,1,0.4,1,1c0,0.5-0.4,1-1,1S9.2,4.9,9.2,4.4
	C9.2,4.4,9.2,4.4,9.2,4.4z M11.2,11.3l0.7,1.4L11.4,13c-0.9,0.5-2.1,0.1-2.5-0.9c-0.2-0.3-0.2-0.7-0.2-1.1c0,0,0,0,0-0.1l0.6-2.5
	c0-0.2-0.1-0.3-0.3-0.4c-0.1,0-0.1,0-0.2,0L8.2,8.4L7.5,7l0.6-0.3c0.9-0.5,2.1-0.1,2.5,0.9c0.2,0.3,0.2,0.7,0.2,1.1c0,0,0,0,0,0.1
	l-0.6,2.5c0,0.2,0.1,0.3,0.3,0.4c0.1,0,0.1,0,0.2,0L11.2,11.3z"/>
</svg>
