<?xml version="1.0" encoding="utf-8"?>
<!-- Generator: Adobe Illustrator 21.1.0, SVG Export Plug-In . SVG Version: 6.00 Build 0)  -->
<svg version="1.1" id="Layer_1" xmlns="http://www.w3.org/2000/svg" xmlns:xlink="http://www.w3.org/1999/xlink" x="0px" y="0px"
	 viewBox="0 0 15 12.8" style="enable-background:new 0 0 15 12.8;" xml:space="preserve">
<path id="Tracé_5804" d="M15,7.5C15,7.5,15,7.5,15,7.5l-0.8-5.3c0-0.2-0.2-0.3-0.3-0.2c0,0,0,0,0,0c0,0,0,0-0.1,0l-3.5,1.4
	c-0.2,0.1-0.2,0.2-0.2,0.4c0,0,0,0,0,0c0.1,0.2,0.2,0.2,0.4,0.2c0,0,0,0,0,0l0,0l3.1-1.3l0.7,4.8c0,0,0,0,0,0
	c0.4,2.1-1.1,4.1-3.2,4.5c-0.9,0.2-1.8,0-2.6-0.5l0,0c0.2-0.1,0.4-0.3,0.6-0.5l3.4-0.9c0.2,0,0.2-0.2,0.2-0.4c0,0,0,0,0,0
	c0-0.1-0.2-0.2-0.3-0.2l-2.6,0.7c0.3-0.4,0.5-0.9,0.7-1.4l2.4-0.6c0.2,0,0.2-0.2,0.2-0.4c0,0,0,0,0,0c0-0.1-0.2-0.2-0.3-0.2
	l-1.7,0.5L11.5,7l1.4-0.4c0.2,0,0.2-0.2,0.2-0.4c0,0,0,0,0,0c0-0.1-0.2-0.2-0.3-0.2l-0.8,0.2l0.6-1.1c0.1-0.1,0-0.3-0.1-0.4
	c-0.1-0.1-0.3,0-0.4,0.1l0,0L11.4,6l-0.2-0.8C11.2,5,11,4.9,10.9,5c0,0,0,0,0,0c-0.2,0-0.3,0.2-0.2,0.3c0,0,0,0,0,0c0,0,0,0,0,0
	L11,6.7l-0.4,0.7c0-2.2-1.3-4.2-3.4-5h0L5.9,1.9C5.8,1.8,5.6,1.9,5.5,2c0,0,0,0,0,0c-0.1,0.1,0,0.3,0.2,0.4c0,0,0,0,0,0l0,0L7,2.9
	l0,0C9.4,3.9,10.7,6.6,9.7,9c0,0,0,0,0,0c-0.4,0.9-1,1.7-1.8,2.3l-0.5-0.9l1.1-4c0-0.2,0-0.3-0.2-0.4c0,0,0,0,0,0
	C8.2,6,8,6.1,7.9,6.3c0,0,0,0,0,0L7,9.7L5.9,7.8l0.7-2.8c0-0.2,0-0.3-0.2-0.4c0,0,0,0,0,0c-0.2,0-0.3,0-0.4,0.2c0,0,0,0,0,0L5.5,7.1
	L4.7,5.6L5.1,4c0-0.2,0-0.3-0.2-0.4c0,0,0,0,0,0c-0.2,0-0.3,0-0.4,0.2c0,0,0,0,0,0L4.2,4.9L3.4,3.5C3.4,3.4,3.2,3.3,3,3.4
	C2.9,3.5,2.9,3.7,2.9,3.8c0,0,0,0,0,0l0.8,1.4L2.6,4.9C2.5,4.9,2.3,5,2.3,5.1c0,0,0,0,0,0c0,0.1,0.1,0.3,0.2,0.3l1.7,0.4L5,7.4
	L2.8,6.8C2.7,6.8,2.5,6.9,2.5,7c0,0,0,0,0,0c0,0.1,0.1,0.3,0.2,0.3l2.8,0.7L6.5,10L3.1,9.1C2.9,9,2.8,9.1,2.7,9.3c0,0,0,0,0,0
	c0,0.1,0.1,0.3,0.2,0.3l4,1.1l0.5,0.9c-2.3,1.2-5.2,0.2-6.3-2.1c0,0,0,0,0,0C0.6,8.6,0.5,7.6,0.7,6.6c0,0,0,0,0,0l0.8-5.8l1.9,0.8
	c0.1,0.1,0.3,0,0.4-0.2c0,0,0,0,0,0C3.9,1.2,3.8,1,3.7,1L1.4,0C1.2,0,1,0,1,0.2c0,0,0,0,0,0c0,0,0,0,0,0.1L0.1,6.5c0,0,0,0,0,0
	c-0.5,2.9,1.5,5.6,4.4,6.1c1.1,0.2,2.2,0,3.2-0.5l0.4,0.6c0.1,0.1,0.3,0.2,0.4,0.1c0.1-0.1,0.2-0.3,0.1-0.4l-0.1-0.2
	c0.6,0.3,1.3,0.5,2.1,0.5c0.4,0,0.8-0.1,1.2-0.2C13.9,11.9,15.3,9.8,15,7.5L15,7.5z M4.9,1.5c-0.1-0.1-0.3-0.1-0.4,0c0,0,0,0,0,0
	c-0.1,0.1-0.1,0.3,0,0.4C4.6,2,4.7,2,4.9,1.9c0,0,0,0,0,0c0.1-0.1,0.1-0.1,0.1-0.2C4.9,1.6,4.9,1.5,4.9,1.5L4.9,1.5z M13,4L13,4
	c-0.1-0.1-0.3-0.2-0.4-0.1c0,0,0,0,0,0c-0.1,0.1-0.2,0.3-0.1,0.4l0,0c0.1,0.1,0.3,0.2,0.4,0.1c0,0,0,0,0,0C13.1,4.3,13.1,4.2,13,4
	C13,4,13,4,13,4L13,4z"/>
</svg>
