<?xml version="1.0" encoding="utf-8"?>
<!-- Generator: Adobe Illustrator 21.1.0, SVG Export Plug-In . SVG Version: 6.00 Build 0)  -->
<svg version="1.1" id="icon_006-diagonal_arrow" xmlns="http://www.w3.org/2000/svg" xmlns:xlink="http://www.w3.org/1999/xlink"
	 x="0px" y="0px" viewBox="0 0 20 20" style="enable-background:new 0 0 20 20;" xml:space="preserve">
<path id="Tracé_146" d="M16.7,20H5.8C5.4,20,5,19.6,5,19.2s0.4-0.8,0.8-0.8h10.8c0.9,0,1.7-0.7,1.7-1.7V3.3c0-0.9-0.7-1.7-1.7-1.7
	H3.3c-0.9,0-1.7,0.7-1.7,1.7v10.8c0,0.5-0.4,0.8-0.8,0.8S0,14.6,0,14.2V3.3C0,1.5,1.5,0,3.3,0h13.3C18.5,0,20,1.5,20,3.3v13.3
	C20,18.5,18.5,20,16.7,20z"/>
<path id="Tracé_147" d="M8.7,5.8c0-0.5,0.4-0.8,0.8-0.8h4.7c0.5,0,0.8,0.4,0.8,0.8v4.7c0,0.5-0.4,0.9-0.9,0.9s-0.9-0.4-0.9-0.9V7.8
	l-7,7c-0.3,0.3-0.9,0.3-1.2,0c-0.3-0.3-0.3-0.8,0-1.2l7-7H9.6C9.1,6.6,8.7,6.2,8.7,5.8L8.7,5.8z"/>
</svg>
