<?xml version="1.0" encoding="utf-8"?>
<!-- Generator: Adobe Illustrator 21.1.0, SVG Export Plug-In . SVG Version: 6.00 Build 0)  -->
<svg version="1.1" id="share_126495" xmlns="http://www.w3.org/2000/svg" xmlns:xlink="http://www.w3.org/1999/xlink" x="0px"
	 y="0px" viewBox="0 0 20.4 21.6" style="enable-background:new 0 0 20.4 21.6;" xml:space="preserve">
<path id="Tracé_684" d="M16.5,13.9c-1.2,0-2.3,0.6-3.1,1.5l-5.9-3.3c0.1-0.4,0.2-0.8,0.2-1.3c0-0.4-0.1-0.9-0.2-1.3l5.9-3.3
	c1.3,1.7,3.7,2,5.4,0.7c1.7-1.3,2-3.7,0.7-5.4s-3.7-2-5.4-0.7c-1,0.7-1.5,1.9-1.5,3.1c0,0.4,0.1,0.9,0.2,1.3L6.9,8.5
	c-1.3-1.7-3.7-2-5.4-0.7s-2,3.7-0.7,5.4s3.7,2,5.4,0.7c0.3-0.2,0.5-0.5,0.7-0.7l5.9,3.3c-0.7,2,0.3,4.2,2.4,4.9
	c2,0.7,4.2-0.3,4.9-2.4s-0.3-4.2-2.4-4.9C17.4,14,17,13.9,16.5,13.9L16.5,13.9z M16.5,1.2c1.5,0,2.7,1.2,2.7,2.7S18,6.5,16.5,6.5
	c-1.5,0-2.7-1.2-2.7-2.7c0,0,0,0,0,0C13.9,2.4,15,1.2,16.5,1.2z M3.9,13.5c-1.5,0-2.7-1.2-2.7-2.7c0-1.5,1.2-2.7,2.7-2.7
	c1.5,0,2.7,1.2,2.7,2.7c0,0,0,0,0,0C6.5,12.3,5.3,13.5,3.9,13.5z M16.5,20.4c-1.5,0-2.7-1.2-2.7-2.7s1.2-2.7,2.7-2.7
	c1.5,0,2.7,1.2,2.7,2.7l0,0C19.2,19.2,18,20.4,16.5,20.4z"/>
</svg>
