<?xml version="1.0" encoding="utf-8"?>
<!-- Generator: Adobe Illustrator 21.1.0, SVG Export Plug-In . SVG Version: 6.00 Build 0)  -->
<svg version="1.1" id="Layer_1" xmlns="http://www.w3.org/2000/svg" xmlns:xlink="http://www.w3.org/1999/xlink" x="0px" y="0px"
	 viewBox="0 0 21.5 15.2" style="enable-background:new 0 0 21.5 15.2;" xml:space="preserve">
<path id="gmail_1_" d="M21.3,0.6C21.3,0.6,21.3,0.6,21.3,0.6C21.2,0.5,21.2,0.5,21.3,0.6C21.2,0.5,21.2,0.5,21.3,0.6
	c0-0.1,0-0.1,0-0.1l0,0c0,0,0,0,0-0.1l0,0c0,0,0,0-0.1-0.1h0c0,0,0,0-0.1,0l0,0c0,0-0.1,0-0.1,0H0.6c0,0-0.1,0-0.1,0l0,0
	c0,0-0.1,0-0.1,0h0c0,0,0,0-0.1,0.1l0,0c0,0,0,0,0,0.1l0,0c0,0,0,0,0,0c0,0,0,0,0,0.1c0,0,0,0,0,0s0,0,0,0v14.1c0,0,0,0,0,0
	c0,0,0,0,0,0c0,0,0,0,0,0c0,0,0,0,0,0c0,0,0,0,0,0c0,0,0,0,0,0l0,0c0,0,0,0,0,0l0,0l0,0c0,0,0,0,0,0c0,0,0.1,0,0.1,0l0,0
	c0,0,0.1,0,0.1,0h20.4c0,0,0.1,0,0.1,0l0,0c0,0,0.1,0,0.1,0l0,0l0,0l0,0c0,0,0,0,0,0l0,0c0,0,0,0,0,0c0,0,0,0,0,0c0,0,0,0,0,0
	c0,0,0,0,0,0c0,0,0,0,0,0c0,0,0,0,0,0L21.3,0.6z M7.5,7l3,2.6c0.1,0.1,0.3,0.1,0.4,0L14,7l6.3,7.4h-19L7.5,7z M0.9,13.8V1.2l6.2,5.3
	L0.9,13.8z M14.4,6.6l6.2-5.3v12.6L14.4,6.6z M20.1,0.9l-6.3,5.4l0,0l0,0l-3.1,2.6L7.7,6.3l0,0l0,0L1.4,0.9L20.1,0.9z"/>
<path d="M0.5,15.2c-0.1,0-0.1,0-0.2,0c0,0-0.1,0-0.1,0h0l-0.1-0.1c0,0-0.1-0.1-0.1-0.1L0,14.8l0-0.1V0.6c0-0.1,0-0.1,0-0.1l0-0.1
	c0,0,0-0.1,0.1-0.1c0-0.1,0.1-0.1,0.1-0.1l0.1,0c0,0,0,0,0.1,0c0.1,0,0.1,0,0.2,0h20.4c0.1,0,0.1,0,0.2,0c0,0,0.1,0,0.1,0h0l0.1,0
	c0,0,0.1,0.1,0.1,0.1c0,0.1,0.1,0.1,0.1,0.1l0,0.1c0,0,0,0.1,0,0.1l0,0l-0.1,14.3c0,0,0,0,0,0.1l-0.2,0.2c0,0-0.1,0-0.1,0.1
	c-0.1,0-0.1,0-0.2,0H0.5z M0.5,14.7l20.4,0l0-0.1l0-14.1l0,0l-20.4,0l-0.1,0L0.5,14.7L0.5,14.7z M20.8,14.6H0.7l6.8-8l3.2,2.8
	c0,0,0.1,0,0.1,0L14,6.6L20.8,14.6z M1.8,14.1h18l-5.8-6.8l-2.8,2.4c-0.2,0.2-0.5,0.2-0.7,0L7.6,7.3L1.8,14.1z M20.9,14.5l-6.8-8
	l6.8-5.8V14.5z M14.8,6.6l5.6,6.6V1.8L14.8,6.6z M0.6,14.5V0.7l6.8,5.8L0.6,14.5z M1.1,1.8v11.4l5.6-6.6L1.1,1.8z M10.8,9.2l-10-8.6
	h20.1L10.8,9.2z M2.1,1.1l8.7,7.5l8.7-7.5H2.1z"/>
</svg>
