<?xml version="1.0" encoding="utf-8"?>
<!-- Generator: Adobe Illustrator 21.1.0, SVG Export Plug-In . SVG Version: 6.00 Build 0)  -->
<svg version="1.1" id="Layer_1" xmlns="http://www.w3.org/2000/svg" xmlns:xlink="http://www.w3.org/1999/xlink" x="0px" y="0px"
	 viewBox="0 0 34.7 35" style="enable-background:new 0 0 34.7 35;" xml:space="preserve">
<path id="ico_biodiversité" d="M25.5,33.9c0,0.6-0.5,1.1-1.1,1.1c0,0,0,0,0,0h-0.5c-0.4,0-0.8-0.3-1-0.6c-1-2.1-1.7-4.4-2-6.8
	c-1.7-0.3-3.4-0.2-5.1,0.4c0,0-0.1,0.1-0.1,0.1c0.1,1.1,0.1,2.1,0,3.2c1.7,1.7,1.5,1.5,1.6,1.5c0.6,0,1.1,0.5,1.1,1.1
	c0,0.6-0.5,1.1-1.1,1.1c-0.5,0-0.9,0.1-1.3-0.3l-2.2-2.2c-0.2-0.2-0.3-0.5-0.3-0.8v-2l-1,0.7l0,0c-0.5,0.4-1.2,0.3-1.5-0.2
	c-0.4-0.5-0.3-1.2,0.2-1.5c0,0,0,0,0,0l2.3-1.7c1.1-0.8,1.3-2.3,0.6-3.4c-0.1-0.1-0.2-0.2-0.3-0.3l-0.6-0.6
	c-0.4-0.4-0.4-1.1,0.1-1.5c0.4-0.4,1-0.4,1.5,0l0.6,0.6c1,1,1.4,2.3,1.3,3.6c1.3-0.2,2.6-0.3,3.8-0.1c0-0.4,0-0.8,0-1.2
	c0-0.6,0.5-1.1,1.1-1.1c0.6,0,1,0.5,1.1,1.1c0,3,0.6,6,1.8,8.7v0C25.1,32.9,25.5,33.4,25.5,33.9z M34.4,18.5L34.4,18.5L33,17.1
	c-0.6-2-2.4-3.3-4.4-3.2c-1.3-0.9-3.2-0.6-4.2,0.7c-0.9,1.3-0.6,3.2,0.7,4.2c0.5,0.4,1.1,0.5,1.7,0.5c0.6,0,1.1-0.5,1.1-1.1
	c0-0.6-0.5-1.1-1-1.1h-0.1c-0.4,0-0.8-0.4-0.8-0.8c0-0.4,0.3-0.8,0.8-0.8h0c0.6,0,0.6,0.6,1.3,0.6c0.1,0,0.1,0,0.5,0
	c1.1,0,2,0.8,2.2,1.8c0.1,0.4,0.2,0.5,1.5,1.7c-0.1,0.1-0.3,0.2-0.4,0.2c-1.8,0-1.8,0-2.1,0.1l-1.3,0.6c-2.6,1.1-4.5,3.4-5.3,6.1
	c-0.2,0.6,0.2,1.2,0.8,1.3c0.4,0.1,0.8,0,1.1-0.3c0.3,2.3,1,4.6,2,6.7c0.2,0.4,0.6,0.6,1,0.6h0.5c0.6,0,1.1-0.5,1.1-1.1
	c0-0.5-0.4-1-0.9-1.1c-1.2-2.7-1.8-5.7-1.8-8.7c1-1,2.2-1.8,3.5-2.2H32C34.3,22,35.3,19.4,34.4,18.5z M13,33.9
	c0,0.6-0.5,1.1-1.1,1.1c0,0,0,0,0,0c-0.5,0-0.9,0.1-1.3-0.3l-2.2-2.2c-0.2-0.2-0.3-0.5-0.3-0.8v-2.8c0-1.2-0.3-2.3-0.9-3.3
	c-0.5-0.8-0.9-1.7-1.1-2.7C2.6,22.5,0,19.5,0,16v0C0,7.2,7.2,0,16,0h8.7c0.6,0,1.1,0.5,1.1,1.1c0,0.2-0.1,0.5-0.2,0.6
	c-2.1,2.8-5.4,4.5-8.9,4.5h-1.5c-4.8,0-8.7,3.9-8.7,8.7c0,0.9,0.7,1.6,1.6,1.6c1.2-1.1,2.7-1.6,4.2-1.6c3.3,0.1,6.6,0.5,9.9,1.2
	c0.6,0.1,1,0.7,0.9,1.3c-0.1,0.6-0.7,1-1.3,0.9c-4.1-0.7-6.2-1.2-9.5-1.2h0c-2.3,0-4.2,1.9-4.2,4.2c0,1.2,0.3,2.3,0.9,3.3
	c1.4,2.4,1.2,4.2,1.2,6.8l1.5,1.5c0,0,0.1,0,0.1,0C12.5,32.8,13,33.3,13,33.9z M6.6,18.4c-1.4-0.6-2.3-2-2.3-3.5
	c0-6,4.9-10.8,10.9-10.9h1.5c2,0,3.9-0.7,5.5-1.9h-4.4v0.3c0,0,0,0,0,0.1c0,0.6-0.6,1-1.2,1c-0.6,0-1-0.5-1-1.1V2.2
	c-0.6,0-1.2,0.1-1.8,0.2V3c0,0.6-0.5,1.1-1.1,1.1c-0.6,0-1.1-0.5-1.1-1.1V2.9c-0.4,0.1-0.7,0.3-1,0.4l0.1,0.2C11,4,10.9,4.7,10.3,5
	C9.8,5.3,9.2,5.1,8.9,4.6l0,0L8.6,4.3C8.1,4.6,7.6,5,7.2,5.4l0.2,0.2c0,0,0,0,0.1,0.1c0.4,0.5,0.3,1.2-0.2,1.5
	C6.7,7.5,6,7.4,5.7,6.9c0,0,0,0,0,0c-0.3,0.3-0.5,0.6-0.8,1l0.3,0.4c0.4,0.5,0.3,1.1-0.1,1.5c-0.4,0.3-1,0.3-1.4,0
	c-0.2,0.4-0.4,0.8-0.5,1.2l0.6,0.3c0.5,0.3,0.8,0.9,0.5,1.4c-0.3,0.5-0.9,0.8-1.4,0.5l0,0L2.5,13c-0.1,0.2-0.1,0.5-0.1,0.7l0.5,0.1
	c0.6,0.1,1,0.6,0.9,1.2c-0.1,0.6-0.6,1-1.2,0.9l0,0l-0.4-0.1c0,0.2,0,0.5,0,0.7c0.5-0.3,1.2-0.1,1.5,0.5c0.3,0.5,0.1,1.1-0.4,1.4
	L3,18.7l0,0c0.7,1,1.8,1.8,3,2C6.1,19.9,6.3,19.1,6.6,18.4L6.6,18.4z"/>
</svg>
