<?xml version="1.0" encoding="utf-8"?>
<!-- Generator: Adobe Illustrator 21.1.0, SVG Export Plug-In . SVG Version: 6.00 Build 0)  -->
<svg version="1.1" id="Layer_1" xmlns="http://www.w3.org/2000/svg" xmlns:xlink="http://www.w3.org/1999/xlink" x="0px" y="0px"
	 viewBox="0 0 39 39" style="enable-background:new 0 0 39 39;" xml:space="preserve">
<path id="ico_medicinal" d="M20.5,14l1.5-1.2l0.8,1L21.3,15L20.5,14z M23.6,13.1l7-5.7l-0.8-1l-7,5.7L23.6,13.1z M17.8,26.3
	l-0.3-1.2c-0.3,0.1-0.5,0.1-0.8,0.1h-0.3v1.3h0.3C17,26.4,17.4,26.4,17.8,26.3L17.8,26.3z M19.8,24.9l0.3-0.3l-1-0.8l-0.3,0.3
	c-0.1,0.2-0.3,0.3-0.5,0.5l0.8,1C19.4,25.4,19.6,25.2,19.8,24.9L19.8,24.9z M39,5.3L27.2,19.8c2.9,0.6,6.8,1.9,6.8,4.1
	c0,4.9-2.8,9.3-7.2,11.4c1.6,0.2,2.8,1.5,2.8,3.1V39H4.4v-0.6c0-1.6,1.2-2.9,2.8-3.1C2.8,33.2,0,28.8,0,23.9c0-1,0.9-2,2.5-2.8
	c0-0.1,0-0.3,0-0.4v-4.4h0.6c2.8,0,5.4,1.5,6.9,3.8v-1.3c0-4.5,3.7-8.2,8.2-8.2h0.6v1.4L33.7,0H34c2.8,0,5,2.3,5,5V5.3z M11.3,22
	c3.6-0.3,6.3-3.3,6.3-6.9V12c-3.6,0.3-6.3,3.3-6.3,6.9V22z M18.9,15.1c0,4.3-3.4,7.9-7.7,8.2c0.1,0.4,0.1,0.9,0.1,1.3v2.9
	c1.6,0.2,3.4,0.3,5.4,0.3c1.6,0,3.1-0.7,4.1-2L36.4,6.4c-1.8-0.7-3.1-2.1-3.9-3.9L18.9,13.7L18.9,15.1L18.9,15.1z M3.8,20.8
	c0,2.5,1.4,4.9,3.6,6.1c0.8,0.2,1.7,0.3,2.7,0.4v-2.7c0-3.6-2.7-6.6-6.3-6.9V20.8z M2.7,22.5c-0.9,0.5-1.4,1-1.4,1.4
	c0,0.7,1.1,1.5,3.2,2.2C3.6,25.1,3,23.8,2.7,22.5L2.7,22.5z M7.5,36.5c-0.8,0-1.5,0.5-1.8,1.3h22.4c-0.3-0.8-1-1.3-1.8-1.3H7.5z
	 M32.5,26.1c-2.8,1.9-9.2,2.8-15.5,2.8h-0.3c-6.2,0-12.4-1-15.2-2.8c1.1,5.3,5.7,9.1,11.1,9.1h8.8C26.8,35.2,31.4,31.4,32.5,26.1
	L32.5,26.1z M32.7,23.9c0-0.9-2-2.1-6.4-3l-4.5,5.6c-0.3,0.4-0.7,0.8-1.1,1.1C28.2,27.1,32.7,25.3,32.7,23.9L32.7,23.9z M37.7,4.8
	c-0.1-1.9-1.6-3.4-3.6-3.5l-0.6,0.5c0.6,1.7,1.9,3.1,3.7,3.7L37.7,4.8z M28.8,28.6c-1.6,2.6-4.4,4.1-7.4,4.1h-2.5V34h2.5
	c3.4,0,6.7-1.8,8.5-4.7L28.8,28.6z M16.4,34h1.3v-1.3h-1.3V34z M13.8,34h1.3v-1.3h-1.3L13.8,34z M13.8,26.4h1.3v-1.3h-1.3L13.8,26.4
	z"/>
</svg>
