<?xml version="1.0" encoding="utf-8"?>
<!-- Generator: Adobe Illustrator 21.1.0, SVG Export Plug-In . SVG Version: 6.00 Build 0)  -->
<svg version="1.1" id="Layer_1" xmlns="http://www.w3.org/2000/svg" xmlns:xlink="http://www.w3.org/1999/xlink" x="0px" y="0px"
	 viewBox="0 0 18.2 18.2" style="enable-background:new 0 0 18.2 18.2;" xml:space="preserve">
<path id="tree_fire" d="M16.6,9.4c0-0.9-0.4-1.8-1-2.5c0.3-1,0.1-2-0.6-2.7c0.3-1.1-0.3-2.2-1.4-2.5S11.4,2,11.1,3.1
	c-0.1,0.4-0.1,0.7,0,1.1c-0.7,0.7-1,1.8-0.7,2.7C10.1,7.2,9.8,7.6,9.7,8C9.3,7.7,8.9,7.7,8.5,8C8.4,7.6,8.1,7.2,7.8,6.9
	c0.3-1,0.1-2-0.6-2.7C7.5,3.1,6.8,2,5.8,1.7S3.6,2,3.3,3.1c-0.1,0.4-0.1,0.7,0,1.1C2.6,4.9,2.3,6,2.6,6.9C1.2,8.4,1.3,10.6,2.7,12
	c0.6,0.5,1.3,0.9,2.1,1v3.2c0,0.2,0.2,0.4,0.4,0.4s0.4-0.2,0.4-0.4l0,0V13c0.1,0,0.2,0,0.3,0c0,0.1,0,0.2,0,0.4
	c0,0.8,0.3,1.7,0.8,2.3c0.6,0.7,1.5,1,2.4,1c0.9,0,1.7-0.4,2.3-1c0.6-0.7,0.9-1.6,0.9-2.6c0,0,0,0,0,0c0.1,0,0.2,0,0.2,0v3.2
	c0,0.2,0.2,0.4,0.4,0.4s0.4-0.2,0.4-0.4V13C15.2,12.8,16.6,11.2,16.6,9.4z M5.6,12.1v-1l1-0.7c0.2-0.2,0.2-0.4,0-0.6
	C6.5,9.5,6.3,9.5,6.1,9.6L5.7,10V5.6c0-0.2-0.2-0.4-0.4-0.4C5,5.1,4.8,5.3,4.8,5.6v2.9L4.3,8.2C4.1,8,3.8,8,3.7,8.2
	c-0.2,0.2-0.1,0.5,0,0.6c0,0,0,0,0,0l1,0.7v2.5C3.3,11.9,2.3,10.5,2.5,9c0.1-0.6,0.4-1.2,0.9-1.6C3.6,7.2,3.6,7,3.5,6.9
	C3.2,6.1,3.4,5.2,4.1,4.6c0.2-0.1,0.2-0.3,0.1-0.5C4.1,4,4.1,3.8,4.1,3.6c0-0.6,0.5-1.1,1.2-1.1c0.6,0,1.1,0.5,1.1,1.1
	c0,0.2,0,0.3-0.1,0.5c-0.1,0.2,0,0.4,0.1,0.5C7,5.2,7.2,6.1,6.9,6.9C6.8,7,6.8,7.2,7,7.4c0.6,0.5,0.9,1.3,0.9,2.1
	c0,0.1,0,0.2,0.1,0.2c-0.1,0.2-0.3,0.5-0.5,0.6c-0.5,0.5-1,1-1.3,1.6C6,12,5.9,12.1,5.6,12.1L5.6,12.1z M8.4,14.9
	c0.1-0.5,0.3-0.9,0.7-1.1c0.4,0.3,0.7,0.7,0.7,1.1c0,0.4-0.3,0.8-0.7,0.8C8.7,15.7,8.3,15.3,8.4,14.9L8.4,14.9z M10.8,15
	C10.8,15,10.7,15,10.8,15C10.7,15,10.7,15,10.8,15c-0.1-0.7-0.3-1.2-0.8-1.6c-0.2-0.2-0.4-0.4-0.7-0.5c-0.1-0.1-0.3-0.1-0.4,0
	c-0.2,0.2-0.5,0.3-0.7,0.5c-0.4,0.4-0.7,0.9-0.7,1.5c0,0.1,0,0.2,0,0.3c-0.1,0-0.1-0.1-0.1-0.1C7,14.6,6.7,14,6.8,13.3
	c0-0.3,0.1-0.6,0.2-0.8c0,0,0,0,0,0c0.3-0.6,0.7-1.1,1.2-1.5c0.6-0.6,1-1.4,1-2.3c0.5,0.4,0.9,0.9,1.2,1.4c0.7,0.8,1.1,1.8,1.1,2.9
	C11.5,13.7,11.2,14.4,10.8,15L10.8,15z M13.4,12.1v-1l1-0.7c0.2-0.2,0.2-0.4,0-0.6c-0.1-0.2-0.4-0.2-0.6-0.1L13.4,10V5.6
	c0-0.2-0.2-0.4-0.4-0.4s-0.4,0.2-0.4,0.4v2.9l-0.5-0.4c-0.2-0.2-0.5-0.1-0.6,0c-0.2,0.2-0.1,0.5,0,0.6c0,0,0,0,0,0l1,0.7v2.5
	c-0.1,0-0.2,0-0.3-0.1c-0.2-0.9-0.6-1.7-1.2-2.5c-0.2-0.3-0.4-0.6-0.7-0.8c0.1-0.5,0.4-1,0.8-1.4c0.1-0.1,0.2-0.3,0.1-0.5
	c-0.4-0.8-0.1-1.7,0.5-2.2C12,4.5,12.1,4.3,12,4.1c-0.1-0.2-0.1-0.3-0.1-0.5c0-0.6,0.5-1.2,1.1-1.2s1.2,0.5,1.2,1.1c0,0,0,0,0,0.1
	c0,0.2,0,0.3-0.1,0.5c-0.1,0.2,0,0.4,0.1,0.5c0.7,0.5,0.9,1.4,0.5,2.2c-0.1,0.2,0,0.4,0.1,0.5c1.1,1,1.3,2.7,0.3,3.8
	C14.6,11.7,14.1,12,13.4,12.1L13.4,12.1z"/>
<rect x="-3.3" y="8.6" transform="matrix(0.7071 -0.7071 0.7071 0.7071 -3.7707 9.1033)" width="24.7" height="1"/>
</svg>
