<?xml version="1.0" encoding="utf-8"?>
<!-- Generator: Adobe Illustrator 21.1.0, SVG Export Plug-In . SVG Version: 6.00 Build 0)  -->
<svg version="1.1" id="Layer_1" xmlns="http://www.w3.org/2000/svg" xmlns:xlink="http://www.w3.org/1999/xlink" x="0px" y="0px"
	 viewBox="0 0 35 34.4" style="enable-background:new 0 0 35 34.4;" xml:space="preserve">
<path id="ico_amelioration" d="M28.1,2.8V2c0,0,0,0,0,0c0-0.3,0.3-0.6,0.6-0.6c0.3,0,0.6,0.3,0.6,0.6c0,0,0,0,0,0v0.8
	c0,0.3-0.2,0.6-0.5,0.6C28.4,3.4,28.1,3.1,28.1,2.8C28.1,2.8,28.1,2.8,28.1,2.8z M28.7,6.6c0.3,0,0.6-0.3,0.6-0.6V5.2
	c0-0.3-0.2-0.6-0.5-0.6c-0.3,0-0.6,0.2-0.6,0.5c0,0,0,0,0,0c0,0,0,0,0,0V6C28.1,6.3,28.4,6.6,28.7,6.6C28.7,6.6,28.7,6.6,28.7,6.6
	L28.7,6.6z M26.6,4.6h0.9c0.3,0,0.6-0.2,0.6-0.6c0-0.3-0.2-0.6-0.5-0.6h-0.9c-0.3,0-0.6,0.2-0.6,0.6C26.1,4.3,26.3,4.6,26.6,4.6z
	 M29.9,4.6h0.9c0.3,0,0.6-0.2,0.6-0.6c0-0.3-0.2-0.6-0.5-0.6h-0.9c-0.3,0-0.6,0.2-0.6,0.6C29.3,4.3,29.6,4.6,29.9,4.6z M19.5,2
	c0-1.1,0.9-2,2-2s2,0.9,2,2s-0.9,2-2,2l0,0C20.4,4,19.5,3.1,19.5,2z M20.7,2c0,0.5,0.4,0.9,0.9,0.9c0.5,0,0.9-0.4,0.9-0.9
	c0-0.5-0.4-0.9-0.9-0.9C21,1.1,20.7,1.5,20.7,2C20.7,2,20.7,2,20.7,2z M33.3,10.9c0.3,0,0.6-0.3,0.6-0.6c0-0.3-0.3-0.6-0.6-0.6
	c-0.3,0-0.6,0.3-0.6,0.6C32.7,10.6,33,10.9,33.3,10.9L33.3,10.9z M34.6,34.4c-0.1,0-0.1,0-0.2,0c-0.3,0-0.5-0.2-0.6-0.4l-4.5-15.6
	h-2.3l2.7,15.4c0.1,0.3-0.1,0.6-0.4,0.7s-0.6-0.1-0.7-0.4c0,0,0,0,0,0l-2.8-15.6H23l0.4,6.1c0,0.3-0.2,0.6-0.5,0.6c0,0,0,0,0,0h0
	c-0.3,0-0.6-0.2-0.6-0.5l-0.4-6.2h-3.5v15.5c0,0.3-0.3,0.6-0.6,0.5c-0.3,0-0.5-0.3-0.5-0.5V18.4h-4.1l-0.7,10.4
	c0,0.3-0.3,0.5-0.6,0.5h0c-0.3,0-0.6-0.3-0.5-0.6c0,0,0,0,0,0L12,18.4H9.1L6.3,34c0,0.3-0.3,0.5-0.6,0.5c0,0-0.1,0-0.1,0
	c-0.3-0.1-0.5-0.4-0.5-0.7l2.7-15.4H5.6L1.1,34c-0.1,0.3-0.4,0.4-0.7,0.3C0.1,34.2,0,34,0,33.7l4.6-16.1c0.1-0.2,0.3-0.4,0.6-0.4
	h2.9l0.3-2.5c-1.9-0.4-3.6-1.7-4.5-3.4c-1.7-1.1-2.1-3.4-1-5.1c0.3-0.4,0.6-0.7,1-1c1.7-3.2,5.6-4.5,8.9-2.8C14,3.1,15,4.1,15.6,5.3
	c0.8,0.6,1.3,1.5,1.6,2.5L18,7c0.1-0.1,0.2-0.1,0.4-0.1H23c0.1,0,0.3,0.1,0.4,0.1l5.2,4.6c0,0,0,0,0,0c0,0,0.1,0.1,0.1,0.1
	c0,0,0,0,0,0c0,0.1,0,0.2,0,0.2v5.2h1.1c0.3,0,0.5,0.2,0.6,0.4L35,33.7h0C35.1,34,34.9,34.3,34.6,34.4L34.6,34.4z M10.3,17.2
	L10,14.9c-0.1,0-0.2,0-0.3,0s-0.2,0-0.2,0l-0.3,2.3L10.3,17.2z M12.6,14.3c-0.5,0.2-1,0.4-1.5,0.5l0.3,2.5h1.2L12.6,14.3z
	 M14.6,10.7c0-0.1,0.1-0.1,0.2-0.2C16,9.8,16.4,8.2,15.7,7c-0.2-0.4-0.5-0.7-0.9-0.9C14.7,6,14.7,6,14.6,5.9
	c-1.3-2.7-4.6-3.8-7.3-2.5C6.3,3.9,5.4,4.8,4.9,5.9C4.8,6,4.8,6,4.7,6.1C3.5,6.8,3.1,8.4,3.8,9.6C4,10,4.3,10.3,4.7,10.5
	c0.1,0.1,0.1,0.1,0.2,0.2l0,0c1.3,2.7,4.6,3.8,7.3,2.5C13.2,12.7,14.1,11.8,14.6,10.7z M19.5,14.9c0-0.6-0.5-1.1-1.1-1.1
	c-0.6,0-1.1,0.5-1.1,1.1v2.3h2.3V14.9z M23,12.3l-4.6-4.1L17,9.4c-0.3,0.8-0.8,1.4-1.4,1.9c-0.4,0.9-1.1,1.6-1.8,2.2v3.7h2.3v-2.3
	c-0.1-1.3,0.9-2.4,2.2-2.4c1.3-0.1,2.4,0.9,2.4,2.2c0,0.1,0,0.2,0,0.3v2.3H23L23,12.3z M23.8,11.5h2.9L22.7,8h-2.9L23.8,11.5z
	 M27.6,12.6h-3.4v4.6h3.4L27.6,12.6z M23,26.8L23,26.8L23,26.8c-0.3,0-0.6,0.3-0.5,0.6c0,0,0,0,0,0l0.5,6.5c0,0.3,0.3,0.5,0.6,0.5h0
	c0.3,0,0.6-0.3,0.5-0.6l0,0l-0.5-6.5C23.6,27,23.3,26.8,23,26.8C23,26.8,23,26.8,23,26.8z M11.7,30.2c-0.3,0-0.6,0.2-0.6,0.5
	c0,0,0,0,0,0v0l-0.2,3.1c0,0.3,0.2,0.6,0.5,0.6c0,0,0,0,0,0h0c0.3,0,0.6-0.2,0.6-0.5l0.2-3.1C12.3,30.5,12.1,30.2,11.7,30.2z
	 M17.2,10.9c0,0.6,0.5,1.1,1.1,1.1c0.6,0,1.1-0.5,1.1-1.1S19,9.8,18.4,9.8l0,0C17.7,9.8,17.2,10.3,17.2,10.9z M13.2,7.5
	c-0.6,0-1.1,0.5-1.1,1.1s0.5,1.1,1.1,1.1s1.1-0.5,1.1-1.1S13.8,7.5,13.2,7.5L13.2,7.5z M12.6,5.2c0-0.3-0.3-0.6-0.6-0.6
	c-0.3,0-0.6,0.3-0.6,0.6c0,0.3,0.3,0.6,0.6,0.6C12.4,5.7,12.6,5.5,12.6,5.2L12.6,5.2z M9.8,5.7c0-0.6-0.5-1.1-1.2-1.1
	S7.5,5.1,7.5,5.7c0,0.6,0.5,1.1,1.1,1.1C9.2,6.9,9.8,6.4,9.8,5.7C9.8,5.7,9.8,5.7,9.8,5.7L9.8,5.7z M6,7.5c-0.5,0-0.9,0.4-0.9,0.9
	S5.6,9.2,6,9.2s0.9-0.4,0.9-0.9S6.5,7.5,6,7.5L6,7.5z M10,8C9.6,8,9.2,8.4,9.2,8.9S9.6,9.8,10,9.8s0.9-0.4,0.9-0.9
	C10.9,8.4,10.5,8,10,8L10,8z M9.2,10.3c-0.6,0-1.1,0.5-1.1,1.1s0.5,1.1,1.1,1.1s1.1-0.5,1.1-1.1C10.3,10.8,9.8,10.3,9.2,10.3
	C9.2,10.3,9.2,10.3,9.2,10.3L9.2,10.3z"/>
</svg>
