<?xml version="1.0" encoding="utf-8"?>
<!-- Generator: Adobe Illustrator 21.1.0, SVG Export Plug-In . SVG Version: 6.00 Build 0)  -->
<svg version="1.1" id="Layer_1" xmlns="http://www.w3.org/2000/svg" xmlns:xlink="http://www.w3.org/1999/xlink" x="0px" y="0px"
	 viewBox="0 0 30.5 40" style="enable-background:new 0 0 30.5 40;" xml:space="preserve">
<path id="ico_empreinte_ecologique" d="M30.5,38.8V10.5c0-0.6-0.5-1.2-1.2-1.2c0,0,0,0,0,0h-3.5V3.5c0-1.9-1.6-3.5-3.5-3.5H8.2
	C6.3,0,4.7,1.6,4.7,3.5v5.9H1.2C0.5,9.4,0,9.9,0,10.5l0,0v28.3C0,39.5,0.5,40,1.2,40h28.1C29.9,40,30.5,39.5,30.5,38.8
	C30.5,38.8,30.5,38.8,30.5,38.8L30.5,38.8z M21.1,2.3h1.2c0.6,0,1.2,0.5,1.2,1.2v5.9h-2.3L21.1,2.3z M11.7,2.3h7v2.3h-7L11.7,2.3z
	 M11.7,7h7v2.3h-7L11.7,7z M7,3.5c0-0.6,0.5-1.2,1.2-1.2h1.2v7H7L7,3.5z M28.1,37.7H2.3V11.7h25.8L28.1,37.7z M15.2,35.2
	c5.8,0,10.5-4.7,10.5-10.5s-4.7-10.5-10.5-10.5c-5.8,0-10.5,4.7-10.5,10.5l0,0C4.7,30.5,9.4,35.2,15.2,35.2L15.2,35.2z M19,17.4
	c1.7,0.9,3.1,2.4,3.8,4.2c-0.5,0.3-1,0.7-1.4,1.1c-0.8,1-1.4,2.2-1.8,3.4c-0.1,0.4-0.3,0.8-0.4,1.1c-0.2,0.1-0.4,0.2-0.6,0.2
	c0-0.3,0.1-0.7,0.2-0.9c0.3-1.3,0.6-2.8-0.4-3.8c-0.8-0.7-2-0.8-3-0.3c-0.2,0.1-0.4,0.1-0.6,0.2c-0.2-0.4-0.3-0.9-0.2-1.4
	c0-0.5,0.1-0.9,0.2-1.4l0,0c0.7,0.3,1.4,0.3,2.1,0C17.3,19.7,17.7,19.3,19,17.4L19,17.4z M15.2,16.5c0.5,0,1,0,1.5,0.1
	c-0.3,0.4-0.5,0.8-0.8,1.1c-0.1,0-0.2-0.1-0.3-0.1c-0.8-0.4-1.7-0.2-2.4,0.3c-0.6,0.9-1,1.9-0.9,3c-0.1,1.2,0.2,2.4,0.9,3.3
	c0.8,0.7,2,0.8,3,0.3c0.1-0.1,0.3-0.1,0.5-0.2c0,0.5-0.1,1.1-0.2,1.6c-0.2,1.2-0.5,2.3,0.3,3c1.1,1,2.6,1,3.8,0.2
	c0.7-0.6,1.2-1.4,1.3-2.3c0.2-0.9,0.7-1.8,1.2-2.6c0.1-0.1,0.2-0.2,0.3-0.3c0,0.2,0,0.4,0,0.6c0,4.5-3.7,8.2-8.2,8.2
	c-1.1-3-1.2-3.6-1.2-3.7c0-0.2,0-0.4,0.1-0.5c0.3-0.8,0.2-1.8-0.4-2.4c-0.6-0.6-1.6-0.7-2.4-0.4c-0.1,0-0.2,0.1-0.4,0.1
	c-0.2-0.2-0.5-0.5-0.6-0.7c-0.4-0.6-0.9-1.1-1.4-1.5c-0.5-0.4-1.1-0.7-1.6-0.9C8.1,19.1,11.4,16.5,15.2,16.5L15.2,16.5z M7.5,25.6
	c0.4,0.3,0.7,0.6,1,1c0.4,0.6,1,1.1,1.6,1.5c0.6,0.2,1.2,0.2,1.8,0c-0.1,0.5-0.2,1-0.1,1.4c0.2,1,0.5,2,0.9,2.9
	c-3.1-1.1-5.3-3.8-5.6-7.1C7.3,25.5,7.4,25.6,7.5,25.6L7.5,25.6z"/>
</svg>
