<?xml version="1.0" encoding="utf-8"?>
<!-- Generator: Adobe Illustrator 21.1.0, SVG Export Plug-In . SVG Version: 6.00 Build 0)  -->
<svg version="1.1" id="three-quarters-of-an-hour" xmlns="http://www.w3.org/2000/svg" xmlns:xlink="http://www.w3.org/1999/xlink"
	 x="0px" y="0px" viewBox="0 0 12.8 12.8" style="enable-background:new 0 0 12.8 12.8;" xml:space="preserve">
<g id="Layer_2_25_" transform="translate(0 0)">
	<g id="Groupe_30" transform="translate(0 0)">
		<path id="Tracé_143" d="M6.4,0C2.9,0,0,2.9,0,6.4s2.9,6.4,6.4,6.4s6.4-2.9,6.4-6.4C12.8,2.9,9.9,0,6.4,0z M6.4,11.3
			c-2.7,0-4.9-2.2-4.9-4.9s2.2-4.9,4.9-4.9s4.9,2.2,4.9,4.9C11.3,9.1,9.1,11.3,6.4,11.3L6.4,11.3z"/>
		<path id="Tracé_144" d="M6.4,2L6.4,2l0,4.3H2c0,0,0,0,0,0c0,2.4,2,4.4,4.4,4.4s4.4-2,4.4-4.4S8.8,2,6.4,2L6.4,2z"/>
	</g>
</g>
</svg>
