<?xml version="1.0" encoding="utf-8"?>
<!-- Generator: Adobe Illustrator 21.1.0, SVG Export Plug-In . SVG Version: 6.00 Build 0)  -->
<svg version="1.1" id="quotes_32371" xmlns="http://www.w3.org/2000/svg" xmlns:xlink="http://www.w3.org/1999/xlink" x="0px"
	 y="0px" viewBox="0 0 10.8 10" style="enable-background:new 0 0 10.8 10;" xml:space="preserve">
<path id="Tracé_244" d="M4.6,0.4v1.8c0,0.2-0.2,0.4-0.4,0.4c-0.9,0-1.3,0.9-1.4,2.7h1.4c0.2,0,0.4,0.2,0.4,0.4v3.8
	c0,0.2-0.2,0.4-0.4,0.4H0.4C0.2,10,0,9.8,0,9.6c0,0,0,0,0,0V5.8C0,5,0.1,4.2,0.3,3.5C0.4,2.8,0.7,2.2,1,1.7c0.3-0.5,0.8-0.9,1.3-1.2
	C2.9,0.1,3.6,0,4.2,0C4.4,0,4.6,0.2,4.6,0.4C4.6,0.4,4.6,0.4,4.6,0.4z M10.3,2.7c0.2,0,0.4-0.2,0.4-0.4V0.4c0-0.2-0.2-0.4-0.4-0.4
	C9.1,0,7.9,0.6,7.2,1.6C6.8,2.2,6.5,2.8,6.4,3.5C6.2,4.2,6.1,5,6.1,5.8v3.8c0,0.2,0.2,0.4,0.4,0.4h3.8c0.2,0,0.4-0.2,0.4-0.4V5.8
	c0-0.2-0.2-0.4-0.4-0.4H8.9C9,3.6,9.5,2.7,10.3,2.7z"/>
</svg>
