<?xml version="1.0" encoding="utf-8"?>
<!-- Generator: Adobe Illustrator 21.1.0, SVG Export Plug-In . SVG Version: 6.00 Build 0)  -->
<svg version="1.1" id="Layer_1" xmlns="http://www.w3.org/2000/svg" xmlns:xlink="http://www.w3.org/1999/xlink" x="0px" y="0px"
	 viewBox="0 0 35 33.8" style="enable-background:new 0 0 35 33.8;" xml:space="preserve">
<path id="ico_revenu" d="M20.9,25.6c0,0.3-0.2,0.5-0.5,0.5H0.5c-0.3,0-0.5-0.2-0.5-0.5v-14l0,0c0-0.3,0.2-0.5,0.5-0.5h29.2
	c0.3,0,0.5,0.2,0.5,0.5v1.8l0,0c0,0.3-0.2,0.5-0.5,0.5s-0.5-0.2-0.5-0.5v-1.3H1v13h19.4C20.7,25.1,20.9,25.4,20.9,25.6
	C20.9,25.6,20.9,25.6,20.9,25.6z M1.5,9.8c0.3,0.1,0.5-0.1,0.6-0.4c0,0,0,0,0,0c0,0,0,0,0,0l1.1-4.8l22.9,5.2c0,0,0.1,0,0.1,0
	c0.3,0,0.5-0.2,0.5-0.5c0-0.2-0.2-0.4-0.4-0.5l0,0L2.9,3.5C2.7,3.5,2.4,3.6,2.4,3.9c0,0,0,0,0,0l0,0L1.2,9.2
	C1.1,9.4,1.3,9.7,1.5,9.8C1.5,9.8,1.5,9.8,1.5,9.8z M7.9,3.3c0.2,0.1,0.5,0,0.7-0.2c0,0,0,0,0,0c0,0,0,0,0,0l1-1.9l13.6,5.7
	c0.3,0.1,0.5,0,0.7-0.2c0,0,0,0,0,0c0.1-0.3,0-0.5-0.2-0.7c0,0,0,0,0,0l0,0l0,0L9.5,0C9.2-0.1,8.9,0,8.8,0.3L7.7,2.6
	C7.5,2.9,7.6,3.2,7.9,3.3C7.9,3.3,7.9,3.3,7.9,3.3L7.9,3.3z M24.4,14c0-0.3-0.2-0.5-0.5-0.5h-4.6c-0.3,0-0.5,0.2-0.5,0.5
	s0.2,0.5,0.5,0.5h4.6C24.1,14.5,24.4,14.2,24.4,14C24.4,14,24.4,14,24.4,14L24.4,14z M9.4,18.6c0-2.8,2.3-5.1,5.1-5.1
	c2.8,0,5.1,2.3,5.1,5.1c0,0,0,0,0,0c0,2.8-2.3,5.1-5.1,5.1C11.7,23.8,9.4,21.5,9.4,18.6L9.4,18.6z M10.3,18.6c0,2.3,1.9,4.2,4.2,4.2
	c0,0,0,0,0,0c2.3,0,4.2-1.9,4.2-4.2c0,0,0,0,0,0c0-2.3-1.9-4.2-4.2-4.2c0,0,0,0,0,0C12.2,14.4,10.3,16.3,10.3,18.6
	C10.3,18.6,10.3,18.6,10.3,18.6L10.3,18.6z M35,17.5v14c0,1.6-3.3,2.3-6.4,2.3s-6.4-0.7-6.4-2.3v-14c0-1.6,3.3-2.3,6.4-2.3
	S35,15.9,35,17.5L35,17.5z M23.3,17.5c0.1,0.3,1.8,1.2,5.3,1.2c3.4,0,5.1-0.8,5.3-1.2c-0.1-0.3-1.9-1.2-5.3-1.2
	C25.2,16.3,23.4,17.1,23.3,17.5L23.3,17.5z M23.3,19.8c0.1,0.3,1.8,1.2,5.3,1.2s5.2-0.9,5.3-1.2v-0.9c-3.4,1.2-7.1,1.2-10.5,0
	L23.3,19.8z M23.3,22.1c0.1,0.3,1.8,1.2,5.3,1.2s5.2-0.9,5.3-1.2v-0.9c-3.4,1.2-7.1,1.2-10.5,0L23.3,22.1z M23.3,24.5
	c0.1,0.3,1.8,1.2,5.3,1.2s5.2-0.9,5.3-1.2v-0.9c-3.4,1.2-7.1,1.2-10.5,0L23.3,24.5z M33.8,30.6c-3.4,1.2-7.1,1.2-10.5,0v0.9
	c0.1,0.3,1.8,1.2,5.3,1.2s5.2-0.9,5.3-1.2L33.8,30.6z M33.8,28.2c-3.4,1.2-7.1,1.2-10.5,0v0.9c0.1,0.3,1.8,1.2,5.3,1.2
	s5.2-0.9,5.3-1.2L33.8,28.2z M33.8,25.9c-3.4,1.2-7.1,1.2-10.5,0v0.9c0.1,0.3,1.8,1.2,5.3,1.2s5.2-0.9,5.3-1.2L33.8,25.9z M5.7,14.5
	h4.2c0.3,0,0.5-0.2,0.5-0.5s-0.2-0.5-0.5-0.5H5.5c-0.1,0-0.3,0.1-0.4,0.1l-2.6,2.5c-0.1,0.1-0.1,0.3-0.1,0.4v4.2
	c0,0.1,0,0.2,0.1,0.3l2.4,2.6c0.1,0.1,0.2,0.2,0.4,0.2h4.6c0.3,0,0.5-0.2,0.5-0.5s-0.2-0.5-0.5-0.5l0,0H5.4l-2.1-2.3v-3.8L5.7,14.5z
	 M14.2,19.2h0.6c0.2,0,0.3,0.1,0.3,0.1s-0.1,0.1-0.3,0.1h-1.5c-0.3,0-0.6,0.3-0.6,0.6c0,0,0,0,0,0c0,0.3,0.3,0.6,0.6,0.6h0.6
	c0,0.3,0.3,0.6,0.6,0.6c0.3,0,0.6-0.3,0.6-0.6c0,0,0,0,0,0l0,0v0c0.6-0.1,1.1-0.6,1.2-1.3c0-0.8-0.7-1.4-1.5-1.3h-0.6
	c-0.2,0-0.3-0.1-0.3-0.1s0.1-0.1,0.3-0.1h1.5c0.3,0,0.6-0.3,0.6-0.6s-0.3-0.6-0.6-0.6h-0.6c0-0.3-0.3-0.6-0.6-0.6c0,0,0,0,0,0
	c-0.3,0-0.6,0.3-0.6,0.6l0,0v0c-0.6,0.1-1.1,0.6-1.2,1.3C12.8,18.7,13.5,19.2,14.2,19.2z"/>
</svg>
