<?xml version="1.0" encoding="utf-8"?>
<!-- Generator: Adobe Illustrator 21.1.0, SVG Export Plug-In . SVG Version: 6.00 Build 0)  -->
<svg version="1.1" id="Layer_1" xmlns="http://www.w3.org/2000/svg" xmlns:xlink="http://www.w3.org/1999/xlink" x="0px" y="0px"
	 viewBox="0 0 22 35" style="enable-background:new 0 0 22 35;" xml:space="preserve">
<path d="M11,35C4.9,35,0,30.1,0,24V11C0,4.9,4.9,0,11,0s11,4.9,11,11v13C22,30.1,17.1,35,11,35z M11,2c-5,0-9,4-9,9v13c0,5,4,9,9,9
	s9-4,9-9V11C20,6,16,2,11,2z"/>
<g>
	<path d="M11,28c-0.8,0-1.5-0.7-1.5-1.5v-9c0-0.8,0.7-1.5,1.5-1.5s1.5,0.7,1.5,1.5v9C12.5,27.3,11.8,28,11,28z"/>
	<path d="M11,12.1c-0.8,0-1.5-0.7-1.5-1.5V8.5C9.5,7.7,10.2,7,11,7s1.5,0.7,1.5,1.5v2.1C12.5,11.4,11.8,12.1,11,12.1z"/>
</g>
</svg>
