<?xml version="1.0" encoding="utf-8"?>
<!-- Generator: Adobe Illustrator 21.1.0, SVG Export Plug-In . SVG Version: 6.00 Build 0)  -->
<svg version="1.1" id="Layer_1" xmlns="http://www.w3.org/2000/svg" xmlns:xlink="http://www.w3.org/1999/xlink" x="0px" y="0px"
	 viewBox="0 0 30 29.6" style="enable-background:new 0 0 30 29.6;" xml:space="preserve">
<path id="Tracé_5657" d="M9.8,29.6c0.4,0,0.7,0,1.1-0.1c0.1,0,0.2,0,0.3-0.1c0.6-0.1,1.3-0.4,1.8-0.7c1.8-1.1,3.2-2.9,3.8-5
	c0.2-0.8,0.4-1.5,0.5-2.3c0.2,0,0.5,0,0.7,0c1.6,0,3.2-0.5,4.6-1.3c2.1-1.2,3.8-2.8,5.1-4.9c3-4.7,3.1-10.3,0.2-13.4
	c-0.5-0.5-1.1-0.9-1.7-1.3c-2.1-1-4.6-0.9-6.7,0.1c-2.5,1.1-4.6,3-6.1,5.3c-0.5,0.7-0.9,1.5-1.2,2.3c-1.3-1-2.9-1.6-4.5-1.6
	c-0.5,0-1,0-1.5,0.1C6,6.7,5.8,6.8,5.5,6.9c-2.2,0.8-3.9,2.6-4.7,4.8c-1,2.6-1.1,5.4-0.5,8.1C1.6,25.6,5.6,29.6,9.8,29.6L9.8,29.6z
	 M27.5,3c1.1,1.4,1.6,3.2,1.5,5c-0.2,4.7-2.8,8.9-6.9,11.3c-1.4,0.8-3.1,1.2-4.7,1.1c2.9-2.3,4.9-5.6,5.5-9.2c0.5-2.9,1.9-5.6,4-7.6
	L27.5,3z M25.2,2.5L26,1.7c0.1,0,0.1,0.1,0.2,0.1c0.2,0.1,0.4,0.3,0.6,0.4l-0.6,0.6C23.9,5,22.4,7.9,21.9,11c-0.5,3.2-2.2,6-4.6,8.1
	c0-0.4,0-0.8-0.1-1.2c2.1-2.2,3.4-4.9,4-7.8C21.7,7.2,23.1,4.6,25.2,2.5z M14.2,6.7C17,2.4,21.6,0.2,25,1.3l-0.5,0.5
	C22.2,4,20.7,6.9,20.2,10c-0.4,2.5-1.5,4.8-3.2,6.7c0-0.1,0-0.2-0.1-0.3c-0.6-2.8-2-5.3-4-7.3C13.3,8.2,13.7,7.4,14.2,6.7L14.2,6.7z
	 M8.2,8.6V7.8c1.8,0.2,3.4,1.1,4.6,2.4c3.2,3.6,4.4,8.6,3,13.2c-0.4,1.5-1.3,2.8-2.4,3.8c0.4-3.7-0.5-7.4-2.6-10.4
	c-1.7-2.4-2.6-5.2-2.6-8.1C8.2,8.7,8.2,8.6,8.2,8.6L8.2,8.6z M6.2,9V7.9c0.1,0,0.1,0,0.2-0.1c0.2-0.1,0.5-0.1,0.7-0.1v0.8
	c0,0.1,0,0.1,0,0.2c0,3.1,1,6.1,2.7,8.7c2,2.9,2.9,6.4,2.5,9.8l0,0.8c-0.3,0.2-0.6,0.3-0.9,0.4l0.1-0.5c0.1-0.6,0.1-1.3,0.1-1.9
	c0-3.1-1-6.1-2.8-8.7C7.1,14.8,6.2,12,6.2,9L6.2,9z M5.2,8.3V9c0,3.2,0.9,6.2,2.8,8.8c1.7,2.4,2.6,5.2,2.6,8.1c0,0.6,0,1.2-0.1,1.8
	l-0.1,0.9c-2,0.1-3.9-0.6-5.3-2c-1.9-1.8-3.2-4.2-3.7-6.7C0.3,14.8,1.9,9.9,5.2,8.3L5.2,8.3z"/>
<path id="Tracé_5658" d="M17.2,6.2c0.1,0,0.2,0,0.3-0.1c0.2-0.2,0.4-0.4,0.7-0.6c0.2-0.2,0.3-0.5,0.1-0.7s-0.5-0.3-0.7-0.1
	c-0.2,0.2-0.5,0.4-0.7,0.6s-0.2,0.5,0,0.7C16.9,6.2,17,6.2,17.2,6.2L17.2,6.2z"/>
<path id="Tracé_5659" d="M14.6,9.3c0.2,0.1,0.5,0,0.7-0.2l0,0c0.3-0.6,0.7-1.2,1.1-1.8c0.2-0.2,0.1-0.5-0.1-0.7
	c-0.2-0.2-0.5-0.1-0.7,0.1l0,0c-0.5,0.6-0.9,1.3-1.3,2C14.3,8.9,14.4,9.2,14.6,9.3z"/>
<path id="Tracé_5660" d="M4.9,24.8C5.1,25,5.4,25,5.6,24.9c0.2-0.2,0.2-0.5,0.1-0.7l0,0c-0.2-0.2-0.4-0.4-0.5-0.7
	c-0.2-0.2-0.5-0.3-0.7-0.1s-0.3,0.5-0.1,0.7C4.5,24.4,4.7,24.6,4.9,24.8z"/>
<path id="Tracé_5661" d="M6.2,26.1c0.6,0.5,1.2,1,1.9,1.3c0.2,0.1,0.5,0,0.7-0.2c0.1-0.2,0-0.5-0.2-0.7l0,0
	c-0.6-0.3-1.2-0.8-1.8-1.2c-0.2-0.2-0.5-0.2-0.7,0.1C5.9,25.6,5.9,25.9,6.2,26.1L6.2,26.1L6.2,26.1z"/>
</svg>
