<?xml version="1.0" encoding="utf-8"?>
<!-- Generator: Adobe Illustrator 21.1.0, SVG Export Plug-In . SVG Version: 6.00 Build 0)  -->
<svg version="1.1" id="Layer_1" xmlns="http://www.w3.org/2000/svg" xmlns:xlink="http://www.w3.org/1999/xlink" x="0px" y="0px"
	 viewBox="0 0 63 2" style="enable-background:new 0 0 63 2;" xml:space="preserve">
<g id="separateur" transform="translate(1 1)">
	<g>
		<line id="Ligne_48_1_" x1="0" y1="0" x2="32" y2="0"/>
		<path d="M32,1H0c-0.6,0-1-0.4-1-1s0.4-1,1-1h32c0.6,0,1,0.4,1,1S32.6,1,32,1z"/>
	</g>
	<g>
		<line id="Ligne_49_1_" x1="42" y1="0" x2="48" y2="0"/>
		<path d="M48,1h-6c-0.6,0-1-0.4-1-1s0.4-1,1-1h6c0.6,0,1,0.4,1,1S48.6,1,48,1z"/>
	</g>
	<g>
		<line id="Ligne_50_1_" x1="58" y1="0" x2="61" y2="0"/>
		<path d="M61,1h-3c-0.6,0-1-0.4-1-1s0.4-1,1-1h3c0.6,0,1,0.4,1,1S61.6,1,61,1z"/>
	</g>
</g>
</svg>
