<?xml version="1.0" encoding="utf-8"?>
<!-- Generator: Adobe Illustrator 21.1.0, SVG Export Plug-In . SVG Version: 6.00 Build 0)  -->
<svg version="1.1" id="Layer_1" xmlns="http://www.w3.org/2000/svg" xmlns:xlink="http://www.w3.org/1999/xlink" x="0px" y="0px"
	 viewBox="0 0 30 24" style="enable-background:new 0 0 30 24;" xml:space="preserve">
<path id="Tracé_5642" d="M5.3,24v-6.6l-0.4-0.1C2.1,16.7,0,14.2,0,11.4C0,9.1,2.9,4,5.4,0.4c0.1-0.2,0.4-0.3,0.7-0.3
	s0.5,0.1,0.7,0.3c2.5,3.6,5.4,8.7,5.4,11c0,2.9-2,5.4-4.9,5.9l-0.4,0.1V24H5.3z M6.9,11.8v4l0.7-0.2c1.8-0.6,3-2.3,3-4.2
	c0-2-3.1-7-4-8.5L6.2,2.2L5.8,2.9c-0.9,1.5-4,6.5-4,8.5c0,1.9,1.2,3.6,3,4.2l0.7,0.2v-4l-1.7-0.9l0.7-1.4l1,0.5V6.5h1.6V10l1-0.5
	l0.7,1.4L6.9,11.8z"/>
<rect id="Rectangle_2391" x="21.1" y="4.6" transform="matrix(0.7071 -0.7071 0.7071 0.7071 -4.3877 19.9309)" width="1.6" height="21.3"/>
<rect id="Rectangle_2392" x="17.9" y="12.5" transform="matrix(0.7011 -0.7131 0.7131 0.7011 -7.6546 18.8534)" width="1.6" height="12.1"/>
<rect id="Rectangle_2393" x="13.3" y="17.3" transform="matrix(0.6853 -0.7283 0.7283 0.6853 -10.5698 16.7857)" width="1.6" height="6.6"/>
</svg>
