<?xml version="1.0" encoding="utf-8"?>
<!-- Generator: Adobe Illustrator 21.1.0, SVG Export Plug-In . SVG Version: 6.00 Build 0)  -->
<svg version="1.1" id="Layer_1" xmlns="http://www.w3.org/2000/svg" xmlns:xlink="http://www.w3.org/1999/xlink" x="0px" y="0px"
	 viewBox="0 0 30 10.6" style="enable-background:new 0 0 30 10.6;" xml:space="preserve">
<path id="ver_a_soie" d="M30,7.4c-0.5-1.9-2.1-3.4-4.1-3.6l-12-1.3c-1.6-0.2-3.1-0.6-4.5-1.3l-1-0.5c-2.8-1.4-6.2-0.6-8,1.9
	C0.1,2.9,0,3.2,0,3.6h0V6c0,0.3,0.2,0.7,0.6,0.8c0.1,0,0.2,0,0.3-0.1c0.4-0.8,1.2-1.1,2-0.8l0.9,0.3L3.5,6.8c-0.1,0.3,0,0.6,0.3,0.7
	c0.2,0.1,0.4,0,0.6-0.1l0.6-0.7L6,7.1L5.6,7.9c-0.1,0.3,0,0.6,0.3,0.7c0.2,0.1,0.4,0,0.6-0.1l0.7-0.8c0.3,0.1,0.7,0.2,1,0.3L7.8,8.9
	c-0.1,0.3,0,0.6,0.3,0.7c0.2,0.1,0.4,0,0.6-0.1l1-1.2c0.7,0.1,1.3,0.2,2,0.2l0.2,1.7c0,0.3,0.3,0.5,0.6,0.4c0.2,0,0.4-0.2,0.4-0.4
	l0.2-1.7h1.8l0.2,1.7c0,0.3,0.3,0.5,0.6,0.4c0.2,0,0.4-0.2,0.4-0.4l0.2-1.7h1.8l0.2,1.7c0,0.3,0.3,0.5,0.6,0.4
	c0.2,0,0.4-0.2,0.4-0.4l0.2-1.7h1.8l0.2,1.7c0,0.3,0.3,0.5,0.6,0.4c0.2,0,0.4-0.2,0.4-0.4l0.2-1.7h1.9l0.1,1.3
	c0,0.3,0.3,0.5,0.6,0.4c0.2,0,0.4-0.2,0.4-0.4L26,8.5h3.1c0.5,0,0.9-0.4,0.9-0.9C30,7.5,30,7.4,30,7.4L30,7.4z"/>
</svg>
