<?xml version="1.0" encoding="utf-8"?>
<!-- Generator: Adobe Illustrator 21.1.0, SVG Export Plug-In . SVG Version: 6.00 Build 0)  -->
<svg version="1.1" id="Layer_1" xmlns="http://www.w3.org/2000/svg" xmlns:xlink="http://www.w3.org/1999/xlink" x="0px" y="0px"
	 viewBox="0 0 30 30" style="enable-background:new 0 0 30 30;" xml:space="preserve">
<g id="amelioration_sol" transform="translate(0 0)">
	<path id="Tracé_5560" d="M29.1,14.2h-1.6v-2.9c0.1-0.1,0.2-0.2,0.3-0.3c0.4-0.4,0.7-0.8,1-1.2c0.8-1.2,1.2-2.6,1.3-4
		c0-1.4-0.5-2.8-1.3-4c-0.3-0.4-0.6-0.8-1-1.2C27.5,0.3,27.1,0,26.6,0c-0.5,0-0.9,0.3-1.2,0.7c-0.4,0.4-0.7,0.8-1,1.2
		c-0.1,0.2-0.2,0.4-0.4,0.6c-0.1-0.2-0.3-0.4-0.4-0.6c-0.3-0.4-0.6-0.8-1-1.2C22.5,0.3,22.1,0,21.6,0c-0.5,0-0.9,0.3-1.2,0.7
		c-0.4,0.4-0.7,0.8-1,1.2c-0.8,1.2-1.2,2.6-1.3,4c0,1.4,0.5,2.8,1.3,4c0.3,0.4,0.6,0.8,1,1.2c0.1,0.1,0.2,0.2,0.3,0.3v2.8h-2.4
		c-2.5,0-4.9,1.1-6.5,2.9c-1,1.1-2.4,1.7-3.8,1.7H5.3v-3.4c0.2-0.1,0.3-0.3,0.5-0.5c0.5-0.5,0.9-1.1,1.3-1.7
		c1.1-1.6,1.7-3.5,1.7-5.4c0-1.9-0.6-3.8-1.7-5.4C6.7,1.9,6.3,1.3,5.8,0.8C5.1,0.1,4.7,0,4.4,0S3.7,0.1,3,0.8
		C2.5,1.3,2.1,1.9,1.7,2.5C0.6,4.1,0,6,0,7.9c0,1.9,0.6,3.8,1.7,5.4C2.1,14,2.5,14.5,3,15c0.2,0.2,0.3,0.3,0.5,0.5v3.4H0.9
		c-0.5,0-0.9,0.4-0.9,0.9c0,0,0,0,0,0v9.4C0,29.6,0.4,30,0.9,30h28.2c0.5,0,0.9-0.4,0.9-0.9V15.1C30,14.6,29.6,14.2,29.1,14.2z
		 M1.8,7.9c0.1-2.3,1-4.4,2.6-6C6,3.5,6.9,5.7,7,7.9c-0.1,2.3-1,4.4-2.6,6C2.8,12.3,1.9,10.2,1.8,7.9z M26.6,2
		c1,1.1,1.5,2.4,1.6,3.9c-0.1,1.4-0.6,2.8-1.6,3.9c-1-1.1-1.5-2.4-1.6-3.9C25.1,4.4,25.7,3,26.6,2z M20,5.9C20.1,4.4,20.7,3,21.6,2
		c1,1.1,1.5,2.4,1.6,3.9c-0.1,1.4-0.6,2.8-1.6,3.9C20.7,8.7,20.1,7.3,20,5.9z M22.5,11.3c0.1-0.1,0.2-0.2,0.3-0.3
		c0.4-0.4,0.7-0.8,1-1.2c0.1-0.2,0.2-0.4,0.4-0.6c0.1,0.2,0.3,0.4,0.4,0.6c0.3,0.4,0.6,0.8,1,1.2c0.1,0.1,0.2,0.2,0.3,0.3v2.9h-3.2
		V11.3z M1.8,20.6H8c2,0,3.9-0.9,5.2-2.3c1.3-1.5,3.2-2.3,5.2-2.3h9.9v1.8h-9.1c-2,0-3.9,0.9-5.2,2.3c-1.3,1.5-3.2,2.3-5.2,2.3H1.8
		V20.6z M1.8,28.2v-4.1h7.1c2.5,0,4.9-1.1,6.5-2.9c1-1.1,2.4-1.7,3.8-1.7h9.1v8.8L1.8,28.2z"/>
	<circle id="Ellipse_46" cx="25.6" cy="25.6" r="0.9"/>
	<circle id="Ellipse_47" cx="19.5" cy="25.6" r="0.9"/>
	<circle id="Ellipse_48" cx="22.5" cy="22.1" r="0.9"/>
</g>
</svg>
