<?xml version="1.0" encoding="utf-8"?>
<!-- Generator: Adobe Illustrator 21.1.0, SVG Export Plug-In . SVG Version: 6.00 Build 0)  -->
<svg version="1.1" id="Layer_1" xmlns="http://www.w3.org/2000/svg" xmlns:xlink="http://www.w3.org/1999/xlink" x="0px" y="0px"
	 viewBox="0 0 24.2 49.5" style="enable-background:new 0 0 24.2 49.5;" xml:space="preserve">
<path id="ico_rechauffement_climatique" d="M15.8,32.1c-0.2-0.1-0.3-0.4-0.3-0.6c0-4.5,0-8.9,0-13.4v-7.6c0-1.9,0-3.8,0-5.7
	c-0.1-2.3-1.7-4.3-4-4.7c-1-0.1-2-0.2-3.1-0.1c-0.6,0-1.1,0.2-1.6,0.5C5,1.4,3.9,3.2,4,5.2C4,14,4,22.8,4,31.5C4,31.7,4,31.9,3.8,32
	c-2.7,2-4.1,5.4-3.7,8.7c0,0.2,0.1,0.4,0.1,0.7c0.9,5.3,6,8.9,11.3,7.9c0,0,0,0,0,0l0,0c5.3-0.9,8.9-6,7.9-11.3
	C18.9,35.7,17.7,33.6,15.8,32.1L15.8,32.1z M10.5,47.5c-4.3,0.4-8.1-2.8-8.5-7.1c0,0,0,0,0,0l0,0c-0.3-2.9,1-5.7,3.5-7.2
	C5.8,33,6,32.7,6,32.3c0-9.1,0-18.1,0-27.2C5.9,3.7,6.9,2.3,8.4,2c0.9-0.1,1.9-0.1,2.8,0c1.4,0.3,2.4,1.6,2.4,3c0,1.5,0,3.1,0,4.6
	v9.1c0,4.6,0,9.2,0,13.7c0,0.3,0.1,0.5,0.3,0.6c3.7,2.3,4.8,7.1,2.5,10.7C15.1,46,12.9,47.3,10.5,47.5L10.5,47.5z M24.2,2v1.7h-7V2
	H24.2z M17.2,9h7v1.7h-7V9z M22.4,5.5v1.7h-5.2V5.5H22.4z M17.2,12.5h5.2v1.7h-5.2L17.2,12.5z M12.5,34c-0.3-0.1-0.4-0.3-0.4-0.6
	c0-4.5,0-19.1,0-23.6c0-0.1,0-0.1,0-0.2c0-0.9-0.8-1.5-1.6-1.5c0,0,0,0,0,0l0,0c-0.4,0-0.9,0-1.3,0C8.3,8.1,7.5,8.7,7.4,9.6
	c0,0.1,0,0.2,0,0.3v16.9c0,2.2,0,4.4,0,6.6c0,0.3-0.1,0.5-0.4,0.6c-3.2,1.5-4.5,5.3-3,8.5s5.3,4.5,8.5,3s4.5-5.3,3-8.5
	C14.9,35.7,13.8,34.6,12.5,34L12.5,34z M14.1,43C14.1,43,14.1,43,14.1,43C14,43.1,14,43.1,14,43.1c0,0-0.1,0.1-0.1,0.1
	c0,0-0.1,0-0.1,0.1c0,0-0.1,0-0.1,0c-0.1,0-0.2,0-0.2,0c0,0-0.1,0-0.1,0c0,0-0.1,0-0.1,0c0,0,0,0-0.1,0l0,0c0,0,0,0-0.1-0.1
	c0,0-0.1-0.1-0.1-0.1c0,0,0-0.1,0-0.1c0,0,0-0.1,0-0.1c0,0,0-0.1,0-0.1c0,0,0-0.1,0-0.1c0-0.1,0.1-0.1,0.1-0.2c0,0,0,0,0,0
	c0.5-0.8,0.7-1.6,0.7-2.5c0-0.9-0.3-1.8-0.8-2.6c-0.2-0.2-0.2-0.5,0-0.7c0.1-0.2,0.4-0.3,0.7-0.2c0.1,0.1,0.3,0.2,0.3,0.3
	C15.6,38.4,15.6,41.1,14.1,43L14.1,43z"/>
</svg>
