<?xml version="1.0" encoding="utf-8"?>
<!-- Generator: Adobe Illustrator 21.1.0, SVG Export Plug-In . SVG Version: 6.00 Build 0)  -->
<svg version="1.1" id="Layer_1" xmlns="http://www.w3.org/2000/svg" xmlns:xlink="http://www.w3.org/1999/xlink" x="0px" y="0px"
	 viewBox="0 0 15.1 10.7" style="enable-background:new 0 0 15.1 10.7;" xml:space="preserve">
<path id="Tracé_5803" d="M1,6.6h0.5v0.5H1V6.6z M1.8,7.4h0.5v0.5H1.8V7.4z M0.2,7.4h0.5v0.5H0.2V7.4z M1,8.2h0.5v0.5H1V8.2z
	 M13.6,1.9V6h0.5V1.9l0.6,0.6l0.4-0.4l-1.1-1.1C14,1,13.8,1,13.7,1.1l-1.1,1.1L13,2.5L13.6,1.9z M1,1.9V6h0.5V1.9l0.6,0.6l0.4-0.4
	L1.4,1.1C1.3,1,1.2,1,1.1,1.1L0,2.2l0.4,0.4L1,1.9z M13.6,6.6h0.5v0.5h-0.5V6.6z M14.4,7.4H15v0.5h-0.5V7.4z M12.9,7.4h0.5v0.5h-0.5
	L12.9,7.4z M13.6,8.2h0.5v0.5h-0.5V8.2z M7.9,7.3c1.3,0.7,3,0.2,3.7-1.1c0,0,0,0,0,0c0.7-1.3,0.2-3-1.1-3.7c0,0,0,0,0,0
	c-0.1,0-0.1-0.1-0.2-0.1C10.1,0.8,8.7-0.2,7.2,0c0,0,0,0,0,0C6,0.2,5,1.1,4.9,2.3C3.5,3,2.8,4.6,3.5,6c0,0,0,0,0,0
	c0.6,1.4,2.2,2,3.6,1.4c0.1,0,0.1-0.1,0.2-0.1v2.8H3.8v0.7h7.5v-0.7H7.9V7.3z M6,7c-1.2,0-2.2-1-2.2-2.1c0,0,0,0,0,0
	c0-0.9,0.6-1.7,1.4-2l0.2-0.1l0-0.2c0.1-1.2,1.1-2.1,2.3-2c1.1,0.1,1.9,0.9,2,2l0,0.2l0.2,0.1c1.1,0.4,1.7,1.6,1.3,2.7
	c-0.4,1.1-1.6,1.7-2.7,1.3C8.3,6.8,8,6.7,7.9,6.6V4.8l1.3-0.7L8.9,3.5l-1,0.6V2.9H7.3v2.5l-1-0.6L6,5.4l1.3,0.7v0.5
	C6.9,6.9,6.4,7,6,7L6,7z"/>
</svg>
