<?xml version="1.0" encoding="utf-8"?>
<!-- Generator: Adobe Illustrator 21.1.0, SVG Export Plug-In . SVG Version: 6.00 Build 0)  -->
<svg version="1.1" id="Layer_1" xmlns="http://www.w3.org/2000/svg" xmlns:xlink="http://www.w3.org/1999/xlink" x="0px" y="0px"
	 viewBox="0 0 15 15.1" style="enable-background:new 0 0 15 15.1;" xml:space="preserve">
<path id="icon_trees" d="M11.9,12.4c1.7,0,3.1-1.3,3.1-3c0-1-0.5-2-1.3-2.6c0.3-0.4,0.4-0.9,0.4-1.4c0-1.1-0.8-2.2-1.9-2.5
	c0.1-0.2,0.1-0.4,0.1-0.6c0.1-1.2-0.9-2.2-2.1-2.3S8,0.9,7.9,2.1c0,0.1,0,0.1,0,0.2c0,0.2,0,0.4,0.1,0.6C7.6,3,7.2,3.3,6.9,3.6
	c0,0-0.1,0.1-0.1,0.1C6.2,2.4,5.3,1.2,4.3,0.2C4.1,0,3.9,0,3.7,0.2C3.6,0.3,0.9,2.8,0.9,4.9c0,0.1,0,0.2,0,0.3C0.3,6.1,0,7,0,8
	c-0.1,2.1,1.4,4,3.5,4.4v1.8H0.4c-0.2,0-0.4,0.2-0.4,0.4s0.2,0.4,0.4,0.4h14.1c0.2,0,0.4-0.2,0.4-0.4s-0.2-0.4-0.4-0.4h-4v-1.8H11.9
	z M14.1,9.3c0,1.2-1,2.2-2.2,2.2h-1.3v-2l2.6-2C13.8,7.9,14.1,8.6,14.1,9.3L14.1,9.3z M11.6,3.6c0.9,0.1,1.6,0.8,1.6,1.7
	c0,0.9-0.6,1.2-0.6,1.4l-2,1.6V4.3L11.6,3.6C11.5,3.6,11.6,3.6,11.6,3.6L11.6,3.6z M7,7.4L4.4,9.3V6.9l1.9-1.2
	C6.7,6.2,6.9,6.8,7,7.4L7,7.4z M7,8.5c-0.1,1.5-1.2,2.7-2.6,3v-1.1L7,8.5z M3.5,11.5C1.9,11.1,0.8,9.7,0.9,8c0-0.6,0.1-1.1,0.4-1.7
	l2.3,2.3V11.5z M4,3.6c-0.2,0-0.4,0.2-0.4,0.4v0v3.3L1.8,5.6c0.1-0.2,0-0.3,0-0.7c0-1.3,1.4-3,2.2-3.8c0.8,0.8,2,2.3,2.2,3.6
	L4.4,5.9V4.1C4.4,3.8,4.2,3.6,4,3.6L4,3.6z M9.7,14.2H4.4v-1.8c0.7-0.1,1.3-0.4,1.9-0.8c0.6,0.5,1.3,0.8,2.1,0.8h1.3V14.2z
	 M9.7,11.5H8.4c-0.5,0-1.1-0.2-1.5-0.6c0.9-1.1,1.2-2.6,0.9-4.1l1.9,0.9L9.7,11.5z M9.9,3.7C9.8,3.8,9.7,3.9,9.7,4.1v2.8L7.3,5.7
	C7.2,5.5,7.2,5.4,7.1,5.3c0-0.9,0.7-1.6,1.6-1.6c0.2,0,0.4-0.2,0.4-0.5C9.1,3.1,9,3,9,3C8.9,2.8,8.8,2.5,8.8,2.3
	C8.8,1.6,9.4,1,10.1,1c0.7,0,1.3,0.6,1.4,1.3c0,0,0,0,0,0.1c0,0.1,0,0.2,0,0.3L9.9,3.7z"/>
</svg>
