<?xml version="1.0" encoding="utf-8"?>
<!-- Generator: Adobe Illustrator 21.1.0, SVG Export Plug-In . SVG Version: 6.00 Build 0)  -->
<svg version="1.1" id="Layer_1" xmlns="http://www.w3.org/2000/svg" xmlns:xlink="http://www.w3.org/1999/xlink" x="0px" y="0px"
	 viewBox="0 0 15 15" style="enable-background:new 0 0 15 15;" xml:space="preserve">
<path id="icon_tree_money" d="M13.4,6.2c-0.1-0.7-0.5-1.4-1-2c0.1-0.2,0.1-0.5,0.1-0.7C12.5,1.6,10.9,0,9,0C8.5,0,8,0.1,7.5,0.3
	C7,0.1,6.5,0,6,0C4.1,0,2.5,1.6,2.5,3.5c0,0.2,0,0.5,0.1,0.7c-0.5,0.5-0.9,1.2-1,2c-1.3,0.5-1.9,2-1.4,3.3c0.5,1.3,2,1.9,3.3,1.4
	c0.3-0.1,0.7-0.4,0.9-0.6c0.7,0.1,1.5,0.1,2.2-0.3v2.4c0,0.8-0.3,1.6-0.9,2.2c-0.1,0.1-0.1,0.3,0,0.4c0,0,0,0,0,0
	c0,0,0.1,0.1,0.2,0.1H7c0.1,0,0.1,0,0.2-0.1l0.3-0.3l0.3,0.3C7.9,15,7.9,15,8,15h1.2c0.1,0,0.3-0.1,0.3-0.3c0-0.1,0-0.1-0.1-0.2
	c-0.6-0.6-0.9-1.4-0.9-2.2V9.9c0.7,0.3,1.4,0.4,2.2,0.3c0.9,1,2.5,1.1,3.5,0.2c0,0,0,0,0,0c1-0.9,1.1-2.5,0.2-3.5
	C14.1,6.6,13.8,6.3,13.4,6.2L13.4,6.2z M2.5,10.5c-1.1,0-2-0.9-2-2s0.9-2,2-2s2,0.9,2,2S3.6,10.5,2.5,10.5L2.5,10.5z M8.7,14.5H8.1
	l-0.4-0.4c-0.1-0.1-0.3-0.1-0.4,0l-0.4,0.4H6.3C6.8,13.9,7,13.1,7,12.3V9.6c0.2-0.1,0.3-0.3,0.5-0.4C7.7,9.4,7.8,9.5,8,9.6v2.7
	C8,13.1,8.3,13.9,8.7,14.5L8.7,14.5z M10,9.7c-0.9,0-1.7-0.4-2.3-1.1c-0.1-0.1-0.3-0.1-0.4,0c0,0,0,0,0,0c0,0,0,0,0,0
	C6.7,9.4,5.7,9.8,4.7,9.7C5.4,8.5,5,7,3.8,6.3C3.3,6,2.7,5.9,2.1,6C2.2,5.4,2.6,4.9,3,4.5c0.1-0.1,0.1-0.2,0.1-0.3
	C2.7,2.7,3.7,1,5.2,0.6C6,0.4,6.7,0.5,7.4,0.8c0.1,0,0.2,0,0.2,0c1.5-0.8,3.3-0.2,4,1.3c0,0,0,0,0,0c0.3,0.7,0.4,1.4,0.2,2.2
	c0,0.1,0,0.2,0.1,0.3c0.5,0.4,0.8,0.9,0.9,1.5c-1.4-0.2-2.6,0.7-2.9,2c0,0,0,0,0,0c-0.1,0.6,0,1.1,0.3,1.6C10.2,9.7,10.1,9.8,10,9.7
	L10,9.7z M12.5,10.5c-1.1,0-2-0.9-2-2s0.9-2,2-2s2,0.9,2,2S13.6,10.5,12.5,10.5L12.5,10.5z M2.5,7.7c0.1,0,0.3,0.1,0.3,0.3h0.5
	c0-0.3-0.2-0.6-0.5-0.7V7H2.3v0.3c-0.4,0.1-0.6,0.6-0.4,1c0,0,0,0,0,0c0.1,0.3,0.4,0.5,0.7,0.5c0.1,0,0.3,0.1,0.3,0.3
	S2.7,9.3,2.5,9.3S2.3,9.1,2.3,9H1.8c0,0.3,0.2,0.6,0.5,0.7V10h0.5V9.7c0.4-0.1,0.6-0.6,0.4-1c0,0,0,0,0,0C3.1,8.4,2.8,8.2,2.5,8.2
	C2.4,8.2,2.3,8.1,2.3,8C2.3,7.9,2.4,7.8,2.5,7.7L2.5,7.7z M12.5,7.7c0.1,0,0.3,0.1,0.3,0.3h0.5c0-0.3-0.2-0.6-0.5-0.7V7h-0.5v0.3
	c-0.4,0.1-0.6,0.6-0.4,1c0,0,0,0,0,0c0.1,0.3,0.4,0.5,0.7,0.5c0.1,0,0.3,0.1,0.3,0.3s-0.1,0.3-0.3,0.3S12.3,9.1,12.3,9h-0.5
	c0,0.3,0.2,0.6,0.5,0.7V10h0.5V9.7c0.4-0.1,0.6-0.6,0.4-1c0,0,0,0,0,0c-0.1-0.3-0.4-0.5-0.7-0.5c-0.1,0-0.3-0.1-0.3-0.3
	C12.3,7.9,12.4,7.8,12.5,7.7L12.5,7.7z M7.5,1.5C6.1,1.5,5,2.6,5,4s1.1,2.5,2.5,2.5S10,5.4,10,4S8.9,1.5,7.5,1.5z M7.5,6
	c-1.1,0-2-0.9-2-2s0.9-2,2-2s2,0.9,2,2S8.6,6,7.5,6z M7.5,3.3c0.1,0,0.3,0.1,0.3,0.3h0.5c0-0.3-0.2-0.6-0.5-0.7V2.5H7.3v0.3
	c-0.4,0.1-0.6,0.6-0.4,1c0,0,0,0,0,0c0.1,0.3,0.4,0.5,0.7,0.5c0.1,0,0.3,0.1,0.3,0.3c0,0.1-0.1,0.3-0.3,0.3S7.3,4.6,7.3,4.5H6.8
	c0,0.3,0.2,0.6,0.5,0.7v0.3h0.5V5.2c0.4-0.1,0.6-0.6,0.4-1c0,0,0,0,0,0C8.1,3.9,7.8,3.8,7.5,3.8c-0.1,0-0.3-0.1-0.3-0.3
	C7.3,3.4,7.4,3.3,7.5,3.3z"/>
</svg>
