<?xml version="1.0" encoding="utf-8"?>
<!-- Generator: Adobe Illustrator 21.1.0, SVG Export Plug-In . SVG Version: 6.00 Build 0)  -->
<svg version="1.1" id="Layer_1" xmlns="http://www.w3.org/2000/svg" xmlns:xlink="http://www.w3.org/1999/xlink" x="0px" y="0px"
	 viewBox="0 0 40 40" style="enable-background:new 0 0 40 40;" xml:space="preserve">
<path id="ico_vegetaliser" d="M39.3,26l-9.4-4.7c-0.6-0.3-1.3-0.1-1.6,0.5c-0.1,0.2-0.1,0.3-0.1,0.5v2.8c-8.3-4.2-7.8-4-8.2-4
	c-0.6,0-1.1,0.5-1.2,1.1c0,0.1,0-0.3,0,6h-0.2L16.1,15c-0.1-0.6-0.6-1-1.2-1h-3.2v-2.3h2.7c3.7,0,6.7-3,6.7-6.7V2c0-1.1-0.9-2-2-2
	h-3.1c-2.2,0-4.2,1.1-5.5,2.9C9.3,1.1,7.3,0,5.1,0H2C0.9,0,0,0.9,0,2v3.1c0,3.7,3,6.7,6.7,6.7h2.7v2.3H6.4c-0.6,0-1,0.4-1.2,0.9
	L2.6,28.2H1.2c-0.6,0-1.2,0.5-1.2,1.2v9.5C0,39.5,0.5,40,1.2,40c0,0,0,0,0,0h37.6c0.6,0,1.2-0.5,1.2-1.2c0,0,0,0,0,0l0,0V27
	C40,26.6,39.7,26.2,39.3,26z M16.1,2.3h2.7v2.7c0,2.4-1.9,4.3-4.3,4.3h-1.1l2.7-2.7c0.4-0.5,0.4-1.2-0.1-1.7c-0.5-0.4-1.1-0.4-1.6,0
	l-2.7,2.7V6.7C11.8,4.3,13.7,2.4,16.1,2.3z M2.4,5.1V2.3h2.7c2.4,0,4.3,1.9,4.3,4.3v1.1L6.7,5c-0.5-0.5-1.2-0.4-1.7,0
	C4.6,5.5,4.6,6.2,5,6.7l0,0l2.7,2.7H6.7C4.3,9.4,2.4,7.5,2.4,5.1L2.4,5.1z M7.3,16.4H14l2.2,11.7H5L7.3,16.4z M2.4,30.5h16.5v7.1
	H2.4V30.5z M21.2,37.7V24.2l7.1,3.5v9.9H21.2z M37.6,37.7h-7.1V24.2l7.1,3.5L37.6,37.7z M24.7,28.2c-0.6,0-1.2,0.5-1.2,1.2
	c0,0,0,0,0,0l0,0v2.3c0,0.6,0.6,1.2,1.2,1.1c0.6,0,1.1-0.5,1.1-1.1v-2.3C25.9,28.7,25.4,28.2,24.7,28.2
	C24.7,28.2,24.7,28.2,24.7,28.2L24.7,28.2z M34.1,32.9c0.6,0,1.2-0.5,1.2-1.2c0,0,0,0,0,0l0,0v-2.3c0-0.6-0.6-1.2-1.2-1.1
	c-0.6,0-1.1,0.5-1.1,1.1v2.3C32.9,32.3,33.5,32.9,34.1,32.9C34.1,32.9,34.1,32.9,34.1,32.9L34.1,32.9z"/>
</svg>
