<?xml version="1.0" encoding="utf-8"?>
<!-- Generator: Adobe Illustrator 21.1.0, SVG Export Plug-In . SVG Version: 6.00 Build 0)  -->
<svg version="1.1" id="Layer_1" xmlns="http://www.w3.org/2000/svg" xmlns:xlink="http://www.w3.org/1999/xlink" x="0px" y="0px"
	 viewBox="0 0 40 36.4" style="enable-background:new 0 0 40 36.4;" xml:space="preserve">
<path id="ico_verdoyant" d="M22.1,17c-0.3-0.4-0.3-0.9,0-1.2l2-2c-0.8-1.1-1.3-2.5-1.4-3.9c0.1-1.9,0.9-3.8,2.4-5.1
	C28.2,1.6,37.6,0.1,38,0c0.3,0,0.6,0.1,0.8,0.2C39,0.5,39.2,0.7,39.1,1c0,0.5-1.5,9.8-4.7,12.9c-1.3,1.5-3.1,2.4-5.1,2.5
	c-0.4,0-0.8,0-1.2-0.1c-0.5-0.1-0.8-0.6-0.7-1.1c0.1-0.5,0.6-0.8,1.1-0.7c0,0,0,0,0,0c1.5,0.4,3.1-0.3,4.6-1.8c1.9-2,3.4-7.5,4-10.6
	c-3.2,0.6-8.7,2.1-10.7,4c-1.1,0.9-1.7,2.3-1.8,3.7c0,0.9,0.4,1.9,0.9,2.6l3.9-3.9c0.4-0.4,0.9-0.4,1.3,0c0.4,0.4,0.4,0.9,0,1.3
	L23.4,17l0,0C23,17.4,22.4,17.4,22.1,17L22.1,17z M13.4,11.6h0.3c0.4,0,0.7-0.3,0.9-0.6c0.2-0.5-0.1-1-0.5-1.2
	c-0.5-0.2-1-0.5-1.4-0.9c-1.1-1.1-1.9-4-2.3-6c1.9,0.5,4.9,1.3,5.9,2.3c1.1,1.1,1.4,2.2,0.8,3.2l-0.9-0.9c-0.4-0.4-0.9-0.4-1.3,0
	c-0.4,0.4-0.4,0.9,0,1.3l3.6,3.6c0.3,0.4,0.9,0.4,1.2,0l0,0c0.4-0.3,0.4-0.9,0-1.2c0,0,0,0,0,0l0,0l-1.5-1.5c1.3-1.8,1-3.9-0.8-5.7
	C15.5,2,9.9,1,9.3,0.9c-0.5-0.1-1,0.3-1.1,0.8c0,0.1,0,0.2,0,0.3c0.1,0.6,1.1,6.3,3.1,8.3C11.9,10.9,12.6,11.3,13.4,11.6L13.4,11.6z
	 M40,23.7c0,0.3-0.2,0.5-0.4,0.6l-8.5,6.4c-1.7,1.2-3.7,2-5.8,2.3l-12.8,1.5c-0.4,0.1-0.8,0.1-1.3,0.1h-5c-0.4,1.1-1.4,1.8-2.5,1.8
	H0.9C0.4,36.4,0,36,0,35.5s0.4-0.9,0.9-0.9h2.7c0,0,0.1,0,0.1,0c0.5,0,0.8-0.4,0.8-0.9c0,0,0,0,0,0v-5.5c0,0,0-0.1,0-0.1
	c0-0.5-0.4-0.8-0.9-0.8c0,0,0,0,0,0H0.9c-0.5,0-0.9-0.4-0.9-0.9s0.4-0.9,0.9-0.9h2.7c0.8,0,1.6,0.4,2.1,1.1l3.2-3.6
	c1.5-1.8,3.8-2.8,6.2-2.8h9.5c1,0,1.8,0.8,1.8,1.8c0,1-0.3,1.9-0.9,2.7c1.2-0.1,2.3-0.4,3.4-0.8l3.8-1.8c2.3-1.3,5.2-0.9,7.1,1
	C39.9,23.2,40,23.5,40,23.7z M37.6,23.6c-1.3-0.8-2.9-0.8-4.2-0.1l-3.9,1.8c-1.4,0.7-2.9,1-4.4,1h-8.8c-0.5,0-0.9-0.4-0.9-0.9
	s0.4-0.9,0.9-0.9h5.5c1.5,0,2.7-1.2,2.6-2.7h-9.4c-1.8,0-3.6,0.8-4.8,2.2l-4,4.5v4.2h4.8c0.4,0,0.7-0.1,1.1-0.1l12.8-1.5
	c1.8-0.2,3.5-0.8,4.9-1.9L37.6,23.6z"/>
</svg>
