<?xml version="1.0" encoding="utf-8"?>
<!-- Generator: Adobe Illustrator 21.1.0, SVG Export Plug-In . SVG Version: 6.00 Build 0)  -->
<svg version="1.1" id="Layer_1" xmlns="http://www.w3.org/2000/svg" xmlns:xlink="http://www.w3.org/1999/xlink" x="0px" y="0px"
	 viewBox="0 0 40 40" style="enable-background:new 0 0 40 40;" xml:space="preserve">
<g id="logo_benevoles" transform="translate(-254.5 -2635)">
	<path id="_033-handshake" d="M293.3,2646.9h-17.7v-2.3h1.2c4.6-0.1,8.2-3.8,8.2-8.4c0-0.6-0.5-1.2-1.2-1.2h-2.3
		c-2.9,0-5.6,1.6-7,4.1c-1.5-2.5-4.1-4.1-7-4.1h-2.3c-0.6,0-1.2,0.5-1.2,1.2c0,4.6,3.6,8.3,8.2,8.4h1.2v2.3h-17.7
		c-0.6,0-1.2,0.5-1.2,1.2v11.7c0,0.6,0.5,1.2,1.2,1.2c0,0,0,0,0,0h1.6c-1.3,1.3-1.2,3.4,0.1,4.7c0,0,0.1,0,0.1,0.1
		c0.6,0.6,1.4,1,2.3,1c0.1,1.8,1.5,3.2,3.3,3.3c0.1,1.9,1.8,3.4,3.7,3.3c0.5,0,1.1-0.2,1.6-0.5c0.8,1.8,2.8,2.6,4.6,1.8
		c0.4-0.2,0.8-0.4,1.1-0.7l0.4-0.4l0,0c1.4,1.4,3.6,1.4,4.9,0l0,0c0.3-0.3,0.5-0.6,0.7-1c1.6,1.2,3.8,0.8,4.9-0.7
		c0.4-0.6,0.6-1.2,0.7-1.9c1.8-0.1,3.2-1.5,3.3-3.3c1.9-0.1,3.4-1.8,3.3-3.7c0-0.7-0.3-1.4-0.7-1.9h1.6c0.6,0,1.2-0.5,1.2-1.2V2648
		C294.5,2647.4,294,2646.9,293.3,2646.9L293.3,2646.9L293.3,2646.9z M281.5,2637.3h1.1c-0.5,2.8-2.9,4.8-5.7,4.8h-1.1
		C276.3,2639.4,278.7,2637.4,281.5,2637.3L281.5,2637.3z M272.2,2642.2c-2.8-0.1-5.2-2.1-5.7-4.8h1.1c2.8,0.1,5.2,2.1,5.7,4.8H272.2
		z M259.2,2664c-0.5-0.3-0.6-1-0.2-1.4c0.1-0.1,0.1-0.2,0.2-0.2l1.4-1.4h1.3l1,1l-2.1,2.1C260.4,2664.5,259.6,2664.5,259.2,2664z
		 M262.1,2666.5c0-0.3,0.1-0.6,0.3-0.8l2.1-2.1l1.7,1.7l-2.1,2.1c-0.5,0.5-1.2,0.5-1.7,0C262.3,2667.1,262.1,2666.8,262.1,2666.5
		L262.1,2666.5z M267.5,2670.7c-0.4,0.5-1.2,0.5-1.7,0.1c-0.5-0.4-0.5-1.2-0.1-1.7c0,0,0.1-0.1,0.1-0.1l2.1-2.1l1.7,1.7
		L267.5,2670.7z M272.4,2672.3c-0.5,0.5-1.2,0.5-1.7,0c-0.5-0.5-0.5-1.2,0-1.7l0.4-0.4l1.7,1.7L272.4,2672.3z M289.7,2663.9
		c-0.5,0.5-1.2,0.5-1.7,0l-6.4-6.4c-0.4-0.5-1.2-0.5-1.7,0c-0.5,0.4-0.5,1.2,0,1.7c0,0,0,0,0,0l6.4,6.4c0.5,0.5,0.5,1.2,0,1.7
		c-0.5,0.5-1.2,0.5-1.7,0l0,0l0,0l-6.4-6.4c-0.5-0.4-1.2-0.4-1.7,0c-0.4,0.5-0.4,1.2,0,1.6l6.4,6.4c0.5,0.4,0.5,1.2,0,1.7
		s-1.2,0.5-1.7,0c0,0,0,0,0,0l-6.4-6.4c-0.5-0.4-1.2-0.4-1.7,0c-0.4,0.5-0.4,1.2,0,1.6l4.5,4.5c0.4,0.4,0.4,1.2,0,1.6c0,0,0,0,0,0
		l0,0c-0.4,0.4-1.2,0.4-1.6,0c-0.1-0.1-11.6-11.6-13-12.9c-0.2-0.2-0.5-0.3-0.8-0.3h-5.5v-9.4H267l-2.8,2.8c-1.4,1.4-1.3,3.6,0.1,5
		c1.4,1.3,3.5,1.3,4.9,0l2.9-2.9c3,2.2,7,2.5,10.3,0.8l7.3,7.3C290.2,2662.7,290.2,2663.4,289.7,2663.9
		C289.7,2663.9,289.7,2663.9,289.7,2663.9L289.7,2663.9z M292.2,2658.6h-2.8l-5.9-5.9c-0.4-0.4-1-0.5-1.5-0.2
		c-2.9,1.8-6.7,1.5-9.2-0.8c-0.5-0.4-1.2-0.4-1.6,0l-3.6,3.6c-0.5,0.4-1.2,0.4-1.7,0c-0.4-0.5-0.4-1.2,0-1.6l4.4-4.4h21.8V2658.6z"
		/>
</g>
</svg>
