<?xml version="1.0" encoding="utf-8"?>
<!-- Generator: Adobe Illustrator 21.1.0, SVG Export Plug-In . SVG Version: 6.00 Build 0)  -->
<svg version="1.1" id="Layer_1" xmlns="http://www.w3.org/2000/svg" xmlns:xlink="http://www.w3.org/1999/xlink" x="0px" y="0px"
	 viewBox="0 0 70 70" style="enable-background:new 0 0 70 70;" xml:space="preserve">
<rect id="Rectangle_2379" x="32.9" y="48.3" width="4.2" height="4.2"/>
<rect id="Rectangle_2378" x="32.9" y="12.6" width="4.2" height="31.5"/>
<path d="M35,2c-4.5,0-8.8,0.9-12.8,2.6c-3.9,1.7-7.5,4-10.5,7.1s-5.4,6.6-7.1,10.5C2.9,26.2,2,30.5,2,35s0.9,8.8,2.6,12.8
	c1.7,3.9,4,7.5,7.1,10.5s6.6,5.4,10.5,7.1C26.2,67.1,30.5,68,35,68s8.8-0.9,12.8-2.6c3.9-1.7,7.5-4,10.5-7.1s5.4-6.6,7.1-10.5
	C67.1,43.8,68,39.5,68,35s-0.9-8.8-2.6-12.8c-1.7-3.9-4-7.5-7.1-10.5s-6.6-5.4-10.5-7.1C43.8,2.9,39.5,2,35,2 M35,0
	c19.3,0,35,15.7,35,35S54.3,70,35,70S0,54.3,0,35S15.7,0,35,0z"/>
</svg>
