<?xml version="1.0" encoding="utf-8"?>
<!-- Generator: Adobe Illustrator 21.1.0, SVG Export Plug-In . SVG Version: 6.00 Build 0)  -->
<svg version="1.1" id="Layer_1" xmlns="http://www.w3.org/2000/svg" xmlns:xlink="http://www.w3.org/1999/xlink" x="0px" y="0px"
	 viewBox="0 0 28.7 35" style="enable-background:new 0 0 28.7 35;" xml:space="preserve">
<path id="ico_eau" d="M20.5,22c-0.4,0-0.7-0.3-0.7-0.7c0-0.4,0.3-0.7,0.7-0.7l0,0c2.3,0,4.1-1.8,4.1-4.1l0,0c0-0.4,0.3-0.7,0.7-0.7
	c0.4,0,0.7,0.3,0.7,0.7C25.9,19.6,23.5,22,20.5,22z M12.9,23.2c0.4,0.5,3.5,5.4,3.5,7.4c0,0.2,0,0.3,0,0.5c-0.1,2.3-2.1,4-4.3,3.8
	c-2.3-0.1-4-2.1-3.8-4.3c0-2,3.2-6.9,3.5-7.4l0,0c0.2-0.3,0.6-0.4,0.9-0.2C12.7,23.1,12.8,23.2,12.9,23.2z M15,30.6
	c0-1.1-1.5-3.8-2.7-5.8c-1.2,2-2.7,4.7-2.7,5.8c0,0.1,0,0.3,0,0.4c0.1,1.5,1.5,2.6,3,2.5C14,33.4,15.1,32.1,15,30.6z M9.6,20.2
	c0,2.6-2.1,4.8-4.8,4.8C2.1,25,0,22.8,0,20.2c0,0,0,0,0,0c0-2.4,3.8-8,4.2-8.6c0.2-0.3,0.6-0.4,1-0.2c0.1,0,0.1,0.1,0.2,0.2
	C5.8,12.2,9.6,17.8,9.6,20.2L9.6,20.2z M8.2,20.2c0-1.3-1.9-4.7-3.4-7c-1.5,2.3-3.4,5.6-3.4,7c0,1.9,1.5,3.4,3.4,3.4
	S8.2,22.1,8.2,20.2L8.2,20.2z M13,16.6c0.4,0,0.7-0.3,0.7-0.7s-0.3-0.7-0.7-0.7l0,0c-0.4,0-0.7,0.3-0.7,0.7S12.6,16.6,13,16.6z
	 M21.1,0.3c-0.2-0.3-0.6-0.4-0.9-0.2C20,0.2,20,0.2,19.9,0.3c-0.2,0.3-4.8,7.6-6.8,12.7c-0.1,0.4,0.1,0.7,0.4,0.9
	c0.3,0.1,0.7-0.1,0.8-0.4c1.7-4,3.7-7.9,6.1-11.6c2.3,3.8,6.8,11.6,6.8,14.6c0,3.8-3.1,6.8-6.8,6.8c-3.1,0-5.7-2-6.6-5
	c-0.1-0.4-0.5-0.6-0.9-0.4c-0.3,0.1-0.5,0.5-0.5,0.8c1.2,4.4,5.7,6.9,10.1,5.7c3.5-1,6-4.2,6-7.9C28.7,12.8,23,3.4,21.1,0.3z"/>
</svg>
