<?xml version="1.0" encoding="utf-8"?>
<!-- Generator: Adobe Illustrator 21.1.0, SVG Export Plug-In . SVG Version: 6.00 Build 0)  -->
<svg version="1.1" id="Layer_1" xmlns="http://www.w3.org/2000/svg" xmlns:xlink="http://www.w3.org/1999/xlink" x="0px" y="0px"
	 viewBox="0 0 16 13.1" style="enable-background:new 0 0 16 13.1;" xml:space="preserve">
<path id="Union_14" d="M13,13.1c-0.1,0-0.2-0.1-0.2-0.2v0c0-0.1,0.1-0.2,0.2-0.2l0,0h0.8c0.6,0,1.1-0.3,1.4-0.8h-2.7
	c-0.1,0-0.2-0.1-0.2-0.2l0,0c0-0.1,0.1-0.2,0.2-0.2l0,0h2.9c0.1-0.2,0.1-0.5,0.1-0.7c0.1-1-0.7-1.9-1.7-2H8.5c0.3,0.3,0.6,0.6,0.7,1
	h4.4c0.1,0,0.2,0.1,0.2,0.2l0,0c0,0.1-0.1,0.2-0.2,0.2l0,0H9.4c0,0.2,0.1,0.4,0.1,0.6c0,0.8-0.3,1.5-0.9,2H12c0.1,0,0.2,0.1,0.2,0.2
	v0c0,0.1-0.1,0.2-0.2,0.2l0,0H2.2C0.9,13-0.1,11.8,0,10.6c0-0.5,0.1-1,0.4-1.5C0.5,9,0.6,8.9,0.8,9c0.1,0.1,0.1,0.2,0.1,0.3
	c0,0,0,0,0,0c-0.2,0.4-0.4,0.8-0.3,1.2c-0.1,1,0.7,1.9,1.7,2c1-0.1,1.8-1,1.7-2c0.1-1-0.7-1.9-1.7-2c-0.3,0-0.5,0.1-0.7,0.2
	c-0.1,0.1-0.3,0-0.3-0.1c0,0,0,0,0,0c-0.1-0.1,0-0.3,0.1-0.3c0,0,0,0,0,0c0.3-0.2,0.6-0.3,1-0.3H3c-0.3-0.5-0.5-1-0.5-1.5
	C2.4,5.2,3.4,4.1,4.7,4h1.7L6.2,3.5C5.5,3.6,4.9,3.2,4.6,2.6C4.3,1.8,4.5,0.8,5,0.1C5.1,0,5.2,0,5.3,0c0.9,0.2,1.6,0.8,1.9,1.7
	C7.4,2.3,7.2,3,6.6,3.4L6.9,4h4.4c0.5,0,1,0.2,1.4,0.5c0.1,0.1,0.1,0.2,0,0.3c-0.1,0.1-0.2,0.1-0.3,0c-0.3-0.3-0.7-0.4-1-0.4H6
	c0.4,0.3,0.7,0.7,0.8,1.2h2.4c0.1,0,0.2,0.1,0.2,0.2S9.3,6.2,9.2,6.2H6.9c0,0.1,0,0.2,0,0.3c0,0.7-0.3,1.4-0.7,1.9
	c0.3-0.2,0.7-0.3,1.1-0.3h5.2c0.1-0.1,0.2-0.3,0.3-0.4H9.2C9.1,7.6,9,7.5,9,7.4c0,0,0,0,0,0c0-0.1,0.1-0.2,0.2-0.2l0,0h3.7
	c0.1-0.5,0.1-1-0.1-1.5c-0.1-0.1,0-0.3,0.1-0.3c0.1-0.1,0.3,0,0.3,0.1c0,0,0,0,0,0c0.1,0.3,0.2,0.7,0.2,1.1c0,0.6-0.2,1.1-0.5,1.5
	h0.8c1.3,0.1,2.3,1.2,2.2,2.5c0.1,1.3-0.9,2.4-2.2,2.5L13,13.1z M5.5,10.6c-0.1,1,0.7,1.9,1.7,2c1-0.1,1.8-1,1.7-2
	c0.1-1-0.7-1.9-1.7-2C6.2,8.6,5.4,9.5,5.5,10.6z M4.4,10.6c0,0.8-0.3,1.5-0.9,2h2.5c-0.6-0.5-0.9-1.2-0.9-2C5,10,5.2,9.5,5.5,9H4.7
	C4.3,9,4,8.9,3.7,8.7C4.1,9.2,4.4,9.9,4.4,10.6L4.4,10.6z M3,6.5c-0.1,1,0.7,1.9,1.7,2c1-0.1,1.8-1,1.7-2c0.1-1-0.7-1.9-1.7-2h0
	C3.7,4.6,2.9,5.5,3,6.5L3,6.5z M5.1,2.5C5.2,2.8,5.6,3,6,3L5.4,1.4c0-0.1,0-0.3,0.1-0.3c0,0,0,0,0,0c0.1,0,0.2,0,0.3,0.1l0.6,1.7
	c0.3-0.3,0.4-0.7,0.3-1.1C6.5,1.2,6,0.7,5.3,0.5C4.9,1.1,4.8,1.8,5.1,2.5L5.1,2.5z M5.8,10.6c0-0.1,0.1-0.2,0.2-0.2
	c0.1,0,0.2,0.1,0.2,0.2c0,0,0,0,0,0v0c0,0.5,0.4,1,0.9,1.1c0.5-0.1,0.9-0.5,0.9-1.1c0-0.5-0.4-1-0.9-1.1C7.1,9.5,7,9.4,7,9.2l0,0
	C7,9.1,7.1,9,7.2,9l0,0l0,0C8,9.1,8.6,9.7,8.6,10.6c0,0.8-0.6,1.5-1.4,1.6C6.4,12.1,5.8,11.4,5.8,10.6L5.8,10.6z M2,11.8
	c0-0.1,0.1-0.2,0.2-0.2c0,0,0,0,0,0l0,0c0.5-0.1,0.9-0.5,0.8-1c0-0.5-0.3-1-0.8-1c-0.5,0.1-0.9,0.5-0.8,1c0,0.1-0.1,0.2-0.2,0.2l0,0
	c-0.1,0-0.2-0.1-0.2-0.2v0c0-0.8,0.5-1.4,1.3-1.5C3,9.1,3.6,9.8,3.5,10.6C3.6,11.3,3,12,2.2,12C2.1,12,2,11.9,2,11.8
	C2,11.8,2,11.8,2,11.8L2,11.8L2,11.8z M10.2,11.7c-0.1,0-0.2-0.1-0.2-0.2l0,0c0-0.1,0.1-0.2,0.2-0.2l0,0h0.7c0.1,0,0.2,0.1,0.2,0.2
	l0,0c0,0.1-0.1,0.2-0.2,0.2l0,0H10.2z M3.4,6.5c0-0.8,0.5-1.4,1.3-1.5c0.8,0,1.4,0.7,1.3,1.5c0,0.1-0.1,0.2-0.2,0.2
	c-0.1,0-0.2-0.1-0.2-0.2c0,0,0,0,0,0c0-0.5-0.3-1-0.9-1C4.2,5.5,3.8,6,3.8,6.5c0,0.5,0.3,1,0.9,1c0.1,0,0.2,0.1,0.2,0.2S4.8,8,4.7,8
	C3.9,8,3.3,7.3,3.4,6.5L3.4,6.5z M10.6,6.2c-0.1,0-0.2-0.1-0.2-0.2c0,0,0,0,0,0c0-0.1,0.1-0.2,0.2-0.2l0,0h0.9
	c0.1,0,0.2,0.1,0.2,0.2s-0.1,0.2-0.2,0.2H10.6z"/>
</svg>
